<svg width="56" height="30" viewBox="0 0 56 30" fill="none" xmlns="http://www.w3.org/2000/svg">
<path d="M0 0H56V30H0V0Z" fill="url(#paint0_linear_5215_50179)"/>
<path d="M21.6029 17.2449V20.8636C21.6029 21.2076 21.6299 21.297 21.8589 21.4086L22.2181 21.5784V17.2449H21.6029ZM21.6029 8.40373V13.5458H22.2181V8.22503C22.1148 8.18929 22.0295 8.17142 21.9756 8.17142C21.7646 8.17142 21.6613 8.27417 21.6029 8.40373ZM13.4528 8.22949C13.345 8.19375 13.2642 8.17588 13.2058 8.17588C12.9948 8.17588 12.8915 8.27864 12.8331 8.40819V20.8725C12.8331 21.2165 12.8646 21.2925 13.0891 21.4176L13.4528 21.6141V8.22949ZM13.7492 17.2449V21.7616L14.6967 22.2709C14.9616 22.4228 14.9032 22.597 14.7326 22.7221C13.7896 23.419 12.905 24.1025 11.953 24.8844C10.323 24.174 8.19453 23.2984 6.56002 22.6819C6.28611 22.5747 6.26365 22.4004 6.48368 22.2485L7.57486 21.4801V9.84226C7.57486 9.49827 7.54342 9.42232 7.3189 9.29723L5.1635 8.14014C4.89408 7.99272 4.95694 7.81848 5.12758 7.68893C6.07057 6.99199 7.50301 5.89746 8.45947 5.11564C10.0491 5.91533 11.5893 6.63013 13.0532 7.23324C14.2252 6.62119 15.451 5.9332 16.6994 5.11564C18.1947 5.99574 19.8741 6.88031 21.2616 7.53703C22.5549 6.81329 23.9514 6.00021 25.2806 5.11564C26.951 6.06722 29.075 7.12155 30.6242 7.80955C30.8936 7.93017 30.8981 8.0642 30.7005 8.2429L30.3817 8.51988V19.291C30.3817 20.9351 30.6736 21.5784 31.5627 21.909C31.7962 21.9939 31.7872 22.1815 31.6255 22.3021C30.6781 22.9857 29.2456 24.0311 28.1185 24.8799C25.6308 24.3438 25.1234 23.1108 25.1234 20.256V10.1237C25.1234 9.77972 25.083 9.71717 24.8675 9.57868C24.3645 9.26149 23.2374 8.63157 22.5324 8.33225V13.5369H24.8001L22.5324 17.1958V21.708L23.7269 22.2664C24.0053 22.396 23.9379 22.597 23.7628 22.7176C22.8243 23.3609 21.796 24.0981 20.7408 24.8799C19.0569 24.0891 17.2876 23.3386 15.6082 22.6774C15.3343 22.5702 15.3343 22.4228 15.5319 22.2441L16.3581 21.4757V17.2405H13.7671L13.7492 17.2449ZM13.7492 8.34118V16.4452L15.5903 13.5458H16.3402V10.1327C16.3402 9.78865 16.2997 9.72611 16.0842 9.58762C15.5813 9.27042 14.4587 8.64497 13.7492 8.34118Z" fill="white"/>
<path d="M50.7098 12.3709H44.9396V6.64354C44.9396 6.47377 44.8049 6.33528 44.6298 6.33528H39.9912C39.8205 6.33528 39.6813 6.46931 39.6813 6.64354V12.3709H33.9022C33.7315 12.3709 33.5923 12.5049 33.5923 12.6791V17.303C33.5923 17.4728 33.727 17.6113 33.9022 17.6113H39.6813V23.3654C39.6813 23.5352 39.816 23.6737 39.9912 23.6737H44.6298C44.8004 23.6737 44.9396 23.5396 44.9396 23.3654V17.6113H50.7098C50.8804 17.6113 51.0196 17.4772 51.0196 17.303V12.6791C51.0196 12.5094 50.8849 12.3709 50.7098 12.3709Z" fill="white"/>
<defs>
<linearGradient id="paint0_linear_5215_50179" x1="8.3381" y1="-4.78314" x2="47.91" y2="34.516" gradientUnits="userSpaceOnUse">
<stop stop-color="#1E3264"/>
<stop offset="0.66" stop-color="#004DB3"/>
</linearGradient>
</defs>
</svg>
