<svg width="32" height="32" viewBox="0 0 32 32" fill="none" xmlns="http://www.w3.org/2000/svg">
<g clip-path="url(#clip0_24_1952)">
<path d="M24.6541 31.1111H7.34592C3.78641 31.1111 0.888916 28.2136 0.888916 24.6541V7.34592C0.888916 3.78641 3.78641 0.888916 7.34592 0.888916H16C16.3934 0.888916 16.7196 1.21512 16.7196 1.60849C16.7196 2.00186 16.3934 2.32807 16 2.32807H7.34592C4.58274 2.32807 2.32807 4.58274 2.32807 7.34592V24.6445C2.32807 27.4173 4.58274 29.6624 7.34592 29.6624H24.6445C27.4173 29.6624 29.6624 27.4077 29.6624 24.6445V15.9904C29.6624 15.5971 29.9886 15.2709 30.382 15.2709C30.7753 15.2709 31.1015 15.5971 31.1015 15.9904V24.6445C31.1015 28.204 28.204 31.1015 24.6445 31.1015L24.6541 31.1111Z" fill="black"/>
<path d="M24.2704 14.5801C20.4998 14.5801 17.4296 11.5099 17.4296 7.73929C17.4296 3.9687 20.4902 0.888916 24.2704 0.888916C28.0505 0.888916 31.1111 3.95911 31.1111 7.72969C31.1111 11.5003 28.0409 14.5705 24.2704 14.5705V14.5801Z" fill="black"/>
</g>
<defs>
<clipPath id="clip0_24_1952">
<rect width="32" height="32" fill="white"/>
</clipPath>
</defs>
</svg>
