<svg width="32" height="32" viewBox="0 0 32 32" fill="none" xmlns="http://www.w3.org/2000/svg">
<g clip-path="url(#clip0_24_43)">
<path d="M16.0067 5.00916C17.3905 5.00916 18.5123 3.88782 18.5123 2.50458C18.5123 1.12134 17.3905 0 16.0067 0C14.6228 0 13.501 1.12134 13.501 2.50458C13.501 3.88782 14.6228 5.00916 16.0067 5.00916Z" fill="black"/>
<path d="M32 18.8776V15.0674C32 10.9376 28.6414 7.56703 24.4965 7.56703H22.8838C21.4711 7.56703 20.1783 8.13988 19.2453 9.05912V8.95254C19.2453 7.52706 18.0858 6.3547 16.6464 6.3547H15.3536C14.0208 6.3547 12.9279 7.36719 12.7947 8.67277C12.0217 7.99334 11.0221 7.58035 9.90254 7.58035H7.65015C3.43857 7.58035 0 11.0042 0 15.2273V18.7444C0 21.3289 1.31945 23.5937 3.31862 24.9392C2.79883 25.2856 2.46564 25.8585 2.46564 26.5246V27.5237H2.10579C1.6793 27.5237 1.31945 27.8701 1.31945 28.3097C1.31945 28.7494 1.66597 29.0958 2.10579 29.0958H2.46564V30.0949C2.46564 31.1474 3.31862 32 4.37151 32H27.6152C28.6681 32 29.521 31.1474 29.521 30.0949V29.0958H29.8809C30.3074 29.0958 30.6672 28.7494 30.6672 28.3097C30.6672 27.8701 30.3207 27.5237 29.8809 27.5237H29.521V26.5246C29.521 25.8851 29.2012 25.3256 28.708 24.9792C30.6805 23.6736 31.9867 21.4355 31.9867 18.9042L32 18.8776ZM14.3274 8.93922C14.3274 8.36636 14.7938 7.91341 15.3536 7.91341H16.6464C17.2062 7.91341 17.6726 8.37968 17.6726 8.93922V24.5928H14.3274V8.93922ZM2.8788 22.408C2.06581 21.3955 1.57268 20.1166 1.57268 18.7311V15.214C1.57268 11.8568 4.30487 9.13905 7.65015 9.13905H9.90254C11.302 9.13905 12.4748 10.1649 12.7147 11.4971C12.3549 11.3239 11.955 11.2173 11.5152 11.2173H8.78301C5.30446 11.2173 2.47897 14.0416 2.47897 17.5187V20.2898C2.47897 21.0358 2.62557 21.7419 2.8788 22.3947V22.408ZM27.9617 27.5104H25.8159C25.3894 27.5104 25.0296 27.8568 25.0296 28.2964C25.0296 28.7361 25.3761 29.0824 25.8159 29.0824H27.9617V30.0816C27.9617 30.2681 27.8151 30.4147 27.6285 30.4147H4.38484C4.19825 30.4147 4.05164 30.2681 4.05164 30.0816V29.0824H6.19742C6.62391 29.0824 6.98376 28.7361 6.98376 28.2964C6.98376 27.8568 6.63723 27.5104 6.19742 27.5104H4.05164V26.5112C4.05164 26.3247 4.19825 26.1782 4.38484 26.1782H27.6285C27.8151 26.1782 27.9617 26.3247 27.9617 26.5112V27.5104ZM23.217 11.2173H20.4848C20.1383 11.2173 19.8184 11.2839 19.5119 11.4038C20.0583 10.0716 21.3644 9.13905 22.8838 9.13905H24.4965C27.7618 9.13905 30.4273 11.8035 30.4273 15.0674V18.8776C30.4273 20.2898 29.9075 21.582 29.0679 22.5812C29.3611 21.8751 29.521 21.1157 29.521 20.3031V17.5321C29.521 14.055 26.6955 11.2306 23.217 11.2306V11.2173Z" fill="black"/>
<path d="M18.0325 27.5104H13.9675C13.541 27.5104 13.1812 27.8568 13.1812 28.2964C13.1812 28.7361 13.5277 29.0824 13.9675 29.0824H18.0325C18.459 29.0824 18.8188 28.7361 18.8188 28.2964C18.8188 27.8568 18.4723 27.5104 18.0325 27.5104Z" fill="black"/>
</g>
<defs>
<clipPath id="clip0_24_43">
<rect width="32" height="32" fill="white"/>
</clipPath>
</defs>
</svg>
