<svg width="32" height="32" viewBox="0 0 32 32" fill="none" xmlns="http://www.w3.org/2000/svg">
<g clip-path="url(#clip0_24_1906)">
<path d="M7.22667 8.77333C7.22667 3.92 11.16 0 16 0C20.84 0 24.7733 3.92 24.7733 8.77333C24.7733 13.6267 20.8533 17.5467 16 17.5467C11.1467 17.5467 7.22667 13.6267 7.22667 8.77333ZM15.4667 24.8933C15.4667 22.76 16.1867 20.7867 17.4 19.2H8.88C3.98667 19.2 0 23.1733 0 28.08V32H18.72C16.7333 30.2667 15.4667 27.7333 15.4667 24.8933ZM32 24.8933C32 28.8133 28.8133 32 24.8933 32C20.9733 32 17.7867 28.8133 17.7867 24.8933C17.7867 20.9733 20.9733 17.7867 24.8933 17.7867C28.8133 17.7867 32 20.9733 32 24.8933ZM29.8933 24.8933C29.8933 24.2533 29.3733 23.7333 28.7333 23.7333H26.04V21.04C26.04 20.4 25.52 19.88 24.88 19.88C24.24 19.88 23.72 20.4 23.72 21.04V23.7333H21.0267C20.3867 23.7333 19.8667 24.2533 19.8667 24.8933C19.8667 25.5333 20.3867 26.0533 21.0267 26.0533H23.72V28.7467C23.72 29.3867 24.24 29.9067 24.88 29.9067C25.52 29.9067 26.04 29.3867 26.04 28.7467V26.0533H28.7333C29.3733 26.0533 29.8933 25.5333 29.8933 24.8933Z" fill="black"/>
</g>
<defs>
<clipPath id="clip0_24_1906">
<rect width="32" height="32" fill="white"/>
</clipPath>
</defs>
</svg>
