<svg width="32" height="32" viewBox="0 0 32 32" fill="none" xmlns="http://www.w3.org/2000/svg">
<g clip-path="url(#clip0_2193_74)">
<path d="M1.60619 2.59886L2.11491 2.24884C2.59371 1.91883 3.2321 1.91883 3.7109 2.24884L4.72834 2.94887C5.30689 3.34889 5.98518 3.54889 6.66348 3.54889C7.34177 3.54889 8.02006 3.34889 8.58863 2.94887L9.60608 2.24884C10.0849 1.91883 10.7233 1.91883 11.2021 2.24884L12.2195 2.94887C12.798 3.34889 13.4763 3.54889 14.1546 3.54889C14.8329 3.54889 15.5112 3.34889 16.0798 2.94887L17.0972 2.24884C17.576 1.91883 18.2144 1.91883 18.6932 2.24884L19.7107 2.94887C20.2892 3.34889 20.9675 3.54889 21.6458 3.54889C22.3241 3.54889 23.0024 3.34889 23.571 2.94887L24.5884 2.24884C25.0672 1.91883 25.7056 1.91883 26.1844 2.24884L27.2018 2.94887C27.7804 3.34889 28.4587 3.54889 29.137 3.54889C29.8153 3.54889 30.4936 3.34889 31.0621 2.94887L31.5708 2.59886C32.0197 2.28884 32.1394 1.65882 31.8202 1.2088C31.511 0.758785 30.8826 0.638781 30.4337 0.958793L29.925 1.30881C29.4462 1.63882 28.8078 1.63882 28.329 1.30881L27.3116 0.608779C26.1545 -0.191252 24.6084 -0.191252 23.4513 0.608779L22.4338 1.30881C21.955 1.63882 21.3166 1.63882 20.8378 1.30881L19.8204 0.608779C18.6633 -0.191252 17.1172 -0.191252 15.9601 0.608779L14.9427 1.30881C14.4639 1.63882 13.8255 1.63882 13.3467 1.30881L12.3292 0.608779C11.1721 -0.191252 9.62603 -0.191252 8.46894 0.608779L7.45149 1.30881C6.9727 1.63882 6.3343 1.63882 5.85551 1.30881L4.83807 0.608779C3.68098 -0.201252 2.13486 -0.201252 0.977773 0.598779L0.469053 0.948793C0.0201813 1.2588 -0.0995177 1.88883 0.21968 2.33885C0.528902 2.78886 1.15732 2.90887 1.60619 2.58886V2.59886Z" fill="black"/>
<path d="M30.3938 7.15903L29.8851 7.50905C29.4063 7.83906 28.7679 7.83906 28.2891 7.50905L27.2717 6.80902C26.1146 6.00899 24.5685 6.00899 23.4114 6.80902L22.3939 7.50905C21.9151 7.83906 21.2767 7.83906 20.7979 7.50905L19.7805 6.80902C18.6234 6.00899 17.0773 6.00899 15.9202 6.80902L14.9028 7.50905C14.424 7.83906 13.7856 7.83906 13.3068 7.50905L12.2893 6.80902C11.1322 6.00899 9.58613 6.00899 8.42904 6.80902L7.41159 7.50905C6.9328 7.83906 6.2944 7.83906 5.81561 7.50905L4.79817 6.80902C3.64108 6.00899 2.09496 6.00899 0.937874 6.80902L0.429153 7.15903C-0.0197184 7.46905 -0.139417 8.09907 0.17978 8.54909C0.489002 8.99911 1.11742 9.11911 1.56629 8.7991L2.07501 8.44908C2.55381 8.11907 3.19221 8.11907 3.671 8.44908L4.68844 9.14911C5.26699 9.54913 5.94528 9.74913 6.62358 9.74913C7.30187 9.74913 7.98016 9.54913 8.54873 9.14911L9.56618 8.44908C10.045 8.11907 10.6834 8.11907 11.1622 8.44908L12.1796 9.14911C12.7582 9.54913 13.4364 9.74913 14.1147 9.74913C14.793 9.74913 15.4713 9.54913 16.0399 9.14911L17.0573 8.44908C17.5361 8.11907 18.1745 8.11907 18.6533 8.44908L19.6708 9.14911C20.2493 9.54913 20.9276 9.74913 21.6059 9.74913C22.2842 9.74913 22.9625 9.54913 23.5311 9.14911L24.5485 8.44908C25.0273 8.11907 25.6657 8.11907 26.1445 8.44908L27.1619 9.14911C27.7405 9.54913 28.4188 9.74913 29.0971 9.74913C29.7754 9.74913 30.4537 9.54913 31.0222 9.14911L31.5309 8.7991C31.9798 8.48909 32.0995 7.85906 31.7803 7.40904C31.4711 6.95903 30.8427 6.83902 30.3938 7.15903Z" fill="black"/>
<path d="M7.95024 13.3593L7.44152 13.7093C6.96272 14.0393 6.32433 14.0393 5.84553 13.7093L4.82809 13.0093C3.671 12.2092 2.12489 12.2092 0.967799 13.0093L0.459078 13.3593C0.0102064 13.6693 -0.109493 14.2993 0.209705 14.7493C0.518927 15.1993 1.14735 15.3194 1.59622 14.9993L2.10494 14.6493C2.58373 14.3193 3.22213 14.3193 3.70093 14.6493L4.71837 15.3494C5.29691 15.7494 5.97521 15.9494 6.6535 15.9494C7.3318 15.9494 8.01009 15.7494 8.57866 15.3494L9.08738 14.9993C9.53625 14.6893 9.65595 14.0593 9.33675 13.6093C9.02753 13.1593 8.39911 13.0393 7.95024 13.3593Z" fill="black"/>
<path d="M30.3938 13.3593L29.8851 13.7093C29.4063 14.0393 28.7679 14.0393 28.2891 13.7093L27.2717 13.0093C26.1146 12.2092 24.5685 12.2092 23.4114 13.0093L22.9026 13.3593C22.4538 13.6693 22.3341 14.2993 22.6533 14.7493C22.9625 15.1993 23.5909 15.3194 24.0398 14.9993L24.5485 14.6493C25.0273 14.3193 25.6657 14.3193 26.1445 14.6493L27.1619 15.3494C27.7405 15.7494 28.4188 15.9494 29.0971 15.9494C29.7754 15.9494 30.4537 15.7494 31.0222 15.3494L31.5309 14.9993C31.9798 14.6893 32.0995 14.0593 31.7803 13.6093C31.4711 13.1593 30.8427 13.0393 30.3938 13.3593Z" fill="black"/>
<path d="M7.95024 19.5695L7.44152 19.9195C6.96272 20.2495 6.32433 20.2495 5.84553 19.9195L4.82809 19.2195C3.671 18.4195 2.12489 18.4195 0.967799 19.2195L0.459078 19.5695C0.0102064 19.8795 -0.109493 20.5096 0.209705 20.9596C0.518927 21.4096 1.14735 21.5296 1.59622 21.2096L2.10494 20.8596C2.58373 20.5296 3.22213 20.5296 3.70093 20.8596L4.71837 21.5596C5.29691 21.9596 5.97521 22.1596 6.6535 22.1596C7.3318 22.1596 8.01009 21.9596 8.57866 21.5596L9.08738 21.2096C9.53625 20.8996 9.65595 20.2695 9.33675 19.8195C9.02753 19.3695 8.39911 19.2495 7.95024 19.5695Z" fill="black"/>
<path d="M30.3938 19.5695L29.8851 19.9195C29.4063 20.2495 28.7679 20.2495 28.2891 19.9195L27.2717 19.2195C26.1146 18.4195 24.5685 18.4195 23.4114 19.2195L22.9026 19.5695C22.4538 19.8795 22.3341 20.5096 22.6533 20.9596C22.9625 21.4096 23.5909 21.5296 24.0398 21.2096L24.5485 20.8596C25.0273 20.5296 25.6657 20.5296 26.1445 20.8596L27.1619 21.5596C27.7405 21.9596 28.4188 22.1596 29.0971 22.1596C29.7754 22.1596 30.4537 21.9596 31.0222 21.5596L31.5309 21.2096C31.9798 20.8996 32.0995 20.2695 31.7803 19.8195C31.4711 19.3695 30.8427 19.2495 30.3938 19.5695Z" fill="black"/>
<path d="M4.83807 25.4297C3.68098 24.6297 2.13486 24.6297 0.977773 25.4297L0.469053 25.7798C0.0201813 26.0898 -0.0995177 26.7198 0.21968 27.1698C0.528902 27.6198 1.15732 27.7398 1.60619 27.4198L2.11491 27.0698C2.59371 26.7398 3.2321 26.7398 3.7109 27.0698L4.21962 27.4198C4.3892 27.5398 4.58869 27.5998 4.78819 27.5998C5.10739 27.5998 5.41661 27.4498 5.60613 27.1698C5.91536 26.7198 5.80563 26.0898 5.35676 25.7798L4.84804 25.4297H4.83807Z" fill="black"/>
<path d="M30.3938 25.7798L29.8851 26.1298C29.4063 26.4598 28.7679 26.4598 28.2891 26.1298L27.7804 25.7798C27.3215 25.4697 26.7031 25.5798 26.3939 26.0298C26.0846 26.4798 26.1944 27.1098 26.6432 27.4198L27.152 27.7698C27.7305 28.1698 28.4088 28.3699 29.0871 28.3699C29.7654 28.3699 30.4437 28.1698 31.0122 27.7698L31.521 27.4198C31.9698 27.1098 32.0895 26.4798 31.7703 26.0298C31.4611 25.5798 30.8327 25.4597 30.3838 25.7798H30.3938Z" fill="black"/>
<path d="M19.5211 24.8497L17.4962 26.8798V16.2594C17.4962 15.4294 16.8279 14.7593 16 14.7593C15.1721 14.7593 14.5038 15.4294 14.5038 16.2594V26.8798L12.4789 24.8497C11.8903 24.2597 10.9427 24.2597 10.3642 24.8497C9.77565 25.4397 9.77565 26.3898 10.3642 26.9698L14.9427 31.56C15.2319 31.85 15.621 32 16 32C16.379 32 16.7681 31.85 17.0573 31.56L21.6358 26.9698C22.2243 26.3798 22.2243 25.4297 21.6358 24.8497C21.0473 24.2597 20.0997 24.2597 19.5211 24.8497Z" fill="black"/>
</g>
<defs>
<clipPath id="clip0_2193_74">
<rect width="32" height="32" fill="white"/>
</clipPath>
</defs>
</svg>
