<svg width="32" height="32" viewBox="0 0 32 32" fill="none" xmlns="http://www.w3.org/2000/svg">
<path d="M27.5485 13.9428H26.1799V10.4504C26.1799 4.68314 21.4968 0 15.7206 0C9.94445 0 5.2702 4.68314 5.2702 10.4504V13.9428H3.90169C2.72868 13.9428 1.77783 14.8936 1.77783 16.0666V29.8761C1.77783 31.0492 2.72868 32 3.90169 32H27.5485C28.7215 32 29.6723 31.0492 29.6723 29.8761V16.0666C29.6723 14.8936 28.7215 13.9428 27.5485 13.9428ZM22.0744 13.9428H9.36684V10.4504C9.36684 6.94918 12.2194 4.09664 15.7206 4.09664C19.2219 4.09664 22.0744 6.94918 22.0744 10.4504V13.9428Z" fill="black"/>
</svg>
