<svg width="32" height="32" viewBox="0 0 32 32" fill="none" xmlns="http://www.w3.org/2000/svg">
<path d="M5.00993 0C3.71392 0 2.66675 1.00968 2.66675 2.25929V12.846C2.66675 14.0856 3.71392 15.1053 5.00993 15.1053H12.7341C14.0198 15.1053 15.0773 14.0956 15.0773 12.846V2.25929C15.0773 1.01968 14.0301 0 12.7341 0H5.00993ZM13.2007 12.836C13.2007 13.0859 12.983 13.2958 12.7238 13.2958H5.00993C4.75073 13.2958 4.533 13.0859 4.533 12.836V2.25929C4.533 2.00937 4.75073 1.79944 5.00993 1.79944H12.7341C12.9933 1.79944 13.2111 2.00937 13.2111 2.25929V12.846L13.2007 12.836Z" fill="black"/>
<path d="M26.9902 0H19.266C17.9804 0 16.9228 1.00968 16.9228 2.25929V12.846C16.9228 14.0856 17.97 15.1053 19.266 15.1053H26.9902C28.2759 15.1053 29.3334 14.0956 29.3334 12.846V2.25929C29.3334 1.01968 28.2862 0 26.9902 0ZM27.4672 12.836C27.4672 13.0859 27.2494 13.2958 26.9902 13.2958H19.266C19.0068 13.2958 18.7891 13.0859 18.7891 12.836V2.25929C18.7891 2.00937 19.0068 1.79944 19.266 1.79944H26.9902C27.2494 1.79944 27.4672 2.00937 27.4672 2.25929V12.846V12.836Z" fill="black"/>
<path d="M5.00993 16.8947C3.72429 16.8947 2.66675 17.9044 2.66675 19.154V29.7407C2.66675 30.9803 3.71392 32 5.00993 32H12.7341C14.0198 32 15.0773 30.9903 15.0773 29.7407V19.154C15.0773 17.9144 14.0301 16.8947 12.7341 16.8947H5.00993ZM13.2007 29.7307C13.2007 29.9806 12.983 30.1906 12.7238 30.1906H5.00993C4.75073 30.1906 4.533 29.9806 4.533 29.7307V19.144C4.533 18.8941 4.75073 18.6842 5.00993 18.6842H12.7341C12.9933 18.6842 13.2111 18.8941 13.2111 19.144V29.7307H13.2007Z" fill="black"/>
<path d="M26.9902 16.8947H19.266C17.9804 16.8947 16.9228 17.9044 16.9228 19.154V29.7407C16.9228 30.9803 17.97 32 19.266 32H26.9902C28.2759 32 29.3334 30.9903 29.3334 29.7407V19.154C29.3334 17.9144 28.2862 16.8947 26.9902 16.8947ZM27.4672 29.7307C27.4672 29.9806 27.2494 30.1906 26.9902 30.1906H19.266C19.0068 30.1906 18.7891 29.9806 18.7891 29.7307V19.144C18.7891 18.8941 19.0068 18.6842 19.266 18.6842H26.9902C27.2494 18.6842 27.4672 18.8941 27.4672 19.144V29.7307Z" fill="black"/>
</svg>
