<svg width="32" height="32" viewBox="0 0 32 32" fill="none" xmlns="http://www.w3.org/2000/svg">
<g clip-path="url(#clip0_24_2077)">
<path d="M29.9992 8.79033L26.6778 7.0296V2.74781C26.6778 1.22718 25.4506 0 23.93 0H8.08337C6.56273 0 5.33556 1.22718 5.33556 2.74781V7.0296L2.01417 8.79033C0.773656 9.44393 0 10.7378 0 12.1384V28.1984C0 30.2926 1.70738 32 3.80158 32H28.2118C30.306 32 32.0133 30.306 32.0133 28.1984V12.1384C32.0133 10.7378 31.2397 9.44393 29.9992 8.77699V8.79033ZM10.8979 9.00375C11.4714 8.43018 12.3918 8.43018 12.9654 9.00375L14.9929 11.0313L20.075 5.93581C20.6486 5.36223 21.569 5.36223 22.1426 5.93581C22.7161 6.50938 22.7161 7.42976 22.1426 8.00333L16.02 14.1259C15.7399 14.406 15.3797 14.5527 14.9929 14.5527C14.6061 14.5527 14.2326 14.3927 13.9658 14.1259L10.9112 11.0713C10.3376 10.4977 10.3376 9.57732 10.9112 9.00375H10.8979ZM2.66778 12.1384C2.66778 11.7249 2.89454 11.3381 3.26803 11.138L5.33556 10.0442V15.0863L2.66778 13.3522V12.1251V12.1384ZM29.3456 28.1984C29.3456 28.8253 28.8387 29.3322 28.2118 29.3322H3.80158C3.17466 29.3322 2.66778 28.8253 2.66778 28.1984V16.5402L12.7787 23.0896C13.7657 23.7299 14.8862 24.0367 16.0067 24.0367C17.1271 24.0367 18.2609 23.7165 19.2347 23.0896L29.3456 16.5402V28.1984ZM29.3456 13.3656L26.6778 15.0996V10.0575L28.7453 11.1513C29.1188 11.3514 29.3456 11.7249 29.3456 12.1517V13.3789V13.3656Z" fill="black"/>
</g>
<defs>
<clipPath id="clip0_24_2077">
<rect width="32" height="32" fill="white"/>
</clipPath>
</defs>
</svg>
