<svg width="32" height="32" viewBox="0 0 32 32" fill="none" xmlns="http://www.w3.org/2000/svg">
<g clip-path="url(#clip0_24_2137)">
<path d="M30.6051 14.2008C30.1609 14.0089 29.6367 14.1398 29.3347 14.5149C27.5844 16.7311 24.9457 18.005 22.1027 18.005C17.0474 18.005 12.9427 13.9653 12.9427 9.00941C12.9427 6.19994 14.2576 3.59114 16.541 1.8723C16.9319 1.58437 17.0651 1.06959 16.8697 0.633338C16.6742 0.197084 16.2122 -0.0646687 15.7236 0.013857C11.7966 0.624613 8.51826 2.82333 6.4837 5.87711L6.30601 4.88245L7.26554 3.96632C7.55873 3.68712 7.65646 3.26831 7.53208 2.89313C7.40769 2.51796 7.07008 2.23875 6.67028 2.17768L5.34649 1.98573L4.75123 0.807839C4.57354 0.450111 4.20039 0.223259 3.7917 0.223259C3.38301 0.223259 3.01875 0.450111 2.83217 0.807839L2.23691 1.98573L0.91312 2.17768C0.513318 2.23875 0.175707 2.50923 0.0513236 2.89313C-0.0730594 3.27704 0.0335547 3.68712 0.317859 3.96632L1.27739 4.88245L1.05527 6.18249C0.984196 6.57512 1.153 6.96775 1.48173 7.20332C1.6683 7.3342 1.89042 7.404 2.10364 7.404C2.27245 7.404 2.44126 7.36038 2.60118 7.28185L3.7917 6.67109L4.98222 7.28185C5.17768 7.37783 5.39091 7.41273 5.59525 7.38655C4.74234 9.14029 4.27146 11.1034 4.27146 13.1626C4.27146 15.2217 4.74234 17.1499 5.62191 18.9473C4.04935 19.6802 2.90325 21.1722 2.70779 22.9434C1.06416 23.7461 0.00690112 25.3689 0.00690112 27.2099C0.00690112 29.8536 2.19249 32 4.88449 32H13.1204C15.8124 32 17.998 29.8536 17.998 27.2099C17.998 26.9656 17.9714 26.7213 17.9358 26.4858C24.5637 26.4421 30.152 21.7742 31.227 15.3351C31.307 14.8639 31.0494 14.4015 30.6051 14.2096V14.2008ZM4.10266 4.47237C4.00493 4.4462 3.9072 4.42875 3.80947 4.42875C3.71174 4.42875 3.61401 4.4462 3.51628 4.47237C3.51628 4.2717 3.4452 4.07974 3.32971 3.91397C3.51628 3.84417 3.68509 3.73074 3.80947 3.57369C3.93385 3.73074 4.10266 3.85289 4.28923 3.91397C4.17373 4.07974 4.11154 4.2717 4.10266 4.47237ZM13.1204 29.8973H4.89338C3.38301 29.8973 2.14807 28.6932 2.14807 27.2012C2.14807 26.0233 2.9299 24.9938 4.08489 24.6448C4.54688 24.5052 4.85784 24.0689 4.83119 23.5977C4.83119 23.5628 4.8223 23.5018 4.81342 23.4669C4.81342 21.8527 6.15498 20.5352 7.79861 20.5352C9.44224 20.5352 10.7838 21.8527 10.7838 23.4669C10.7838 24.0427 11.2636 24.5139 11.8499 24.5139H13.1115C14.6219 24.5139 15.8569 25.7179 15.8569 27.2099C15.8569 28.7019 14.6308 29.906 13.1115 29.906L13.1204 29.8973ZM17.847 24.3917C17.5716 24.3917 17.2961 24.3656 17.0207 24.3481C16.1323 23.1789 14.7108 22.4111 13.1204 22.4111H12.8095C12.3208 20.1426 10.2596 18.4325 7.79861 18.4325C7.78084 18.4325 7.76307 18.4325 7.7453 18.4325C6.86574 16.8184 6.40374 14.9948 6.40374 13.1451C6.40374 8.87854 8.79368 5.1442 12.4363 3.24214C11.3702 4.95225 10.8016 6.92412 10.8016 9.00069C10.8016 15.117 15.8657 20.0903 22.0938 20.0903C24.1728 20.0903 26.1629 19.5406 27.8865 18.5198C25.9408 22.0621 22.1471 24.383 17.8381 24.383L17.847 24.3917Z" fill="black"/>
<path d="M22.1737 10.641H28.1619C30.2764 10.641 32 8.94834 32 6.87177C32 5.47576 31.227 4.2368 30.0099 3.58242C29.7256 1.68035 28.0553 0.205809 26.0385 0.205809C24.1905 0.205809 22.6357 1.43605 22.1649 3.10254C20.0503 3.10254 18.3356 4.7952 18.3356 6.87177C18.3356 8.94834 20.0592 10.641 22.1737 10.641ZM22.1737 5.19656H23.0888C23.6752 5.19656 24.155 4.7254 24.155 4.14955C24.155 3.12871 24.999 2.29983 26.0385 2.29983C27.078 2.29983 27.922 3.12871 27.9309 4.07974C27.9309 4.11465 27.9131 4.2019 27.9131 4.2368C27.8865 4.71668 28.1974 5.1442 28.6594 5.28381C29.3791 5.50193 29.8677 6.13886 29.8677 6.87177C29.8677 7.79663 29.1037 8.54699 28.1619 8.54699H22.1737C21.232 8.54699 20.4679 7.79663 20.4679 6.87177C20.4679 5.94691 21.232 5.19656 22.1737 5.19656Z" fill="black"/>
</g>
<defs>
<clipPath id="clip0_24_2137">
<rect width="32" height="32" fill="white"/>
</clipPath>
</defs>
</svg>
