<svg width="32" height="32" viewBox="0 0 32 32" fill="none" xmlns="http://www.w3.org/2000/svg">
<path fill-rule="evenodd" clip-rule="evenodd" d="M15.3517 19.1947L1.26463 5.31257C0.911791 4.96462 0.911791 4.39363 1.26463 4.03676L2.56131 2.76096C2.91414 2.41302 3.49632 2.41302 3.84916 2.76096L15.9956 14.7339L28.142 2.76096C28.4949 2.41302 29.077 2.41302 29.4387 2.76096L30.7354 4.03676C31.0882 4.38471 31.0882 4.9557 30.7354 5.31257L16.6395 19.1947C16.2867 19.5427 15.7045 19.5427 15.3517 19.1947Z" fill="black"/>
<path fill-rule="evenodd" clip-rule="evenodd" d="M15.3517 31.239L1.26463 17.3569C0.911791 17.0089 0.911791 16.4379 1.26463 16.0811L2.56131 14.8053C2.91414 14.4573 3.49632 14.4573 3.84916 14.8053L15.9956 26.7782L28.142 14.8053C28.4949 14.4573 29.077 14.4573 29.4387 14.8053L30.7354 16.0811C31.0882 16.429 31.0882 17 30.7354 17.3569L16.6395 31.239C16.2867 31.587 15.7045 31.587 15.3517 31.239Z" fill="black"/>
</svg>
