<svg width="32" height="32" viewBox="0 0 32 32" fill="none" xmlns="http://www.w3.org/2000/svg">
<g clip-path="url(#clip0_121_179)">
<path d="M16 32C24.8366 32 32 24.8366 32 16C32 7.16344 24.8366 0 16 0C7.16344 0 0 7.16344 0 16C0 24.8366 7.16344 32 16 32Z" fill="#012169"/>
<path d="M13.9947 0.138667L8 6.1344L5.664 3.79733C4.99223 4.3676 4.36828 4.9919 3.7984 5.664L6.1344 8L0.138667 13.9947C0.0508452 14.6596 0.00453332 15.3293 0 16H1.8656L8 9.8656L14.1344 16H16V14.1344L9.8656 8L16 1.8656V0C15.3293 0.00453332 14.6596 0.0508452 13.9947 0.138667Z" fill="white"/>
<path d="M9.60004 1.33984C8.46391 1.84062 7.39001 2.47208 6.40004 3.22144V5.33344H4.09818C2.70356 6.88694 1.62723 8.69893 0.930176 10.6668H6.40004V16.0001H9.60004V10.6668H16V5.33344H9.60004V1.33984Z" fill="white"/>
<path d="M16 0C15.5573 0 15.1232 0.0309333 14.6891 0.0661333L7.37813 7.37813L4.68587 4.68587C4.47893 4.8992 4.29013 5.11893 4.09387 5.3376L7.37813 8.62187L0 16H1.24373L8.62187 8.62187L16 16V14.7552L8.62187 7.37813L16 0Z" fill="#C8102E"/>
<path d="M8.95999 1.64917C8.29525 1.96876 7.65369 2.33445 7.03999 2.74357V6.4001H3.22132C2.47196 7.39007 1.8405 8.46397 1.33972 9.6001H7.03999V16.0001H8.95999V9.6001H16V6.4001H8.95999V1.64917Z" fill="#C8102E"/>
<path d="M8.4811 23.3068L9.4539 24.3308L9.25977 22.9324L10.6667 22.8097L9.45177 22.0886L10.2336 20.9132L8.9131 21.4124L8.4811 20.0684L8.04803 21.4124L6.7275 20.9132L7.50937 22.0886L6.29443 22.8097L7.70137 22.9324L7.5083 24.3308L8.4811 23.3068ZM19.0336 15.9905L19.6512 16.6412L19.5286 15.7526L20.4224 15.6748L19.6512 15.2172L20.1472 14.4694L19.3088 14.7873L19.0336 13.934L18.7595 14.7873L17.92 14.4694L18.4171 15.2172L17.6459 15.6748L18.5387 15.7526L18.416 16.6412L19.0336 15.9905ZM24.0182 10.591L24.6368 11.2406L24.5131 10.3521L25.407 10.2742L24.6358 9.81665L25.1318 9.06998L24.2934 9.38785L24.0182 8.53345L23.744 9.38785L22.9056 9.06998L23.4016 9.81665L22.6304 10.2742L23.5243 10.3521L23.4006 11.2406L24.0182 10.591ZM28.4491 14.6614L29.0678 15.3121L28.944 14.4236L29.8379 14.3457L29.0667 13.8881L29.5627 13.1404L28.7243 13.4582L28.4491 12.6038L28.175 13.4582L27.3366 13.1404L27.8326 13.8881L27.0614 14.3457L27.9552 14.4236L27.8315 15.3121L28.4491 14.6614ZM24.0182 23.8828L24.6368 24.5334L24.5131 23.6449L25.407 23.567L24.6358 23.1094L25.1318 22.3628L24.2934 22.6796L24.0182 21.8262L23.744 22.6796L22.9056 22.3628L23.4016 23.1094L22.6304 23.567L23.5243 23.6449L23.4006 24.5334L24.0182 23.8828ZM26.0128 17.8038L26.5003 18.1068L26.3638 17.5489L26.8022 17.1777L26.2294 17.1361L26.0128 16.6038L25.7952 17.1361L25.2224 17.1777L25.6619 17.5489L25.5243 18.1068L26.0128 17.8038Z" fill="white"/>
</g>
<defs>
<clipPath id="clip0_121_179">
<rect width="32" height="32" fill="white"/>
</clipPath>
</defs>
</svg>
