<svg width="32" height="32" viewBox="0 0 32 32" fill="none" xmlns="http://www.w3.org/2000/svg">
<g clip-path="url(#clip0_24_1932)">
<path d="M23.3327 12.0167C23.8377 12.0167 24.3221 12.0579 24.8168 12.1301V10.1101C24.8168 4.96742 21.0036 0.721365 16.0567 0.0102539H13.1401C8.19327 0.711059 4.36976 4.96742 4.36976 10.0998V14.1706C4.36976 17.0563 3.09183 19.808 0.88635 21.6631C-0.185469 22.5906 -0.298835 24.1983 0.618396 25.2702C1.10278 25.8267 1.80358 26.1565 2.54561 26.1565H12.6248C12.3569 25.198 12.2023 24.188 12.2023 23.1471C12.2023 16.9945 17.1904 12.0167 23.3327 12.0167Z" fill="black"/>
<path d="M9.66703 27.9806C10.1514 30.3201 12.2126 31.9999 14.6036 32.0103C15.1807 32.0103 15.7372 31.9072 16.2525 31.7217C15.0261 30.7014 14.0161 29.4338 13.3256 27.9806H9.66703Z" fill="black"/>
<path d="M31.3198 24.6827L28.6712 23.1574L31.3198 21.6322C31.8867 21.3024 32.0722 20.5913 31.7527 20.0244L30.2583 17.4479C29.9285 16.8811 29.2174 16.6956 28.6506 17.0151L26.002 18.5404V15.4898C26.002 14.8405 25.4764 14.3149 24.8271 14.3149H21.8487C21.1994 14.3149 20.6738 14.8405 20.6738 15.4898V18.5404L18.0252 17.0151C17.4583 16.6853 16.7369 16.8811 16.4174 17.4479L14.9231 20.0244C14.5933 20.5913 14.7891 21.3127 15.3559 21.6322L18.0045 23.1574L15.3559 24.6827C14.7891 25.0125 14.6036 25.7236 14.9231 26.2904L16.4174 28.8669C16.7472 29.4338 17.4583 29.6193 18.0252 29.2998L20.6738 27.7745V30.8251C20.6738 31.4743 21.1994 31.9999 21.8487 31.9999H24.8271C25.4764 31.9999 26.002 31.4743 26.002 30.8251V27.7745L28.6506 29.2998C29.2174 29.6296 29.9388 29.4338 30.2583 28.8669L31.7527 26.2904C32.0825 25.7236 31.8867 25.0022 31.3198 24.6827ZM26.0123 24.693L23.343 26.2286L20.6738 24.693V21.6115L23.343 20.076L26.0123 21.6115V24.693Z" fill="black"/>
</g>
<defs>
<clipPath id="clip0_24_1932">
<rect width="32" height="32" fill="white"/>
</clipPath>
</defs>
</svg>
