<svg width="32" height="32" viewBox="0 0 32 32" fill="none" xmlns="http://www.w3.org/2000/svg">
<path d="M22.1366 0H22.3635C22.5455 2.25671 21.6871 3.94291 20.6438 5.16401C19.6201 6.37667 18.2182 7.5528 15.951 7.37435C15.7997 5.14996 16.6596 3.58881 17.7015 2.37053C18.6678 1.23515 20.4393 0.224828 22.1366 0ZM29 23.4889V23.5521C28.3628 25.4884 27.4539 27.1479 26.3448 28.688C25.3323 30.0862 24.0916 31.9677 21.8761 31.9677C19.9618 31.9677 18.6902 30.7325 16.7282 30.6988C14.6528 30.6651 13.5115 31.7316 11.6139 32H10.9669C9.57352 31.7977 8.44899 30.6904 7.62975 29.6927C5.21405 26.7447 3.3473 22.9366 3 18.0635V16.6316C3.14704 13.144 4.83594 10.3083 7.08079 8.93409C8.26554 8.2034 9.89421 7.58091 11.7077 7.85913C12.485 7.97998 13.279 8.24696 13.975 8.51113C14.6346 8.76547 15.4594 9.21653 16.2409 9.19264C16.7702 9.17718 17.2968 8.90036 17.8303 8.70505C19.3932 8.13876 20.9252 7.48957 22.9446 7.79449C25.3715 8.16265 27.094 9.24463 28.1584 10.914C26.1054 12.225 24.4823 14.2007 24.7596 17.5745C25.006 20.6392 26.7818 22.4322 29 23.4889Z" fill="black"/>
</svg>
