<svg width="32" height="32" viewBox="0 0 32 32" fill="none" xmlns="http://www.w3.org/2000/svg">
<path d="M27.9484 3H4.03832C1.81258 3 0 4.83508 0 7.08846V25.9115C0 28.1649 1.81258 30 4.03832 30H27.9617C30.1874 30 32 28.1649 32 25.9115V7.08846C32 4.83508 30.1874 3 27.9617 3H27.9484ZM4.03832 5.69865H27.9617C28.7214 5.69865 29.3344 6.31934 29.3344 7.08846V10.2189L16.8463 17.3973C16.3265 17.6942 15.6735 17.6942 15.167 17.3973L2.66556 10.2189V7.08846C2.66556 6.31934 3.27863 5.69865 4.03832 5.69865ZM27.9484 27.2879H4.03832C3.27863 27.2879 2.66556 26.6672 2.66556 25.8981V13.3223L13.8342 19.7451C14.5006 20.1229 15.247 20.3253 15.9933 20.3253C16.7397 20.3253 17.486 20.1364 18.1524 19.7451L29.3211 13.3223V25.9115C29.3211 26.6807 28.708 27.3013 27.9484 27.3013V27.2879Z" fill="black"/>
</svg>
