<svg width="32" height="32" viewBox="0 0 32 32" fill="none" xmlns="http://www.w3.org/2000/svg">
<g clip-path="url(#clip0_24_2018)">
<path d="M31.6235 13.2801L18.3529 1.04486C18.0706 0.85662 17.6941 0.85662 17.4118 0.950738C17.1294 1.13897 16.9412 1.42133 16.9412 1.7978V8.38603C7.52941 8.95074 0 17.7037 0 27.2096V30.9743C0 31.4449 0.376471 31.8213 0.847059 31.9154C1.31765 32.0096 1.78824 31.7272 1.88235 31.2566L2.07059 30.786C3.95294 24.1037 10.0706 20.2449 16.9412 19.7743V26.3625C16.9412 26.739 17.1294 27.0213 17.4118 27.2096C17.6941 27.3978 18.0706 27.3037 18.3529 27.1154L31.6235 14.8801C31.9059 14.6919 32 14.4096 32 14.1272C32 13.7507 31.8118 13.4684 31.6235 13.2801Z" fill="black"/>
</g>
<defs>
<clipPath id="clip0_24_2018">
<rect width="32" height="32" fill="white"/>
</clipPath>
</defs>
</svg>
