<svg width="32" height="32" viewBox="0 0 32 32" fill="none" xmlns="http://www.w3.org/2000/svg">
<g clip-path="url(#clip0_24_35)">
<path d="M4.23979 25.8688L3.1701 31.2486C3.07013 31.7686 3.61997 32.1786 4.08983 31.9186L8.86843 29.2387L13.647 31.9186C14.1169 32.1786 14.6767 31.7786 14.5668 31.2486L13.4971 25.8688L17.5159 22.149C17.9058 21.789 17.6958 21.129 17.166 21.0691L11.7276 20.4191L9.42827 15.4393C9.20833 14.9493 8.51854 14.9493 8.2886 15.4393L5.98928 20.4191L0.550871 21.0691C0.0210267 21.129 -0.188912 21.789 0.200974 22.149L4.21979 25.8688H4.23979Z" fill="black"/>
<path d="M18.4856 23.179C19.0754 22.639 19.2854 21.829 19.0355 21.0691C18.7855 20.3091 18.1457 19.7791 17.3459 19.6791L12.6773 19.1291L10.7079 14.8593C10.378 14.1294 9.6682 13.6794 8.86843 13.6794C8.06867 13.6794 7.35888 14.1294 7.02897 14.8593L6.96899 14.9893L3.29007 11.5895C2.65026 10.9895 3.00015 9.91955 3.8699 9.80956L12.7873 8.74961L16.5462 0.599973C16.9161 -0.199991 18.0457 -0.199991 18.4156 0.599973L22.1745 8.75961L31.0919 9.80956C31.9617 9.90955 32.3116 10.9895 31.6718 11.5895L25.0737 17.6892L26.8232 26.4988C26.9931 27.3588 26.0834 28.0287 25.3136 27.5988L18.0757 23.5489L18.4756 23.179H18.4856Z" fill="black"/>
<path d="M26.9831 0.939958C26.5433 1.47993 24.9637 4.3498 25.5136 4.77978C26.0634 5.20977 28.5127 3.06986 28.9525 2.51989C29.3924 1.96991 29.3024 1.17995 28.7626 0.739967C28.2228 0.299987 27.423 0.389982 26.9831 0.929958V0.939958Z" fill="black"/>
<path d="M7.9687 0.939958C8.40857 1.47993 9.98811 4.3498 9.43827 4.77978C8.88843 5.20977 6.43915 3.06986 5.99927 2.51989C5.5594 1.96991 5.64938 1.17995 6.18922 0.739967C6.72906 0.299987 7.52882 0.389982 7.9687 0.929958V0.939958Z" fill="black"/>
</g>
<defs>
<clipPath id="clip0_24_35">
<rect width="32" height="32" fill="white"/>
</clipPath>
</defs>
</svg>
