<svg width="32" height="32" viewBox="0 0 32 32" fill="none" xmlns="http://www.w3.org/2000/svg">
<path d="M24.8983 21.3365C23.3548 21.3365 21.9524 21.9953 20.983 23.0588L11.336 17.5624C11.4866 17.0729 11.5713 16.5459 11.5713 16.0094C11.5713 15.4729 11.4866 14.9459 11.336 14.4565L20.983 8.96C21.9619 10.0141 23.3548 10.6824 24.8983 10.6824C27.8442 10.6824 30.2348 8.29176 30.2348 5.34588C30.2348 2.4 27.8442 0 24.8983 0C21.9524 0 19.5619 2.39059 19.5619 5.33647C19.5619 5.76941 19.6183 6.19294 19.7124 6.59765L9.93362 12.1694C8.97362 11.2376 7.66539 10.6635 6.22539 10.6635C3.2795 10.6635 0.888916 13.0541 0.888916 16C0.888916 18.9459 3.2795 21.3365 6.22539 21.3365C7.66539 21.3365 8.97362 20.7624 9.93362 19.8306L19.7124 25.4024C19.6089 25.8071 19.5619 26.2306 19.5619 26.6635C19.5619 29.6094 21.9524 32 24.8983 32C27.8442 32 30.2348 29.6094 30.2348 26.6635C30.2348 23.7176 27.8442 21.3271 24.8983 21.3271V21.3365Z" fill="black"/>
</svg>
