<svg width="32" height="32" viewBox="0 0 32 32" fill="none" xmlns="http://www.w3.org/2000/svg">
<path d="M29.7973 14.8953C29.3867 15.855 28.4422 16.4649 27.3849 16.4649H22.4983V29.9606C22.4983 31.0803 21.5641 32 20.4041 32H11.5857C10.4359 32 9.49143 31.0903 9.49143 29.9606V16.4649H4.61514C3.55775 16.4649 2.60303 15.845 2.20266 14.8953C1.79202 13.9356 2.01787 12.856 2.76728 12.1162L14.6552 0.53983C15.0247 0.179943 15.5175 0 16 0C16.4825 0 16.9753 0.179943 17.3448 0.53983L29.2327 12.1162C29.9821 12.846 30.208 13.9356 29.7973 14.8953ZM27.4875 13.8257L16 2.63917L4.50221 13.8257C4.50221 13.8257 4.43035 13.8957 4.47142 13.9856C4.51248 14.0756 4.57408 14.0756 4.61514 14.0756H10.7336C11.4112 14.0756 11.9655 14.6154 11.9655 15.2752V29.6007H20.0448V15.2752C20.0448 14.6154 20.5991 14.0756 21.2767 14.0756H27.3951C27.3951 14.0756 27.4978 14.0756 27.5389 13.9856C27.5799 13.8957 27.5389 13.8457 27.5081 13.8257H27.4875Z" fill="black"/>
</svg>
