<svg width="32" height="32" viewBox="0 0 32 32" fill="none" xmlns="http://www.w3.org/2000/svg">
<g clip-path="url(#clip0_24_2139)">
<path d="M29.5995 17.8489C28.3246 16.5778 26.7109 15.7778 24.9189 15.5378C24.4731 15.4756 24.0362 15.6978 23.8312 16.0978C23.6172 16.4889 23.6796 16.9778 23.9827 17.3156C25.6232 19.1467 25.5519 21.9289 23.8133 23.6622C22.0748 25.3956 19.2753 25.4667 17.4477 23.8311C17.1089 23.5289 16.6274 23.4756 16.2262 23.68C15.825 23.8933 15.6021 24.3289 15.6646 24.7644C15.9142 26.5511 16.7166 28.16 17.9826 29.4311C19.5339 30.9778 21.5934 31.8311 23.7866 31.8311C25.9798 31.8311 28.0482 30.9778 29.5995 29.4311C32.8002 26.24 32.8002 21.04 29.5995 17.8489ZM28.0839 27.92C26.9338 29.0667 25.4092 29.6978 23.7866 29.6978C22.164 29.6978 20.6394 29.0667 19.4893 27.92C19.1684 27.6 18.892 27.2533 18.6512 26.88C20.9425 27.5378 23.5191 26.96 25.3111 25.1644C27.1032 23.3778 27.6916 20.8089 27.0318 18.5244C27.4063 18.7644 27.754 19.04 28.0749 19.36C30.4465 21.7244 30.4465 25.5644 28.0749 27.92H28.0839Z" fill="black"/>
<path d="M14.3807 15.52C14.8176 15.1733 15.2099 14.7822 15.5487 14.3556L16.9306 15.1467C17.1 15.2444 17.2872 15.2889 17.4655 15.2889C17.831 15.2889 18.1966 15.0933 18.3927 14.7556C18.6869 14.2489 18.5086 13.5911 18.0004 13.2978L16.6274 12.5067C16.8325 12 16.9751 11.4667 17.0554 10.9067H18.6512C19.2397 10.9067 19.7211 10.4267 19.7211 9.84C19.7211 9.25333 19.2397 8.77333 18.6512 8.77333H17.0554C16.9751 8.22222 16.8325 7.68 16.6274 7.17333L18.0004 6.38222C18.5086 6.08889 18.6869 5.43111 18.3927 4.92444C18.0985 4.41778 17.4387 4.24 16.9306 4.53333L15.5487 5.32444C15.2009 4.88889 14.8087 4.49778 14.3807 4.16L15.1742 2.78222C15.4684 2.27556 15.2901 1.61778 14.7819 1.32444C14.2737 1.03111 13.614 1.20889 13.3198 1.71556L12.5263 3.08444C12.0181 2.88 11.4832 2.73778 10.9215 2.65778V1.06667C10.9215 0.48 10.4401 0 9.85164 0C9.26322 0 8.78178 0.48 8.78178 1.06667V2.65778C8.22902 2.73778 7.68517 2.88 7.1859 3.08444L6.39242 1.70667C6.09821 1.2 5.43846 1.02222 4.93028 1.31556C4.42209 1.60889 4.24378 2.26667 4.538 2.77333L5.33148 4.15111C4.89462 4.49778 4.50233 4.88889 4.16354 5.31556L2.78164 4.52444C2.27346 4.23111 1.61371 4.40889 1.3195 4.91556C1.02528 5.42222 1.20359 6.08 1.71178 6.37333L3.09368 7.16444C2.88863 7.67111 2.74598 8.20444 2.66574 8.76445H1.06986C0.481438 8.76445 0 9.24444 0 9.83111C0 10.4178 0.481438 10.8978 1.06986 10.8978H2.66574C2.74598 11.4489 2.88863 11.9911 3.09368 12.4978L1.71178 13.2889C1.20359 13.5822 1.02528 14.24 1.3195 14.7467C1.51564 15.0933 1.88117 15.28 2.24671 15.28C2.42502 15.28 2.61224 15.2356 2.78164 15.1378L4.16354 14.3467C4.51125 14.7822 4.90353 15.1733 5.33148 15.5111L4.538 16.8889C4.24378 17.3956 4.42209 18.0533 4.93028 18.3467C5.09967 18.4444 5.2869 18.4889 5.46521 18.4889C5.83074 18.4889 6.19628 18.2933 6.39242 17.9556L7.1859 16.5867C7.69409 16.7911 8.22902 16.9333 8.79069 17.0133V18.6044C8.79069 19.1911 9.27213 19.6711 9.86056 19.6711C10.449 19.6711 10.9304 19.1911 10.9304 18.6044V17.0133C11.4832 16.9333 12.027 16.7911 12.5352 16.5867L13.3287 17.9556C13.5248 18.3022 13.8904 18.4889 14.2559 18.4889C14.4342 18.4889 14.6214 18.4444 14.7908 18.3467C15.299 18.0533 15.4773 17.3956 15.1831 16.8889L14.3896 15.5111L14.3807 15.52ZM9.85164 14.9689C7.01651 14.9689 4.70739 12.6667 4.70739 9.84C4.70739 7.01333 7.01651 4.71111 9.85164 4.71111C12.6868 4.71111 14.9959 7.01333 14.9959 9.84C14.9959 12.6667 12.6868 14.9689 9.85164 14.9689Z" fill="black"/>
<path d="M11.608 25.6089C11.189 25.1911 10.5114 25.1911 10.0924 25.6089C9.67333 26.0267 9.67333 26.7022 10.0924 27.12L10.556 27.5822H8.64805C7.03434 27.5822 5.71484 26.2667 5.71484 24.6578V21.3244C5.71484 20.7378 5.23341 20.2578 4.64498 20.2578C4.05656 20.2578 3.57512 20.7378 3.57512 21.3244V24.6578C3.57512 27.4489 5.84858 29.7156 8.64805 29.7156H10.547L10.0834 30.1778C9.66441 30.5956 9.66441 31.2711 10.0834 31.6889C10.2885 31.8933 10.5649 32 10.8413 32C11.1176 32 11.3851 31.8933 11.5991 31.6889L13.8904 29.4044C14.0954 29.2 14.2024 28.9333 14.2024 28.6489C14.2024 28.3644 14.0865 28.0978 13.8904 27.8933L11.5991 25.6089H11.608Z" fill="black"/>
<path d="M22.6721 6.74667C22.8772 6.95111 23.1536 7.05778 23.43 7.05778C23.7063 7.05778 23.9738 6.95111 24.1878 6.74667C24.6068 6.32889 24.6068 5.65333 24.1878 5.23556L23.7242 4.77333H24.803C26.8803 4.77333 28.5653 6.45333 28.5653 8.52444V11.0311C28.5653 11.6178 29.0467 12.0978 29.6352 12.0978C30.2236 12.0978 30.705 11.6178 30.705 11.0311V8.52444C30.705 5.28 28.0571 2.64 24.803 2.64H23.7242L24.1878 2.17778C24.6068 1.76 24.6068 1.08444 24.1878 0.666667C23.7688 0.248889 23.0912 0.248889 22.6721 0.666667L20.3809 2.95111C19.9618 3.36889 19.9618 4.04445 20.3809 4.46222L22.6721 6.74667Z" fill="black"/>
</g>
<defs>
<clipPath id="clip0_24_2139">
<rect width="32" height="32" fill="white"/>
</clipPath>
</defs>
</svg>
