<svg width="32" height="32" viewBox="0 0 32 32" fill="none" xmlns="http://www.w3.org/2000/svg">
<g clip-path="url(#clip0_24_2072)">
<path d="M32 16.0094C32 14.8228 31.143 13.5515 30.0883 13.1748C29.0335 12.7981 28.0071 11.8846 27.7057 11.1595C27.4044 10.4344 27.4891 9.05945 27.9694 8.04238C28.4497 7.02531 28.1577 5.52796 27.3196 4.6804C26.4815 3.84226 24.9747 3.55032 23.9576 4.03061C22.9406 4.51089 21.5656 4.59564 20.8499 4.29429C20.1342 3.99294 19.2113 2.96645 18.8346 1.91171C18.4579 0.856975 17.1866 0 16 0C14.8134 0 13.5421 0.856975 13.1654 1.91171C12.7887 2.96645 11.8752 3.99294 11.1501 4.29429C10.425 4.59564 9.05003 4.51089 8.04238 4.03061C7.02531 3.55032 5.52796 3.84226 4.6804 4.6804C3.84226 5.51854 3.55032 7.02531 4.03061 8.04238C4.51089 9.05945 4.58623 10.4344 4.29429 11.1501C3.99294 11.8752 2.97587 12.7887 1.91171 13.1654C0.847557 13.5421 0 14.8134 0 16C0 17.1866 0.856975 18.4579 1.91171 18.8346C2.96645 19.2113 3.99294 20.1248 4.29429 20.8499C4.59564 21.575 4.52031 22.9406 4.03061 23.9576C3.54091 24.9747 3.84226 26.472 4.6804 27.3196C5.51854 28.1577 7.02531 28.4497 8.04238 27.9694C9.05945 27.4891 10.4344 27.4044 11.1501 27.7057C11.8752 28.0071 12.7887 29.0336 13.1654 30.0883C13.5421 31.143 14.8134 32 16 32C17.1866 32 18.4579 31.143 18.8346 30.0883C19.2113 29.0336 20.1248 28.0071 20.8499 27.7057C21.575 27.4044 22.95 27.4891 23.9576 27.9694C24.9747 28.4497 26.4815 28.1577 27.3196 27.3196C28.1577 26.4815 28.4497 24.9747 27.9694 23.9576C27.4891 22.9406 27.4044 21.5656 27.7057 20.8499C28.0071 20.1342 29.0335 19.2113 30.0883 18.8346C31.143 18.4579 32 17.1866 32 16V16.0094ZM15.9906 21.8858C12.7416 21.8858 10.1142 19.2584 10.1142 16.0188C10.1142 12.7793 12.7416 10.1424 15.9906 10.1424C19.2396 10.1424 21.8576 12.7699 21.8576 16.0188C21.8576 19.2678 19.2301 21.8858 15.9906 21.8858Z" fill="black"/>
</g>
<defs>
<clipPath id="clip0_24_2072">
<rect width="32" height="32" fill="white"/>
</clipPath>
</defs>
</svg>
