<svg width="32" height="32" viewBox="0 0 32 32" fill="none" xmlns="http://www.w3.org/2000/svg">
<g clip-path="url(#clip0_24_2044)">
<path d="M16 0C7.16235 0 0 7.16235 0 16C0 24.8376 7.16235 32 16 32C24.8376 32 32 24.8376 32 16C32 7.16235 24.8376 0 16 0ZM12.0188 20.5647L11.1624 21.3929C10.7796 21.7631 10.4094 21.7537 10.0518 21.3647L5.68471 16.9035C5.37098 16.5773 5.37098 16.2478 5.68471 15.9153L10.0518 11.4259C10.5882 10.8706 10.6259 10.8424 11.1624 11.3976L12.0188 12.2635C12.5271 12.7906 12.5271 12.7529 12.0188 13.28L9.48706 15.9247C8.97882 16.4518 8.97882 16.4141 9.48706 16.9412L12.0188 19.5294C12.5271 20.0565 12.5553 20.0565 12.0188 20.5741V20.5647ZM19.4541 9.48706L15.8494 23.6988C15.7271 24.2259 15.7553 24.2259 15.1812 24.2259H13.9106C12.8941 24.2259 12.8659 24.2259 13.12 23.2753L16.7247 9.06353C16.8471 8.53647 16.8188 8.53647 17.3929 8.53647H18.6635C19.68 8.53647 19.7082 8.53647 19.4541 9.48706ZM26.8894 16.9035L22.5224 21.3647C22.1647 21.7537 21.7945 21.7631 21.4118 21.3929L20.5553 20.5647C20.0188 20.0376 20.0471 20.0376 20.5553 19.52L23.0871 16.9318C23.5953 16.4047 23.5953 16.4424 23.0871 15.9153L20.5553 13.2706C20.0471 12.7435 20.0471 12.7812 20.5553 12.2541L21.4118 11.3882C21.9482 10.8329 21.9859 10.8612 22.5224 11.4165L26.8894 15.9059C27.2031 16.2322 27.2031 16.5616 26.8894 16.8941V16.9035Z" fill="black"/>
</g>
<defs>
<clipPath id="clip0_24_2044">
<rect width="32" height="32" fill="white"/>
</clipPath>
</defs>
</svg>
