<svg width="32" height="32" viewBox="0 0 32 32" fill="none" xmlns="http://www.w3.org/2000/svg">
<g clip-path="url(#clip0_399_154)">
<path d="M27.8578 0H4.14222C1.85778 0 0 1.85778 0 4.14223V27.8578C0 30.1422 1.85778 32 4.14222 32H27.8578C30.1422 32 32 30.1422 32 27.8578V4.14223C32 1.85778 30.1422 0 27.8578 0ZM17.4933 20.4444C16.2311 20.4444 15.0489 19.8222 14.64 19.0844C14.64 19.0844 14.0178 21.3511 13.8667 21.9111C13.4489 23.44 11.9644 25.5644 11.84 25.7244C11.76 25.8222 11.6267 25.7867 11.6089 25.6622C11.5733 25.44 11.1289 22.8978 11.52 21.3333C11.7511 20.4089 12.9778 15.44 12.9778 15.44C12.9778 15.44 12.6044 14.7289 12.6044 13.68C12.6044 12.0267 13.6089 10.8 14.8533 10.8C15.9111 10.8 16.4267 11.5556 16.4267 12.4711C16.4267 13.4933 15.7422 15.0044 15.3956 16.4178C15.1111 17.6 16.0178 18.56 17.2356 18.56C19.44 18.56 21.1378 16.3378 21.1378 13.1289C21.1378 10.2933 18.9956 8.30223 15.9467 8.30223C12.4089 8.30223 10.3378 10.8356 10.3378 13.4489C10.3378 14.4711 10.7467 15.5556 11.2622 16.1511C11.36 16.2667 11.3778 16.3733 11.3422 16.4889C11.2444 16.8622 11.04 17.6711 10.9956 17.8311C10.9422 18.0533 10.8178 18.0978 10.5778 17.9911C9.02222 17.3067 8.05333 15.1378 8.05333 13.4044C8.05333 9.66222 10.9067 6.22222 16.2667 6.22222C20.5778 6.22222 23.9289 9.15556 23.9467 13.0667C23.9467 17.1556 21.2444 20.4444 17.4933 20.4444Z" fill="black"/>
</g>
<defs>
<clipPath id="clip0_399_154">
<rect width="32" height="32" fill="white"/>
</clipPath>
</defs>
</svg>
