<svg width="32" height="32" viewBox="0 0 32 32" fill="none" xmlns="http://www.w3.org/2000/svg">
<path d="M17.4596 13.0761C17.4596 11.7525 17.7639 10.5739 18.3727 9.54036C18.9722 8.51589 19.7977 7.70447 20.8491 7.10611C21.9006 6.51682 23.0904 6.22217 24.4185 6.22217C25.8112 6.22217 27.084 6.55308 28.2369 7.2149C29.3806 7.8858 30.2937 8.85133 30.9762 10.1115C31.6587 11.3808 32 12.9039 32 14.6808C32 16.1949 31.7371 17.6046 31.2114 18.9102C30.6765 20.2157 29.9202 21.3671 28.9425 22.3643C28.2692 23.0624 27.5175 23.6699 26.6874 24.1866C25.8481 24.7125 24.9673 25.125 24.045 25.4241C23.6668 25.542 23.3486 25.6281 23.0904 25.6825C22.8229 25.746 22.537 25.7777 22.2326 25.7777C21.8637 25.7777 21.5593 25.6689 21.3195 25.4513C21.0797 25.2428 20.9598 24.9799 20.9598 24.6626C20.9598 24.4903 20.9921 24.3317 21.0566 24.1866C21.112 24.0506 21.195 23.9373 21.3057 23.8466C21.4163 23.7379 21.5547 23.6472 21.7207 23.5747C21.8867 23.5021 22.0804 23.4341 22.3018 23.3707C23.1226 23.1622 23.8836 22.872 24.5845 22.5003C25.2855 22.1377 25.9081 21.7116 26.4522 21.222C26.9964 20.7415 27.4622 20.2202 27.8495 19.6581C28.2277 19.096 28.509 18.5113 28.6935 17.9038H28.1677C27.6051 18.5203 26.9503 18.9872 26.2032 19.3045C25.4469 19.6218 24.6353 19.7805 23.7683 19.7805C22.5692 19.7805 21.4947 19.4859 20.5447 18.8966C19.5948 18.3073 18.8431 17.5049 18.2897 16.4895C17.7363 15.4832 17.4596 14.3454 17.4596 13.0761ZM0 13.0761C0 11.7525 0.304367 10.5739 0.9131 9.54036C1.51261 8.51589 2.33809 7.70447 3.38954 7.10611C4.43176 6.51682 5.62156 6.22217 6.95893 6.22217C8.35164 6.22217 9.62444 6.55308 10.7773 7.2149C11.921 7.8858 12.8341 8.85133 13.5166 10.1115C14.1992 11.3808 14.5404 12.9039 14.5404 14.6808C14.5404 16.1949 14.2776 17.6046 13.7518 18.9102C13.2169 20.2157 12.4652 21.3671 11.4968 22.3643C10.8142 23.0624 10.0579 23.6699 9.22784 24.1866C8.38853 24.7125 7.50771 25.125 6.58539 25.4241C6.19801 25.542 5.8752 25.6281 5.61695 25.6825C5.3587 25.746 5.07739 25.7777 4.77302 25.7777C4.39487 25.7777 4.0905 25.6689 3.85992 25.4513C3.62012 25.2428 3.50022 24.9799 3.50022 24.6626C3.50022 24.4903 3.5325 24.3317 3.59706 24.1866C3.6524 24.0506 3.73541 23.9373 3.84609 23.8466C3.95677 23.7379 4.09511 23.6472 4.26113 23.5747C4.42715 23.5021 4.62545 23.4341 4.85603 23.3707C5.66768 23.1622 6.42398 22.872 7.12495 22.5003C7.81669 22.1377 8.43926 21.7116 8.99265 21.222C9.54604 20.7415 10.0164 20.2202 10.4038 19.6581C10.782 19.096 11.0587 18.5113 11.2339 17.9038H10.7082C10.1548 18.5203 9.49993 18.9872 8.74362 19.3045C7.98732 19.6218 7.17106 19.7805 6.29486 19.7805C5.10506 19.7805 4.03516 19.4859 3.08517 18.8966C2.13518 18.3073 1.38348 17.5049 0.830091 16.4895C0.276697 15.4832 0 14.3454 0 13.0761Z" fill="black"/>
</svg>
