<svg width="32" height="32" viewBox="0 0 32 32" fill="none" xmlns="http://www.w3.org/2000/svg">
<g clip-path="url(#clip0_24_1946)">
<path d="M31.5 10.0723C31.5 11.6868 31.2242 13.1486 30.6725 14.4579C30.1209 15.7671 29.3673 16.8057 28.4118 17.5735C27.4662 18.3414 26.4023 18.7253 25.2202 18.7253H23.2255C23.7278 18.046 24.1859 17.288 24.5996 16.4513C25.0232 15.6145 25.363 14.6794 25.6192 13.6457C25.8851 12.6121 26.023 11.4751 26.0329 10.2348C26.0624 8.45298 25.7521 6.80902 25.102 5.30288C24.4519 3.79674 23.452 2.51701 22.1025 1.46369H24.6439C25.9541 1.46369 27.1214 1.85253 28.1459 2.63021C29.1802 3.40789 29.9978 4.44644 30.5987 5.74586C31.1996 7.04528 31.5 8.48744 31.5 10.0723ZM23.8313 10.1905C23.8116 11.3914 23.6884 12.4743 23.4619 13.439C23.2452 14.3939 22.9152 15.3045 22.4719 16.1707C22.0286 17.037 21.4622 17.923 20.7726 18.8286C19.6103 20.384 18.3297 22.0772 16.9309 23.9082C15.5321 25.7293 14.2614 27.7523 13.1187 29.977C12.7739 30.6268 12.4242 31.1239 12.0696 31.4684C11.715 31.8228 11.252 32 10.6806 32C10.0108 32 9.44932 31.7785 8.99619 31.3355C8.55291 30.8925 8.33127 30.2871 8.33127 29.5193C8.33127 28.8204 8.45933 28.0771 8.71544 27.2896C8.98141 26.5021 9.28186 25.7195 9.61678 24.9418C9.96155 24.1543 10.262 23.416 10.5181 22.7269C10.7841 22.0378 10.9171 21.4422 10.9171 20.9402C10.9171 20.4381 10.7299 20.0395 10.3556 19.7441C9.98125 19.4488 9.47394 19.3011 8.83365 19.3011H3.39609C2.85431 19.3011 2.36177 19.1732 1.91849 18.9172C1.48507 18.6613 1.14029 18.3118 0.884175 17.8688C0.628058 17.4259 0.5 16.9336 0.5 16.3922C0.5 15.9591 0.568955 15.5653 0.706864 15.2109C0.844773 14.8467 1.03686 14.5563 1.28313 14.3397C1.46044 14.1822 1.47029 14.0296 1.31268 13.882C1.12552 13.6753 0.977757 13.3996 0.869399 13.0551C0.761042 12.7007 0.706864 12.3365 0.706864 11.9624C0.706864 11.4505 0.815221 10.9829 1.03194 10.5596C1.24865 10.1363 1.53432 9.81146 1.88894 9.58505C2.08595 9.45708 2.12043 9.29957 1.99237 9.11253C1.6476 8.63017 1.47521 8.04445 1.47521 7.35537C1.47521 6.75488 1.63775 6.23314 1.96282 5.79016C2.28789 5.33733 2.70655 4.98787 3.21878 4.74177C3.35669 4.67286 3.37639 4.55473 3.27788 4.38738C3.19908 4.22003 3.1252 4.02807 3.05624 3.8115C2.99714 3.59493 2.96759 3.34883 2.96759 3.0732C2.96759 2.3152 3.21878 1.71471 3.72116 1.27173C4.22355 0.828748 4.81459 0.523582 5.49428 0.356232C5.94741 0.238103 6.54337 0.149507 7.28217 0.0904424C8.03082 0.0215339 8.89275 -0.00799831 9.86797 0.00184576L11.9514 0.0166119C13.7639 0.0264559 15.404 0.287324 16.8718 0.799215C18.3395 1.31111 19.5955 2.0248 20.6397 2.9403C21.6838 3.8558 22.4817 4.9288 23.0334 6.15931C23.585 7.38982 23.851 8.73354 23.8313 10.1905Z" fill="black"/>
</g>
<defs>
<clipPath id="clip0_24_1946">
<rect width="32" height="32" fill="white"/>
</clipPath>
</defs>
</svg>
