<svg width="32" height="32" viewBox="0 0 32 32" fill="none" xmlns="http://www.w3.org/2000/svg">
<g clip-path="url(#clip0_1309_11)">
<path d="M16 0C7.16 0 0 7.16 0 16C0 24.84 7.16 32 16 32C24.84 32 32 24.84 32 16C32 7.16 24.84 0 16 0ZM16 29.4C8.61 29.4 2.6 23.39 2.6 16C2.6 8.61 8.61 2.6 16 2.6C23.39 2.6 29.4 8.61 29.4 16C29.4 23.39 23.39 29.4 16 29.4Z" fill="black"/>
<path d="M17.55 13.25H14.46C13.97 13.25 13.57 13.65 13.57 14.14V24.85C13.57 25.34 13.97 25.74 14.46 25.74H17.55C18.04 25.74 18.44 25.34 18.44 24.85V14.14C18.44 13.65 18.04 13.25 17.55 13.25Z" fill="black"/>
<path d="M16 11.13C17.3476 11.13 18.44 10.0376 18.44 8.69C18.44 7.34242 17.3476 6.25 16 6.25C14.6524 6.25 13.56 7.34242 13.56 8.69C13.56 10.0376 14.6524 11.13 16 11.13Z" fill="black"/>
</g>
<defs>
<clipPath id="clip0_1309_11">
<rect width="32" height="32" fill="white"/>
</clipPath>
</defs>
</svg>
