<svg width="32" height="32" viewBox="0 0 32 32" fill="none" xmlns="http://www.w3.org/2000/svg">
<g clip-path="url(#clip0_139_474)">
<path d="M29.149 15.1537C28.4296 13.3811 27.2173 11.8751 25.6986 10.7555V6.10412C25.6986 5.78426 25.4321 5.5177 25.1124 5.55768C23.1141 5.77093 21.4355 7.0504 20.6495 8.82299C20.3164 8.79634 19.9833 8.76968 19.637 8.76968H12.0833C8.4463 8.76968 5.26228 10.6622 3.43714 13.501C2.74438 13.3145 2.22481 12.7147 2.22481 11.955C2.22481 11.0621 2.95754 10.329 3.85013 10.329C4.46295 10.329 4.95587 9.8359 4.95587 9.22282C4.95587 8.60975 4.46295 8.11662 3.85013 8.11662C1.73189 8.11662 0 9.84923 0 11.9683C0 13.5943 1.01249 14.9804 2.43797 15.5402C2.0383 16.6331 1.81182 17.8192 1.81182 19.0587C1.81182 22.524 3.53039 25.3494 6.15487 27.2153V29.2145C6.15487 30.7472 7.39384 32 8.93922 32C10.4846 32 11.7236 30.7605 11.7236 29.2145V29.0945C11.8435 29.0945 11.9767 29.1079 12.0966 29.1079H19.6503C19.7169 29.1079 19.7968 29.1079 19.8634 29.1079V29.2145C19.8634 30.7472 21.1024 32 22.6478 32C24.1932 32 25.4321 30.7605 25.4321 29.2145V27.3353C26.9376 26.309 28.1499 24.8963 28.9359 23.2303H29.5754C30.9076 23.2303 32 22.284 32 21.1112V17.2728C32 16.1 30.9209 15.1537 29.5754 15.1537H29.149ZM25.9517 15.9C25.9517 16.3265 25.6053 16.6731 25.179 16.6731C24.7527 16.6731 24.4063 16.3265 24.4063 15.9V14.9804C24.4063 14.5539 24.7527 14.2074 25.179 14.2074C25.6053 14.2074 25.9517 14.5539 25.9517 14.9804V15.9Z" fill="url(#paint0_linear_139_474)"/>
<path d="M10.8976 7.5302H18.7843C18.7843 5.35777 17.0258 3.58517 14.841 3.58517C12.6561 3.58517 10.8976 5.34444 10.8976 7.5302Z" fill="url(#paint1_linear_139_474)"/>
<path d="M9.73855 6.26406C10.2048 4.35818 11.7102 2.86547 13.6153 2.41233C13.2689 1.02624 12.03 0 10.5379 0C8.77935 0 7.35387 1.42607 7.35387 3.18534C7.35387 4.66472 8.37968 5.90421 9.75187 6.26406H9.73855Z" fill="url(#paint2_linear_139_474)"/>
</g>
<defs>
<linearGradient id="paint0_linear_139_474" x1="0" y1="0" x2="32" y2="32" gradientUnits="userSpaceOnUse">
<stop offset="0.2" stop-color="#8F718F"/>
<stop offset="0.8" stop-color="#451344"/>
</linearGradient>
<linearGradient id="paint1_linear_139_474" x1="0" y1="0" x2="32" y2="32" gradientUnits="userSpaceOnUse">
<stop offset="0.2" stop-color="#8F718F"/>
<stop offset="0.8" stop-color="#451344"/>
</linearGradient>
<linearGradient id="paint2_linear_139_474" x1="0" y1="0" x2="32" y2="32" gradientUnits="userSpaceOnUse">
<stop offset="0.2" stop-color="#8F718F"/>
<stop offset="0.8" stop-color="#451344"/>
</linearGradient>
<clipPath id="clip0_139_474">
<rect width="32" height="32" fill="white"/>
</clipPath>
</defs>
</svg>
