<svg width="32" height="32" viewBox="0 0 32 32" fill="none" xmlns="http://www.w3.org/2000/svg">
<g clip-path="url(#clip0_166_20)">
<path d="M28.0117 0H4.00167C1.78741 0 0 1.78648 0 3.99958V22.6643C0 24.8774 1.78741 26.6639 4.00167 26.6639H12.4719L15.3264 31.61C15.6198 32.13 16.3668 32.13 16.6736 31.61L19.5281 26.6639H27.9983C30.2126 26.6639 32 24.8774 32 22.6643V3.99958C32 1.78648 30.2126 0 27.9983 0H28.0117ZM9.88412 6.31934L7.49646 13.9985C7.25636 14.7585 6.5494 15.2517 5.78908 15.2517C5.61567 15.2517 5.42893 15.2251 5.25552 15.1718C4.30846 14.8785 3.78824 13.8786 4.0817 12.932L6.46936 5.25279C6.76282 4.30622 7.76324 3.78627 8.7103 4.07958C9.65736 4.37288 10.1776 5.37277 9.88412 6.31934ZM16.4335 6.31934L14.0459 13.9985C13.8058 14.7585 13.0988 15.2517 12.3385 15.2517C12.1651 15.2517 11.9783 15.2251 11.8049 15.1718C10.8579 14.8785 10.3376 13.8786 10.6311 12.932L13.0188 5.25279C13.3122 4.30622 14.3126 3.78627 15.2597 4.07958C16.2068 4.37288 16.727 5.37277 16.4335 6.31934Z" fill="black"/>
</g>
<defs>
<clipPath id="clip0_166_20">
<rect width="32" height="32" fill="white"/>
</clipPath>
</defs>
</svg>
