<svg width="32" height="32" viewBox="0 0 32 32" fill="none" xmlns="http://www.w3.org/2000/svg">
<g clip-path="url(#clip0_1594_38)">
<path d="M30.81 8.50266C30.02 7.71241 28.84 7.32229 27.27 7.32229H24.67V4.69147C24.67 3.14098 24.27 1.97062 23.48 1.18037C22.69 0.390122 21.51 0 19.94 0H4.75C3.17 0 1.98 0.390122 1.18 1.18037C0.39 1.96061 0 3.13098 0 4.69147V19.9962C0 21.5567 0.39 22.7371 1.18 23.5173C1.98 24.2976 3.17 24.6777 4.75 24.6777H7.34V27.3085C7.34 28.869 7.73 30.0394 8.52 30.8196C9.32 31.6099 10.51 32 12.09 32H27.27C28.84 32 30.02 31.6099 30.81 30.8196C31.61 30.0294 32 28.859 32 27.3085V12.0038C32 10.4533 31.6 9.2829 30.81 8.49265V8.50266ZM7.33 12.0138V22.257H4.77C4.01 22.257 3.43 22.0569 3.03 21.6568C2.63 21.2566 2.43 20.6565 2.43 19.8762V4.82151C2.43 4.03126 2.63 3.44108 3.03 3.04095C3.43 2.64083 4.01 2.44076 4.77 2.44076H19.88C20.63 2.44076 21.2 2.64083 21.6 3.04095C22.01 3.44108 22.22 4.04126 22.22 4.82151V7.32229H12.07C10.49 7.32229 9.3 7.71241 8.5 8.50266C7.71 9.2829 7.32 10.4533 7.32 12.0138H7.33ZM29.6 27.3185C29.6 27.9187 29.52 28.729 29.11 29.1291C28.8 29.4392 28.15 29.6093 27.27 29.6093H12.09C11.46 29.6093 10.62 29.5292 10.21 29.1191C9.91 28.819 9.74 28.1788 9.74 27.3185V12.0138C9.74 11.1535 9.91 10.5133 10.21 10.2132C10.62 9.81307 11.46 9.72304 12.09 9.72304H27.27C28.15 9.72304 28.8 9.89309 29.12 10.2132C29.52 10.6033 29.6 11.4136 29.6 12.0138V27.3185Z" fill="black"/>
<path d="M20.87 13.6643H18.47V18.4658H13.67V20.8665H18.47V25.668H20.87V20.8665H25.67V18.4658H20.87V13.6643Z" fill="black"/>
</g>
<defs>
<clipPath id="clip0_1594_38">
<rect width="32" height="32" fill="white"/>
</clipPath>
</defs>
</svg>
