<svg width="32" height="32" viewBox="0 0 32 32" fill="none" xmlns="http://www.w3.org/2000/svg">
<path d="M13.821 20.5065H19.1893C19.7241 20.5065 20.156 20.0963 20.1766 19.5862L20.9993 1.01047C21.0199 0.460301 20.5674 0.000160084 20.0018 0.000160084H12.9982C12.4326 -0.00984299 11.9801 0.450298 12.0007 1.00047L12.8234 19.5762C12.844 20.0963 13.2862 20.4965 13.8107 20.4965L13.821 20.5065Z" fill="black"/>
<path d="M16.4949 32C18.7668 32 20.6085 30.2086 20.6085 27.9988C20.6085 25.7889 18.7668 23.9975 16.4949 23.9975C14.2229 23.9975 12.3812 25.7889 12.3812 27.9988C12.3812 30.2086 14.2229 32 16.4949 32Z" fill="black"/>
</svg>
