<svg width="32" height="32" viewBox="0 0 32 32" fill="none" xmlns="http://www.w3.org/2000/svg">
<g clip-path="url(#clip0_87_30)">
<path d="M14.16 18.6044L18.7556 16L14.16 13.3956V18.6044Z" fill="black"/>
<path d="M16 0C7.16444 0 0 7.16444 0 16C0 24.8356 7.16444 32 16 32C24.8356 32 32 24.8356 32 16C32 7.16444 24.8356 0 16 0ZM24.5067 20.2133C24.3022 20.9511 23.7156 21.5556 22.9422 21.76C21.5644 22.1244 15.9911 22.1244 15.9911 22.1244C15.9911 22.1244 10.4356 22.1244 9.05778 21.76C8.29333 21.5556 7.69778 20.9511 7.47556 20.2133C7.11111 18.8533 7.11111 15.9911 7.11111 15.9911C7.11111 15.9911 7.11111 13.1467 7.47556 11.7956C7.68889 11.0311 8.29333 10.4444 9.05778 10.2489C10.4356 9.87556 15.9911 9.87556 15.9911 9.87556C15.9911 9.87556 21.5644 9.87556 22.9422 10.2489C23.7244 10.4533 24.3022 11.04 24.5067 11.7956C24.8889 13.1467 24.8889 15.9911 24.8889 15.9911C24.8889 15.9911 24.8889 18.8533 24.5067 20.2133Z" fill="black"/>
</g>
<defs>
<clipPath id="clip0_87_30">
<rect width="32" height="32" fill="white"/>
</clipPath>
</defs>
</svg>
