<svg width="32" height="32" viewBox="0 0 32 32" fill="none" xmlns="http://www.w3.org/2000/svg">
<g clip-path="url(#clip0_24_2050)">
<path d="M28.9778 24.9778C28.9778 27.1822 27.1822 28.9778 24.9778 28.9778H7.02225C4.81781 28.9778 3.02225 27.1822 3.02225 24.9778V7.02225C3.02225 4.81781 4.81781 3.02225 7.02225 3.02225H14.9245V0.888916H7.02225C3.63558 0.888916 0.888916 3.63558 0.888916 7.02225V24.9689C0.888916 28.3556 3.63558 31.1023 7.02225 31.1023H24.9689C28.3556 31.1023 31.1023 28.3556 31.1023 24.9689V17.0667H28.9689V24.9689L28.9778 24.9778Z" fill="black"/>
<path d="M24.9778 0.888916C24.9778 0.888916 24.9867 0.888916 24.9956 0.888916H20.2311C20.0534 0.888916 19.8667 0.942249 19.7156 1.04003C19.5645 1.1378 19.4489 1.28892 19.3778 1.44892C19.3067 1.6178 19.2889 1.80447 19.3245 1.98225C19.36 2.16003 19.4489 2.32003 19.5734 2.45336L22.88 5.76003L15.5822 13.0578C15.4489 13.1911 15.4489 13.4134 15.5822 13.5467L18.4445 16.4089C18.5778 16.5422 18.8 16.5422 18.9334 16.4089L26.2311 9.11114L29.5378 12.4178C29.6622 12.5422 29.8311 12.6311 30.0089 12.6667C30.1778 12.7022 30.3645 12.6845 30.5422 12.6134C30.7111 12.5422 30.8534 12.4267 30.9511 12.2756C31.0489 12.1245 31.1023 11.9467 31.1023 11.76V7.00447C31.1023 7.00447 31.1023 7.01336 31.1023 7.02225V0.888916H24.9689H24.9778Z" fill="black"/>
</g>
<defs>
<clipPath id="clip0_24_2050">
<rect width="32" height="32" fill="white"/>
</clipPath>
</defs>
</svg>
