<svg width="32" height="32" viewBox="0 0 32 32" fill="none" xmlns="http://www.w3.org/2000/svg">
<path d="M31.9067 28.815L22.8723 2.87889C22.6465 2.22014 22.0159 1.77783 21.3195 1.77783C20.6231 1.77783 20.002 2.22014 19.7668 2.87889L11.8429 25.6247L7.70216 13.7295C7.53277 13.2307 7.06223 12.9014 6.53523 12.9014C6.00822 12.9014 5.5471 13.2307 5.36829 13.7295L0.0700286 28.9467C-0.15583 29.5867 0.182958 30.2925 0.82289 30.5183C0.954641 30.5654 1.0958 30.5842 1.22755 30.5842C1.73573 30.5842 2.21568 30.2642 2.39449 29.756L3.49555 26.594H9.5749L10.676 29.756C10.6948 29.8125 10.7324 29.8502 10.7607 29.8972C10.9206 30.3489 11.2594 30.7348 11.7394 30.9042C11.9182 30.97 12.097 30.9983 12.2758 30.9983C12.9534 30.9983 13.5933 30.5748 13.8286 29.8972L15.8142 24.2037H26.8248L28.8105 29.8972C29.1117 30.7536 30.0433 31.2053 30.8997 30.9042C31.7561 30.603 32.2078 29.6714 31.9067 28.815ZM4.35193 24.1378L6.53523 17.8797L8.71852 24.1378H4.35193ZM16.9529 20.9193L21.3101 8.41242L25.6673 20.9193H16.9529Z" fill="black"/>
</svg>
