<svg width="32" height="32" viewBox="0 0 32 32" fill="none" xmlns="http://www.w3.org/2000/svg">
<path d="M0.888916 0.888916V31.1111H30.2222V0.888916H0.888916ZM4.44447 6.22225V8.00003H2.66669V6.22225H4.44447ZM2.66669 4.44447V2.66669H4.44447V4.44447H2.66669ZM4.44447 9.7778V11.5556H2.66669V9.7778H4.44447ZM4.44447 13.3334V15.1111H2.66669V13.3334H4.44447ZM4.44447 16.8889V18.6667H2.66669V16.8889H4.44447ZM4.44447 20.4445V22.2222H2.66669V20.4445H4.44447ZM4.44447 24V25.7778H2.66669V24H4.44447ZM4.44447 27.5556V29.3334H2.66669V27.5556H4.44447ZM10.6667 22.2222V9.7778L21.3334 16L10.6667 22.2222ZM28.4445 9.7778V11.5556H26.6667V9.7778H28.4445ZM26.6667 8.00003V6.22225H28.4445V8.00003H26.6667ZM28.4445 13.3334V15.1111H26.6667V13.3334H28.4445ZM28.4445 16.8889V18.6667H26.6667V16.8889H28.4445ZM28.4445 20.4445V22.2222H26.6667V20.4445H28.4445ZM28.4445 24V25.7778H26.6667V24H28.4445ZM28.4445 27.5556V29.3334H26.6667V27.5556H28.4445ZM28.4445 4.44447H26.6667V2.66669H28.4445V4.44447Z" fill="black"/>
</svg>
