<svg width="32" height="32" viewBox="0 0 32 32" fill="none" xmlns="http://www.w3.org/2000/svg">
<g clip-path="url(#clip0_24_1950)">
<path d="M26.8178 10.3616C29.6798 10.3616 32 8.04205 32 5.18078C32 2.31952 29.6798 0 26.8178 0C23.9557 0 21.6356 2.31952 21.6356 5.18078C21.6356 8.04205 23.9557 10.3616 26.8178 10.3616Z" fill="black"/>
<path d="M17.2444 16.0844V16.4043H17.7511L17.7333 11.7212C17.1111 11.5257 17.2089 11.9167 17.2089 11.9167L17.2444 16.0844Z" fill="black"/>
<path d="M12.24 13.0008L10.2844 11.3124L10.3022 19.1325L12.1333 16.3954H12.5156V13.3119C12.4089 12.8587 12.2311 13.0008 12.2311 13.0008H12.24Z" fill="black"/>
<path d="M9.40444 11.6501L9.36889 23.3802C9.40444 23.629 9.54667 23.4868 9.54667 23.4868L10.0356 23.7978L10 11.268C9.44 11.2769 9.40444 11.659 9.40444 11.659V11.6501Z" fill="black"/>
<path d="M17.2444 22.7759C17.3156 23.0247 17.5289 22.9536 17.5289 22.9536L17.7689 23.1225V19.7279H17.2444V22.7759Z" fill="black"/>
<path d="M24.8444 12.7698V22.145C24.9867 23.4779 26.1067 24.0022 26.1067 24.0022C26.4178 24.251 26.2844 24.4199 26.2844 24.4199L23.2356 26.5971C20.6133 25.7173 20.3644 23.5846 20.3644 23.5846V13.3119C20.2933 12.8231 20.0533 12.8942 20.0533 12.8942L18.0267 11.8456V16.3954H20.2133L18.0444 19.5412V23.3091L19.5644 24.3488C19.7778 24.5976 19.4578 24.6332 19.4578 24.6332L16.3111 26.5971L11.6178 24.1089C11.2 23.8245 11.5111 23.6557 11.5111 23.6557L12.5244 23.0247V19.7279H10.3111V23.9578L11.0578 24.4199C11.3067 24.6687 11.0222 24.8375 11.0222 24.8375L7.91111 26.5882L3.81333 24.4465C3.46667 24.1977 3.84889 24.0289 3.84889 24.0289L5.00444 23.3624V13.2141L2.76444 11.6057L2.65778 11.5701C2.02667 11.2235 2.48 11.0458 2.48 11.0458L5.69778 8.97529C5.87556 8.8331 6.00889 9.04638 6.00889 9.04638L8.95111 10.7615C8.95111 10.7615 12.9156 9.10858 13.1822 8.94863C13.36 8.84199 13.4933 8.98417 13.4933 8.98417L16.8533 10.8503L19.9911 9.05526C19.3333 7.90891 18.96 6.58484 18.96 5.1719C18.96 4.54985 19.04 3.94557 19.1822 3.35907H6.08889C2.72 3.36795 0 6.09609 0 9.45515V25.9128C0 29.2719 2.72 32 6.08889 32H22.5511C25.9111 32 28.64 29.2808 28.64 25.9128V12.8142C28.0533 12.9564 27.4489 13.0364 26.8267 13.0364C26.1422 13.0364 25.4844 12.9386 24.8533 12.7787L24.8444 12.7698Z" fill="black"/>
</g>
<defs>
<clipPath id="clip0_24_1950">
<rect width="32" height="32" fill="white"/>
</clipPath>
</defs>
</svg>
