<svg width="32" height="32" viewBox="0 0 32 32" fill="none" xmlns="http://www.w3.org/2000/svg">
<path d="M8.20706 1.3595C7.90588 1.05833 7.50118 0.888916 7.07765 0.888916C6.65412 0.888916 6.24941 1.05833 5.94823 1.3595L0.451765 6.85597C-0.150588 7.45833 -0.150588 8.51244 0.451765 9.1148C0.752941 9.41597 1.15765 9.58539 1.58118 9.58539C2.00471 9.58539 2.40941 9.41597 2.71059 9.1148L5.47765 6.34774V30.7148H8.67765V6.34774L11.4447 9.1148C11.7459 9.41597 12.1506 9.58539 12.5741 9.58539C12.9976 9.58539 13.4024 9.41597 13.7035 9.1148C14.0047 8.81362 14.1741 8.40892 14.1741 7.98539C14.1741 7.56186 14.0047 7.15715 13.7035 6.85597L8.20706 1.3595Z" fill="black"/>
<path d="M31.5482 22.4889C31.2471 22.1877 30.8423 22.0183 30.4188 22.0183C29.9953 22.0183 29.5906 22.1877 29.2894 22.4889L26.5224 25.256V0.888916H23.3224V25.256L20.5553 22.4889C20.2541 22.1877 19.8494 22.0183 19.4259 22.0183C19.0024 22.0183 18.5976 22.1877 18.2965 22.4889C17.9953 22.7901 17.8259 23.1948 17.8259 23.6183C17.8259 24.0419 17.9953 24.4466 18.2965 24.7477L23.7929 30.2442C24.0941 30.5454 24.4988 30.7148 24.9224 30.7148C25.3459 30.7148 25.7506 30.5454 26.0518 30.2442L31.5482 24.7477C32.1506 24.1454 32.1506 23.0913 31.5482 22.4889Z" fill="black"/>
</svg>
