<svg width="32" height="32" viewBox="0 0 32 32" fill="none" xmlns="http://www.w3.org/2000/svg">
<g clip-path="url(#clip0_24_2064)">
<path d="M16.3462 8.75C12.3462 8.75 9.09616 12 9.09616 16C9.09616 20 12.3462 23.25 16.3462 23.25C20.3462 23.25 23.5962 20 23.5962 16C23.5962 12 20.3462 8.75 16.3462 8.75ZM18.6346 16C17.3654 16 16.3462 14.9712 16.3462 13.7115C16.3462 12.4519 17.375 11.4231 18.6346 11.4231C19.8942 11.4231 20.9231 12.4519 20.9231 13.7115C20.9231 14.9712 19.8942 16 18.6346 16Z" fill="black"/>
<path d="M16.3462 3.5C9.35577 3.5 3.26923 8.52885 0 16C3.26923 23.4712 9.35577 28.5 16.3462 28.5C23.3365 28.5 29.4231 23.4712 32.6923 16C29.4231 8.52885 23.3365 3.5 16.3462 3.5ZM16.3462 26.1346C10.7596 26.1346 6.21154 21.5865 6.21154 16C6.21154 10.4135 10.7596 5.86538 16.3462 5.86538C21.9327 5.86538 26.4808 10.4135 26.4808 16C26.4808 21.5865 21.9327 26.1346 16.3462 26.1346Z" fill="black"/>
</g>
<defs>
<clipPath id="clip0_24_2064">
<rect width="32" height="32" fill="white"/>
</clipPath>
</defs>
</svg>
