<svg width="32" height="32" viewBox="0 0 32 32" fill="none" xmlns="http://www.w3.org/2000/svg">
<path d="M31.4835 8.59052L30.1568 2.74536C30.1568 2.74536 30.1568 2.73223 30.1568 2.71909C30.1043 2.52207 30.0255 2.33817 29.9073 2.18055C29.6577 1.8259 29.2899 1.58947 28.8696 1.52379C28.6594 1.48439 28.4493 1.49752 28.2391 1.53693L22.4071 2.86358C21.5402 3.06061 21.0016 3.92753 21.1987 4.78132C21.3957 5.64824 22.2626 6.18678 23.1164 5.98975L25.1655 5.51689L17.0873 18.35L10.743 14.3569C10.3884 14.1336 9.9418 14.0548 9.53461 14.1467C9.11429 14.2386 8.75964 14.5014 8.53634 14.856L0.24804 28.0306C-0.224827 28.7793 -0.00152849 29.7776 0.747177 30.2504C1.00988 30.4212 1.31199 30.5 1.60096 30.5C2.13951 30.5 2.65178 30.2373 2.96702 29.7513L10.3884 17.9559L16.7327 21.949C17.0873 22.1723 17.5339 22.2511 17.9411 22.1592C18.3615 22.0672 18.7161 21.8045 18.9394 21.4499L27.8713 7.26387L28.3442 9.32609C28.5149 10.0748 29.1717 10.5739 29.9073 10.5739C30.0255 10.5739 30.1437 10.5739 30.2619 10.5345C31.1289 10.3375 31.6674 9.47058 31.4704 8.61679L31.4835 8.59052Z" fill="black"/>
</svg>
