<svg width="32" height="32" viewBox="0 0 32 32" fill="none" xmlns="http://www.w3.org/2000/svg">
<path d="M3.79559 14.9314C3.38143 14.9314 3.03457 14.7968 2.75501 14.5276C2.47545 14.2584 2.33567 13.9167 2.33567 13.5025C2.33567 13.0883 2.47545 12.7518 2.75501 12.493C3.03457 12.2238 3.38143 12.0892 3.79559 12.0892H5.1002L10.5205 12.3998L6.21844 8.31513L1.43487 3.53156C1.28991 3.38661 1.1812 3.22612 1.10872 3.0501C1.03624 2.86373 1 2.667 1 2.45992C1 2.02505 1.14496 1.67301 1.43487 1.40381C1.72478 1.1346 2.09235 1 2.53758 1C2.93103 1 3.26236 1.13978 3.53156 1.41934L8.2996 6.23397L12.3998 10.5361L12.0736 5.11573V3.81112C12.0736 3.39696 12.2031 3.05528 12.4619 2.78607C12.7311 2.50651 13.0728 2.36673 13.487 2.36673C13.9011 2.36673 14.2428 2.50651 14.512 2.78607C14.7812 3.06563 14.9158 3.40731 14.9158 3.81112V12.4153C14.9158 13.2126 14.6984 13.8338 14.2635 14.2791C13.8287 14.7139 13.2126 14.9314 12.4153 14.9314H3.79559ZM18.6899 30.6954C18.2757 30.6954 17.934 30.5556 17.6648 30.2761C17.3956 30.0068 17.261 29.6652 17.261 29.251V20.476C17.261 19.6787 17.4785 19.0626 17.9133 18.6278C18.3482 18.1929 18.9643 17.9755 19.7615 17.9755H28.5521C28.9663 17.9755 29.3131 18.1101 29.5927 18.3793C29.8722 18.6381 30.012 18.9798 30.012 19.4043C30.012 19.8185 29.8722 20.155 29.5927 20.4138C29.3131 20.6727 28.9663 20.8021 28.5521 20.8021H27.0767L21.6408 20.4915L25.9584 24.5762L30.8507 29.4684C30.9853 29.6134 31.0888 29.7739 31.1613 29.9499C31.2338 30.1363 31.27 30.333 31.27 30.5401C31.27 30.975 31.1251 31.327 30.8352 31.5962C30.5453 31.8654 30.1829 32 29.748 32C29.3442 32 29.0129 31.8602 28.754 31.5807L23.8773 26.6728L19.7771 22.3707L20.1032 27.7756V29.251C20.1032 29.6652 19.9686 30.0068 19.6994 30.2761C19.4302 30.5556 19.0937 30.6954 18.6899 30.6954Z" fill="black"/>
</svg>
