<svg width="32" height="32" viewBox="0 0 32 32" fill="none" xmlns="http://www.w3.org/2000/svg">
<path d="M30.1405 2.66675H7.80108C6.77189 2.66675 5.93297 3.50567 5.93297 4.53486V6.22134H5.12C4.09081 6.22134 3.25189 7.06026 3.25189 8.08945V9.82783H1.83351C0.821622 9.82783 0 10.6495 0 11.6613V28.1111C0 29.123 0.821622 29.9446 1.83351 29.9446H24.2422C25.2541 29.9446 26.0757 29.123 26.0757 28.1111V26.3381H27.4508C28.48 26.3381 29.3189 25.4992 29.3189 24.47V23.657H30.1319C31.1611 23.657 32 22.8181 32 21.7889V4.53486C32 3.50567 31.1611 2.66675 30.1319 2.66675H30.1405ZM1.84216 11.5057H24.2508C24.3286 11.5057 24.3978 11.5749 24.3978 11.6527V22.377L21.2151 19.6613C20.4022 18.8484 19.1049 18.8311 18.2919 19.5922L15.4724 22.0051L9.20216 16.3749C8.17297 15.3457 6.53838 15.3197 5.50919 16.297L1.69514 19.6181V11.6527C1.69514 11.5749 1.76432 11.5057 1.84216 11.5057ZM27.6411 24.47C27.6411 24.5738 27.5546 24.6516 27.4595 24.6516H26.0843V11.6527C26.0843 10.6408 25.2627 9.81918 24.2508 9.81918H4.93838V8.0808C4.93838 7.97702 5.02487 7.89918 5.12 7.89918H27.4595C27.5632 7.89918 27.6411 7.97702 27.6411 8.0808V24.47ZM30.3222 21.7889C30.3222 21.8927 30.2357 21.9705 30.1405 21.9705H29.3276V8.08945C29.3276 7.06026 28.4886 6.22134 27.4595 6.22134H7.61946V4.53486C7.61946 4.43107 7.70595 4.35323 7.80108 4.35323H30.1405C30.2443 4.35323 30.3222 4.43972 30.3222 4.53486V21.7889Z" fill="black"/>
<path d="M17.6778 18.1046C19.1222 18.1046 20.2984 16.9284 20.2984 15.484C20.2984 14.0397 19.1222 12.8635 17.6778 12.8635C16.2335 12.8635 15.0573 14.0397 15.0573 15.484C15.0573 16.9284 16.2335 18.1046 17.6778 18.1046Z" fill="black"/>
</svg>
