<svg width="32" height="32" viewBox="0 0 32 32" fill="none" xmlns="http://www.w3.org/2000/svg">
<g clip-path="url(#clip0_190_109)">
<path d="M24.5511 17.3204C24.5511 16.7869 24.1422 16.3779 23.6089 16.3779C23.0756 16.3779 22.6667 16.7869 22.6667 17.3204C22.6667 21.0014 19.68 23.9889 16 23.9889C12.32 23.9889 9.33333 21.0014 9.33333 17.3204C9.33333 16.7869 8.92444 16.3779 8.39111 16.3779C7.85778 16.3779 7.44889 16.7869 7.44889 17.3204C7.44889 21.6949 10.72 25.367 15.0578 25.8383V30.115H9.84889C9.31556 30.115 8.90667 30.524 8.90667 31.0575C8.90667 31.591 9.31556 32 9.84889 32H22.1422C22.6756 32 23.0844 31.591 23.0844 31.0575C23.0844 30.524 22.6756 30.115 22.1422 30.115H16.9333V25.8383C21.2711 25.367 24.5422 21.686 24.5422 17.3204H24.5511Z" fill="black"/>
<path d="M16 0C13.1111 0 10.7467 2.35621 10.7467 5.25479V17.2937C10.7467 20.219 13.1022 22.5485 16 22.5752C18.8889 22.5752 21.2533 20.2189 21.2533 17.3204V5.25479C21.2533 2.3651 18.8978 0 16 0Z" fill="black"/>
<path d="M8.23111 9.54043C7.68889 9.54043 7.25333 9.9761 7.25333 10.5185V13.6305C7.25333 14.1728 7.68889 14.6085 8.23111 14.6085C8.77333 14.6085 9.20889 14.1728 9.20889 13.6305V10.5185C9.20889 9.9761 8.77333 9.54043 8.23111 9.54043Z" fill="black"/>
<path d="M4.60444 7.76216C4.06222 7.76216 3.62667 8.19783 3.62667 8.7402V15.4087C3.62667 15.9511 4.06222 16.3868 4.60444 16.3868C5.14667 16.3868 5.58222 15.9511 5.58222 15.4087V8.7402C5.58222 8.19783 5.14667 7.76216 4.60444 7.76216Z" fill="black"/>
<path d="M0.977778 5.98388C0.435556 5.98388 0 6.41956 0 6.96193V17.187C0 17.7294 0.435556 18.165 0.977778 18.165C1.52 18.165 1.95556 17.7294 1.95556 17.187V6.96193C1.95556 6.41956 1.52 5.98388 0.977778 5.98388Z" fill="black"/>
<path d="M23.7689 9.54043C23.2267 9.54043 22.7911 9.9761 22.7911 10.5185V13.6305C22.7911 14.1728 23.2267 14.6085 23.7689 14.6085C24.3111 14.6085 24.7467 14.1728 24.7467 13.6305V10.5185C24.7467 9.9761 24.3111 9.54043 23.7689 9.54043Z" fill="black"/>
<path d="M27.3956 7.76216C26.8533 7.76216 26.4178 8.19783 26.4178 8.7402V15.4087C26.4178 15.9511 26.8533 16.3868 27.3956 16.3868C27.9378 16.3868 28.3733 15.9511 28.3733 15.4087V8.7402C28.3733 8.19783 27.9378 7.76216 27.3956 7.76216Z" fill="black"/>
<path d="M31.0222 5.98388C30.48 5.98388 30.0444 6.41956 30.0444 6.96193V17.187C30.0444 17.7294 30.48 18.165 31.0222 18.165C31.5644 18.165 32 17.7294 32 17.187V6.96193C32 6.41956 31.5644 5.98388 31.0222 5.98388Z" fill="black"/>
</g>
<defs>
<clipPath id="clip0_190_109">
<rect width="32" height="32" fill="white"/>
</clipPath>
</defs>
</svg>
