<svg width="32" height="32" viewBox="0 0 32 32" fill="none" xmlns="http://www.w3.org/2000/svg">
<g clip-path="url(#clip0_139_489)">
<path d="M29.0036 4.67133V26.3247C29.0036 26.7322 28.6691 27.0814 28.2473 27.0814C27.8255 27.0814 27.4909 26.7467 27.4909 26.3247V4.07469C27.4909 4.07469 27.4764 4.07469 27.4618 4.07469V2.6486C27.4618 1.17884 26.2691 0.000131702 24.8145 0.000131702H2.64727C1.19273 -0.0144203 0 1.17884 0 2.63405V27.4452C0 29.9627 2.03636 32 4.55273 32H28.3491C30.3709 32 32 30.3702 32 28.3474V9.72087C32 7.53807 30.7782 5.66086 29.0036 4.67133ZM11.7382 23.327H5.14909C4.50909 23.327 3.98545 22.8031 3.98545 22.1628V13.7372C3.98545 13.0969 4.50909 12.5731 5.14909 12.5731H11.7236C12.3636 12.5731 12.8873 13.0969 12.8873 13.7372V22.1628C12.8873 22.8031 12.3636 23.327 11.7236 23.327H11.7382ZM21.6873 19.3398H16.2327C15.68 19.3398 15.2291 18.8886 15.2291 18.3357C15.2291 17.7827 15.68 17.3316 16.2327 17.3316H21.6873C22.24 17.3316 22.6909 17.7827 22.6909 18.3357C22.6909 18.8886 22.24 19.3398 21.6873 19.3398ZM21.6873 14.9159H16.2327C15.68 14.9159 15.2291 14.4648 15.2291 13.9119C15.2291 13.3589 15.68 12.9078 16.2327 12.9078H21.6873C22.24 12.9078 22.6909 13.3589 22.6909 13.9119C22.6909 14.4648 22.24 14.9159 21.6873 14.9159ZM21.6873 8.26567H4.98909C4.43636 8.26567 3.98545 7.81456 3.98545 7.26158C3.98545 6.70861 4.43636 6.2575 4.98909 6.2575H21.6727C22.2255 6.2575 22.6764 6.70861 22.6764 7.26158C22.6764 7.81456 22.2255 8.26567 21.6727 8.26567H21.6873Z" fill="url(#paint0_linear_139_489)"/>
</g>
<defs>
<linearGradient id="paint0_linear_139_489" x1="0" y1="0" x2="32" y2="32" gradientUnits="userSpaceOnUse">
<stop offset="0.2" stop-color="#66CCE4"/>
<stop offset="0.8" stop-color="#00AAD2"/>
</linearGradient>
<clipPath id="clip0_139_489">
<rect width="32" height="32" fill="white"/>
</clipPath>
</defs>
</svg>
