<svg width="32" height="32" viewBox="0 0 32 32" fill="none" xmlns="http://www.w3.org/2000/svg">
<g clip-path="url(#clip0_74_89)">
<path d="M0 4.14222V27.8578C0 30.1422 1.85778 32 4.14222 32H27.8578C30.1422 32 32 30.1422 32 27.8578V4.14222C32 1.85778 30.1422 0 27.8578 0H4.14222C1.85778 0 0 1.85778 0 4.14222ZM12.6311 9.29778L15.5022 6.42667C15.7778 6.15111 16.24 6.15111 16.5156 6.42667L19.3867 9.29778C19.6622 9.57333 19.6622 10.0356 19.3867 10.3111C19.2444 10.4533 19.0578 10.5244 18.88 10.5244C18.7022 10.5244 18.5156 10.4533 18.3733 10.3111L16.7289 8.66667V18.8533C16.7289 19.2533 16.4089 19.5733 16.0089 19.5733C15.6089 19.5733 15.2889 19.2533 15.2889 18.8533V8.66667L13.6444 10.3111C13.3689 10.5867 12.9067 10.5867 12.6311 10.3111C12.3556 10.0356 12.3556 9.57333 12.6311 9.29778ZM24.5778 23.4578C24.5778 24.7378 23.5289 25.7778 22.2489 25.7778H9.74222C8.46222 25.7778 7.42222 24.7378 7.42222 23.4578V14.0978C7.42222 12.8178 8.46222 11.7778 9.74222 11.7778H13.1289V13.2089H9.74222C9.24444 13.2089 8.84444 13.6178 8.84444 14.1067V23.4667C8.84444 23.9644 9.25333 24.3644 9.74222 24.3644H22.2489C22.7467 24.3644 23.1467 23.9556 23.1467 23.4667V14.1067C23.1467 13.6089 22.7378 13.2089 22.2489 13.2089H18.8622V11.7778H22.2489C23.5378 11.7778 24.5778 12.8178 24.5778 14.0978V23.4578Z" fill="black"/>
</g>
<defs>
<clipPath id="clip0_74_89">
<rect width="32" height="32" fill="white"/>
</clipPath>
</defs>
</svg>
