<svg width="32" height="32" viewBox="0 0 32 32" fill="none" xmlns="http://www.w3.org/2000/svg">
<g clip-path="url(#clip0_139_484)">
<path d="M31.6867 13.9356C32.4868 9.66807 31.82 5.52054 29.1528 2.85331C26.4856 0.186089 22.338 -0.480717 18.0705 0.31945C20.5377 2.07982 23.0315 4.17359 25.432 6.57409C27.8325 8.97459 29.9263 11.4551 31.6867 13.9356Z" fill="url(#paint0_linear_139_484)"/>
<path d="M30.9798 16.6295C29.0861 13.7356 26.7256 10.815 23.965 8.04106C21.2045 5.26715 18.2705 2.90666 15.3766 1.02626C12.0959 2.10649 8.90857 3.98688 6.44138 6.45406C3.77416 9.12129 1.78708 12.6287 0.760199 16.1894C2.61392 18.9633 4.8944 21.7773 7.56162 24.4445C10.2288 27.1117 13.0294 29.3922 15.8167 31.2459C19.3774 30.219 22.8715 28.2453 25.552 25.5647C28.0192 23.0975 29.8996 19.9102 30.9798 16.6295ZM16.9636 12.7487C17.3637 13.1488 17.3637 13.8023 16.9636 14.2157C16.5635 14.6291 15.91 14.6158 15.4966 14.2157L14.2964 13.0154C14.0696 13.2288 13.8429 13.4289 13.6296 13.6422C13.4162 13.8556 13.2028 14.0823 13.0028 14.309L14.203 15.5093C14.6031 15.9094 14.6031 16.5628 14.203 16.9763C13.8029 17.3897 13.1495 17.3763 12.736 16.9763L11.6158 15.856C11.2424 16.2961 10.8823 16.7362 10.5356 17.1896L11.7625 18.4166C12.1626 18.8166 12.1626 19.4701 11.7625 19.8835C11.3624 20.2969 10.7089 20.2836 10.2955 19.8835L9.30865 18.8967C9.16195 19.1234 8.98858 19.3501 8.85522 19.5768C8.54849 20.0569 7.90836 20.2036 7.42826 19.8969C7.36158 19.8569 7.30823 19.8035 7.25489 19.7502C6.92148 19.4168 6.8548 18.8833 7.10819 18.4699C7.3349 18.1098 7.57495 17.7631 7.82834 17.4164L6.54807 16.1361C6.14799 15.736 6.14799 15.0825 6.54807 14.6691C6.94816 14.2557 7.60163 14.269 8.01505 14.6691L9.08194 15.736C9.42867 15.2959 9.80209 14.8558 10.1755 14.4157L9.00192 13.2421C8.60184 12.8421 8.60184 12.1886 9.00192 11.7752C9.402 11.3618 10.0555 11.3751 10.4689 11.7752L11.5758 12.8821C11.7892 12.6554 11.9892 12.442 12.2026 12.2153C12.416 11.9886 12.6427 11.7885 12.8694 11.5885L11.7625 10.4816C11.3624 10.0815 11.3624 9.42802 11.7625 9.0146C12.1626 8.60118 12.816 8.61451 13.2295 9.0146L14.403 10.1882C14.8431 9.81476 15.2832 9.44135 15.7233 9.09461L14.6564 8.02772C14.2563 7.62764 14.2563 6.97417 14.6564 6.56075C15.0565 6.14733 15.71 6.16067 16.1234 6.56075L17.4037 7.84102C17.7504 7.60097 18.1105 7.34758 18.4572 7.12087C18.9373 6.81414 19.5775 6.96083 19.8842 7.44094C20.1909 7.92104 20.0442 8.56117 19.5641 8.8679C19.3374 9.0146 19.1107 9.17463 18.884 9.32133L19.8709 10.3082C20.2709 10.7083 20.2709 11.3618 19.8709 11.7752C19.4708 12.1886 18.8173 12.1753 18.4039 11.7752L17.177 10.5483C16.7235 10.895 16.2834 11.2551 15.8433 11.6285L16.9636 12.7487Z" fill="url(#paint1_linear_139_484)"/>
<path d="M0.17341 19.0033C-0.373371 22.9375 0.373452 26.6983 2.84063 29.1655C5.30782 31.6327 9.0686 32.3795 13.0028 31.8327C10.6823 30.139 8.34845 28.1519 6.09465 25.8981C3.84084 23.6443 1.8671 21.3238 0.17341 19.0033Z" fill="url(#paint2_linear_139_484)"/>
</g>
<defs>
<linearGradient id="paint0_linear_139_484" x1="-6.89179e-08" y1="-6.89179e-08" x2="32" y2="32" gradientUnits="userSpaceOnUse">
<stop offset="0.2" stop-color="#6DCD6D"/>
<stop offset="0.8" stop-color="#0CAC0C"/>
</linearGradient>
<linearGradient id="paint1_linear_139_484" x1="-6.89179e-08" y1="-6.89179e-08" x2="32" y2="32" gradientUnits="userSpaceOnUse">
<stop offset="0.2" stop-color="#6DCD6D"/>
<stop offset="0.8" stop-color="#0CAC0C"/>
</linearGradient>
<linearGradient id="paint2_linear_139_484" x1="-6.89179e-08" y1="-6.89179e-08" x2="32" y2="32" gradientUnits="userSpaceOnUse">
<stop offset="0.2" stop-color="#6DCD6D"/>
<stop offset="0.8" stop-color="#0CAC0C"/>
</linearGradient>
<clipPath id="clip0_139_484">
<rect width="32" height="32" fill="white"/>
</clipPath>
</defs>
</svg>
