<svg width="32" height="32" viewBox="0 0 32 32" fill="none" xmlns="http://www.w3.org/2000/svg">
<g clip-path="url(#clip0_225_35)">
<path d="M31.31 0H27.2901C26.9101 0 26.6101 0.310097 26.6101 0.690216V0.880275H13.4905C13.0905 0.880275 12.7005 0.970303 12.3305 1.12035V1.10034L11.4006 1.51047C11.3206 1.51047 11.2306 1.48046 11.1506 1.50047L3.36078 2.66083C2.6508 2.77087 2.16081 3.43107 2.27081 4.14129C2.34081 4.62144 2.6708 5.01157 3.10078 5.17162L1.78082 5.7518C1.25084 5.99187 0.800847 6.37199 0.480856 6.85214C0.0108688 7.52235 -0.119128 8.37262 0.110866 9.14286C0.34086 9.90309 0.890845 10.5133 1.63082 10.8334C2.02081 11.0034 2.6908 11.1735 3.36078 11.1735C3.72077 11.1735 4.09076 11.1235 4.40075 10.9934L5.52072 10.6433V14.4445H3.26078C2.05081 14.4445 1.07084 15.4248 1.07084 16.6352V29.8093C1.07084 31.0197 2.05081 32 3.26078 32H13.3405C14.5505 32 15.5304 31.0197 15.5304 29.8093V19.9762C15.5304 19.9762 15.5504 19.9762 15.5604 19.9762C16.5504 19.9762 17.4604 19.5361 18.0804 18.7659L20.4403 15.8249C23.1002 14.9647 25.1002 13.3342 26.2102 12.2638H26.6101V12.874C26.6101 13.2541 26.9201 13.5642 27.2901 13.5642H31.31C31.69 13.5642 32 13.2541 32 12.874V0.690216C32 0.310097 31.69 0 31.31 0ZM3.75077 9.10285L3.64077 9.14286C3.45078 9.21288 2.78079 9.15286 2.4108 8.99281C2.16081 8.88278 2.06081 8.70272 2.02081 8.57268C1.96082 8.36261 2.00081 8.14254 2.14081 7.93248C2.25081 7.77243 2.4108 7.63239 2.5908 7.55236L8.53064 4.94154L6.3007 7.50234C6.0507 7.79243 5.85071 8.12254 5.72071 8.47265L3.76077 9.09284L3.75077 9.10285ZM6.83068 27.3886L3.17078 23.7274L4.87074 22.0269L6.83068 23.9875L11.9905 18.8259L13.6905 20.5264L6.84068 27.3786L6.83068 27.3886ZM11.7605 14.4445V10.8134L13.2705 9.42294L14.9905 10.0431L15.0905 12.1538L13.2505 14.4445H11.7505H11.7605ZM26.6101 10.2632H25.3702L25.0802 10.5633C24.1602 11.5136 22.2103 13.2241 19.5603 14.0044L19.2603 14.0944L16.5204 17.5255C16.2504 17.8656 15.8204 17.9956 15.4004 17.9456C15.1805 17.9156 14.9605 17.8556 14.7805 17.7155C14.4605 17.4655 14.3305 17.0853 14.3405 16.7052C14.3405 16.4451 14.4205 16.1851 14.5905 15.975L17.1204 12.824L16.9104 8.62269L12.8005 7.14223L9.7606 9.94311V14.4545H7.51067V9.58299C7.51067 9.31291 7.61066 9.04283 7.79066 8.84276L12.6405 3.28103C12.8505 3.04095 13.1605 2.90091 13.4905 2.90091H26.6101V10.2832V10.2632Z" fill="black"/>
</g>
<defs>
<clipPath id="clip0_225_35">
<rect width="32" height="32" fill="white"/>
</clipPath>
</defs>
</svg>
