<svg width="32" height="32" viewBox="0 0 32 32" fill="none" xmlns="http://www.w3.org/2000/svg">
<g clip-path="url(#clip0_72_28)">
<path d="M16 0C7.16444 0 0 7.16444 0 16C0 24.8356 7.16444 32 16 32C24.8356 32 32 24.8356 32 16C32 7.16444 24.8356 0 16 0ZM21.2889 9.51111C21.2889 9.85778 21.1378 10 20.7911 10.0089C20.1333 10.0089 19.4756 10.0089 18.8178 10.0356C18.1511 10.0356 17.8044 10.3556 17.8044 11.0489C17.7867 11.7778 17.8044 12.4978 17.8044 13.2533C17.8667 13.2533 19.7511 13.2533 20.6311 13.2533C21.0311 13.2533 21.1644 13.3867 21.1644 13.7956C21.1644 14.7822 21.1644 15.76 21.1644 16.7467C21.1644 17.1467 21.04 17.2711 20.6311 17.2711C19.7511 17.2711 17.8667 17.2711 17.7867 17.2711V25.2267C17.7867 25.6533 17.6533 25.7867 17.2356 25.7867H14.1778C13.8044 25.7867 13.6622 25.6444 13.6622 25.2711V17.2711C13.5822 17.2711 11.9733 17.2711 11.2356 17.2711C10.8533 17.2711 10.72 17.1378 10.72 16.7467C10.72 15.76 10.72 14.7733 10.72 13.7778C10.72 13.3956 10.8622 13.2533 11.2444 13.2533C11.9911 13.2533 13.5911 13.2533 13.6711 13.2533V11.1022C13.6711 10.1333 13.8489 9.2 14.3378 8.34667C14.8444 7.47556 15.5822 6.88 16.5244 6.53333C17.1289 6.31111 17.7511 6.22222 18.3911 6.22222C19.1911 6.22222 19.9911 6.22222 20.7911 6.22222C21.1378 6.22222 21.2889 6.37333 21.2889 6.72C21.2889 7.65333 21.2889 8.57778 21.2889 9.51111Z" fill="black"/>
</g>
<defs>
<clipPath id="clip0_72_28">
<rect width="32" height="32" fill="white"/>
</clipPath>
</defs>
</svg>
