<svg width="32" height="32" viewBox="0 0 32 32" fill="none" xmlns="http://www.w3.org/2000/svg">
<path d="M27.95 16.05C26.64 14.74 24.86 14 23 14C19.13 14 16 17.13 16 21C16 24.87 19.13 28 23 28C26.87 28 30 24.87 30 21C30 19.14 29.26 17.36 27.95 16.05ZM26.98 19.06L22.07 23.92C22.07 23.92 22 23.97 21.95 23.97C21.9 23.97 21.86 23.95 21.83 23.92L19.23 21.35C19.23 21.35 19.18 21.28 19.18 21.23C19.18 21.18 19.2 21.14 19.23 21.11L20.19 20.16C20.19 20.16 20.26 20.11 20.31 20.11C20.36 20.11 20.4 20.13 20.43 20.16L21.95 21.66L25.77 17.88C25.77 17.88 25.84 17.83 25.89 17.83C25.94 17.83 25.98 17.85 26.01 17.88L26.97 18.83C27.04 18.9 27.04 19 26.97 19.07L26.98 19.06Z" fill="black"/>
<path d="M22.69 12C23.24 12 23.69 11.55 23.69 11V5C23.69 2.24 21.45 0 18.69 0H7C4.24 0 2 2.24 2 5V27C2 29.76 4.24 32 7 32H18.69C21.45 32 23.69 29.76 23.69 27C23.69 26.45 23.24 26 22.69 26C22.14 26 21.69 26.45 21.69 27C21.69 28.65 20.34 30 18.69 30H7C5.35 30 4 28.65 4 27V5C4 3.35 5.35 2 7 2H18.69C20.34 2 21.69 3.35 21.69 5V11C21.69 11.55 22.14 12 22.69 12Z" fill="black"/>
<path d="M10.26 3.39001C9.71001 3.39001 9.26001 3.84001 9.26001 4.39001C9.26001 4.94001 9.71001 5.39001 10.26 5.39001H15.43C15.98 5.39001 16.43 4.94001 16.43 4.39001C16.43 3.84001 15.98 3.39001 15.43 3.39001H10.26Z" fill="black"/>
</svg>
