<svg width="32" height="32" viewBox="0 0 32 32" fill="none" xmlns="http://www.w3.org/2000/svg">
<g clip-path="url(#clip0_24_71)">
<path d="M21.3333 0H10.6667C4.77333 0 0 4.77333 0 10.6667V21.3333C0 27.2267 4.77333 32 10.6667 32H21.3333C27.2267 32 32 27.2267 32 21.3333V10.6667C32 4.77333 27.2267 0 21.3333 0ZM9.18667 17.8667C8.6 19.5733 8.09333 21.3067 7.48 23.0133C7.29333 23.56 6.97333 24.0533 6.56 24.4667C6.41333 24.6133 6.24 24.7333 6.04 24.8C5.84 24.8667 5.62667 24.8933 5.42667 24.8667C5.25333 24.8667 5.06667 24.8 4.93333 24.68C4.78667 24.5733 4.68 24.4267 4.61333 24.2533C4.54667 24.0933 4.53333 23.92 4.56 23.7467C4.6 23.5733 4.68 23.4267 4.81333 23.2933C5.09333 23 5.45333 23 5.81333 23.1333C5.97333 23.1867 6.10667 23.2933 6.28 23.36C6.68 23.52 6.94667 23.44 7.14667 23.0667C7.52 22.3333 7.70667 21.5467 7.97333 20.7867C7.97333 20.7467 7.97333 20.7067 7.97333 20.68C7.97333 20.64 7.94667 20.6133 7.93333 20.5733C6.64 17.6533 5.46667 14.6667 4.08 11.7867C3.97333 11.5867 3.86667 11.4 3.73333 11.2267C3.68 11.1467 3.61333 11.0667 3.53333 11.0133C3.45333 10.96 3.36 10.9333 3.25333 10.92C3.17333 10.92 3.06667 10.9467 3.06667 10.8C3.06667 10.6667 3.18667 10.7067 3.26667 10.7067H6.41333C6.49333 10.7067 6.6 10.6533 6.62667 10.7867C6.64 10.9067 6.53333 10.9067 6.44 10.9067C6.06667 10.9067 6.01333 11.1067 6.06667 11.4133C6.18667 12.0267 6.44 12.6133 6.68 13.2C7.37333 14.8933 8.05333 16.5733 8.77333 18.3467C9.46667 16.1067 10.24 14 10.8533 11.8267C10.88 11.7333 10.9067 11.64 10.92 11.5333C11.0133 11.0267 10.96 10.9467 10.4533 10.9067C10.3733 10.9067 10.2267 10.9467 10.2267 10.7867C10.2267 10.6667 10.3467 10.6933 10.4267 10.6933H12.2C12.28 10.6933 12.4267 10.64 12.4267 10.8C12.4267 10.92 12.3067 10.8933 12.2267 10.8933C11.68 10.84 11.4267 11.1867 11.2533 11.64C10.5067 13.6933 9.88 15.7733 9.18667 17.84V17.8667ZM18.8 19.4267C18 20.8933 16.6667 21.64 14.96 21.52C13.1467 21.3733 12.0133 20.2933 11.3467 18.6667C11.0267 17.8667 10.8667 17 10.8667 16.1333C10.8667 14.8267 11.0933 13.68 11.6933 12.6267C13.28 9.88 17.0267 9.74667 18.68 12.4667C20.0667 14.7333 20.0533 17.12 18.7867 19.44L18.8 19.4267ZM28.8133 10.92C28.16 11.04 28.0667 11.12 28.0133 11.7867C27.9733 12.2933 27.9467 12.8267 27.9467 13.3467C27.9467 14.88 27.9467 16.4133 27.9467 17.9467C27.9467 19.7467 26.8667 21.08 25.1067 21.4267C23.9467 21.6533 22.8133 21.56 21.8 20.8933C20.8267 20.24 20.3067 19.32 20.28 18.12C20.2667 16.1867 20.32 14.24 20.24 12.3067C20.24 12.08 20.2133 11.8667 20.1867 11.64C20.1067 11.08 20.0133 10.9867 19.44 10.92C19.3733 10.92 19.28 10.92 19.2667 10.8267C19.2667 10.68 19.3733 10.72 19.4533 10.72H22.8267C22.8933 10.72 23 10.72 23 10.8133C23 10.9333 22.8933 10.9333 22.8133 10.9333C22.3733 10.9333 22.2 11.1733 22.16 11.5733C22.1333 11.92 22.08 12.2667 22.08 12.6133C22.0533 14.7467 22.0267 16.8667 22.08 18.9867C22.0933 19.3733 22.1867 19.7467 22.3333 20.0933C22.6667 20.8933 23.32 21.3467 24.12 21.3467C24.9867 21.3467 25.5467 20.8667 25.8667 20.0933C26.0933 19.56 26.16 19 26.16 18.4267C26.16 17.4533 26.16 16.5067 26.16 15.3733C26.12 14.24 26.2267 12.9467 26.08 11.64C26.0133 11.0933 25.9333 11.0133 25.3867 10.92C25.3067 10.92 25.2133 10.92 25.2133 10.8267C25.2133 10.7333 25.3067 10.7333 25.3733 10.7333H28.8133C28.8133 10.7333 28.9467 10.7333 28.9467 10.8133C28.9467 10.92 28.88 10.92 28.8 10.9333L28.8133 10.92Z" fill="black"/>
<path d="M16.7733 11.5067C15.9733 10.4 14.5067 10.4133 13.7067 11.52C13.4267 11.9467 13.2133 12.4133 13.1067 12.9067C12.68 14.7067 12.7067 16.5333 12.9467 18.3467C13.0533 19.1333 13.2533 19.92 13.7467 20.5867C14.52 21.6267 15.9333 21.6267 16.72 20.5867C16.9467 20.2667 17.1333 19.92 17.2533 19.5333C17.64 18.3867 17.6933 17.2133 17.7067 16.0267C17.7067 15.2533 17.6667 14.4667 17.5467 13.7067C17.4267 12.92 17.24 12.16 16.76 11.4933L16.7733 11.5067Z" fill="black"/>
</g>
<defs>
<clipPath id="clip0_24_71">
<rect width="32" height="32" fill="white"/>
</clipPath>
</defs>
</svg>
