<svg width="32" height="32" viewBox="0 0 32 32" fill="none" xmlns="http://www.w3.org/2000/svg">
<g clip-path="url(#clip0_24_2161)">
<path d="M23.6874 18.3949C23.6252 18.3683 21.2959 17.2125 20.878 17.0702C20.7091 17.008 20.5313 16.9458 20.3357 16.9458C20.0245 16.9458 19.7578 17.1058 19.5533 17.4081C19.3222 17.7548 18.611 18.5816 18.3976 18.8217C18.3709 18.8573 18.3265 18.8928 18.3087 18.8928C18.2909 18.8928 17.9264 18.7417 17.8197 18.6972C15.3126 17.6126 13.4189 14.9987 13.1522 14.5541C13.1166 14.4919 13.1166 14.4652 13.1166 14.4652C13.1255 14.4297 13.2055 14.3497 13.25 14.3052C13.3745 14.1807 13.5167 14.0118 13.6501 13.8518C13.7123 13.7806 13.7745 13.7006 13.8368 13.6295C14.0324 13.4072 14.1124 13.2294 14.2191 13.0249L14.2724 12.9182C14.5124 12.4381 14.308 12.0292 14.2368 11.8958C14.1835 11.7891 13.1967 9.4064 13.09 9.15746C12.841 8.55289 12.5032 8.27728 12.0409 8.27728C11.9964 8.27728 12.0409 8.27728 11.8631 8.27728C11.6408 8.28617 10.4495 8.4462 9.92496 8.77516C9.36486 9.13079 8.42247 10.251 8.42247 12.2337C8.42247 14.0118 9.55156 15.6922 10.0405 16.3323C10.0494 16.3501 10.0761 16.3767 10.1028 16.4301C11.9609 19.1418 14.2724 21.1511 16.6195 22.0935C18.8777 23.0003 19.9534 23.0981 20.558 23.0981C20.8158 23.0981 21.0203 23.0804 21.1981 23.0626H21.3137C22.096 22.9826 23.8119 22.0935 24.2031 21.0088C24.5142 20.1553 24.5942 19.2218 24.3898 18.8839C24.2475 18.6528 24.0075 18.5372 23.7052 18.3949H23.6874Z" fill="black"/>
<path d="M16.2905 0C7.62233 0 0.572191 6.99701 0.572191 15.6032C0.572191 18.3861 1.31899 21.1066 2.72368 23.4893L0.0209815 31.4554C-0.0501422 31.6688 0.0654339 31.9089 0.278805 31.98C0.358819 32.0067 0.456614 32.0067 0.536629 31.98L8.84033 29.3394C11.1163 30.5575 13.6856 31.1976 16.2816 31.1976C24.9499 31.1976 32 24.2006 32 15.5944C32 6.98812 24.9587 0 16.2905 0ZM16.2905 27.9525C13.8457 27.9525 11.4719 27.2501 9.43599 25.9076C9.3293 25.8365 9.20484 25.8187 9.08037 25.8632L4.91963 27.1879L6.26209 23.2226C6.30654 23.0981 6.27987 22.9559 6.19986 22.8403C4.65292 20.7243 3.8261 18.2171 3.8261 15.6032C3.8261 8.79294 9.40932 3.25401 16.2816 3.25401C23.154 3.25401 28.7283 8.79294 28.7283 15.6032C28.7283 22.4136 23.1451 27.9525 16.2816 27.9525H16.2905Z" fill="black"/>
</g>
<defs>
<clipPath id="clip0_24_2161">
<rect width="32" height="32" fill="white"/>
</clipPath>
</defs>
</svg>
