<svg width="32" height="32" viewBox="0 0 32 32" fill="none" xmlns="http://www.w3.org/2000/svg">
<g clip-path="url(#clip0_24_2145)">
<path d="M27.8863 0H14.901C12.6323 0 10.7785 1.85572 10.7785 4.1465V7.50277H5.40248C2.42759 7.50277 0 9.93563 0 12.9367V22.2153C0 24.808 1.82731 27.0277 4.352 27.5427V29.9489C4.352 30.7836 4.84634 31.5205 5.60552 31.8402C5.85269 31.9467 6.11752 32 6.38234 32C6.92083 32 7.43283 31.7869 7.82124 31.3962L11.5465 27.6493H20.427C23.4019 27.6493 25.8295 25.2164 25.8295 22.2153V19.5871L26.6328 20.3951C27.0301 20.7858 27.6303 20.9101 28.1512 20.697C28.672 20.4839 29.0074 19.9689 29.0074 19.4095V16.5505C30.7465 16.1421 32 14.5527 32 12.7503V4.1465C32 1.8646 30.155 0 27.8775 0H27.8863ZM23.6844 22.2153C23.6844 24.0178 22.2279 25.4828 20.4359 25.4828H11.1139C10.8314 25.4828 10.549 25.5982 10.3548 25.8024L6.51476 29.6826V26.566C6.51476 25.98 6.01159 25.4828 5.41131 25.4828C3.61931 25.4828 2.16276 24.0178 2.16276 22.2153V12.9367C2.16276 11.1343 3.61931 9.66926 5.41131 9.66926H20.4447C22.2367 9.66926 23.6932 11.1343 23.6932 12.9367V22.2153H23.6844ZM29.8549 12.7414C29.8549 13.7003 29.0781 14.4817 28.1247 14.4817H27.9393C27.3479 14.4817 26.8623 14.97 26.8623 15.5649V17.5538L25.8472 16.5239V12.9279C25.8472 9.93563 23.4284 7.4939 20.4447 7.4939H12.9412V4.13762C12.9412 3.0455 13.824 2.1576 14.9098 2.1576H27.8952C28.981 2.1576 29.8637 3.0455 29.8637 4.13762V12.7325L29.8549 12.7414Z" fill="black"/>
<path d="M7.60055 19.0544C8.27822 19.0544 8.82759 18.5018 8.82759 17.8202C8.82759 17.1386 8.27822 16.586 7.60055 16.586C6.92288 16.586 6.37352 17.1386 6.37352 17.8202C6.37352 18.5018 6.92288 19.0544 7.60055 19.0544Z" fill="black"/>
<path d="M12.8265 19.0544C13.5042 19.0544 14.0535 18.5018 14.0535 17.8202C14.0535 17.1386 13.5042 16.586 12.8265 16.586C12.1488 16.586 11.5994 17.1386 11.5994 17.8202C11.5994 18.5018 12.1488 19.0544 12.8265 19.0544Z" fill="black"/>
<path d="M18.0524 19.0544C18.7301 19.0544 19.2794 18.5018 19.2794 17.8202C19.2794 17.1386 18.7301 16.586 18.0524 16.586C17.3747 16.586 16.8254 17.1386 16.8254 17.8202C16.8254 18.5018 17.3747 19.0544 18.0524 19.0544Z" fill="black"/>
</g>
<defs>
<clipPath id="clip0_24_2145">
<rect width="32" height="32" fill="white"/>
</clipPath>
</defs>
</svg>
