<svg width="32" height="32" viewBox="0 0 32 32" fill="none" xmlns="http://www.w3.org/2000/svg">
<g clip-path="url(#clip0_24_1938)">
<path d="M9.1959 31.1111C8.62472 31.1111 8.1773 30.9247 7.85364 30.5517C7.53949 30.1788 7.38242 29.672 7.38242 29.0313V25.5027H6.61133C5.231 25.5027 4.04581 25.235 3.05578 24.6995C2.07526 24.164 1.31846 23.399 0.785364 22.4045C0.261788 21.4004 0 20.186 0 18.7612V7.63047C0 6.20566 0.261788 4.996 0.785364 4.0015C1.30894 2.99744 2.06574 2.22766 3.05578 1.69216C4.05533 1.15667 5.27384 0.888916 6.71129 0.888916H25.2887C26.7166 0.888916 27.9304 1.15667 28.9299 1.69216C29.9295 2.22766 30.6911 2.99744 31.2146 4.0015C31.7382 4.996 32 6.20566 32 7.63047V18.7612C32 20.186 31.7382 21.4004 31.2146 22.4045C30.6911 23.399 29.9295 24.164 28.9299 24.6995C27.9304 25.235 26.7166 25.5027 25.2887 25.5027H16.4641L11.5805 29.8489C11.095 30.2792 10.6762 30.5948 10.324 30.7956C9.97174 31.0059 9.59572 31.1111 9.1959 31.1111ZM9.89558 27.9412L14.4221 23.4372C14.7268 23.1312 15.0076 22.9304 15.2646 22.8348C15.5312 22.7296 15.8834 22.677 16.3213 22.677H25.203C26.5548 22.677 27.5544 22.3423 28.2017 21.673C28.8585 20.994 29.187 19.99 29.187 18.6608V7.71653C29.187 6.3969 28.8585 5.40241 28.2017 4.73303C27.5544 4.0541 26.5548 3.71463 25.203 3.71463H6.78269C5.44043 3.71463 4.44087 4.0541 3.78402 4.73303C3.13669 5.40241 2.81303 6.3969 2.81303 7.71653V18.6608C2.81303 19.99 3.13669 20.994 3.78402 21.673C4.44087 22.3423 5.44043 22.677 6.78269 22.677H8.73896C9.13878 22.677 9.42912 22.7679 9.61 22.9496C9.80039 23.1217 9.89558 23.4229 9.89558 23.8532V27.9412Z" fill="black"/>
</g>
<defs>
<clipPath id="clip0_24_1938">
<rect width="32" height="32" fill="white"/>
</clipPath>
</defs>
</svg>
