<svg width="32" height="32" viewBox="0 0 32 32" fill="none" xmlns="http://www.w3.org/2000/svg">
<path d="M32 16.0001C32 17.1023 31.12 18.0001 30.0356 18.0001H9.96444C8.88 18.0001 8 17.1023 8 16.0001C8 14.8979 8.88 14.0001 9.96444 14.0001H30.0356C31.12 14.0001 32 14.8979 32 16.0001ZM2.66667 13.3334C1.19111 13.3334 0 14.5245 0 16.0001C0 17.4756 1.19111 18.6667 2.66667 18.6667C4.14222 18.6667 5.33333 17.4756 5.33333 16.0001C5.33333 14.5245 4.14222 13.3334 2.66667 13.3334ZM30.0356 24.6667H9.96444C8.88 24.6667 8 25.5645 8 26.6667C8 27.769 8.88 28.6667 9.96444 28.6667H30.0356C31.12 28.6667 32 27.769 32 26.6667C32 25.5645 31.12 24.6667 30.0356 24.6667ZM2.66667 24.0001C1.19111 24.0001 0 25.1912 0 26.6667C0 28.1423 1.19111 29.3334 2.66667 29.3334C4.14222 29.3334 5.33333 28.1423 5.33333 26.6667C5.33333 25.1912 4.14222 24.0001 2.66667 24.0001ZM30.0356 3.33341H9.96444C8.88 3.33341 8 4.23119 8 5.33341C8 6.43564 8.88 7.33341 9.96444 7.33341H30.0356C31.12 7.33341 32 6.43564 32 5.33341C32 4.23119 31.12 3.33341 30.0356 3.33341ZM2.66667 2.66675C1.19111 2.66675 0 3.85786 0 5.33341C0 6.80897 1.19111 8.00008 2.66667 8.00008C4.14222 8.00008 5.33333 6.80897 5.33333 5.33341C5.33333 3.85786 4.14222 2.66675 2.66667 2.66675Z" fill="black"/>
</svg>
