<svg width="32" height="32" viewBox="0 0 32 32" fill="none" xmlns="http://www.w3.org/2000/svg">
<g clip-path="url(#clip0_73_22)">
<path d="M0 4.14222V27.8578C0 30.1422 1.85778 32 4.14222 32H27.8578C30.1422 32 32 30.1422 32 27.8578V4.14222C32 1.85778 30.1422 0 27.8578 0H4.14222C1.85778 0 0 1.85778 0 4.14222ZM24.5867 14.2933C23.4933 14.2933 22.4356 14.08 21.4311 13.6533C20.7911 13.3867 20.1867 13.0311 19.6356 12.6044L19.6533 19.7422C19.6533 21.3511 19.0133 22.8622 17.8578 24C16.9244 24.9244 15.7333 25.5111 14.4444 25.7067C14.1422 25.7511 13.8311 25.7778 13.52 25.7778C12.1422 25.7778 10.8356 25.3333 9.76889 24.5067C9.56444 24.3556 9.37778 24.1867 9.19111 24C7.94667 22.7644 7.29778 21.0933 7.41333 19.3422C7.49333 18 8.03556 16.7289 8.92444 15.7244C10.1067 14.4 11.76 13.6711 13.5289 13.6711C13.84 13.6711 14.1511 13.6978 14.4533 13.7422V16.9867C14.1689 16.8889 13.8578 16.8444 13.5378 16.8444C11.92 16.8444 10.6133 18.16 10.64 19.7778C10.6578 20.8089 11.2178 21.7156 12.0533 22.2133C12.4444 22.4444 12.8978 22.5956 13.3778 22.6222C13.7422 22.64 14.1067 22.5956 14.4533 22.48C15.6089 22.0978 16.4356 21.0133 16.4356 19.7422V14.96V6.23111H19.6267C19.6267 6.54222 19.6622 6.85333 19.7244 7.15556C19.9644 8.36444 20.6489 9.41333 21.6 10.1333C22.4267 10.7556 23.4578 11.1289 24.5778 11.1289H24.5867V14.3111V14.2933Z" fill="black"/>
</g>
<defs>
<clipPath id="clip0_73_22">
<rect width="32" height="32" fill="white"/>
</clipPath>
</defs>
</svg>
