<svg width="32" height="32" viewBox="0 0 32 32" fill="none" xmlns="http://www.w3.org/2000/svg">
<g clip-path="url(#clip0_24_53)">
<path d="M30.0176 20.2967C29.5642 19.8436 28.7641 19.8969 28.1507 20.39L27.6439 18.0445C27.7373 17.9779 27.8306 17.9113 27.9106 17.818L29.5242 16.2055C30.1509 15.5791 30.2576 14.6729 29.7642 14.1798C29.2708 13.6868 28.364 13.7934 27.7373 14.4197L27.0172 15.1393L26.2304 11.5279L29.6842 8.0763C31.2978 6.41049 33.1247 2.98558 31.1111 0.906645C30.431 0.20034 29.4308 -0.119496 28.4574 0.0404222C26.7238 0.306952 25.1636 1.10654 23.9234 2.33258L20.4696 5.78414L16.869 4.99788L17.5891 4.27825C18.2159 3.6519 18.3226 2.7457 17.8292 2.25262C17.3358 1.75954 16.429 1.86615 15.8022 2.4925L14.1887 4.105C14.1086 4.18496 14.0286 4.27825 13.962 4.37153L11.615 3.86513C12.1084 3.25211 12.1617 2.46584 11.7083 2.01274C11.2149 1.51966 10.3081 1.62628 9.68134 2.25262L8.69453 3.23878L3.94719 2.21264C3.38711 2.0927 2.80035 2.26595 2.4003 2.66574L1.33348 3.73186C0.960091 4.09168 0.773397 4.62474 0.853409 5.17112C0.93342 5.71751 1.25347 6.18394 1.70686 6.41049L13.7219 13.0338L7.89442 19.4038L1.65352 19.737C1.54684 19.737 1.44016 19.7903 1.37348 19.8569L0.386675 20.8431C0.0666289 21.1496 -0.0667235 21.6027 0.0266232 22.0558C0.0799642 22.3223 0.213317 22.5489 0.386675 22.7221C0.520027 22.8554 0.666715 22.9487 0.840073 23.0153L4.96067 24.5878C4.62728 25.494 4.66729 26.3336 5.17403 26.84C5.68077 27.3464 6.52089 27.3864 7.42769 27.0532L8.98791 31.1445C9.1346 31.5576 9.49465 31.8774 9.94805 31.9707C10.4014 32.064 10.8548 31.9307 11.1616 31.6242L12.1484 30.6381C12.2284 30.5581 12.2684 30.4648 12.2684 30.3582L12.6018 24.1214L18.9893 18.2977L25.617 30.2782C25.857 30.7447 26.3237 31.0645 26.8571 31.1445C27.4039 31.2244 27.9373 31.0379 28.3107 30.6514C28.4574 30.4915 28.6174 30.3316 28.7908 30.1716C29.3508 29.6519 30.0443 29.0122 29.8176 28.0527L28.7908 23.3218L29.7776 22.3357C30.4043 21.7093 30.511 20.8031 30.0176 20.31V20.2967Z" fill="black"/>
</g>
<defs>
<clipPath id="clip0_24_53">
<rect width="32" height="32" fill="white"/>
</clipPath>
</defs>
</svg>
