<svg width="32" height="32" viewBox="0 0 32 32" fill="none" xmlns="http://www.w3.org/2000/svg">
<g clip-path="url(#clip0_139_486)">
<path d="M31.3768 15.1423L17.4719 0.551685C16.6511 -0.21914 15.3497 -0.21914 14.4687 0.601739L0.658934 15.1173C0.0332642 15.6979 -0.161945 16.5738 0.138377 17.3497C0.448709 18.1655 1.23956 18.6811 2.13051 18.6811H3.63712V29.6528C3.63712 30.9492 4.69325 32.0154 5.99965 32.0154H12.7068V24.6325C12.7068 22.8756 14.0883 21.4441 15.8202 21.349C15.8602 21.349 15.9053 21.3439 15.9453 21.3439C15.9653 21.3439 15.9803 21.3439 16.0004 21.3439C17.8173 21.3439 19.2939 22.8205 19.2939 24.6375V32.0204H25.981L25.9961 32.0104C27.2924 32.0104 28.3586 30.9542 28.3586 29.6478V18.6761H29.8652C30.7562 18.6761 31.537 18.1555 31.8573 17.3447C32.1627 16.5839 31.9675 15.7279 31.3718 15.1473L31.3768 15.1423Z" fill="url(#paint0_linear_139_486)"/>
</g>
<defs>
<linearGradient id="paint0_linear_139_486" x1="5.84296e-07" y1="2.61968e-05" x2="32" y2="32" gradientUnits="userSpaceOnUse">
<stop offset="0.2" stop-color="#6694D1"/>
<stop offset="0.8" stop-color="#004DB3"/>
</linearGradient>
<clipPath id="clip0_139_486">
<rect width="32" height="32" fill="white"/>
</clipPath>
</defs>
</svg>
