<svg width="32" height="32" viewBox="0 0 32 32" fill="none" xmlns="http://www.w3.org/2000/svg">
<path d="M31.1111 21.6089C31.1111 20.24 29.9911 19.12 28.6222 19.12C27.2534 19.12 26.1334 20.24 26.1334 21.6089C26.1334 22.9778 27.2534 24.0978 28.6222 24.0978C29.9911 24.0978 31.1111 22.9778 31.1111 21.6089Z" fill="black"/>
<path d="M22.6934 21.6089C22.6934 20.24 21.5734 19.12 20.2045 19.12C18.8356 19.12 17.7156 20.24 17.7156 21.6089C17.7156 22.9778 18.8356 24.0978 20.2045 24.0978C21.5734 24.0978 22.6934 22.9778 22.6934 21.6089Z" fill="black"/>
<path d="M14.2845 21.6089C14.2845 20.24 13.1645 19.12 11.7956 19.12C10.4267 19.12 9.30669 20.24 9.30669 21.6089C9.30669 22.9778 10.4267 24.0978 11.7956 24.0978C13.1645 24.0978 14.2845 22.9778 14.2845 21.6089Z" fill="black"/>
<path d="M22.6934 10.4889C22.6934 9.12 21.5734 8 20.2045 8C18.8356 8 17.7156 9.12 17.7156 10.4889C17.7156 11.8578 18.8356 12.9778 20.2045 12.9778C21.5734 12.9778 22.6934 11.8578 22.6934 10.4889Z" fill="black"/>
<path d="M14.2845 10.4889C14.2845 9.12 13.1645 8 11.7956 8C10.4267 8 9.30669 9.12 9.30669 10.4889C9.30669 11.8578 10.4267 12.9778 11.7956 12.9778C13.1645 12.9778 14.2845 11.8578 14.2845 10.4889Z" fill="black"/>
<path d="M14.2845 21.6089C14.2845 20.24 13.1645 19.12 11.7956 19.12C10.4267 19.12 9.30669 20.24 9.30669 21.6089C9.30669 22.9778 10.4267 24.0978 11.7956 24.0978C13.1645 24.0978 14.2845 22.9778 14.2845 21.6089Z" fill="black"/>
<path d="M5.86669 21.6089C5.86669 20.24 4.74669 19.12 3.3778 19.12C2.00892 19.12 0.888916 20.24 0.888916 21.6089C0.888916 22.9778 2.00892 24.0978 3.3778 24.0978C4.74669 24.0978 5.86669 22.9778 5.86669 21.6089Z" fill="black"/>
<path d="M5.86669 10.4889C5.86669 9.12 4.74669 8 3.3778 8C2.00892 8 0.888916 9.12 0.888916 10.4889C0.888916 11.8578 2.00892 12.9778 3.3778 12.9778C4.74669 12.9778 5.86669 11.8578 5.86669 10.4889Z" fill="black"/>
<path d="M31.1111 10.4889C31.1111 9.12 29.9911 8 28.6222 8C27.2534 8 26.1334 9.12 26.1334 10.4889C26.1334 11.8578 27.2534 12.9778 28.6222 12.9778C29.9911 12.9778 31.1111 11.8578 31.1111 10.4889Z" fill="black"/>
</svg>
