<svg width="32" height="32" viewBox="0 0 32 32" fill="none" xmlns="http://www.w3.org/2000/svg">
<g clip-path="url(#clip0_24_31)">
<path d="M15.9867 0C15.9867 0 15.8667 0 15.8133 0C15.7867 0 15.7733 0 15.7467 0C7.13333 0.133333 0.16 7.10667 0 15.7067C0 15.7333 0 15.76 0 15.8C0 15.8667 0 15.9333 0 16C0 24.8267 7.17333 32 16 32C24.8267 32 32 24.8267 32 16C32 7.17333 24.8133 0 15.9867 0ZM8.37333 15.0533V10.4667C8.37333 9.97333 7.97333 9.57333 7.48 9.57333H3.36C3.57333 9.14667 3.81333 8.73333 4.06667 8.33333H7.48C7.97333 8.33333 8.37333 7.93333 8.37333 7.44V4.04C8.77333 3.78667 9.18667 3.54667 9.61333 3.33333V7.44C9.61333 7.93333 10.0133 8.33333 10.5067 8.33333H15.0933V9.57333H10.5067C10.0133 9.57333 9.61333 9.97333 9.61333 10.4667V15.0533H8.37333ZM3.26667 15.0533L6.57333 12.36V15.0533H3.26667ZM2.58667 11.3733H4.94667L1.98667 13.7867C2.12 12.96 2.32 12.1467 2.58667 11.3733ZM12.6667 11.3733H15.0933V13.8L12.6667 11.3733ZM15.0933 6.53333H12.4133L15.0933 3.26667V6.53333ZM11.4133 2.57333C12.1867 2.30667 13 2.10667 13.8267 1.98667L11.4133 4.93333V2.57333ZM11.4133 12.6533L13.8133 15.0533H11.4133V12.6533ZM6.57333 5.4V6.53333H5.44C5.8 6.13333 6.17333 5.76 6.57333 5.4ZM15.9867 30.2C8.44 30.2 2.28 24.28 1.82667 16.8533H15.9867C16.48 16.8533 16.88 16.4533 16.88 15.96V1.84C24.2933 2.30667 30.1867 8.46667 30.1867 16C30.1867 23.5333 23.8133 30.2 15.9867 30.2Z" fill="black"/>
<path d="M20.88 13.9733L20.64 14.0533V13.8C20.64 13.52 20.4133 13.2933 20.1333 13.2933C19.8533 13.2933 19.6267 13.52 19.6267 13.8V14.0533L19.3867 13.9733C19.12 13.88 18.84 14.0267 18.7467 14.2933C18.7333 14.3467 18.72 14.4 18.72 14.4533C18.72 14.6667 18.8533 14.8667 19.0667 14.9333L19.3067 15.0133L19.16 15.2133C19.0933 15.3067 19.0667 15.4133 19.0667 15.5067C19.0667 15.6667 19.1333 15.8133 19.28 15.92C19.5067 16.08 19.8267 16.04 19.9867 15.8133L20.1333 15.6133L20.28 15.8133C20.3733 15.9467 20.5333 16.0267 20.6933 16.0267C20.8 16.0267 20.9067 16 20.9867 15.9333C21.12 15.84 21.2 15.68 21.2 15.52C21.2 15.4133 21.1733 15.3067 21.1067 15.2267L20.96 15.0267L21.2 14.9467C21.4133 14.88 21.5467 14.68 21.5467 14.4667C21.5467 14.4133 21.5467 14.36 21.52 14.3067C21.44 14.04 21.1467 13.8933 20.88 13.9867V13.9733Z" fill="black"/>
<path d="M24.4267 21.44L24.1867 21.52V21.2667C24.1867 20.9867 23.96 20.76 23.68 20.76C23.4 20.76 23.1733 20.9867 23.1733 21.2667V21.52L22.9333 21.44C22.6667 21.3467 22.3733 21.4933 22.2933 21.76C22.28 21.8133 22.2667 21.8667 22.2667 21.92C22.2667 22.1333 22.4 22.3333 22.6133 22.4L22.8533 22.48L22.7067 22.68C22.64 22.7733 22.6133 22.88 22.6133 22.9733C22.6133 23.1333 22.68 23.28 22.8267 23.3867C23.0533 23.5467 23.3733 23.5067 23.5333 23.28L23.68 23.08L23.8267 23.28C23.92 23.4133 24.08 23.4933 24.24 23.4933C24.3467 23.4933 24.4533 23.4667 24.5333 23.4C24.6667 23.3067 24.7467 23.1467 24.7467 22.9867C24.7467 22.88 24.72 22.7733 24.6533 22.6933L24.5067 22.4933L24.7467 22.4133C24.96 22.3467 25.0933 22.1467 25.0933 21.9333C25.0933 21.88 25.0933 21.8267 25.0667 21.7733C24.9867 21.5067 24.6933 21.36 24.4267 21.4533V21.44Z" fill="black"/>
<path d="M22.6133 8.86667L22.8533 8.94667L22.7067 9.14667C22.64 9.24 22.6133 9.34667 22.6133 9.44C22.6133 9.6 22.68 9.74667 22.8267 9.85333C23.0533 10.0133 23.3733 9.97333 23.5333 9.74667L23.68 9.54667L23.8267 9.74667C23.92 9.88 24.08 9.96 24.24 9.96C24.3467 9.96 24.4533 9.93333 24.5333 9.86667C24.6667 9.77333 24.7467 9.61333 24.7467 9.45333C24.7467 9.34667 24.72 9.24 24.6533 9.16L24.5067 8.96L24.7467 8.88C24.96 8.81333 25.0933 8.61333 25.0933 8.4C25.0933 8.34667 25.0933 8.29333 25.0667 8.24C24.9867 7.97333 24.6933 7.82667 24.4267 7.92L24.1867 8V7.74667C24.1867 7.46667 23.96 7.24 23.68 7.24C23.4 7.24 23.1733 7.46667 23.1733 7.74667V8L22.9333 7.92C22.6667 7.82667 22.3733 7.97333 22.2933 8.24C22.28 8.29333 22.2667 8.34667 22.2667 8.4C22.2667 8.61333 22.4 8.81333 22.6133 8.88V8.86667Z" fill="black"/>
<path d="M28.1467 13.08C28.1467 13.08 28.1467 12.9733 28.12 12.92C28.04 12.6533 27.7467 12.5067 27.48 12.6L27.24 12.68V12.4267C27.24 12.1467 27.0133 11.92 26.7333 11.92C26.4533 11.92 26.2267 12.1467 26.2267 12.4267V12.68L25.9867 12.6C25.72 12.5067 25.44 12.6533 25.3467 12.92C25.3333 12.9733 25.32 13.0267 25.32 13.08C25.32 13.2933 25.4533 13.4933 25.6667 13.56L25.9067 13.64L25.76 13.84C25.6933 13.9333 25.6667 14.04 25.6667 14.1333C25.6667 14.2933 25.7333 14.44 25.88 14.5467C26.1067 14.7067 26.4267 14.6667 26.5867 14.44L26.7333 14.24L26.88 14.44C26.9733 14.5733 27.1333 14.6533 27.2933 14.6533C27.4 14.6533 27.5067 14.6267 27.5867 14.56C27.72 14.4667 27.8 14.3067 27.8 14.1467C27.8 14.04 27.7733 13.9333 27.7067 13.8533L27.56 13.6533L27.8 13.5733C28.0133 13.5067 28.1467 13.3067 28.1467 13.0933V13.08Z" fill="black"/>
<path d="M25.3333 16.52C24.9467 16.52 24.6533 16.8267 24.6533 17.2133C24.6533 17.6 24.96 17.9067 25.3467 17.9067C25.7333 17.9067 26.04 17.6 26.04 17.2133C26.04 16.8267 25.7333 16.52 25.3467 16.52H25.3333Z" fill="black"/>
<path d="M11.5867 20.76L10.1333 21.2267V19.6933C10.1333 19.3733 9.88 19.12 9.56 19.12C9.24 19.12 8.98667 19.3733 8.98667 19.6933V21.2267L7.53333 20.76C7.22667 20.6667 6.90667 20.8267 6.81333 21.1333C6.8 21.1867 6.78667 21.2533 6.78667 21.3067C6.78667 21.5467 6.94667 21.7733 7.18667 21.8533L8.64 22.32L7.74667 23.56C7.66667 23.6667 7.64 23.7867 7.64 23.8933C7.64 24.0667 7.72 24.24 7.88 24.36C8.13333 24.5467 8.49333 24.4933 8.68 24.2267L9.57333 22.9867L10.4667 24.2267C10.5733 24.3867 10.76 24.4667 10.9333 24.4667C11.0533 24.4667 11.1733 24.4267 11.2667 24.36C11.4267 24.2533 11.5067 24.0667 11.5067 23.8933C11.5067 23.7733 11.4667 23.6533 11.4 23.56L10.5067 22.32L11.96 21.8533C12.2 21.7733 12.36 21.5467 12.36 21.3067C12.36 21.2533 12.36 21.1867 12.3333 21.1333C12.24 20.8267 11.9067 20.6667 11.6133 20.76H11.5867Z" fill="black"/>
</g>
<defs>
<clipPath id="clip0_24_31">
<rect width="32" height="32" fill="white"/>
</clipPath>
</defs>
</svg>
