<svg width="32" height="32" viewBox="0 0 32 32" fill="none" xmlns="http://www.w3.org/2000/svg">
<path d="M16.5448 27.0831H14.6396C14.2265 27.0831 13.8402 26.8778 13.6137 26.522L12.0682 24.1409H10.8158C10.4827 24.1409 10.1762 24.0041 9.93641 23.7714L9.33685 23.1556H6.01932C5.75285 23.1556 5.48638 23.0598 5.27321 22.8956L1.44938 19.9534C1.18292 19.7481 1.00971 19.447 0.96974 19.1186L0.0104537 12.2352C-0.0161932 12.0436 0.0104537 11.8383 0.0637474 11.6604L1.98232 5.76229C2.15553 5.24227 2.62185 4.90015 3.15478 4.90015H19.2761C19.9556 4.90015 20.5152 5.46123 20.5152 6.17283V6.87075H22.154C22.7003 6.87075 23.1799 7.24024 23.3398 7.77395L23.9527 9.86771H24.4456L28.7891 4.70857C29.0156 4.47592 29.0289 4.33908 29.6284 4.10644C30.228 3.8738 30.5477 4.07907 30.9608 4.18855C31.3738 4.29802 32 5.59807 32 6.30968L31.1739 11.0857C31.1739 11.2772 31.134 11.4825 31.0407 11.6467L29.2554 15.3006V17.9417C29.2554 18.2838 29.1221 18.5986 28.8956 18.8449L26.7772 20.5008C26.7106 20.5692 26.6973 20.6787 26.7506 20.7608L29.0422 23.5251C29.3753 24.0314 29.8549 25.2357 29.775 26.8094L28.6159 28C26.604 27.0558 25.7113 26.221 25.2184 25.7146L22.7136 23.1419H20.1688L20.0356 23.4293C19.8224 23.8535 19.396 24.1272 18.9297 24.1272H18.3835L17.704 26.2073C17.5308 26.7273 17.0644 27.0694 16.5315 27.0694L16.5448 27.0831Z" fill="black"/>
</svg>
