<svg width="32" height="32" viewBox="0 0 32 32" fill="none" xmlns="http://www.w3.org/2000/svg">
<path d="M26.6679 5.93882H23.9685V3.54824C23.9685 1.59059 22.4007 0 20.4712 0H4.49722C2.56772 0 1 1.59059 1 3.54824V22.5129C1 24.4706 2.56772 26.0612 4.49722 26.0612H8.02226V27.6047C8.02226 30.0235 9.96104 32 12.3544 32H26.6679C29.0519 32 31 30.0329 31 27.6047V10.3341C31 7.91529 29.0612 5.93882 26.6679 5.93882ZM3.5603 22.5129V3.54824C3.5603 3.02118 3.98701 2.58824 4.50649 2.58824H20.4805C21 2.58824 21.4267 3.02118 21.4267 3.54824V22.5129C21.4267 23.04 21 23.4729 20.4805 23.4729H4.49722C3.97774 23.4729 3.55102 23.04 3.55102 22.5129H3.5603ZM28.4397 27.6141C28.4397 28.6024 27.6419 29.4118 26.6679 29.4118H12.3544C11.3803 29.4118 10.5826 28.6024 10.5826 27.6141V26.0706H20.4712C22.4007 26.0706 23.9685 24.48 23.9685 22.5224V8.54588H26.6679C27.6419 8.54588 28.4397 9.35529 28.4397 10.3435V27.6235V27.6141Z" fill="black"/>
</svg>
