<svg width="32" height="32" viewBox="0 0 32 32" fill="none" xmlns="http://www.w3.org/2000/svg">
<g clip-path="url(#clip0_24_25)">
<path d="M31.7067 12.7085L26.1743 4.22908C25.7877 3.63309 25.4278 3.01 25.2545 2.33273C25.0012 1.37101 24.1347 0.666656 23.1082 0.666656H22.5749C22.2816 0.666656 22.0417 0.910473 22.0417 1.20847V3.52472L20.7886 5.58362L18.5356 4.54063L19.3621 3.10482C19.5754 2.72555 19.5888 2.26501 19.3621 1.88574C19.1488 1.50647 18.7489 1.2762 18.3223 1.2762H13.1898C12.8566 1.2762 12.5366 1.41165 12.31 1.66901L5.63111 8.34687L0.831925 10.6496C0.298681 10.8257 -0.047927 11.3539 0.00539738 11.9364L1.67178 20.1449C1.72511 20.646 2.07172 21.066 2.55163 21.2014L8.25734 22.9758C8.59062 23.0707 8.95055 23.0029 9.24384 22.7998L14.2297 19.3592L20.322 21.7026L21.2685 23.8563C21.2685 24.5336 21.8017 25.0754 22.4683 25.0754H27.6941C28.134 25.0754 28.5472 24.818 28.7605 24.4252L31.8667 19.2373C31.96 19.0612 32 18.8716 32 18.6684V13.5076C32 13.2232 31.9067 12.9523 31.72 12.7356L31.7067 12.7085Z" fill="black"/>
<path d="M26.0143 26.1455H22.8682C22.5749 26.1455 22.295 26.308 22.1083 26.5789C21.9217 26.8498 21.8284 27.2155 21.8817 27.5677L22.2416 30.3039C22.3216 30.8999 22.7349 31.3333 23.2415 31.3333H25.0012C25.4011 31.3333 25.7477 31.0489 25.921 30.6154L26.9475 27.8793C27.0942 27.5 27.0675 27.0665 26.8809 26.7144C26.6942 26.3622 26.3743 26.159 26.0277 26.159L26.0143 26.1455Z" fill="black"/>
</g>
<defs>
<clipPath id="clip0_24_25">
<rect width="32" height="32" fill="white"/>
</clipPath>
</defs>
</svg>
