<svg width="32" height="32" viewBox="0 0 32 32" fill="none" xmlns="http://www.w3.org/2000/svg">
<path d="M5.61804 31C4.74536 31 4.08794 30.7826 3.64578 30.3478C3.21526 29.913 3 29.2666 3 28.4085V3.57437C3 2.71625 3.22108 2.07551 3.66324 1.65217C4.10539 1.21739 4.75699 1 5.61804 1H9.80689C10.6679 1 11.3195 1.21167 11.7617 1.63501C12.2038 2.05835 12.4249 2.70481 12.4249 3.57437V28.4085C12.4249 29.2666 12.2038 29.913 11.7617 30.3478C11.3195 30.7826 10.6679 31 9.80689 31H5.61804ZM22.2106 31C21.3262 31 20.663 30.7826 20.2209 30.3478C19.7903 29.913 19.5751 29.2666 19.5751 28.4085V3.57437C19.5751 2.71625 19.7962 2.07551 20.2383 1.65217C20.6805 1.21739 21.3379 1 22.2106 1H26.382C27.2546 1 27.9062 1.21167 28.3368 1.63501C28.7789 2.05835 29 2.70481 29 3.57437V28.4085C29 29.2666 28.7789 29.913 28.3368 30.3478C27.9062 30.7826 27.2546 31 26.382 31H22.2106Z" fill="black"/>
</svg>
