<svg width="32" height="32" viewBox="0 0 32 32" fill="none" xmlns="http://www.w3.org/2000/svg">
<g clip-path="url(#clip0_24_2036)">
<path d="M24.9956 22.3111C26.5778 20.0889 27.5111 17.36 27.5111 14.4C27.5111 6.94225 21.5467 0.888916 14.1956 0.888916C6.84447 0.888916 0.888916 6.94225 0.888916 14.4C0.888916 21.8578 6.84447 27.9111 14.1956 27.9111C17.3334 27.9111 20.2222 26.8089 22.4978 24.96L28.2934 30.8356C28.6489 31.1911 29.2267 31.2 29.5822 30.8356L30.8445 29.5556C31.2 29.2 31.2 28.6134 30.8445 28.2489L24.9867 22.3111H24.9956ZM14.2045 24.2489C8.84447 24.2489 4.50669 19.84 4.50669 14.4C4.50669 8.96003 8.84447 4.55114 14.1956 4.55114C19.5467 4.55114 23.8934 8.96003 23.8934 14.4C23.8934 19.84 19.5467 24.2489 14.1956 24.2489H14.2045Z" fill="black"/>
</g>
<defs>
<clipPath id="clip0_24_2036">
<rect width="32" height="32" fill="white"/>
</clipPath>
</defs>
</svg>
