<svg width="32" height="32" viewBox="0 0 32 32" fill="none" xmlns="http://www.w3.org/2000/svg">
<path d="M27.8621 3.21463C27.7304 3.07805 27.5516 3 27.3728 3C27.194 3 27.0058 3.07805 26.8835 3.21463L11.2916 19.1951L5.11887 12.8732C4.98714 12.7366 4.80835 12.6585 4.62957 12.6585C4.45078 12.6585 4.26259 12.7366 4.14026 12.8732L0.207013 16.9024C0.0752775 17.039 0 17.2146 0 17.4098C0 17.5951 0.0564581 17.7805 0.178784 17.9171L10.7741 28.7951C10.9058 28.9317 11.0846 29 11.2634 29C11.4516 29 11.6304 28.922 11.7527 28.7951L31.7953 8.23902C32.0682 7.96585 32.0682 7.51707 31.7953 7.23415L27.8621 3.21463Z" fill="black"/>
</svg>
