<svg width="32" height="32" viewBox="0 0 32 32" fill="none" xmlns="http://www.w3.org/2000/svg">
<path d="M29.7973 17.1047C29.3867 16.145 28.4422 15.5351 27.3849 15.5351H22.4983V2.03936C22.4983 0.919713 21.5641 0 20.4041 0H11.5857C10.4359 0 9.49143 0.909716 9.49143 2.03936V15.5351H4.61514C3.55775 15.5351 2.60303 16.155 2.20266 17.1047C1.79202 18.0644 2.01787 19.144 2.76728 19.8838L14.6552 31.4602C15.0247 31.8201 15.5175 32 16 32C16.4825 32 16.9753 31.8201 17.3448 31.4602L29.2327 19.8838C29.9821 19.154 30.208 18.0644 29.7973 17.1047ZM27.4875 18.1743L16 29.3608L4.50221 18.1743C4.50221 18.1743 4.43035 18.1043 4.47142 18.0144C4.51248 17.9244 4.57408 17.9244 4.61514 17.9244H10.7336C11.4112 17.9244 11.9655 17.3846 11.9655 16.7248V2.39925H20.0448V16.7248C20.0448 17.3846 20.5991 17.9244 21.2767 17.9244H27.3951C27.3951 17.9244 27.4978 17.9244 27.5389 18.0144C27.5799 18.1043 27.5389 18.1543 27.5081 18.1743H27.4875Z" fill="black"/>
</svg>
