<svg width="32" height="32" viewBox="0 0 32 32" fill="none" xmlns="http://www.w3.org/2000/svg">
<path d="M28.0454 3.75459H12.5803C11.9842 3.75459 11.5009 4.23785 11.5009 4.83399V9.69608C11.5009 10.2922 11.9842 10.7755 12.5803 10.7755H28.0454C28.6415 10.7755 29.1248 10.2922 29.1248 9.69608V4.83399C29.1248 4.23785 28.6415 3.75459 28.0454 3.75459Z" fill="black"/>
<path d="M2.68418 0.888916C1.20358 0.888916 0 2.0925 0 3.5731V21.5122C0 22.9928 1.20358 24.1964 2.68418 24.1964H12.2269L10.8991 29.1635H8.34866C7.87104 29.1635 7.48896 29.5456 7.48896 30.0232C7.48896 30.5009 7.87104 30.8829 8.34866 30.8829H23.6609C24.1385 30.8829 24.5206 30.5009 24.5206 30.0232C24.5206 29.5456 24.1385 29.1635 23.6609 29.1635H21.1009L19.7731 24.1964H29.3158C30.7964 24.1964 32 22.9928 32 21.5122V3.5731C32 2.0925 30.7964 0.888916 29.3158 0.888916H2.68418ZM19.5152 29.154H12.4752L13.803 24.1868H18.1875L19.5152 29.154ZM30.5576 21.5026C30.5576 22.1904 29.994 22.754 29.3063 22.754H2.68418C1.99642 22.754 1.43284 22.1904 1.43284 21.5026V3.5731C1.43284 2.88533 1.99642 2.32175 2.68418 2.32175H29.3158C30.0036 2.32175 30.5672 2.88533 30.5672 3.5731V21.5122L30.5576 21.5026Z" fill="black"/>
</svg>
