<svg width="32" height="32" viewBox="0 0 32 32" fill="none" xmlns="http://www.w3.org/2000/svg">
<g clip-path="url(#clip0_1597_37)">
<path d="M16 0C7.16 0 0 7.16 0 16C0 24.84 7.16 32 16 32C24.84 32 32 24.84 32 16C32 7.16 24.84 0 16 0ZM16 29.4C8.61 29.4 2.6 23.39 2.6 16C2.6 8.61 8.61 2.6 16 2.6C23.39 2.6 29.4 8.61 29.4 16C29.4 23.39 23.39 29.4 16 29.4ZM25 14.74V17.27C25 17.46 24.85 17.61 24.66 17.61H17.6V24.67C17.6 24.86 17.45 25.01 17.26 25.01H14.73C14.54 25.01 14.39 24.86 14.39 24.67V17.61H7.33C7.14 17.61 6.99 17.46 6.99 17.27V14.74C6.99 14.55 7.14 14.4 7.33 14.4H14.39V7.34C14.39 7.15 14.54 7 14.73 7H17.26C17.45 7 17.6 7.15 17.6 7.34V14.4H24.66C24.85 14.4 25 14.55 25 14.74Z" fill="black"/>
</g>
<defs>
<clipPath id="clip0_1597_37">
<rect width="32" height="32" fill="white"/>
</clipPath>
</defs>
</svg>
