<svg width="32" height="32" viewBox="0 0 32 32" fill="none" xmlns="http://www.w3.org/2000/svg">
<g clip-path="url(#clip0_171_38)">
<path d="M20.4178 20.96C20.64 21.4133 20.4444 21.9556 19.9911 22.1778C19.8667 22.24 19.7333 22.2667 19.6 22.2667C19.2622 22.2667 18.9333 22.08 18.7733 21.7511L12.3289 8.29335C12.1067 7.84001 12.3022 7.29779 12.7556 7.07557C13.2089 6.86224 13.7511 7.0489 13.9733 7.50224L14.5333 8.68446L22.1333 0.302237C22.4711 -0.0710965 23.0489 -0.0977631 23.4222 0.240015C23.7956 0.577792 23.8222 1.15557 23.4844 1.5289L15.3956 10.4622L19.0044 18.0089L31.0311 17.3067C31.5289 17.2711 31.9644 17.6622 32 18.16C32.0267 18.6667 31.6444 19.0933 31.1378 19.1289L19.8578 19.7867L20.4178 20.9689V20.96ZM4.46222 12.3022C0.951111 13.9822 -0.533333 18.1867 1.14667 21.6978L1.30667 22.0445C2.05333 23.6 3.29778 24.7556 4.75556 25.4133V20.9778C4.75556 19.0133 6.34667 17.4222 8.31111 17.4222C10.2756 17.4222 11.8667 19.0133 11.8667 20.9778V24.7911L17.4044 22.1422L11.1556 9.08446L4.45333 12.2933L4.46222 12.3022ZM14.8533 28.4445H10.9867V20.9867C10.9867 19.5111 9.79556 18.32 8.32 18.32C6.84444 18.32 5.65333 19.5111 5.65333 20.9867V28.4445H1.77778C0.8 28.4445 0 29.2445 0 30.2222C0 31.2 0.8 32 1.77778 32H14.8533C15.8311 32 16.6311 31.2 16.6311 30.2222C16.6311 29.2445 15.8311 28.4445 14.8533 28.4445ZM7.96444 3.54668L10.2667 4.19557L10.9156 6.49779C10.9422 6.59557 11.0311 6.65779 11.1289 6.65779C11.2267 6.65779 11.3156 6.59557 11.3422 6.49779L11.9911 4.19557L14.2933 3.54668C14.3911 3.52001 14.4533 3.43113 14.4533 3.33335C14.4533 3.23557 14.3911 3.14668 14.2933 3.12001L11.9911 2.47113L11.3422 0.168904C11.3156 0.0711257 11.2267 0.00890351 11.1289 0.00890351C11.0311 0.00890351 10.9422 0.0711257 10.9156 0.168904L10.2667 2.47113L7.96444 3.12001C7.86667 3.14668 7.80444 3.23557 7.80444 3.33335C7.80444 3.43113 7.86667 3.52001 7.96444 3.54668ZM31.84 24.3467L29.5378 23.6978L28.8889 21.3956C28.8622 21.2978 28.7733 21.2356 28.6756 21.2356C28.5778 21.2356 28.4889 21.2978 28.4622 21.3956L27.8133 23.6978L25.5111 24.3467C25.4133 24.3733 25.3511 24.4622 25.3511 24.56C25.3511 24.6578 25.4133 24.7467 25.5111 24.7733L27.8133 25.4222L28.4622 27.7245C28.4889 27.8222 28.5778 27.8845 28.6756 27.8845C28.7733 27.8845 28.8622 27.8222 28.8889 27.7245L29.5378 25.4222L31.84 24.7733C31.9378 24.7467 32 24.6578 32 24.56C32 24.4622 31.9378 24.3733 31.84 24.3467ZM2.69333 8.31113L4.47111 8.81779L4.97778 10.5956C4.99556 10.6667 5.06667 10.72 5.14667 10.72C5.22667 10.72 5.28889 10.6667 5.31556 10.5956L5.82222 8.81779L7.6 8.31113C7.67111 8.29335 7.72444 8.22224 7.72444 8.14224C7.72444 8.06224 7.67111 8.00001 7.6 7.97335L5.82222 7.46668L5.31556 5.6889C5.29778 5.61779 5.22667 5.56446 5.14667 5.56446C5.06667 5.56446 5.00444 5.61779 4.97778 5.6889L4.47111 7.46668L2.69333 7.97335C2.62222 7.99113 2.56889 8.06224 2.56889 8.14224C2.56889 8.22224 2.62222 8.28446 2.69333 8.31113Z" fill="black"/>
</g>
<defs>
<clipPath id="clip0_171_38">
<rect width="32" height="32" fill="white"/>
</clipPath>
</defs>
</svg>
