<svg width="32" height="32" viewBox="0 0 32 32" fill="none" xmlns="http://www.w3.org/2000/svg">
<g clip-path="url(#clip0_24_1948)">
<path d="M16.3358 6.29174C11.417 6.29174 7.41601 10.2927 7.41601 15.2116C7.41601 17.3925 8.2162 19.495 9.65969 21.1267C10.0441 21.5661 10.2245 22.0368 10.2245 22.6173C10.2245 24.1706 11.4876 25.4337 13.0409 25.4337H19.6229C21.1762 25.4337 22.4393 24.1706 22.4393 22.6173C22.4393 22.0368 22.6197 21.5582 23.0041 21.1267C24.4555 19.495 25.2478 17.3925 25.2478 15.2116C25.2478 10.2927 21.2468 6.29174 16.328 6.29174H16.3358ZM21.545 19.8245C20.8389 20.6168 20.4859 21.5582 20.4859 22.6173C20.4859 23.088 20.1015 23.4724 19.6308 23.4724H13.0488C12.5781 23.4724 12.1936 23.088 12.1936 22.6173C12.1936 21.5582 11.8328 20.6168 11.1346 19.8245C10.0049 18.5536 9.38512 16.9139 9.38512 15.2116C9.38512 11.3753 12.5075 8.253 16.3437 8.253C20.1799 8.253 23.3023 11.3753 23.3023 15.2116C23.3023 16.9139 22.6825 18.5536 21.5528 19.8245H21.545Z" fill="black"/>
<path d="M19.0345 13.015L14.8139 17.2356L14.3589 16.7806C13.9745 16.3962 13.3547 16.3962 12.9703 16.7806C12.5859 17.165 12.5859 17.7848 12.9703 18.1692L14.1235 19.3224C14.3118 19.5107 14.5629 19.6126 14.8139 19.6126C15.0649 19.6126 15.316 19.5185 15.5043 19.3224L20.4231 14.4035C20.8075 14.0191 20.8075 13.3994 20.4231 13.015C20.0387 12.6305 19.4189 12.6305 19.0345 13.015Z" fill="black"/>
<path d="M20.2113 26.7595H12.4682C11.9269 26.7595 11.4876 27.1988 11.4876 27.7401C11.4876 28.2814 11.9269 28.7208 12.4682 28.7208H20.2113C20.7526 28.7208 21.1919 28.2814 21.1919 27.7401C21.1919 27.1988 20.7526 26.7595 20.2113 26.7595Z" fill="black"/>
<path d="M18.807 30.0387H13.8646C13.3233 30.0387 12.884 30.4781 12.884 31.0194C12.884 31.5607 13.3233 32 13.8646 32H18.807C19.3483 32 19.7877 31.5607 19.7877 31.0194C19.7877 30.4781 19.3483 30.0387 18.807 30.0387Z" fill="black"/>
<path d="M15.9671 3.99314C16.3986 3.99314 16.7516 3.64011 16.7516 3.20863V0.784506C16.7516 0.353028 16.3986 0 15.9671 0C15.5356 0 15.1826 0.353028 15.1826 0.784506V3.20863C15.1826 3.64011 15.5356 3.99314 15.9671 3.99314Z" fill="black"/>
<path d="M30.253 14.2937H27.8289C27.3974 14.2937 27.0443 14.6467 27.0443 15.0782C27.0443 15.5097 27.3974 15.8627 27.8289 15.8627H30.253C30.6845 15.8627 31.0375 15.5097 31.0375 15.0782C31.0375 14.6467 30.6845 14.2937 30.253 14.2937Z" fill="black"/>
<path d="M4.09755 14.2937H1.67342C1.24194 14.2937 0.888916 14.6467 0.888916 15.0782C0.888916 15.5097 1.24194 15.8627 1.67342 15.8627H4.09755C4.52902 15.8627 4.88205 15.5097 4.88205 15.0782C4.88205 14.6467 4.52902 14.2937 4.09755 14.2937Z" fill="black"/>
<path d="M25.5146 4.41677L23.8043 6.12699C23.4984 6.43295 23.4984 6.92719 23.8043 7.23315C23.9612 7.39005 24.1574 7.46065 24.3613 7.46065C24.5653 7.46065 24.7614 7.3822 24.9183 7.23315L26.6286 5.52292C26.9345 5.21696 26.9345 4.72273 26.6286 4.41677C26.3226 4.11081 25.8284 4.11081 25.5224 4.41677H25.5146Z" fill="black"/>
<path d="M7.01591 7.24099C7.17281 7.39789 7.36894 7.4685 7.57291 7.4685C7.77688 7.4685 7.97301 7.39005 8.12991 7.24099C8.43586 6.93503 8.43586 6.44079 8.12991 6.13484L6.41968 4.42461C6.11373 4.11866 5.61949 4.11866 5.31353 4.42461C5.00757 4.73057 5.00757 5.22481 5.31353 5.53077L7.02375 7.24099H7.01591Z" fill="black"/>
<path d="M7.01591 23.0959L5.30569 24.8061C4.99973 25.112 4.99973 25.6063 5.30569 25.9122C5.46259 26.0691 5.65871 26.1397 5.86268 26.1397C6.06666 26.1397 6.26278 26.0613 6.41968 25.9122L8.12991 24.202C8.43586 23.8961 8.43586 23.4018 8.12991 23.0959C7.82395 22.7899 7.32971 22.7899 7.02375 23.0959H7.01591Z" fill="black"/>
<path d="M24.9105 23.0959C24.6045 22.7899 24.1103 22.7899 23.8043 23.0959C23.4984 23.4018 23.4984 23.8961 23.8043 24.202L25.5146 25.9122C25.6715 26.0691 25.8676 26.1397 26.0716 26.1397C26.2755 26.1397 26.4717 26.0613 26.6286 25.9122C26.9345 25.6063 26.9345 25.112 26.6286 24.8061L24.9183 23.0959H24.9105Z" fill="black"/>
</g>
<defs>
<clipPath id="clip0_24_1948">
<rect width="32" height="32" fill="white"/>
</clipPath>
</defs>
</svg>
