<svg width="32" height="32" viewBox="0 0 32 32" fill="none" xmlns="http://www.w3.org/2000/svg">
<g clip-path="url(#clip0_77_162)">
<path d="M20.1867 8.18667C20.1867 7.81333 19.8844 7.51111 19.5111 7.51111H11.8133V10.5156H20.1956V8.18667H20.1867Z" fill="black"/>
<path d="M10.1956 24.4889H21.7956V17.7156H10.1956V24.4889ZM12.4267 19.2178H19.5733C19.8756 19.2178 20.1156 19.4578 20.1156 19.76C20.1156 20.0622 19.8756 20.3022 19.5733 20.3022H12.4267C12.1244 20.3022 11.8844 20.0622 11.8844 19.76C11.8844 19.4578 12.1244 19.2178 12.4267 19.2178ZM12.4267 21.6178H16C16.3022 21.6178 16.5422 21.8578 16.5422 22.16C16.5422 22.4622 16.3022 22.7022 16 22.7022H12.4267C12.1244 22.7022 11.8844 22.4622 11.8844 22.16C11.8844 21.8578 12.1244 21.6178 12.4267 21.6178Z" fill="black"/>
<path d="M24.1956 11.8044H7.80444C7.64444 11.8044 7.51111 11.9378 7.51111 12.0978V18.8089C7.51111 18.9689 7.64444 19.1022 7.80444 19.1022H8.90667V16.4178H23.0933V19.1022H24.1956C24.3556 19.1022 24.4889 18.9689 24.4889 18.8089V12.0978C24.4889 11.9378 24.3556 11.8044 24.1956 11.8044ZM11.1644 14.4356H9.55556C9.2 14.4356 8.90667 14.1511 8.90667 13.7867C8.90667 13.4222 9.19111 13.1378 9.55556 13.1378H11.1644C11.52 13.1378 11.8133 13.4222 11.8133 13.7867C11.8133 14.1511 11.5289 14.4356 11.1644 14.4356Z" fill="black"/>
<path d="M0 4.14222V27.8578C0 30.1422 1.85778 32 4.14222 32H27.8578C30.1422 32 32 30.1422 32 27.8578V4.14222C32 1.85778 30.1422 0 27.8578 0H4.14222C1.85778 0 0 1.85778 0 4.14222ZM25.7778 18.8178C25.7778 19.6889 25.0667 20.4 24.1956 20.4H23.0933V25.7778H8.90667V20.4H7.80444C6.93333 20.4 6.22222 19.6889 6.22222 18.8178V12.1067C6.22222 11.2356 6.93333 10.5244 7.80444 10.5244H10.5156V6.23111H19.5022C20.5867 6.23111 21.4667 7.11111 21.4667 8.19556V10.5244H24.1778C25.0489 10.5244 25.76 11.2356 25.76 12.1067V18.8178H25.7778Z" fill="black"/>
</g>
<defs>
<clipPath id="clip0_77_162">
<rect width="32" height="32" fill="white"/>
</clipPath>
</defs>
</svg>
