<svg width="32" height="32" viewBox="0 0 32 32" fill="none" xmlns="http://www.w3.org/2000/svg">
<g clip-path="url(#clip0_24_2110)">
<path d="M13.4119 25.0897L8.25002 28.3335L10.336 20.0515C10.4244 19.6891 10.3006 19.3091 10.0178 19.0704L3.45937 13.5903L11.98 13.0158C12.3512 12.9893 12.6783 12.7506 12.8197 12.4059L16.0017 4.47749L19.1837 12.4059C19.3251 12.7506 19.6521 12.9893 20.0234 13.0158L28.544 13.5903L28.27 13.8201C27.8546 14.1649 27.8015 14.7747 28.1463 15.1902C28.491 15.6056 29.1009 15.6586 29.5163 15.3139L31.6464 13.5373C31.947 13.281 32.0707 12.8656 31.947 12.4943C31.8232 12.1142 31.4873 11.8491 31.0896 11.8226L20.757 11.1243L16.9033 1.4988C16.753 1.12756 16.3994 0.888916 16.0017 0.888916C15.6039 0.888916 15.2504 1.12756 15.1001 1.4988L11.2376 11.1066L0.904941 11.8049C0.507193 11.8314 0.171316 12.0966 0.0475726 12.4766C-0.0761712 12.8567 0.0475726 13.2721 0.348093 13.5196L8.29422 20.1576L5.76631 30.1985C5.66908 30.5874 5.81934 30.9852 6.13754 31.2238C6.30548 31.3476 6.50877 31.4094 6.71206 31.4094C6.88884 31.4094 7.07445 31.3564 7.22472 31.2592L14.4372 26.7337C14.888 26.4509 15.0294 25.8498 14.7466 25.3902C14.4637 24.9394 13.8627 24.798 13.4031 25.0808L13.4119 25.0897Z" fill="black"/>
<path d="M23.8859 15.1813C19.4135 15.1813 15.7719 18.8229 15.7719 23.2954C15.7719 27.7678 19.4135 31.4094 23.8859 31.4094C28.3584 31.4094 32 27.7678 32 23.2954C32 18.8229 28.3584 15.1813 23.8859 15.1813ZM23.8859 29.4737C20.483 29.4737 17.7164 26.7072 17.7164 23.3042C17.7164 19.9013 20.483 17.1347 23.8859 17.1347C27.2889 17.1347 30.0555 19.9013 30.0555 23.3042C30.0555 26.7072 27.2889 29.4737 23.8859 29.4737Z" fill="black"/>
<path d="M27.775 22.3231H24.8494V19.4063C24.8494 18.8671 24.4163 18.434 23.8771 18.434C23.3379 18.434 22.9048 18.8671 22.9048 19.4063V22.3231H19.9792C19.44 22.3231 19.0069 22.7562 19.0069 23.2954C19.0069 23.8346 19.44 24.2677 19.9792 24.2677H22.9048V27.1933C22.9048 27.7325 23.3379 28.1656 23.8771 28.1656C24.4163 28.1656 24.8494 27.7325 24.8494 27.1933V24.2677H27.775C28.3142 24.2677 28.7473 23.8346 28.7473 23.2954C28.7473 22.7562 28.3142 22.3231 27.775 22.3231Z" fill="black"/>
</g>
<defs>
<clipPath id="clip0_24_2110">
<rect width="32" height="32" fill="white"/>
</clipPath>
</defs>
</svg>
