<svg width="32" height="32" viewBox="0 0 32 32" fill="none" xmlns="http://www.w3.org/2000/svg">
<path d="M21.3825 3.93412V3.10588C21.3825 1.39294 19.9896 0 18.2767 0H14.1355C12.4225 0 11.0296 1.39294 11.0296 3.10588V3.93412H5.5143C3.45313 3.93412 1.77783 5.60941 1.77783 7.67059V10.9741C1.77783 11.6047 2.28607 12.1224 2.92607 12.1224H2.94489L3.71666 28.0471C3.82018 30.2682 5.64607 32 7.86724 32H24.5731C26.7943 32 28.6202 30.2588 28.7237 28.0471L29.4955 12.1224H29.5143C30.1449 12.1224 30.6625 11.6141 30.6625 10.9741V7.67059C30.6625 5.60941 28.9872 3.93412 26.9261 3.93412H21.3825ZM13.1096 3.10588C13.1096 2.53176 13.5708 2.07059 14.1449 2.07059H18.2861C18.8602 2.07059 19.3214 2.53176 19.3214 3.10588V3.93412H13.1096V3.10588ZM4.21548 7.67059C4.21548 6.95529 4.79901 6.37176 5.5143 6.37176H26.9072C27.6225 6.37176 28.2061 6.95529 28.2061 7.67059V9.68471H4.21548V7.67059ZM26.2767 27.9341C26.2296 28.8565 25.4767 29.5718 24.5637 29.5718H7.85783C6.93548 29.5718 6.18254 28.8565 6.14489 27.9341L5.38254 12.1224H27.0484L26.2861 27.9341H26.2767Z" fill="black"/>
<path d="M21.8343 27.1341C22.5025 27.1341 23.0484 26.5882 23.0484 25.92V15.52C23.0484 14.8518 22.5025 14.3059 21.8343 14.3059C21.1661 14.3059 20.6202 14.8518 20.6202 15.52V25.92C20.6202 26.5882 21.1661 27.1341 21.8343 27.1341Z" fill="black"/>
<path d="M16.2061 27.1341C16.8743 27.1341 17.4202 26.5882 17.4202 25.92V15.52C17.4202 14.8518 16.8743 14.3059 16.2061 14.3059C15.5378 14.3059 14.992 14.8518 14.992 15.52V25.92C14.992 26.5882 15.5378 27.1341 16.2061 27.1341Z" fill="black"/>
<path d="M10.5778 27.1341C11.2461 27.1341 11.792 26.5882 11.792 25.92V15.52C11.792 14.8518 11.2461 14.3059 10.5778 14.3059C9.9096 14.3059 9.36372 14.8518 9.36372 15.52V25.92C9.36372 26.5882 9.9096 27.1341 10.5778 27.1341Z" fill="black"/>
</svg>
