<svg width="32" height="32" viewBox="0 0 32 32" fill="none" xmlns="http://www.w3.org/2000/svg">
<g clip-path="url(#clip0_1508_11)">
<path d="M27.8533 0H4.14667C1.86667 0 0 1.86667 0 4.14667V27.8533C0 30.1333 1.86667 32 4.14667 32H27.8533C30.1333 32 32 30.1333 32 27.8533V4.14667C32 1.86667 30.1333 0 27.8533 0ZM14.8 12.76L7.74667 17.2933C7.49333 17.4533 7.2 17.5467 6.89333 17.5467C6.62667 17.5467 6.37333 17.48 6.14667 17.36C5.64 17.08 5.33333 16.56 5.33333 15.9867V6.89333C5.33333 6.32 5.66667 5.78667 6.16 5.52C6.66667 5.24 7.28 5.26667 7.76 5.58667L14.8 10.12C15.2533 10.4133 15.52 10.9067 15.52 11.44C15.52 11.9733 15.2533 12.4667 14.8 12.76ZM27.8267 23.88C27.72 24.4933 27.5467 25.1067 27.3333 25.6933C27.12 26.28 26.8533 26.84 26.56 27.3467C26.4667 27.5067 26.3467 27.6 26.1733 27.64C26.12 27.6533 26.0667 27.6667 26.0267 27.6667C25.9467 27.6667 25.8533 27.6267 25.7733 27.6C25.7333 27.64 25.6933 27.7067 25.64 27.7467C25.3333 27.96 24.96 28.04 24.52 27.9867C24.08 27.92 23.7467 27.7467 23.5333 27.44C23.3067 27.1467 23.24 26.7733 23.3067 26.36L23.9067 22.7467C23.9733 22.32 24.16 22 24.4667 21.7867C24.7733 21.5733 25.1333 21.4933 25.5733 21.5467C26.0133 21.6133 26.3467 21.7867 26.56 22.0933C26.6267 22.1867 26.6533 22.2933 26.6933 22.3867C26.6933 22.28 26.72 22.16 26.72 22.0533C26.72 21.2533 26.6 20.52 26.36 19.8667C26.12 19.2133 25.7867 18.6533 25.3467 18.1867C24.9067 17.72 24.3733 17.3467 23.7733 17.1067C23.16 16.8533 22.48 16.7333 21.7333 16.7333C20.9867 16.7333 20.2933 16.8667 19.68 17.1067C19.0667 17.36 18.5467 17.72 18.1067 18.1867C17.6667 18.6533 17.3333 19.2133 17.0933 19.8667C16.8533 20.52 16.7333 21.2533 16.7333 22.0533C16.7333 22.16 16.7467 22.28 16.76 22.3867C16.8 22.28 16.8267 22.1867 16.8933 22.0933C17.12 21.7867 17.44 21.6 17.88 21.5467C18.32 21.4933 18.6933 21.5733 18.9867 21.7867C19.2933 22 19.48 22.32 19.5467 22.7467L20.1467 26.36C20.2267 26.7867 20.1467 27.1467 19.92 27.44C19.6933 27.7467 19.3733 27.9333 18.9333 27.9867C18.4933 28.0533 18.12 27.9733 17.8133 27.7467C17.76 27.7067 17.7333 27.6533 17.68 27.6C17.5467 27.6533 17.4 27.68 17.2533 27.64C17.0933 27.6 16.96 27.5067 16.88 27.3467C16.5867 26.84 16.32 26.28 16.1067 25.6933C15.8933 25.1067 15.7333 24.4933 15.6133 23.88C15.4933 23.2533 15.44 22.64 15.44 22.04C15.44 21.0667 15.5867 20.16 15.88 19.36C16.1733 18.56 16.6133 17.8533 17.16 17.28C17.7067 16.7067 18.3733 16.2533 19.1333 15.9333C19.9067 15.6267 20.76 15.4667 21.7067 15.4667C22.6533 15.4667 23.5067 15.6267 24.2667 15.9333C25.04 16.24 25.7067 16.6933 26.2533 17.28C26.8 17.8533 27.24 18.56 27.5333 19.36C27.8267 20.16 27.9867 21.0667 27.9867 22.04C27.9867 22.64 27.9333 23.2533 27.8133 23.88H27.8267Z" fill="black"/>
</g>
<defs>
<clipPath id="clip0_1508_11">
<rect width="32" height="32" fill="white"/>
</clipPath>
</defs>
</svg>
