<svg width="32" height="32" viewBox="0 0 32 32" fill="none" xmlns="http://www.w3.org/2000/svg">
<g clip-path="url(#clip0_381_50)">
<path d="M16 4.42C15.23 4.42 14.6 5.05 14.6 5.82V14.6H8.73C7.96 14.6 7.33 15.23 7.33 16C7.33 16.77 7.96 17.4 8.73 17.4H16C16.77 17.4 17.4 16.77 17.4 16V5.82C17.4 5.05 16.77 4.42 16 4.42Z" fill="black"/>
<path d="M16 0C7.18 0 0 7.18 0 16C0 24.82 7.18 32 16 32C16.77 32 17.4 31.37 17.4 30.6C17.4 29.83 16.77 29.2 16 29.2C8.72 29.2 2.8 23.28 2.8 16C2.8 8.72 8.72 2.8 16 2.8C23.28 2.8 29.2 8.72 29.2 16C29.2 16.77 29.83 17.4 30.6 17.4C31.37 17.4 32 16.77 32 16C32 7.18 24.82 0 16 0Z" fill="black"/>
<path d="M25 18C21.13 18 18 21.13 18 25C18 28.87 21.13 32 25 32C28.87 32 32 28.87 32 25C32 21.13 28.87 18 25 18ZM25.96 28.29C25.96 28.82 25.53 29.25 25 29.25C24.47 29.25 24.04 28.82 24.04 28.29V24.97C24.04 24.44 24.47 24.01 25 24.01C25.53 24.01 25.96 24.44 25.96 24.97V28.29ZM25 22.67C24.47 22.67 24.04 22.24 24.04 21.71C24.04 21.18 24.47 20.75 25 20.75C25.53 20.75 25.96 21.18 25.96 21.71C25.96 22.24 25.53 22.67 25 22.67Z" fill="black"/>
</g>
<defs>
<clipPath id="clip0_381_50">
<rect width="32" height="32" fill="white"/>
</clipPath>
</defs>
</svg>
