<svg width="32" height="32" viewBox="0 0 32 32" fill="none" xmlns="http://www.w3.org/2000/svg">
<path fill-rule="evenodd" clip-rule="evenodd" d="M0.888916 6.22217V25.8666H31.1111V6.22217H0.888916ZM3.91114 24.3555H2.40003V22.8444H3.91114V24.3555ZM3.91114 21.3333H2.40003V19.8222H3.91114V21.3333ZM3.91114 18.3111H2.40003V16.7999H3.91114V18.3111ZM3.91114 15.2888H2.40003V13.7777H3.91114V15.2888ZM3.91114 12.2666H2.40003V10.7555H3.91114V12.2666ZM3.91114 9.24439H2.40003V7.73328H3.91114V9.24439ZM11.5556 21.3333V10.7555L22.1334 15.2888L11.5556 21.3333ZM29.6 24.3555H28.0889V22.8444H29.6V24.3555ZM29.6 21.3333H28.0889V19.8222H29.6V21.3333ZM29.6 18.3111H28.0889V16.7999H29.6V18.3111ZM29.6 15.2888H28.0889V13.7777H29.6V15.2888ZM29.6 12.2666H28.0889V10.7555H29.6V12.2666ZM29.6 9.24439H28.0889V7.73328H29.6V9.24439Z" fill="black"/>
</svg>
