<svg width="32" height="32" viewBox="0 0 32 32" fill="none" xmlns="http://www.w3.org/2000/svg">
<path d="M23.4504 0.543975C23.5351 0.374556 23.488 0.1769 23.328 0.0733667C23.168 -0.0395795 22.9515 -0.0207551 22.8103 0.120427L7.22379 15.5469C7.12967 15.6411 7.09202 15.7729 7.12025 15.8952C7.1579 16.0176 7.25203 16.1211 7.37438 16.1588L15.29 18.7189L8.75798 31.4629C8.67326 31.6324 8.72974 31.83 8.88974 31.9336C9.04975 32.0371 9.26623 32.0183 9.398 31.8865L24.994 16.4505C25.0882 16.3659 25.1258 16.234 25.0882 16.1023C25.0599 15.98 24.9563 15.8764 24.834 15.8388L16.7113 13.0904L23.4504 0.543975Z" fill="black"/>
</svg>
