<svg width="32" height="32" viewBox="0 0 32 32" fill="none" xmlns="http://www.w3.org/2000/svg">
<path d="M29.7973 14.8953C29.3867 15.855 28.4422 16.4649 27.3849 16.4649H22.4983V29.9606C22.4983 31.0803 21.5641 32 20.4041 32H11.5857C10.4359 32 9.49143 31.0903 9.49143 29.9606V16.4649H4.61514C3.55775 16.4649 2.60303 15.845 2.20266 14.8953C1.79202 13.9356 2.01787 12.856 2.76728 12.1162L14.6552 0.53983C15.0247 0.179943 15.5175 0 16 0C16.4825 0 16.9753 0.179943 17.3448 0.53983L29.2327 12.1162C29.9821 12.846 30.208 13.9356 29.7973 14.8953Z" fill="black"/>
</svg>
