<svg width="32" height="32" viewBox="0 0 32 32" fill="none" xmlns="http://www.w3.org/2000/svg">
<g clip-path="url(#clip0_756_21)">
<path d="M23.3867 22.2H8.61333C7.90667 22.2 7.33333 22.7733 7.33333 23.48V31.9867H24.6667V23.48C24.6667 22.7733 24.0933 22.2 23.3867 22.2Z" fill="black"/>
<path d="M4.29333 22.2H3.2C1.42667 22.2 0 23.6267 0 25.4V32H5.62667V23.5333C5.62667 22.8 5.02667 22.2 4.29333 22.2Z" fill="black"/>
<path d="M28.8 22.2H27.7067C26.9733 22.2 26.3733 22.8 26.3733 23.5333V32H32V25.4C32 23.6267 30.5733 22.2 28.8 22.2Z" fill="black"/>
<path d="M27.3333 14.6667C28.44 14.6667 29.3333 13.7733 29.3333 12.6667V10C29.3333 8.89333 28.44 8 27.3333 8H26.6667C26.6667 5.05333 24.28 2.66667 21.3333 2.66667H17.3333V1.33333C17.3333 0.973333 17.2 0.64 16.9467 0.386667C16.6933 0.133333 16.36 0 16 0C15.64 0 15.3067 0.146667 15.0533 0.386667C14.8 0.626667 14.6667 0.973333 14.6667 1.33333V2.66667H10.6667C7.72 2.66667 5.33333 5.05333 5.33333 8H4.66667C3.56 8 2.66667 8.89333 2.66667 10V12.6667C2.66667 13.7733 3.56 14.6667 4.66667 14.6667H5.33333C5.33333 17.6133 7.72 20 10.6667 20H21.3333C24.28 20 26.6667 17.6133 26.6667 14.6667H27.3333ZM13.1467 12.0133C13.1467 12.8933 12.4267 13.6133 11.5467 13.6133C10.6667 13.6133 9.94667 12.8933 9.94667 12.0133V10.7867C9.94667 9.90667 10.6667 9.18667 11.5467 9.18667C12.4267 9.18667 13.1467 9.90667 13.1467 10.7867V12.0133ZM22.0533 12.0133C22.0533 12.8933 21.3333 13.6133 20.4533 13.6133C19.5733 13.6133 18.8533 12.8933 18.8533 12.0133V10.7867C18.8533 9.90667 19.5733 9.18667 20.4533 9.18667C21.3333 9.18667 22.0533 9.90667 22.0533 10.7867V12.0133Z" fill="black"/>
</g>
<defs>
<clipPath id="clip0_756_21">
<rect width="32" height="32" fill="white"/>
</clipPath>
</defs>
</svg>
