<svg width="32" height="32" viewBox="0 0 32 32" fill="none" xmlns="http://www.w3.org/2000/svg">
<path d="M13.2201 0C14.1715 0.00423785 15.0822 0.349324 15.7521 0.959534C16.4221 1.56974 16.7966 2.39521 16.7935 3.25464V6.83734C17.1674 6.71993 17.5606 6.65995 17.9565 6.65997C18.6119 6.66166 19.2543 6.82599 19.8134 7.13495C20.3725 7.44391 20.8269 7.88565 21.127 8.41199C21.5978 8.20399 22.1292 8.08667 22.6887 8.08667C23.4062 8.08827 24.1066 8.28466 24.6991 8.65033C25.2915 9.016 25.7486 9.53407 26.0111 10.1373C26.445 9.96933 26.9203 9.87732 27.4222 9.87732C28.3736 9.88121 29.2845 10.2257 29.9552 10.8353C30.6258 11.4449 31.0016 12.2699 31 13.1293V20.5894C31 23.332 28.4967 30.44 28.2103 31.2427C28.0524 31.6933 27.586 32 27.0605 32H11.7589C11.2924 32 10.8659 31.756 10.6696 31.3734C10.6518 31.344 9.10793 28.4093 8.52786 27.5013C7.85923 26.46 6.94413 25.1987 5.97292 23.8627C4.64452 22.036 3.14049 19.9653 1.756 17.768C0.688855 16.0693 0.753793 14.4827 1.93606 13.4133C2.60469 12.8067 3.50211 12.4733 4.45708 12.4733H4.47627C4.96061 12.4745 5.43966 12.5644 5.88441 12.7377C6.32915 12.9109 6.73036 13.1639 7.06371 13.4813L9.64229 16.1453V3.25464C9.63955 2.39462 10.0148 1.5688 10.6856 0.958557C11.3565 0.348303 12.2681 0.00352982 13.2201 0ZM13.2216 2.18665C12.5825 2.18665 12.0614 2.66532 12.0614 3.25464V19.0547C12.062 19.277 11.9873 19.4942 11.8474 19.6772C11.7075 19.8601 11.509 20.0001 11.2786 20.0782C11.0482 20.1564 10.7968 20.1691 10.5581 20.1146C10.3195 20.0601 10.105 19.941 9.94336 19.7733L5.27476 14.952C5.05562 14.7613 4.76282 14.6553 4.45857 14.6566C4.15429 14.6578 3.86251 14.7662 3.64528 14.9587C3.18479 15.3747 3.50799 16.128 3.86075 16.6866C5.20538 18.8226 6.68729 20.8627 7.99355 22.664C8.98394 24.0267 9.91827 25.3107 10.6208 26.4053C11.0828 27.1227 12.0216 28.8707 12.5219 29.8134H26.172C27.0281 27.316 28.5808 22.4134 28.5808 20.588V13.1293C28.5808 12.5413 28.0613 12.0614 27.4222 12.0613C26.7875 12.0613 26.2665 12.5427 26.2665 13.1293H26.2635V16.3093C26.2716 16.4573 26.2463 16.6052 26.1892 16.744C26.1321 16.8829 26.0444 17.0098 25.9313 17.1171C25.8183 17.2244 25.6823 17.3098 25.5316 17.3682C25.3809 17.4265 25.2186 17.4567 25.0547 17.4567C24.8907 17.4567 24.7284 17.4265 24.5777 17.3682C24.427 17.3098 24.291 17.2244 24.1779 17.1171C24.0649 17.0098 23.9772 16.8829 23.9201 16.744C23.863 16.6052 23.8377 16.4573 23.8458 16.3093V11.3413C23.8458 10.7507 23.3263 10.272 22.6872 10.272C22.0481 10.272 21.5285 10.7507 21.5285 11.3413V14.8853C21.5131 15.1656 21.3791 15.4298 21.1541 15.6233C20.9291 15.8168 20.6303 15.9247 20.3197 15.9247C20.009 15.9247 19.7102 15.8168 19.4852 15.6233C19.2602 15.4298 19.1261 15.1656 19.1108 14.8853V9.88605C19.1089 9.75642 19.0805 9.62815 19.027 9.50769C18.9699 9.3792 18.8853 9.26209 18.7781 9.16315C18.6709 9.06422 18.5432 8.98534 18.4023 8.93103C18.2613 8.87672 18.1098 8.84807 17.9565 8.84668C17.3145 8.84669 16.7935 9.32533 16.7935 9.91199V13.46C16.7781 13.7403 16.6441 14.0045 16.4191 14.198C16.1941 14.3915 15.8953 14.4993 15.5846 14.4993C15.274 14.4993 14.9752 14.3915 14.7502 14.198C14.5252 14.0045 14.3912 13.7403 14.3758 13.46V3.25464C14.3758 2.66666 13.8577 2.18799 13.2216 2.18665Z" fill="black"/>
</svg>
