<svg width="32" height="32" viewBox="0 0 32 32" fill="none" xmlns="http://www.w3.org/2000/svg">
<g clip-path="url(#clip0_24_1974)">
<path d="M31.16 13.4582C30.912 13.3563 30.6388 13.3323 30.3767 13.3895C30.1147 13.4466 29.8764 13.5822 29.6933 13.7782L27.0133 16.6049H25.52V14.9422C25.52 14.4923 25.4314 14.0467 25.2592 13.6309C25.087 13.2152 24.8345 12.8374 24.5164 12.5192C24.1982 12.201 23.8204 11.9486 23.4047 11.7764C22.9889 11.6042 22.5433 11.5156 22.0933 11.5156H19.8133C21.32 10.7156 22.3467 9.12892 22.3467 7.28892C22.3467 4.63558 20.2133 2.48892 17.56 2.48892C15.8667 2.48892 14.3867 3.35558 13.52 4.68892C13.1497 3.58176 12.4406 2.61909 11.493 1.93714C10.5455 1.25519 9.40744 0.888482 8.24 0.888916C5.14667 0.888916 2.64 3.40892 2.64 6.48892C2.64 8.70225 3.93333 10.6222 5.8 11.5156H3.42667C2.51786 11.5156 1.64627 11.8766 1.00365 12.5192C0.361023 13.1619 0 14.0334 0 14.9422V27.7289C0 28.6377 0.361023 29.5093 1.00365 30.1519C1.64627 30.7946 2.51786 31.1556 3.42667 31.1556H22.0933C23.0021 31.1556 23.8737 30.7946 24.5164 30.1519C25.159 29.5093 25.52 28.6377 25.52 27.7289V25.6582H27.0267L29.6933 28.4849C30.1187 28.9102 30.7133 28.9916 31.16 28.8049C31.4081 28.7061 31.6208 28.5351 31.7706 28.314C31.9203 28.0929 32.0003 27.832 32 27.5649V14.6849C32 14.1516 31.6667 13.6582 31.16 13.4582ZM17.56 4.94225C18.8533 4.94225 19.8933 5.99558 19.8933 7.28892C19.8933 8.58225 18.8533 9.62225 17.56 9.62225C16.9394 9.62225 16.3442 9.37571 15.9054 8.93688C15.4665 8.49804 15.22 7.90286 15.22 7.28225C15.22 6.66164 15.4665 6.06645 15.9054 5.62762C16.3442 5.18878 16.9394 4.94225 17.56 4.94225ZM5.49333 6.48892C5.49333 4.98225 6.72 3.75558 8.24 3.75558C9.74667 3.75558 10.96 4.98225 10.96 6.48892C10.96 8.00892 9.74667 9.22225 8.24 9.22225C6.72 9.22225 5.49333 8.00892 5.49333 6.48892ZM13.1467 9.18225C13.5733 10.1822 14.3467 11.0089 15.2933 11.5156H10.68C11.72 11.0089 12.5867 10.1956 13.1467 9.18225ZM16.4533 22.6222L12.44 25.5156C11.3867 26.2756 9.92 25.5289 9.92 24.2356V18.4222C9.92 17.1289 11.3867 16.3822 12.44 17.1423L16.4533 20.0489C17.3333 20.6756 17.3333 21.9823 16.4533 22.6222Z" fill="black"/>
</g>
<defs>
<clipPath id="clip0_24_1974">
<rect width="32" height="32" fill="white"/>
</clipPath>
</defs>
</svg>
