<svg width="32" height="32" viewBox="0 0 32 32" fill="none" xmlns="http://www.w3.org/2000/svg">
<g clip-path="url(#clip0_24_1954)">
<path d="M29.1059 0.888916H17.3336C16.2262 0.888916 15.3284 1.78668 15.3284 2.89414V7.85442C15.3284 8.96187 16.2262 9.85964 17.3336 9.85964H29.1059C30.2134 9.85964 31.1111 8.96187 31.1111 7.85442V2.89414C31.1111 1.78668 30.2134 0.888916 29.1059 0.888916Z" fill="black"/>
<path d="M24.6541 31.1111H7.34592C3.78641 31.1111 0.888916 28.2136 0.888916 24.6541V7.34592C0.888916 3.78641 3.78641 0.888916 7.34592 0.888916H12.1623C12.5557 0.888916 12.8819 1.21512 12.8819 1.60849C12.8819 2.00186 12.5557 2.32807 12.1623 2.32807H7.34592C4.58274 2.32807 2.32807 4.58274 2.32807 7.34592V24.6445C2.32807 27.4173 4.58274 29.6624 7.34592 29.6624H24.6445C27.4173 29.6624 29.6624 27.4077 29.6624 24.6445V12.6228C29.6624 12.2294 29.9886 11.9032 30.382 11.9032C30.7753 11.9032 31.1015 12.2294 31.1015 12.6228V24.6445C31.1015 28.204 28.204 31.1015 24.6445 31.1015L24.6541 31.1111Z" fill="black"/>
</g>
<defs>
<clipPath id="clip0_24_1954">
<rect width="32" height="32" fill="white"/>
</clipPath>
</defs>
</svg>
