<svg width="32" height="32" viewBox="0 0 32 32" fill="none" xmlns="http://www.w3.org/2000/svg">
<g clip-path="url(#clip0_24_2058)">
<path d="M16 0.888916C7.65336 0.888916 0.888916 7.65336 0.888916 16C0.888916 24.3467 7.65336 31.1111 16 31.1111C24.3467 31.1111 31.1111 24.3467 31.1111 16C31.1111 7.65336 24.3467 0.888916 16 0.888916ZM10.2489 23.52C9.24447 23.7511 8.24892 22.7556 8.48003 21.7511L10.0445 17.0756L14.9334 21.9645L10.2578 23.5289L10.2489 23.52ZM22.9245 13.9645L21.0222 15.8667L19.9822 16.9067L16.2045 20.6845L11.3156 15.7956L15.0934 12.0178L16.1334 10.9778L18.0356 9.07558C18.96 8.15114 20.5422 8.24892 21.5822 9.28003L22.72 10.4178C23.76 11.4578 23.8489 13.04 22.9245 13.9645Z" fill="black"/>
</g>
<defs>
<clipPath id="clip0_24_2058">
<rect width="32" height="32" fill="white"/>
</clipPath>
</defs>
</svg>
