<svg width="32" height="32" viewBox="0 0 32 32" fill="none" xmlns="http://www.w3.org/2000/svg">
<g clip-path="url(#clip0_185_61)">
<path d="M16 0C7.16235 0 0 7.16235 0 16C0 24.8376 7.16235 32 16 32C24.8376 32 32 24.8376 32 16C32 7.16235 24.8376 0 16 0ZM22.5976 20.0094C23.3129 20.7247 23.3129 21.8918 22.5976 22.6071C21.8824 23.3224 20.7153 23.3224 20 22.6071L15.9906 18.5976L11.9812 22.6071C11.2659 23.3224 10.0988 23.3224 9.38353 22.6071C8.66824 21.8918 8.66824 20.7247 9.38353 20.0094L13.3929 16L9.38353 11.9906C8.66824 11.2753 8.66824 10.1082 9.38353 9.39294C10.0988 8.67765 11.2659 8.67765 11.9812 9.39294L15.9906 13.4024L20 9.39294C20.7153 8.67765 21.8824 8.67765 22.5976 9.39294C23.3129 10.1082 23.3129 11.2753 22.5976 11.9906L18.5882 16L22.5976 20.0094Z" fill="black"/>
</g>
<defs>
<clipPath id="clip0_185_61">
<rect width="32" height="32" fill="white"/>
</clipPath>
</defs>
</svg>
