<svg width="32" height="32" viewBox="0 0 32 32" fill="none" xmlns="http://www.w3.org/2000/svg">
<g clip-path="url(#clip0_24_2095)">
<path d="M28.8286 1.82475C27.202 0.67808 25.2198 0.242525 23.2464 0.580302C21.2731 0.926969 19.5575 2.01141 18.4198 3.63808L16.3664 6.56252C15.8064 7.36252 16.002 8.46475 16.7931 9.02475C17.5931 9.58475 18.6953 9.38919 19.2553 8.59808L21.3086 5.67364C21.9131 4.8203 22.8109 4.24252 23.8509 4.06475C24.8909 3.88697 25.9309 4.11808 26.7931 4.71364C27.6553 5.31808 28.2242 6.22475 28.402 7.25586C28.5798 8.29586 28.3486 9.33586 27.7442 10.1981L22.5264 17.6203C21.2731 19.3981 18.8198 19.8247 17.042 18.5803C16.4198 18.1447 15.9398 17.5314 15.6553 16.8203C15.4775 16.3847 15.1486 16.0381 14.7131 15.8514C14.2775 15.6647 13.7975 15.6559 13.362 15.8336C12.9264 16.0114 12.5798 16.3403 12.3931 16.7759C12.2064 17.2114 12.1975 17.6914 12.3753 18.127C12.9086 19.4781 13.8242 20.6336 15.0153 21.4692C16.642 22.6159 18.6242 23.0603 20.5975 22.7136C22.562 22.367 24.2775 21.2825 25.4242 19.6559L30.642 12.2336C33.0153 8.86475 32.1975 4.19808 28.8286 1.82475Z" fill="black"/>
<path d="M15.2286 22.9359C14.4286 22.3759 13.3264 22.5714 12.7664 23.3625L10.6953 26.3047C10.0909 27.167 9.17531 27.7536 8.11754 27.9403C7.07754 28.1181 6.03754 27.8959 5.19309 27.2914C4.33976 26.687 3.77087 25.7892 3.59309 24.7403C3.41531 23.6914 3.64643 22.6336 4.25976 21.7714L9.51309 14.3047C10.1175 13.4425 11.0331 12.8559 12.0909 12.6692C13.1309 12.4914 14.1709 12.7136 15.0153 13.3181C15.6375 13.7536 16.1175 14.3581 16.3931 15.0781C16.562 15.5136 16.8998 15.8603 17.3353 16.0559C17.7709 16.2425 18.2509 16.2514 18.6864 16.0825C19.5931 15.727 20.0375 14.6959 19.682 13.7892C19.1486 12.4292 18.2331 11.2736 17.042 10.4292C15.4242 9.29141 13.442 8.84697 11.4509 9.19364C9.47754 9.54919 7.76198 10.6425 6.61531 12.2692L1.37087 19.7447C0.224203 21.3803 -0.229131 23.3625 0.108647 25.3359C0.446425 27.3181 1.53087 29.0336 3.15754 30.1803C4.7842 31.3181 6.75754 31.7625 8.72198 31.4159C10.7042 31.0692 12.4286 29.9759 13.5842 28.3314L15.6553 25.3892C16.2153 24.5892 16.0198 23.487 15.2286 22.927V22.9359Z" fill="black"/>
</g>
<defs>
<clipPath id="clip0_24_2095">
<rect width="32" height="32" fill="white"/>
</clipPath>
</defs>
</svg>
