<svg width="32" height="32" viewBox="0 0 32 32" fill="none" xmlns="http://www.w3.org/2000/svg">
<path d="M29.4933 14.1775L29.9067 13.7769H30.9467C31.5333 13.7769 32 13.2562 32 12.6287C32 12.0012 31.5333 11.4805 30.9467 11.4805H29.5067C29.2533 11.4805 29 11.5873 28.8133 11.7742L28.5333 12.0546C27.44 8.86358 25.6933 4.05703 24.9733 3.26929C23.8667 2.0543 20.76 1.33331 16.6533 1.33331H15.36C11.2533 1.33331 8.14667 2.0543 7.04 3.26929C6.32 4.07038 4.58667 8.87693 3.48 12.0546L3.2 11.7876C3.01333 11.6006 2.76 11.4938 2.50667 11.4938H1.05333C0.466667 11.4938 0 12.0145 0 12.6421C0 13.2696 0.466667 13.7903 1.05333 13.7903H2.09333L2.50667 14.1908C0.386667 16.0067 0.0933333 18.5434 0.0933333 21.4274V21.5876L1.24 25.4595H1.36V28.8108C1.36 29.8389 2.12 30.6666 3.05333 30.6666H6.90667C7.84 30.6666 8.6 29.8389 8.6 28.8108V25.4595H23.3867V28.8108C23.3867 29.8389 24.1467 30.6666 25.08 30.6666H28.9333C29.8667 30.6666 30.6267 29.8389 30.6267 28.8108V25.4595H30.7467L31.8933 21.5876V21.4274C31.8933 18.5434 31.6 15.9933 29.4667 14.1775H29.4933ZM8.17333 4.84477C8.61333 4.36411 10.68 3.44286 15.3467 3.44286H16.64C21.3067 3.44286 23.3733 4.35076 23.8133 4.83142C24.16 5.24531 25.4533 8.59655 26.8667 12.6688C24.5067 11.7609 21.0533 11.2402 16 11.2402C10.9467 11.2402 7.49333 11.7609 5.13333 12.6688C6.54667 8.59655 7.84 5.24531 8.17333 4.84477ZM5.01333 20.5729C3.01333 20.5729 1.38667 19.3846 1.38667 17.9159C1.38667 16.4473 3.01333 15.259 5.01333 15.259C7.01333 15.259 8.64 16.4473 8.64 17.9159C8.64 19.3846 7.01333 20.5729 5.01333 20.5729ZM10.2667 23.9241L11.0133 19.5715C11.08 19.171 11.4533 18.8772 11.88 18.8772H20.12C20.5467 18.8772 20.92 19.171 20.9867 19.5715L21.7333 23.9241H10.2667ZM26.9867 20.5729C24.9867 20.5729 23.36 19.3846 23.36 17.9159C23.36 16.4473 24.9867 15.259 26.9867 15.259C28.9867 15.259 30.6133 16.4473 30.6133 17.9159C30.6133 19.3846 28.9867 20.5729 26.9867 20.5729Z" fill="black"/>
</svg>
