<svg width="32" height="32" viewBox="0 0 32 32" fill="none" xmlns="http://www.w3.org/2000/svg">
<g clip-path="url(#clip0_148_39)">
<path d="M25.08 27.85C24.3 27.85 23.66 27.21 23.66 26.43V5.58C23.66 4.79 24.3 4.16 25.08 4.16C25.86 4.16 26.5 4.8 26.5 5.58V26.43C26.5 27.22 25.86 27.85 25.08 27.85Z" fill="black"/>
<path d="M30.58 25.48C29.8 25.48 29.16 24.84 29.16 24.06V7.95C29.16 7.16 29.8 6.53 30.58 6.53C31.36 6.53 32 7.17 32 7.95V24.06C32 24.85 31.36 25.48 30.58 25.48Z" fill="black"/>
<path d="M18 0H3C1.34 0 0 1.34 0 3V29C0 30.66 1.34 32 3 32H18C19.66 32 21 30.66 21 29V3C21 1.34 19.66 0 18 0ZM6.31 20.46V11.53C6.31 10.78 7.12 10.31 7.77 10.68L15.5 15.14C16.15 15.52 16.15 16.45 15.5 16.83L7.77 21.29C7.12 21.67 6.31 21.2 6.31 20.44V20.46ZM17 30C15.9 30 15 29.1 15 28C15 26.9 15.9 26 17 26C18.1 26 19 26.9 19 28C19 29.1 18.1 30 17 30Z" fill="black"/>
</g>
<defs>
<clipPath id="clip0_148_39">
<rect width="32" height="32" fill="white"/>
</clipPath>
</defs>
</svg>
