<svg width="32" height="32" viewBox="0 0 32 32" fill="none" xmlns="http://www.w3.org/2000/svg">
<path d="M30 3.5C31.1022 3.5 32 4.41923 32 5.54779C32 6.67634 31.1022 7.59557 30 7.59557H2C0.897778 7.59557 0 6.67634 0 5.54779C0 4.41923 0.897778 3.5 2 3.5H30Z" fill="black"/>
<path d="M26 14.1655C27.1022 14.1655 28 15.0847 28 16.2133C28 17.3418 27.1022 18.2611 26 18.2611H6C4.89778 18.2611 4 17.3418 4 16.2133C4 15.0847 4.89778 14.1655 6 14.1655H26Z" fill="black"/>
<path d="M22 24.4044C23.1022 24.4044 24 25.3237 24 26.4522C24 27.5808 23.1022 28.5 22 28.5H10C8.89778 28.5 8 27.5808 8 26.4522C8 25.3237 8.89778 24.4044 10 24.4044H22Z" fill="black"/>
</svg>
