<svg width="32" height="32" viewBox="0 0 32 32" fill="none" xmlns="http://www.w3.org/2000/svg">
<g clip-path="url(#clip0_24_2149)">
<path fill-rule="evenodd" clip-rule="evenodd" d="M31.9059 12.5909V12.5721C31.9059 12.5533 31.9059 12.5344 31.9059 12.5062V12.4873C31.9059 12.4591 31.8965 12.4403 31.8871 12.412C31.8871 12.412 31.8683 12.3555 31.8589 12.3367C31.8589 12.3367 31.8589 12.3178 31.8495 12.3084C31.8495 12.2896 31.8307 12.2802 31.8307 12.2613C31.8307 12.2613 31.8307 12.2425 31.8213 12.2331C31.8119 12.2142 31.7931 12.186 31.7837 12.1672C31.7837 12.1672 31.7743 12.1483 31.7648 12.1483C31.746 12.1295 31.7272 12.1012 31.7178 12.0824C31.699 12.0636 31.6802 12.0447 31.6708 12.0259C31.6708 12.0259 31.6332 11.9788 31.6049 11.9694L30.0059 10.6416V6.56386C30.0059 5.35845 29.0276 4.37905 27.8236 4.37905H22.4621L18.1446 0.791054C16.8748 -0.263684 15.0312 -0.263684 13.7613 0.791054L9.44386 4.37905H4.08231C2.87831 4.37905 1.90006 5.35845 1.90006 6.56386V10.6416L0.300999 11.9694C0.282187 11.9882 0.263375 12.0071 0.244562 12.0259C0.244562 12.0259 0.206937 12.0636 0.197531 12.0918C0.197531 12.0918 0.188125 12.1107 0.178718 12.1107C0.169312 12.1295 0.159906 12.1389 0.1505 12.1577C0.1505 12.1577 0.141093 12.1766 0.131687 12.1766C0.122281 12.1954 0.103469 12.2237 0.0940623 12.2425C0.0940623 12.2425 0.0940623 12.2613 0.0846561 12.2707C0.0846561 12.2896 0.0658436 12.299 0.0658436 12.3178C0.0658436 12.3178 0.0658436 12.3367 0.0564374 12.3461C0.0564374 12.3743 0.0376249 12.3932 0.0282187 12.4214C0.00940623 12.4779 0 12.5344 0 12.5815V12.6004C0 12.6286 0 12.6569 0 12.6757V28.5627C0 29.5421 0.413874 30.4367 1.08172 31.0583C1.10053 31.0771 1.11934 31.0959 1.13815 31.1148C1.74956 31.6704 2.5585 32 3.44268 32H28.5573C29.4415 32 30.2504 31.661 30.8618 31.1148C30.8807 31.0959 30.8995 31.0771 30.9183 31.0583C31.5767 30.4273 32 29.5421 32 28.5627V12.6663C32 12.6663 32 12.6098 32 12.5815L31.9059 12.5909ZM14.9183 2.20365C15.4921 1.72337 16.3386 1.72337 16.9124 2.20365L19.4897 4.34138H12.341L14.9183 2.20365ZM3.73427 6.53561C3.73427 6.3661 3.87537 6.22484 4.04468 6.22484H27.7766C27.9459 6.22484 28.087 6.3661 28.087 6.53561V13.834L27.5603 14.2766L16.903 23.1289C16.3292 23.6092 15.4827 23.6092 14.9089 23.1289L4.26102 14.2766L3.73427 13.834V6.53561ZM1.89065 29.0901C1.82481 28.9205 1.79659 28.7322 1.79659 28.5533V14.6722L2.20106 15.0112L11.3533 22.6109L1.90006 29.0995L1.89065 29.0901ZM3.71546 30.1165L12.8489 23.854L13.7237 24.5792C14.9935 25.6339 16.8372 25.6339 18.107 24.5792L18.9818 23.854L28.1152 30.1165H3.71546ZM30.0341 28.5533C30.0341 28.7416 29.9965 28.9205 29.94 29.0901L20.4868 22.6015L29.639 15.0018L30.0435 14.6627V28.5438L30.0341 28.5533Z" fill="black"/>
<path fill-rule="evenodd" clip-rule="evenodd" d="M10.4315 10.0671L10.4785 10.0859L11.532 10.8487V15.6327L10.9865 15.9435C10.9865 15.9435 10.8078 16.0283 10.9677 16.1413L12.8959 17.1489L14.3633 16.3202C14.3633 16.3202 14.495 16.2354 14.3821 16.1224L14.0341 15.9058V13.9094H15.0688V15.4632L14.5891 15.7646C14.5891 15.7646 14.4386 15.8493 14.6361 15.9812L16.8466 17.1583L18.3327 16.2354C18.3327 16.2354 18.4832 16.2166 18.3798 16.1036L17.6743 15.6139V13.834L18.6902 12.3555H17.6649V10.2084L18.6243 10.6981C18.6243 10.6981 18.7372 10.6698 18.7748 10.8958V15.7363C18.7748 15.7363 18.8877 16.744 20.1293 17.1583L21.5591 16.1318C21.5591 16.1318 21.6249 16.0471 21.4744 15.9341C21.4744 15.9341 20.9477 15.6892 20.8818 15.0583V10.0012C20.8818 10.0012 20.9477 9.96351 20.7972 9.86934L18.9347 8.77693C18.9347 8.77693 18.8877 8.67334 18.709 8.82401L17.1288 9.72808L15.5485 8.85227C15.5485 8.85227 15.4827 8.78635 15.398 8.83343C15.2757 8.90877 13.4039 9.69041 13.4039 9.69041L12.0212 8.88052C12.0212 8.88052 11.9553 8.77693 11.8707 8.85227L10.3563 9.82225C10.3563 9.82225 10.1399 9.907 10.4409 10.0671H10.4315ZM17.5426 15.5103L17.4298 15.435C17.4298 15.435 17.3357 15.4726 17.2981 15.3502V13.9094H17.5426V15.5103ZM17.5238 10.133V12.3367H17.2887V12.186L17.2698 10.2178C17.2698 10.2178 17.2228 10.0388 17.5144 10.1236L17.5238 10.133ZM14.9371 10.7357C14.9371 10.7357 15.0218 10.6698 15.0688 10.8864V12.3367H14.8901L14.0247 13.6268V9.94467L14.9371 10.7357ZM13.6014 10.0954C13.6014 10.0954 13.6202 9.91642 13.8836 9.907L13.9024 15.8117L13.6767 15.6704C13.6767 15.6704 13.6108 15.7363 13.592 15.6233L13.6108 10.0954H13.6014Z" fill="black"/>
</g>
<defs>
<clipPath id="clip0_24_2149">
<rect width="32" height="32" fill="white"/>
</clipPath>
</defs>
</svg>
