<svg width="32" height="32" viewBox="0 0 32 32" fill="none" xmlns="http://www.w3.org/2000/svg">
<g clip-path="url(#clip0_106_26)">
<path d="M30.4133 10.6667H24.3867C23.5067 10.6667 22.8 11.3733 22.8 12.2533V32H32V12.2533C32 11.3733 31.2933 10.6667 30.4133 10.6667Z" fill="black"/>
<path d="M7.61333 18.6667H1.58667C0.706667 18.6667 0 19.3733 0 20.2533V32H9.2V20.2533C9.2 19.3733 8.49333 18.6667 7.61333 18.6667Z" fill="black"/>
<path d="M19.0133 14.6667H12.9867C12.1067 14.6667 11.4 15.3733 11.4 16.2533V32H20.6V16.2533C20.6 15.3733 19.8933 14.6667 19.0133 14.6667Z" fill="black"/>
<path d="M24.9867 5.61334L24.4267 8.41334C24.3733 8.68001 24.6667 8.89334 24.9067 8.76001L27.3867 7.37334L29.8667 8.76001C30.1067 8.89334 30.4 8.69334 30.3467 8.41334L29.7867 5.61334L31.88 3.68001C32.08 3.49334 31.9733 3.14668 31.6933 3.12001L28.8667 2.78668L27.6667 0.20001C27.5467 -0.0533236 27.2 -0.0533236 27.08 0.20001L25.88 2.78668L23.0533 3.12001C22.7733 3.14668 22.6667 3.49334 22.8667 3.68001L24.96 5.61334H24.9867Z" fill="black"/>
</g>
<defs>
<clipPath id="clip0_106_26">
<rect width="32" height="32" fill="white"/>
</clipPath>
</defs>
</svg>
