<svg width="32" height="32" viewBox="0 0 32 32" fill="none" xmlns="http://www.w3.org/2000/svg">
<path d="M14.5404 18.9238C14.5404 20.2474 14.2361 21.426 13.6273 22.4595C13.0278 23.484 12.2023 24.2954 11.1509 24.8938C10.0994 25.4831 8.90964 25.7777 7.5815 25.7777C6.18879 25.7777 4.91598 25.4468 3.76308 24.785C2.6194 24.1141 1.7063 23.1486 1.02378 21.8884C0.34126 20.6191 0 19.096 0 17.3191C0 15.805 0.262862 14.3952 0.788586 13.0897C1.32353 11.7842 2.07984 10.6328 3.0575 9.63555C3.7308 8.93746 4.48249 8.33003 5.31258 7.81327C6.1519 7.28743 7.03271 6.87493 7.95504 6.57575C8.33319 6.45789 8.65139 6.37176 8.90964 6.31736C9.17711 6.2539 9.46304 6.22217 9.7674 6.22217C10.1363 6.22217 10.4407 6.33096 10.6805 6.54855C10.9203 6.75707 11.0402 7.01998 11.0402 7.3373C11.0402 7.50955 11.0079 7.66821 10.9434 7.81327C10.888 7.94926 10.805 8.06258 10.6943 8.15325C10.5837 8.26204 10.4453 8.3527 10.2793 8.42523C10.1133 8.49776 9.91959 8.56575 9.69823 8.62921C8.87736 8.83773 8.11644 9.12785 7.41548 9.49956C6.71451 9.8622 6.09194 10.2883 5.54777 10.7779C5.0036 11.2584 4.53783 11.7797 4.15045 12.3418C3.7723 12.9039 3.49099 13.4886 3.30653 14.0961H3.83225C4.39487 13.4796 5.04972 13.0127 5.7968 12.6954C6.55311 12.378 7.36475 12.2194 8.23173 12.2194C9.43075 12.2194 10.5053 12.514 11.4553 13.1033C12.4052 13.6926 13.1569 14.495 13.7103 15.5104C14.2637 16.5167 14.5404 17.6545 14.5404 18.9238ZM32 18.9238C32 20.2474 31.6956 21.426 31.0869 22.4595C30.4874 23.484 29.6619 24.2954 28.6105 24.8938C27.5682 25.4831 26.3784 25.7777 25.0411 25.7777C23.6484 25.7777 22.3756 25.4468 21.2227 24.785C20.079 24.1141 19.1659 23.1486 18.4834 21.8884C17.8008 20.6191 17.4596 19.096 17.4596 17.3191C17.4596 15.805 17.7224 14.3952 18.2482 13.0897C18.7831 11.7842 19.5348 10.6328 20.5032 9.63555C21.1858 8.93746 21.9421 8.33003 22.7722 7.81327C23.6115 7.28743 24.4923 6.87493 25.4146 6.57575C25.802 6.45789 26.1248 6.37176 26.3831 6.31736C26.6413 6.2539 26.9226 6.22217 27.227 6.22217C27.6051 6.22217 27.9095 6.33096 28.1401 6.54855C28.3799 6.75707 28.4998 7.01998 28.4998 7.3373C28.4998 7.50955 28.4675 7.66821 28.4029 7.81327C28.3476 7.94926 28.2646 8.06258 28.1539 8.15325C28.0432 8.26204 27.9049 8.3527 27.7389 8.42523C27.5728 8.49776 27.3745 8.56575 27.144 8.62921C26.3323 8.83773 25.576 9.12785 24.8751 9.49956C24.1833 9.8622 23.5607 10.2883 23.0074 10.7779C22.454 11.2584 21.9836 11.7797 21.5962 12.3418C21.218 12.9039 20.9413 13.4886 20.7661 14.0961H21.2918C21.8452 13.4796 22.5001 13.0127 23.2564 12.6954C24.0127 12.378 24.8289 12.2194 25.7051 12.2194C26.8949 12.2194 27.9648 12.514 28.9148 13.1033C29.8648 13.6926 30.6165 14.495 31.1699 15.5104C31.7233 16.5167 32 17.6545 32 18.9238Z" fill="black"/>
</svg>
