<svg width="32" height="32" viewBox="0 0 32 32" fill="none" xmlns="http://www.w3.org/2000/svg">
<g clip-path="url(#clip0_24_2122)">
<path d="M10.2836 0H4.56727C2.04484 0 0 2.04484 0 4.56727V10.2836C0 12.8061 2.04484 14.8509 4.56727 14.8509H10.2836C12.8061 14.8509 14.8509 12.8061 14.8509 10.2836V4.56727C14.8509 2.04484 12.8061 0 10.2836 0Z" fill="black"/>
<path d="M10.2836 17.1491H4.56727C2.04484 17.1491 0 19.1939 0 21.7164V27.4327C0 29.9552 2.04484 32 4.56727 32H10.2836C12.8061 32 14.8509 29.9552 14.8509 27.4327V21.7164C14.8509 19.1939 12.8061 17.1491 10.2836 17.1491Z" fill="black"/>
<path d="M27.4327 0H21.7164C19.1939 0 17.1491 2.04484 17.1491 4.56727V10.2836C17.1491 12.8061 19.1939 14.8509 21.7164 14.8509H27.4327C29.9552 14.8509 32 12.8061 32 10.2836V4.56727C32 2.04484 29.9552 0 27.4327 0Z" fill="black"/>
<path d="M29.9636 22.5309H26.6182V19.1855C26.6182 18.0655 25.7018 17.1491 24.5818 17.1491C23.4618 17.1491 22.5455 18.0655 22.5455 19.1855V22.5309H19.2C18.08 22.5309 17.1636 23.4473 17.1636 24.5673C17.1636 25.6873 18.08 26.6036 19.2 26.6036H22.5455V29.9491C22.5455 31.0691 23.4618 31.9855 24.5818 31.9855C25.7018 31.9855 26.6182 31.0691 26.6182 29.9491V26.6036H29.9636C31.0836 26.6036 32 25.6873 32 24.5673C32 23.4473 31.0836 22.5309 29.9636 22.5309Z" fill="black"/>
</g>
<defs>
<clipPath id="clip0_24_2122">
<rect width="32" height="32" fill="white"/>
</clipPath>
</defs>
</svg>
