<svg width="32" height="32" viewBox="0 0 32 32" fill="none" xmlns="http://www.w3.org/2000/svg">
<path d="M28.2223 14.5956C27.5289 14.5956 26.9601 14.0356 26.9601 13.3334C26.9601 9.80447 25.5823 6.48003 23.0845 3.98225C22.5956 3.49336 22.5956 2.69336 23.0845 2.20447C23.5734 1.71558 24.3734 1.71558 24.8623 2.20447C27.8401 5.17336 29.4756 9.12892 29.4756 13.3334C29.4756 14.0267 28.9156 14.5956 28.2134 14.5956H28.2223ZM3.04005 14.5956C2.34672 14.5956 1.77783 14.0356 1.77783 13.3334C1.77783 9.12892 3.41339 5.17336 6.39117 2.20447C6.88005 1.71558 7.68005 1.71558 8.16894 2.20447C8.65783 2.69336 8.65783 3.49336 8.16894 3.98225C5.67117 6.48003 4.29339 9.80447 4.29339 13.3334C4.29339 14.0267 3.73339 14.5956 3.03117 14.5956H3.04005ZM27.4401 22.1867C25.5378 20.5778 24.4445 18.2222 24.4445 15.7334V12.2222C24.4445 7.78669 21.1556 4.12447 16.8889 3.51114V2.15114C16.8889 1.4578 16.3289 0.888916 15.6267 0.888916C14.9245 0.888916 14.3645 1.44892 14.3645 2.15114V3.51114C10.0978 4.12447 6.80894 7.79558 6.80894 12.2222V15.7334C6.80894 18.2222 5.71561 20.5778 3.8045 22.1956C3.31561 22.6134 3.03117 23.2267 3.03117 23.8667C3.03117 25.0845 4.01783 26.0711 5.23561 26.0711H26.0178C27.2356 26.0711 28.2223 25.0845 28.2223 23.8667C28.2223 23.2178 27.9378 22.6134 27.4401 22.1867ZM15.6267 31.1111C17.9112 31.1111 19.8134 29.4845 20.2489 27.3334H10.9956C11.4312 29.4845 13.3423 31.1111 15.6178 31.1111H15.6267Z" fill="black"/>
</svg>
