<svg width="32" height="32" viewBox="0 0 32 32" fill="none" xmlns="http://www.w3.org/2000/svg">
<path d="M15.9935 2.5C17.682 2.5 19.2791 2.77699 20.7848 3.33097C22.2905 3.88494 23.6483 4.66051 24.8581 5.65767C26.0679 6.65483 27.0775 7.82244 27.8869 9.16051C28.6964 10.4986 29.249 11.9517 29.545 13.5199H30.968C31.3161 13.5199 31.5773 13.6051 31.7513 13.7756C31.9254 13.9375 32.0081 14.142 31.9994 14.3892C31.9907 14.6278 31.8949 14.8707 31.7122 15.1179L28.4744 19.3494C28.2742 19.6222 28.0218 19.7585 27.7172 19.7585C27.4213 19.7585 27.1689 19.6222 26.96 19.3494L23.7353 15.1051C23.5525 14.8665 23.4568 14.6278 23.4481 14.3892C23.4481 14.142 23.5308 13.9375 23.6962 13.7756C23.8702 13.6051 24.127 13.5199 24.4664 13.5199H26.007C25.7371 12.4205 25.2889 11.4062 24.6623 10.4773C24.0443 9.53977 23.2914 8.72585 22.4037 8.03551C21.5246 7.34517 20.5411 6.8125 19.4532 6.4375C18.3652 6.05398 17.212 5.86222 15.9935 5.86222C14.714 5.86222 13.4999 6.08807 12.351 6.53977C11.2108 6.98295 10.2056 7.59659 9.33522 8.38068C8.83912 8.73864 8.37348 8.88352 7.9383 8.81534C7.51182 8.74716 7.16803 8.56392 6.90692 8.26562C6.611 7.94176 6.46304 7.54119 6.46304 7.06392C6.46304 6.57812 6.69368 6.16051 7.15497 5.81108C8.32126 4.77983 9.66161 3.97017 11.176 3.3821C12.6905 2.79403 14.2963 2.5 15.9935 2.5ZM15.9935 29.5C14.3137 29.5 12.7209 29.2188 11.2152 28.6562C9.70948 28.1023 8.35172 27.3267 7.14192 26.3295C5.93212 25.3324 4.9225 24.169 4.11307 22.8395C3.30364 21.5014 2.75096 20.044 2.45503 18.4673H1.032C0.683854 18.4673 0.422746 18.3864 0.248674 18.2244C0.0746022 18.0625 -0.00808191 17.858 0.000621685 17.6108C0.00932528 17.3636 0.105065 17.1207 0.28784 16.8821L3.52558 12.6378C3.72576 12.3651 3.97381 12.2287 4.26973 12.2287C4.57436 12.2287 4.83112 12.3651 5.04 12.6378L8.26468 16.8821C8.44746 17.1207 8.53885 17.3636 8.53885 17.6108C8.54755 17.858 8.46486 18.0625 8.29079 18.2244C8.12543 18.3864 7.87302 18.4673 7.53358 18.4673H5.99304C6.26286 19.5668 6.70674 20.5852 7.32469 21.5227C7.95135 22.4517 8.70421 23.2614 9.58328 23.9517C10.471 24.642 11.4589 25.179 12.5469 25.5625C13.6348 25.946 14.7837 26.1378 15.9935 26.1378C17.2816 26.1378 18.4958 25.9119 19.6359 25.4602C20.7848 25.0085 21.7944 24.3906 22.6648 23.6065C23.1609 23.2486 23.6222 23.108 24.0486 23.1847C24.4838 23.2528 24.832 23.4318 25.0931 23.7216C25.389 24.0455 25.537 24.4503 25.537 24.9361C25.537 25.4134 25.3063 25.831 24.845 26.1889C23.6787 27.2116 22.3384 28.017 20.824 28.6051C19.3095 29.2017 17.6994 29.5 15.9935 29.5Z" fill="black"/>
</svg>
