<svg width="32" height="32" viewBox="0 0 32 32" fill="none" xmlns="http://www.w3.org/2000/svg">
<g clip-path="url(#clip0_24_39)">
<path d="M25.3528 3.01916C18.1901 -2.14372 8.16625 -0.522819 3.01429 6.64118C-2.13768 13.8052 -0.527066 23.8208 6.63567 28.9837C13.7984 34.1466 23.8222 32.5156 28.9842 25.3616C34.1462 18.1976 32.5156 8.17204 25.3628 3.00916L25.3528 3.01916ZM23.142 7.83185L27.7737 8.44219C29.0842 10.4933 29.8445 12.8447 29.9746 15.276L27.1135 18.9881L23.082 17.7874L20.8611 10.9936L23.142 7.82185V7.83185ZM19.4806 2.44884L21.5214 6.6612L19.2305 9.83297L12.0878 9.87299L10.4271 6.78126L12.2978 2.50888C14.6287 1.86852 17.0997 1.84851 19.4806 2.44884ZM2.0039 15.6662C2.05392 13.3549 2.67416 11.0537 3.89462 8.95248L8.7965 7.95192L10.4171 10.9836L8.43636 17.7074L4.94502 18.6579L1.9939 15.6762L2.0039 15.6662ZM10.9773 29.0637C9.87691 28.6435 8.8065 28.0832 7.80612 27.3628C6.59565 26.4923 5.57526 25.4517 4.72494 24.3111L5.48523 20.579L9.03659 19.6084L14.7688 23.7407L14.9989 27.783L10.9673 29.0437L10.9773 29.0637ZM16.9996 27.703L16.7695 23.7107L22.5417 19.7285L26.4933 20.9192V25.2616C25.1127 26.8325 23.4321 28.0131 21.6014 28.8136L16.9896 27.703H16.9996Z" fill="black"/>
</g>
<defs>
<clipPath id="clip0_24_39">
<rect width="32" height="32" fill="white"/>
</clipPath>
</defs>
</svg>
