<svg width="32" height="32" viewBox="0 0 32 32" fill="none" xmlns="http://www.w3.org/2000/svg">
<g clip-path="url(#clip0_191_22)">
<path d="M29.4392 31.99C30.1192 31.99 30.7691 31.7201 31.2491 31.2402C31.7891 30.7004 32.0591 29.9506 31.9891 29.1809L31.5591 24.7323C31.5291 24.4124 31.3891 24.1225 31.1591 23.8925L21.9694 14.7054C22.3294 13.5958 22.5094 12.4361 22.5094 11.2465C22.5094 5.04842 17.4595 0 11.2597 0C5.05986 0 0 5.04842 0 11.2565C0 17.4645 5.04986 22.513 11.2597 22.513C12.4397 22.513 13.5996 22.333 14.7196 21.9731L15.5796 22.8329C15.8396 23.0928 16.1896 23.2327 16.5495 23.2327H18.4995V24.9122C18.4995 25.2721 18.6395 25.622 18.8995 25.8819C19.1595 26.1418 19.5095 26.2818 19.8694 26.2818H21.5494V28.2312C21.5494 28.5911 21.6894 28.941 21.9494 29.2009L23.9093 31.1603C24.1293 31.3802 24.4293 31.5202 24.7493 31.5601L29.1992 31.99C29.2792 31.99 29.3692 32 29.4492 32L29.4392 31.99ZM28.8692 25.482L29.2292 29.2209L25.4893 28.861L24.2793 27.6514V24.9022C24.2793 24.1425 23.6693 23.5326 22.9094 23.5326H21.2294V21.8532C21.2294 21.4933 21.0894 21.1434 20.8294 20.8835C20.5694 20.6236 20.2194 20.4836 19.8594 20.4836H17.1095L16.0396 19.4139C15.6496 19.0241 15.0596 18.9041 14.5396 19.114C13.4996 19.5539 12.3897 19.7738 11.2597 19.7738C6.56982 19.7738 2.74992 15.955 2.74992 11.2665C2.74992 6.57795 6.56982 2.75914 11.2597 2.75914C15.9496 2.75914 19.7695 6.57795 19.7695 11.2665C19.7695 12.3961 19.5495 13.5058 19.1095 14.5455C18.8995 15.0553 19.0095 15.6451 19.4095 16.045L28.8692 25.482Z" fill="black"/>
<path d="M7.74978 13.0259C8.56976 13.0259 9.37974 12.716 9.99972 12.0962L12.0897 10.0069C12.6896 9.40706 13.0196 8.60731 13.0196 7.75758C13.0196 6.90784 12.6896 6.10809 12.0897 5.50828C10.8897 4.30865 8.78975 4.30865 7.58979 5.50828L5.49985 7.59763C4.25988 8.83724 4.25988 10.8566 5.49985 12.0962C6.11983 12.716 6.93981 13.0259 7.74978 13.0259ZM9.83973 7.31771C9.94972 7.31771 10.0697 7.3577 10.1497 7.44767C10.3197 7.61762 10.3197 7.89753 10.1497 8.06748L8.05977 10.1568C7.88978 10.3268 7.60979 10.3268 7.43979 10.1568C7.2698 9.98688 7.2698 9.70697 7.43979 9.53702L9.52974 7.44767C9.61973 7.3577 9.72973 7.31771 9.83973 7.31771Z" fill="black"/>
</g>
<defs>
<clipPath id="clip0_191_22">
<rect width="32" height="32" fill="white"/>
</clipPath>
</defs>
</svg>
