<svg width="32" height="32" viewBox="0 0 32 32" fill="none" xmlns="http://www.w3.org/2000/svg">
<g clip-path="url(#clip0_24_1936)">
<path d="M9.1959 31.0432C8.62472 31.0432 8.1773 30.8576 7.85364 30.4863C7.53949 30.1151 7.38242 29.6105 7.38242 28.9727V25.46H6.61133C5.231 25.46 4.04581 25.1935 3.05578 24.6604C2.07526 24.1273 1.31846 23.3657 0.785364 22.3757C0.261788 21.3761 0 20.1671 0 18.7487V7.66795C0 6.24954 0.261788 5.04532 0.785364 4.05528C1.30894 3.05573 2.06574 2.2894 3.05578 1.75631C4.05533 1.22321 5.27384 0.956665 6.71129 0.956665H25.2887C26.7166 0.956665 27.9304 1.22321 28.9299 1.75631C29.9295 2.2894 30.6911 3.05573 31.2146 4.05528C31.7382 5.04532 32 6.24954 32 7.66795V18.7487C32 20.1671 31.7382 21.3761 31.2146 22.3757C30.6911 23.3657 29.9295 24.1273 28.9299 24.6604C27.9304 25.1935 26.7166 25.46 25.2887 25.46H16.4641L11.5805 29.7866C11.095 30.215 10.6762 30.5292 10.324 30.7291C9.97174 30.9385 9.59572 31.0432 9.1959 31.0432ZM9.89558 27.8875L14.4221 23.4038C14.7268 23.0992 15.0076 22.8993 15.2646 22.8041C15.5312 22.6993 15.8834 22.647 16.3213 22.647H25.203C26.5548 22.647 27.5544 22.3138 28.2017 21.6474C28.8585 20.9715 29.187 19.972 29.187 18.6488V7.75363C29.187 6.43993 28.8585 5.4499 28.2017 4.78353C27.5544 4.10764 26.5548 3.76969 25.203 3.76969H6.78269C5.44043 3.76969 4.44088 4.10764 3.78403 4.78353C3.1367 5.4499 2.81303 6.43993 2.81303 7.75363V18.6488C2.81303 19.972 3.1367 20.9715 3.78403 21.6474C4.44088 22.3138 5.44043 22.647 6.78269 22.647H8.73896C9.13878 22.647 9.42912 22.7374 9.61 22.9183C9.80039 23.0896 9.89558 23.3895 9.89558 23.8179V27.8875ZM9.09594 15.336C8.50573 15.336 8.00119 15.1265 7.58233 14.7077C7.17299 14.2888 6.96832 13.789 6.96832 13.2083C6.96832 12.6276 7.17299 12.1279 7.58233 11.709C8.00119 11.2901 8.50573 11.0807 9.09594 11.0807C9.68615 11.0807 10.1859 11.2901 10.5953 11.709C11.0046 12.1279 11.2093 12.6276 11.2093 13.2083C11.2093 13.789 11.0046 14.2888 10.5953 14.7077C10.1859 15.1265 9.68615 15.336 9.09594 15.336ZM16.0071 15.336C15.4169 15.336 14.9124 15.1265 14.4935 14.7077C14.0747 14.2888 13.8652 13.789 13.8652 13.2083C13.8652 12.6276 14.0747 12.1279 14.4935 11.709C14.9124 11.2901 15.4169 11.0807 16.0071 11.0807C16.5878 11.0807 17.0876 11.2901 17.5065 11.709C17.9253 12.1279 18.1348 12.6276 18.1348 13.2083C18.1348 13.789 17.9253 14.2888 17.5065 14.7077C17.0876 15.1265 16.5878 15.336 16.0071 15.336ZM22.9041 15.336C22.3234 15.336 21.8236 15.1265 21.4047 14.7077C20.9954 14.2888 20.7907 13.789 20.7907 13.2083C20.7907 12.6276 20.9954 12.1279 21.4047 11.709C21.8236 11.2901 22.3234 11.0807 22.9041 11.0807C23.4943 11.0807 23.9941 11.2901 24.4034 11.709C24.8223 12.1279 25.0317 12.6276 25.0317 13.2083C25.0317 13.789 24.8223 14.2888 24.4034 14.7077C23.9941 15.1265 23.4943 15.336 22.9041 15.336Z" fill="black"/>
</g>
<defs>
<clipPath id="clip0_24_1936">
<rect width="32" height="32" fill="white"/>
</clipPath>
</defs>
</svg>
