<svg width="32" height="32" viewBox="0 0 32 32" fill="none" xmlns="http://www.w3.org/2000/svg">
<path d="M29.7973 17.1047C29.3867 16.145 28.4422 15.5351 27.3849 15.5351H22.4983V2.03936C22.4983 0.919713 21.5641 0 20.4041 0H11.5857C10.4359 0 9.49143 0.909716 9.49143 2.03936V15.5351H4.61514C3.55775 15.5351 2.60303 16.155 2.20266 17.1047C1.79202 18.0644 2.01787 19.144 2.76728 19.8838L14.6552 31.4602C15.0247 31.8201 15.5175 32 16 32C16.4825 32 16.9753 31.8201 17.3448 31.4602L29.2327 19.8838C29.9821 19.154 30.208 18.0644 29.7973 17.1047Z" fill="black"/>
</svg>
