<svg width="32" height="32" viewBox="0 0 32 32" fill="none" xmlns="http://www.w3.org/2000/svg">
<g clip-path="url(#clip0_74_27)">
<path d="M16 0C7.16444 0 0 7.16444 0 16C0 24.8356 7.16444 32 16 32C24.8356 32 32 24.8356 32 16C32 7.16444 24.8356 0 16 0ZM10.5956 25.7778H6.53333V12.72H10.5956V25.7778ZM8.56889 10.9422C7.27111 10.9422 6.22222 9.86667 6.22222 8.56889C6.22222 7.27111 7.27111 6.22222 8.56889 6.22222C9.86667 6.22222 10.9156 7.27111 10.9156 8.56889C10.9156 9.86667 9.86667 10.9422 8.56889 10.9422ZM25.7778 25.7511H21.7156V19.3956C21.7156 17.8756 21.6889 15.9467 19.6178 15.9467C17.5467 15.9467 17.2 17.5822 17.2 19.2978V25.7778H13.1378V12.72H17.0222V14.5067H17.0667C17.6 13.4756 18.9244 12.4 20.9067 12.4C25.0133 12.4 25.7689 15.0933 25.7689 18.6044V25.7422L25.7778 25.7511Z" fill="black"/>
</g>
<defs>
<clipPath id="clip0_74_27">
<rect width="32" height="32" fill="white"/>
</clipPath>
</defs>
</svg>
