<svg width="32" height="32" viewBox="0 0 32 32" fill="none" xmlns="http://www.w3.org/2000/svg">
<g clip-path="url(#clip0_139_467)">
<path d="M10.8178 12.0667C10.2976 11.5733 9.48395 11.5733 8.96373 12.0667L0.426845 20.12C0.160067 20.3733 0 20.7333 0 21.1067V32H3.76157V24.56C3.76157 24.1867 4.06836 23.88 4.44185 23.88H8.6436C9.01709 23.88 9.32388 24.1867 9.32388 24.56V32H19.8083V21.1067C19.8083 20.7333 19.6615 20.3867 19.3814 20.12L10.8312 12.0533L10.8178 12.0667ZM17.1538 27.8533H12.045V23.8933H17.1538V27.8533Z" fill="url(#paint0_linear_139_467)"/>
<path d="M29.6257 0H13.7391C12.4185 0 11.3514 1.06667 11.3514 2.38667V9.30667C11.8316 9.49333 12.2718 9.77333 12.6453 10.12L17.1405 14.36V11.4267H20.9954V15.8267H18.6878L21.1822 18.1867C21.9825 18.9467 22.4494 20 22.4494 21.1067V32H32V2.38667C32 1.06667 30.9329 0 29.6123 0H29.6257ZM21.0088 8.82667H17.1538V4.42667H21.0088V8.82667ZM27.5448 22.8267H23.6899V18.4267H27.5448V22.8267ZM27.5448 15.8267H23.6899V11.4267H27.5448V15.8267ZM27.5448 8.82667H23.6899V4.42667H27.5448V8.82667Z" fill="url(#paint1_linear_139_467)"/>
</g>
<defs>
<linearGradient id="paint0_linear_139_467" x1="0" y1="0" x2="32" y2="32" gradientUnits="userSpaceOnUse">
<stop offset="0.2" stop-color="#CD90DD"/>
<stop offset="0.8" stop-color="#AC46C6"/>
</linearGradient>
<linearGradient id="paint1_linear_139_467" x1="0" y1="0" x2="32" y2="32" gradientUnits="userSpaceOnUse">
<stop offset="0.2" stop-color="#CD90DD"/>
<stop offset="0.8" stop-color="#AC46C6"/>
</linearGradient>
<clipPath id="clip0_139_467">
<rect width="32" height="32" fill="white"/>
</clipPath>
</defs>
</svg>
