<svg width="32" height="32" viewBox="0 0 32 32" fill="none" xmlns="http://www.w3.org/2000/svg">
<g clip-path="url(#clip0_164_13)">
<path d="M8.84444 21.8756L5.63556 26.7467L3.91111 28.0622C3.91111 28.0622 3.05778 28.5867 3.91111 26.4711C3.91111 26.3467 3.95556 26.2222 3.95556 26.2222C5.56444 22.1689 11.1556 11.0933 21.8578 5.76889C11.6533 8.86222 7.02222 17.0933 5.81333 19.6267C5.59111 19.6533 5.52889 19.4933 5.51111 19.3867C5.30667 17.5289 4.79111 17.2622 5.28 14.0267C5.76889 10.7911 6.89778 9.38667 9.68 6.88C9.30667 8.27556 9.60889 9.54667 10.0178 10.3911C10.1156 8.78222 10.6133 7.2 11.4311 5.63556C13.2711 4.08 15.44 2.82667 17.9378 1.85778C17.9378 1.85778 21.7956 0.266667 27.3422 0.0444444C27.6711 0.0355556 28.0089 0.0266667 28.3467 0.0177778L28.7022 0C28.8444 0.0266667 28.9511 0.0177778 29.0933 0.0177778H29.3067C30.2044 0.00888889 30.9511 0.0355556 31.5911 0.106667C31.9467 0.124444 32.1422 0.524444 31.8489 0.702222C31.3333 1.16444 30.8089 1.79556 30.4 2.35556C29.9911 2.91556 29.6889 3.40444 29.6089 3.57333C29.1467 4.28444 28.9244 4.68444 28.6489 5.22667C28.3733 5.76889 28.24 6.38222 28.2044 6.44444C27.4222 7.90222 19.8578 9.30667 20.6667 9.52889C21.4756 9.75111 29.2622 8.01778 29.2622 8.01778C28.0889 8.86222 26.2044 10.4533 25.1556 11.4844C24.0978 12.5244 20.6222 16.0178 20.4 16.16C20.2222 16.2933 20.0533 16.4267 19.8667 16.56C17.44 17.2711 14.9333 17.6978 12.3556 17.8489C13.6267 18.8356 16.7022 18.4711 18.3289 18.3911C14.6933 22.5956 10 21.9111 8.83556 21.8844L8.84444 21.8756ZM2.57778 29.5822H1.27111C0.568889 29.5822 0 30.1244 0 30.7911C0 31.4578 0.568889 32 1.27111 32H2.57778C3.28 32 3.84889 31.4578 3.84889 30.7911C3.84889 30.1244 3.28 29.5822 2.57778 29.5822ZM30.7289 29.5822H8.42667C7.72444 29.5822 7.15556 30.1244 7.15556 30.7911C7.15556 31.4578 7.72444 32 8.42667 32H30.7289C31.4311 32 32 31.4578 32 30.7911C32 30.1244 31.4311 29.5822 30.7289 29.5822Z" fill="black"/>
</g>
<defs>
<clipPath id="clip0_164_13">
<rect width="32" height="32" fill="white"/>
</clipPath>
</defs>
</svg>
