<svg width="32" height="32" viewBox="0 0 32 32" fill="none" xmlns="http://www.w3.org/2000/svg">
<g clip-path="url(#clip0_24_2001)">
<path d="M16 0C7.16 0 0 7.16 0 16C0 24.84 7.16 32 16 32C24.84 32 32 24.84 32 16C32 7.16 24.84 0 16 0ZM24.6933 8.44L20.64 17.7867C20.08 19.0667 19.0667 20.08 17.7867 20.64L8.44 24.6933C7.72 25 6.98667 24.28 7.29333 23.5467L11.3467 14.2C11.9067 12.92 12.92 11.9067 14.2 11.3467L23.5467 7.29333C24.2667 6.97333 25 7.70667 24.6933 8.44ZM18.28 16C18.28 17.2533 17.2667 18.28 16 18.28C14.7333 18.28 13.72 17.2667 13.72 16C13.72 14.7333 14.7333 13.72 16 13.72C17.2667 13.72 18.28 14.7333 18.28 16Z" fill="black"/>
</g>
<defs>
<clipPath id="clip0_24_2001">
<rect width="32" height="32" fill="white"/>
</clipPath>
</defs>
</svg>
