<svg width="32" height="32" viewBox="0 0 32 32" fill="none" xmlns="http://www.w3.org/2000/svg">
<path d="M16 32C13.9291 32 11.9875 31.614 10.1755 30.842C8.36337 30.0795 6.76702 29.0251 5.38639 27.6788C4.01534 26.3326 2.94151 24.7698 2.16491 22.9905C1.3883 21.2112 1 19.3048 1 17.2713C1 15.7744 1.22052 14.334 1.66155 12.9501C2.11218 11.5568 2.75455 10.267 3.58869 9.08082C4.42282 7.8852 5.41515 6.8308 6.56568 5.91761C6.98754 5.55045 7.43337 5.3857 7.90316 5.42336C8.37296 5.46102 8.75168 5.65872 9.03931 6.01646C9.33653 6.40245 9.4372 6.81197 9.34132 7.24503C9.25503 7.66867 9.02972 8.04996 8.66539 8.38887C7.77373 9.08553 7.00192 9.89516 6.34995 10.8178C5.69799 11.7404 5.18984 12.743 4.8255 13.8256C4.47076 14.9083 4.29338 16.0568 4.29338 17.2713C4.29338 18.8529 4.5954 20.3404 5.19942 21.7337C5.80345 23.1176 6.64238 24.3414 7.7162 25.4053C8.79003 26.4597 10.0316 27.2834 11.441 27.8765C12.86 28.4696 14.3797 28.7662 16 28.7662C17.6203 28.7662 19.1352 28.4696 20.5446 27.8765C21.9636 27.2834 23.2052 26.4597 24.2694 25.4053C25.3432 24.3414 26.1822 23.1176 26.7862 21.7337C27.3998 20.3404 27.7066 18.8529 27.7066 17.2713C27.7066 15.9345 27.4909 14.6729 27.0594 13.4867C26.628 12.2911 26.024 11.2085 25.2474 10.2388C24.4708 9.2597 23.5599 8.42653 22.5149 7.73928C21.4698 7.04262 20.3241 6.52954 19.0777 6.20004V7.89462C19.0777 8.24295 18.9914 8.51126 18.8188 8.69954C18.6558 8.87842 18.4449 8.96315 18.186 8.95373C17.9367 8.94432 17.6731 8.84547 17.395 8.65718L12.6922 5.29626C12.3854 5.07032 12.2272 4.80201 12.2176 4.49134C12.2176 4.17125 12.3758 3.89824 12.6922 3.67229L17.395 0.297257C17.6635 0.108971 17.9271 0.0101204 18.186 0.000706075C18.4449 -0.00870825 18.6558 0.0760207 18.8188 0.254893C18.9914 0.433765 19.0777 0.706781 19.0777 1.07394V2.86737C20.7747 3.20628 22.3471 3.81351 23.7948 4.68904C25.2426 5.55516 26.5034 6.6331 27.5772 7.92286C28.6606 9.20321 29.4995 10.6389 30.094 12.2299C30.698 13.8115 31 15.492 31 17.2713C31 19.3048 30.6069 21.2112 29.8207 22.9905C29.0441 24.7698 27.9703 26.3326 26.5992 27.6788C25.2282 29.0251 23.6366 30.0795 21.8245 30.842C20.0125 31.614 18.0709 32 16 32ZM12.232 22.9199C11.8773 22.9199 11.5944 22.8116 11.3835 22.5951C11.1822 22.3691 11.0815 22.0773 11.0815 21.7196V14.3058H11.0384L9.81592 15.1954C9.72963 15.2613 9.64334 15.3131 9.55705 15.3508C9.47076 15.379 9.37009 15.3931 9.25503 15.3931C9.02493 15.3931 8.83317 15.3178 8.67977 15.1672C8.53595 15.0071 8.46405 14.8141 8.46405 14.5882C8.46405 14.2399 8.62704 13.948 8.95302 13.7127L10.3768 12.6818C10.6453 12.4935 10.9041 12.3382 11.1534 12.2158C11.4123 12.084 11.7047 12.0181 12.0307 12.0181C12.443 12.0181 12.7689 12.1311 13.0086 12.357C13.2579 12.5735 13.3826 12.8842 13.3826 13.289V21.7196C13.3826 22.0773 13.2771 22.3691 13.0662 22.5951C12.8648 22.8116 12.5868 22.9199 12.232 22.9199ZM19.466 23.0187C18.5264 23.0187 17.7689 22.7504 17.1937 22.2138C16.628 21.6772 16.2157 20.9852 15.9569 20.1379C15.7076 19.2907 15.5829 18.3963 15.5829 17.4549C15.5829 16.7582 15.65 16.0804 15.7843 15.4214C15.9281 14.7624 16.1486 14.1693 16.4458 13.6421C16.7526 13.1149 17.1553 12.6959 17.6539 12.3853C18.1524 12.0746 18.7565 11.9192 19.466 11.9192C20.4151 11.9192 21.1726 12.1876 21.7383 12.7242C22.3039 13.2514 22.7114 13.9386 22.9607 14.7859C23.2196 15.6238 23.349 16.5134 23.349 17.4549C23.349 18.1609 23.2771 18.8435 23.1333 19.5025C22.999 20.1615 22.7785 20.7593 22.4717 21.2959C22.1745 21.8231 21.7766 22.2421 21.278 22.5527C20.7795 22.8634 20.1755 23.0187 19.466 23.0187ZM19.466 21.2112C19.8111 21.2112 20.0988 21.0558 20.3289 20.7452C20.559 20.4251 20.7315 19.9826 20.8466 19.4178C20.9616 18.8529 21.0192 18.1986 21.0192 17.4549C21.0192 16.7111 20.9569 16.0615 20.8322 15.5061C20.7172 14.9507 20.5446 14.5176 20.3145 14.2069C20.094 13.8868 19.8111 13.7268 19.466 13.7268C19.1208 13.7268 18.8332 13.8821 18.6031 14.1928C18.3825 14.5035 18.2148 14.9412 18.0997 15.5061C17.9847 16.0615 17.9271 16.7111 17.9271 17.4549C17.9271 18.1986 17.9847 18.8529 18.0997 19.4178C18.2148 19.9826 18.3825 20.4251 18.6031 20.7452C18.8332 21.0558 19.1208 21.2112 19.466 21.2112Z" fill="black"/>
</svg>
