<svg width="32" height="32" viewBox="0 0 32 32" fill="none" xmlns="http://www.w3.org/2000/svg">
<g clip-path="url(#clip0_24_1990)">
<path d="M31.7894 14.0804H27.6917V9.9915C27.6917 9.87595 27.5939 9.77817 27.4783 9.77817H24.4561C24.3406 9.77817 24.2428 9.87595 24.2428 9.9915V14.0893H20.145C20.0294 14.0893 19.9317 14.1871 19.9317 14.3026V17.3248C19.9317 17.4404 20.0294 17.5382 20.145 17.5382H24.2428V21.6359C24.2428 21.7515 24.3406 21.8493 24.4561 21.8493H27.4783C27.5939 21.8493 27.6917 21.7515 27.6917 21.6359V17.5382H31.7894C31.905 17.5382 32.0028 17.4404 32.0028 17.3248V14.3026C32.0028 14.1871 31.905 14.0893 31.7894 14.0893V14.0804Z" fill="black"/>
<path d="M18.5094 20.7826C18.3939 20.7115 17.505 20.2582 17.505 19.3071V10.9426C17.505 10.8804 17.4872 10.7915 17.3717 10.7204C17.2561 10.6582 14.3494 8.94261 14.2783 8.91595C14.1806 8.8715 14.1094 8.8715 13.8961 8.99595C13.7006 9.1115 11.825 10.2937 11.3717 10.5782C11.3094 10.6137 11.2294 10.6137 11.1672 10.5782C10.6783 10.3026 8.705 9.21817 8.65166 9.18261C8.55388 9.12039 8.45611 9.13817 8.34055 9.1915C8.26055 9.22706 5.665 10.6315 5.17611 10.8893C5.12277 10.9159 5.06944 10.9159 5.025 10.8893C4.64277 10.6671 2.88277 9.63595 2.80277 9.5915C2.74055 9.55595 2.61611 9.50261 2.49166 9.57373C2.36722 9.64484 0.18944 11.0404 0.118329 11.0937C0.0561069 11.1382 -0.0150042 11.2271 0.00277353 11.3248C0.0205513 11.4048 0.136107 11.4937 0.260551 11.5915C0.34944 11.6537 1.77166 12.6226 1.85166 12.6759C1.99388 12.7737 2.01166 12.8893 2.01166 13.0137V20.2493C2.01166 20.2493 1.15833 20.7382 1.11388 20.7737C1.05166 20.8182 0.82944 20.9515 1.08722 21.1026C1.22055 21.1737 3.39833 22.3115 4.08277 22.6671C4.20722 22.7293 4.34944 22.7382 4.45611 22.6671C4.99833 22.3648 6.66055 21.4315 6.71388 21.3959C6.82055 21.3337 6.945 21.2004 6.74055 21.0671C6.68722 21.0315 6.42944 20.8715 6.17166 20.7115V17.4137H7.88722V19.9826C7.88722 19.9826 7.14944 20.4448 7.09611 20.4715C7.04277 20.4982 6.90055 20.6671 7.17611 20.8271C7.27388 20.8804 9.825 22.2315 10.6072 22.6493C10.7494 22.7293 10.9094 22.7204 11.0339 22.6493C11.6117 22.2937 13.2739 21.2626 13.3006 21.2359C13.3717 21.1826 13.3983 21.1648 13.4161 21.1115C13.4339 21.0582 13.3806 21.0137 13.3094 20.9604C13.2561 20.9248 12.6428 20.5248 12.2161 20.2493V17.2982C12.5272 16.8271 13.7361 15.0048 13.7717 14.9604C13.8072 14.9071 13.8072 14.8182 13.7094 14.8182H12.2161V11.2715C12.6872 11.5115 13.7183 12.0537 13.7717 12.0804C13.9139 12.1604 14.0206 12.2937 14.0206 12.5071V20.1337C14.0206 20.6493 14.2783 22.0004 16.0828 22.7115C16.1361 22.7382 16.3139 22.7382 16.4028 22.6759C16.9006 22.3204 18.5361 21.1559 18.5806 21.1204C18.6606 21.0582 18.7406 20.9071 18.5272 20.7737L18.5094 20.7826ZM5.91389 20.5693C5.745 20.4715 5.62055 20.3826 5.59388 20.3648C5.51389 20.3115 5.46055 20.2493 5.46055 20.0893V11.6271C5.46055 11.4404 5.67388 11.2804 5.92277 11.3071V20.5782L5.91389 20.5693ZM7.88722 14.8359H7.73611C7.64722 14.8359 7.55833 14.8893 7.51388 14.9515C7.48722 14.9959 6.57166 16.3737 6.16277 16.9782V11.3782C6.43833 11.5204 7.59388 12.1248 7.665 12.1693C7.79833 12.2493 7.88722 12.3293 7.88722 12.5071V14.8359ZM11.9494 20.0982C11.8606 20.0448 11.7983 20.0004 11.7894 19.9915C11.7183 19.9471 11.5672 19.8493 11.5672 19.6626V17.4226H11.9494V20.0982ZM11.9494 14.8271H11.5672V11.3248C11.5672 11.1915 11.6028 11.0137 11.9494 11.1559V14.8271Z" fill="black"/>
</g>
<defs>
<clipPath id="clip0_24_1990">
<rect width="32" height="32" fill="white"/>
</clipPath>
</defs>
</svg>
