<svg width="32" height="32" viewBox="0 0 32 32" fill="none" xmlns="http://www.w3.org/2000/svg">
<path d="M28.5467 1H3.45333C1.54667 1 0 2.53846 0 4.43501V27.565C0 29.4615 1.54667 31 3.45333 31H28.5467C30.4533 31 32 29.4615 32 27.565V4.43501C32 2.53846 30.4533 1 28.5467 1ZM3.45333 3.65252H28.5467C28.9867 3.65252 29.3333 4.01061 29.3333 4.43501V19.2095L25.8133 16.2255C24.84 15.2573 23.28 15.2308 22.3067 16.1459L18.92 19.0239L11.3867 12.2997C10.1467 11.0663 8.18667 11.0398 6.94667 12.2069L2.66667 15.9072V4.43501C2.66667 3.99735 3.02667 3.65252 3.45333 3.65252Z" fill="black"/>
<path d="M22.84 12.1008C24.68 12.1008 26.1733 10.6154 26.1733 8.78515C26.1733 6.95491 24.68 5.4695 22.84 5.4695C21 5.4695 19.5067 6.95491 19.5067 8.78515C19.5067 10.6154 21 12.1008 22.84 12.1008Z" fill="black"/>
</svg>
