<svg width="32" height="32" viewBox="0 0 32 32" fill="none" xmlns="http://www.w3.org/2000/svg">
<g clip-path="url(#clip0_139_482)">
<path d="M27.32 4.68C24.2933 1.66667 20.28 0 16 0C11.72 0 7.70667 1.66667 4.68 4.68C1.66667 7.70667 0 11.72 0 16C0 20.28 1.66667 24.2933 4.68 27.32C7.70667 30.3467 11.72 32 16 32C20.28 32 24.2933 30.3333 27.32 27.32C30.3467 24.3067 32 20.28 32 16C32 11.72 30.3333 7.70667 27.32 4.68ZM29.5867 12.72H23.9867L27.9867 8.8C28.72 10.0133 29.2667 11.3333 29.6 12.72H29.5867ZM26.7867 7.12L21.08 12.72H19.2933V10.9333L24.8933 5.22667C25.5867 5.8 26.2267 6.42667 26.7867 7.12ZM19.28 2.41333C20.6667 2.74667 21.9867 3.29333 23.2 4.02667L19.28 8.02667V2.42667V2.41333ZM12.7333 8.01333L8.81333 4.01333C10.0267 3.28 11.3467 2.73333 12.7333 2.4V8V8.01333ZM7.13333 5.21333L12.7333 10.92V12.7067H10.9467L5.22667 7.12C5.8 6.42667 6.42667 5.78667 7.12 5.22667L7.13333 5.21333ZM4.04 8.8L8.04 12.72H2.42667C2.76 11.3333 3.30667 10.0133 4.04 8.8ZM2.42667 19.2667H8.02667L4.02667 23.1867C3.29333 21.9733 2.74667 20.6533 2.41333 19.2667H2.42667ZM5.22667 24.8667L10.9333 19.2667H12.72V21.0533L7.12 26.76C6.42667 26.1867 5.78667 25.56 5.22667 24.8667ZM12.7333 29.5733C11.3467 29.24 10.0267 28.6933 8.81333 27.96L12.7333 23.96V29.56V29.5733ZM14.7733 29.9067V18.2533C14.7733 17.6933 14.32 17.24 13.76 17.24H2.09333C2.05333 16.84 2.04 16.4267 2.04 16.0133C2.04 15.6 2.05333 15.1867 2.09333 14.7867H13.7467C14.3067 14.7867 14.76 14.3333 14.76 13.7733V2.09333C15.16 2.05333 15.5733 2.04 15.9867 2.04C16.4 2.04 16.8133 2.05333 17.2133 2.09333V13.7467C17.2133 14.3067 17.6667 14.76 18.2267 14.76H29.88C29.92 15.16 29.9333 15.5733 29.9333 15.9867C29.9333 16.4 29.92 16.8133 29.88 17.2133H18.2267C17.6667 17.2133 17.2133 17.6667 17.2133 18.2267V29.88C16.8133 29.92 16.4 29.9333 15.9867 29.9333C15.5733 29.9333 15.16 29.92 14.76 29.88L14.7733 29.9067ZM27.9733 23.1867L23.9733 19.2667H29.5733C29.24 20.6533 28.6933 21.9733 27.96 23.1867H27.9733ZM19.28 23.9733L23.2 27.9733C21.9867 28.7067 20.6667 29.2533 19.28 29.5867V23.9867V23.9733ZM24.88 26.7733L19.28 21.0667V19.28H21.0667L26.7733 24.88C26.2 25.5733 25.5733 26.2133 24.88 26.7733Z" fill="url(#paint0_linear_139_482)"/>
</g>
<defs>
<linearGradient id="paint0_linear_139_482" x1="0" y1="0" x2="32" y2="32" gradientUnits="userSpaceOnUse">
<stop offset="0.2" stop-color="#6694D1"/>
<stop offset="0.8" stop-color="#004DB3"/>
</linearGradient>
<clipPath id="clip0_139_482">
<rect width="32" height="32" fill="white"/>
</clipPath>
</defs>
</svg>
