<svg width="32" height="32" viewBox="0 0 32 32" fill="none" xmlns="http://www.w3.org/2000/svg">
<path d="M29.7244 9.76894H27.0311V4.51561C27.0311 3.0045 25.8044 1.77783 24.2933 1.77783H7.69778C6.18667 1.77783 4.96 3.0045 4.96 4.51561V9.76005H2.26667C1.01333 9.76005 0 10.7734 0 12.0267V21.5645C0 22.8178 1.01333 23.8312 2.26667 23.8312H3.17333V18.6578H28.8267V23.8312H29.7333C30.9867 23.8312 32 22.8178 32 21.5645V12.0267C32 10.7734 30.9867 9.76005 29.7333 9.76005L29.7244 9.76894ZM6.83556 4.51561C6.83556 4.0445 7.21778 3.66228 7.68889 3.66228H24.2844C24.7556 3.66228 25.1378 4.0445 25.1378 4.51561V9.76005H6.83556V4.51561ZM26.8444 15.2267H24.2044C23.5822 15.2267 23.0756 14.7201 23.0756 14.0978C23.0756 13.4756 23.5822 12.9689 24.2044 12.9689H26.8444C27.4667 12.9689 27.9733 13.4756 27.9733 14.0978C27.9733 14.7201 27.4667 15.2267 26.8444 15.2267Z" fill="black"/>
<path d="M22.7733 30.9601H5.89333C5.37778 30.9601 4.95111 30.5423 4.95111 30.0178V20.7467C4.95111 20.2312 5.36889 19.8045 5.89333 19.8045H26.08C26.5956 19.8045 27.0222 20.2223 27.0222 20.7467V26.7112C27.0222 26.9601 26.9244 27.2001 26.7467 27.3778L23.44 30.6845C23.2622 30.8623 23.0222 30.9601 22.7733 30.9601ZM6.83556 29.0756H22.3822L25.1378 26.3201V21.6889H6.83556V29.0756Z" fill="black"/>
</svg>
