<svg width="32" height="32" viewBox="0 0 32 32" fill="none" xmlns="http://www.w3.org/2000/svg">
<g clip-path="url(#clip0_24_2217)">
<path d="M30.4622 19.52C31.3067 19.52 32 18.8356 32 17.9822V8.06223V5.96445C32 3.64445 30.1156 1.76001 27.7956 1.76001H4.20444C1.88444 1.7689 0 3.65334 0 5.96445V8.06223V23.4133C0 25.7333 1.88444 27.6178 4.20444 27.6178H26.2578L24.2756 29.2889C23.6267 29.8311 23.5467 30.8089 24.0889 31.4578C24.3911 31.8222 24.8267 32 25.2622 32C25.6089 32 25.9644 31.8845 26.2489 31.6356L31.4489 27.2533C31.7956 26.96 31.9911 26.5333 31.9911 26.08C31.9911 25.6267 31.7867 25.2 31.44 24.9067L26.24 20.5245C25.5911 19.9822 24.6222 20.0622 24.0711 20.7111C23.52 21.36 23.6089 22.3289 24.2578 22.88L26.24 24.5511H4.20444C3.58222 24.5511 3.07556 24.0445 3.07556 23.4222V10.9422L13.6622 18.0356C13.6622 18.0356 13.7244 18.08 13.76 18.0978C14.4533 18.4889 15.2267 18.6845 16 18.6845C16.7733 18.6845 17.5467 18.4889 18.24 18.0978C18.2756 18.08 18.3022 18.0622 18.3378 18.0356L28.9244 10.9422V17.9822C28.9244 18.8267 29.6089 19.52 30.4622 19.52ZM16.6844 15.44C16.2578 15.6622 15.7422 15.6622 15.3244 15.44L3.07556 7.23557V5.96445C3.07556 5.34223 3.58222 4.83557 4.20444 4.83557H27.8044C28.4267 4.83557 28.9333 5.34223 28.9333 5.96445V7.23557L16.6844 15.44Z" fill="black"/>
</g>
<defs>
<clipPath id="clip0_24_2217">
<rect width="32" height="32" fill="white"/>
</clipPath>
</defs>
</svg>
