<svg width="32" height="32" viewBox="0 0 32 32" fill="none" xmlns="http://www.w3.org/2000/svg">
<g clip-path="url(#clip0_381_38)">
<path d="M16 4.42C15.23 4.42 14.6 5.05 14.6 5.82V14.6H8.73C7.96 14.6 7.33 15.23 7.33 16C7.33 16.77 7.96 17.4 8.73 17.4H16C16.77 17.4 17.4 16.77 17.4 16V5.82C17.4 5.05 16.77 4.42 16 4.42Z" fill="black"/>
<path d="M16 0C7.18 0 0 7.18 0 16C0 24.82 7.18 32 16 32C16.77 32 17.4 31.37 17.4 30.6C17.4 29.83 16.77 29.2 16 29.2C8.72 29.2 2.8 23.28 2.8 16C2.8 8.72 8.72 2.8 16 2.8C23.28 2.8 29.2 8.72 29.2 16C29.2 16.77 29.83 17.4 30.6 17.4C31.37 17.4 32 16.77 32 16C32 7.18 24.82 0 16 0Z" fill="black"/>
<path d="M29.95 20.05C28.64 18.74 26.86 18 25 18C21.13 18 18 21.13 18 25C18 28.87 21.13 32 25 32C28.87 32 32 28.87 32 25C32 23.14 31.26 21.36 29.95 20.05ZM28.98 23.06L24.07 27.92C24.07 27.92 24 27.97 23.95 27.97C23.9 27.97 23.86 27.95 23.83 27.92L21.23 25.35C21.23 25.35 21.18 25.28 21.18 25.23C21.18 25.18 21.2 25.14 21.23 25.11L22.19 24.16C22.19 24.16 22.26 24.11 22.31 24.11C22.36 24.11 22.4 24.13 22.43 24.16L23.95 25.66L27.77 21.88C27.77 21.88 27.84 21.83 27.89 21.83C27.94 21.83 27.98 21.85 28.01 21.88L28.97 22.83C29.04 22.9 29.04 23 28.97 23.07L28.98 23.06Z" fill="black"/>
</g>
<defs>
<clipPath id="clip0_381_38">
<rect width="32" height="32" fill="white"/>
</clipPath>
</defs>
</svg>
