<svg width="32" height="32" viewBox="0 0 32 32" fill="none" xmlns="http://www.w3.org/2000/svg">
<g clip-path="url(#clip0_24_2028)">
<path d="M17.3956 1.13562L10.4711 7.82895L9.32447 8.94006H2.24892C1.49336 8.94006 0.888916 9.5534 0.888916 10.3001V21.6956C0.888916 22.4512 1.50225 23.0556 2.24892 23.0556H9.31558L10.4622 24.1667L17.3867 30.8601C17.8756 31.3312 18.9156 31.0823 18.9156 30.4956V1.50006C18.9156 0.913397 17.8756 0.664508 17.3867 1.13562H17.3956Z" fill="black"/>
<path d="M27.8489 6.30895C27.3067 5.76673 26.3556 5.76673 25.8134 6.30895C25.5378 6.58451 25.3956 6.94006 25.3956 7.32229C25.3956 7.70451 25.5467 8.06895 25.8134 8.33562C30.0356 12.5578 30.0356 19.4201 25.8134 23.6423C25.5378 23.9178 25.3956 24.2734 25.3956 24.6556C25.3956 25.0378 25.5467 25.4023 25.8134 25.669C26.08 25.9356 26.4445 26.0867 26.8267 26.0867C27.2089 26.0867 27.5734 25.9356 27.84 25.669C30.4267 23.0823 31.8489 19.6423 31.8489 15.9801C31.8489 12.3178 30.4267 8.87784 27.84 6.29117L27.8489 6.30895Z" fill="black"/>
<path d="M23.9022 8.31784C23.3422 7.75784 22.4267 7.75784 21.8667 8.31784C21.5911 8.5934 21.4489 8.94895 21.4489 9.33117C21.4489 9.7134 21.6 10.0778 21.8667 10.3445C24.9778 13.4556 24.9778 18.5223 21.8667 21.6334C21.5911 21.909 21.4489 22.2645 21.4489 22.6467C21.4489 23.029 21.6 23.3934 21.8667 23.6601C22.1423 23.9356 22.4978 24.0778 22.8889 24.0778C23.28 24.0778 23.6356 23.9267 23.9022 23.6601C28.1334 19.429 28.1334 12.5312 23.9022 8.30006V8.31784Z" fill="black"/>
</g>
<defs>
<clipPath id="clip0_24_2028">
<rect width="32" height="32" fill="white"/>
</clipPath>
</defs>
</svg>
