<svg width="32" height="32" viewBox="0 0 32 32" fill="none" xmlns="http://www.w3.org/2000/svg">
<path d="M14.8953 29.7973C15.855 29.3867 16.4649 28.4422 16.4649 27.3849L16.4649 22.4983H29.9606C31.0803 22.4983 32 21.5641 32 20.4041V11.5857C32 10.4359 31.0903 9.49143 29.9606 9.49143L16.4649 9.49143V4.61514C16.4649 3.55775 15.845 2.60303 14.8953 2.20266C13.9356 1.79202 12.856 2.01787 12.1162 2.76728L0.53983 14.6552C0.179943 15.0247 2.08897e-08 15.5175 0 16C-2.08897e-08 16.4825 0.179943 16.9753 0.53983 17.3448L12.1162 29.2327C12.846 29.9821 13.9356 30.208 14.8953 29.7973ZM13.8257 27.4875L2.63917 16L13.8257 4.50221C13.8257 4.50221 13.8957 4.43035 13.9856 4.47142C14.0756 4.51248 14.0756 4.57408 14.0756 4.61514V10.7336C14.0756 11.4112 14.6154 11.9655 15.2752 11.9655L29.6007 11.9655V20.0448H15.2752C14.6154 20.0448 14.0756 20.5991 14.0756 21.2767L14.0756 27.3951C14.0756 27.3951 14.0756 27.4978 13.9856 27.5389C13.8957 27.5799 13.8457 27.5389 13.8257 27.5081V27.4875Z" fill="black"/>
</svg>
