<svg width="32" height="32" viewBox="0 0 32 32" fill="none" xmlns="http://www.w3.org/2000/svg">
<g clip-path="url(#clip0_24_2030)">
<path d="M17.3956 1.13562L10.4711 7.82895L9.32447 8.94006H2.24892C1.49336 8.94006 0.888916 9.5534 0.888916 10.3001V21.6956C0.888916 22.4512 1.50225 23.0556 2.24892 23.0556H9.31558L10.4622 24.1667L17.3867 30.8601C17.8756 31.3312 18.9156 31.0823 18.9156 30.4956V1.50006C18.9156 0.913397 17.8756 0.664508 17.3867 1.13562H17.3956Z" fill="black"/>
<path d="M27.8222 14.8245L31.4134 11.2334C32.0178 10.629 32.0178 9.65118 31.4134 9.04673C30.8267 8.46006 29.8134 8.46006 29.2267 9.04673L25.6356 12.6378L22.0445 9.04673C21.4578 8.46006 20.4445 8.46006 19.8578 9.04673C19.2534 9.65118 19.2534 10.629 19.8578 11.2334L23.4489 14.8245L19.8578 18.4156C19.2534 19.0201 19.2534 19.9978 19.8578 20.6023C20.4622 21.2067 21.4578 21.189 22.0445 20.6023L25.6356 17.0112L29.2267 20.6023C29.52 20.8956 29.9022 21.0556 30.32 21.0556C30.7378 21.0556 31.12 20.8956 31.4134 20.6023C32.0178 19.9978 32.0178 19.0201 31.4134 18.4156L27.8222 14.8245Z" fill="black"/>
</g>
<defs>
<clipPath id="clip0_24_2030">
<rect width="32" height="32" fill="white"/>
</clipPath>
</defs>
</svg>
