<svg width="32" height="32" viewBox="0 0 32 32" fill="none" xmlns="http://www.w3.org/2000/svg">
<g clip-path="url(#clip0_1309_60)">
<path d="M16 0C7.17 0 0 7.17 0 16C0 24.83 7.17 32 16 32C24.83 32 32 24.83 32 16C32 7.17 24.83 0 16 0ZM17.04 24.05C16.7 24.35 16.33 24.5 15.87 24.5C15.41 24.5 15.01 24.35 14.67 24.06C14.32 23.76 14.15 23.35 14.15 22.82C14.15 22.35 14.32 21.95 14.65 21.63C14.98 21.31 15.39 21.15 15.87 21.15C16.34 21.15 16.74 21.31 17.06 21.63C17.38 21.95 17.54 22.35 17.54 22.82C17.54 23.34 17.37 23.75 17.03 24.06L17.04 24.05ZM21.25 13.65C20.99 14.13 20.68 14.55 20.33 14.89C19.97 15.24 19.33 15.82 18.41 16.65C18.15 16.88 17.96 17.09 17.8 17.26C17.64 17.43 17.53 17.6 17.45 17.74C17.37 17.88 17.32 18.03 17.27 18.18C17.23 18.33 17.16 18.59 17.08 18.95C16.94 19.73 16.49 20.12 15.74 20.12C15.35 20.12 15.02 20 14.75 19.74C14.48 19.48 14.35 19.1 14.35 18.6C14.35 17.97 14.45 17.43 14.64 16.96C14.84 16.5 15.09 16.09 15.41 15.74C15.74 15.39 16.17 14.98 16.72 14.5C17.2 14.08 17.55 13.76 17.76 13.55C17.97 13.34 18.16 13.11 18.3 12.84C18.45 12.58 18.52 12.3 18.52 11.99C18.52 11.39 18.3 10.88 17.85 10.47C17.4 10.05 16.83 9.85 16.12 9.85C15.29 9.85 14.69 10.05 14.3 10.47C13.91 10.89 13.58 11.5 13.31 12.31C13.06 13.15 12.57 13.58 11.86 13.58C11.43 13.58 11.09 13.43 10.79 13.14C10.5 12.85 10.35 12.53 10.35 12.18C10.35 11.46 10.58 10.74 11.04 10.01C11.49 9.28 12.16 8.68 13.04 8.2C13.91 7.72 14.93 7.48 16.11 7.48C17.19 7.48 18.15 7.68 18.99 8.08H19.01C19.85 8.48 20.49 9.02 20.94 9.72C21.39 10.41 21.62 11.16 21.62 11.97C21.62 12.61 21.49 13.17 21.23 13.65H21.25Z" fill="black"/>
</g>
<defs>
<clipPath id="clip0_1309_60">
<rect width="32" height="32" fill="white"/>
</clipPath>
</defs>
</svg>
