<svg width="32" height="32" viewBox="0 0 32 32" fill="none" xmlns="http://www.w3.org/2000/svg">
<path d="M30.0519 23.5159H25.0572C24.9957 23.3752 24.9253 23.2346 24.8462 23.1026C24.4945 22.5047 24.0196 22.0211 23.4129 21.6693C22.8149 21.3 22.1378 21.1241 21.4168 21.1241C20.6957 21.1241 20.0186 21.3 19.4031 21.6693C18.8139 22.0211 18.3303 22.4959 17.9697 23.1026C17.8906 23.2346 17.8203 23.3752 17.7587 23.5247H2.00089C1.57002 23.5247 1.1919 23.683 0.892922 23.9908C0.585153 24.2986 0.444458 24.6679 0.444458 25.0988C0.444458 25.5296 0.593946 25.899 0.884129 26.2067V26.2155C1.1919 26.5145 1.57881 26.6552 1.9921 26.6552H17.7411C17.8027 26.7959 17.873 26.9454 17.9609 27.0861C18.3215 27.684 18.8051 28.1589 19.3943 28.5194C20.001 28.8887 20.6781 29.0734 21.408 29.0734C22.1378 29.0734 22.8061 28.8975 23.4041 28.5194C24.002 28.1677 24.4769 27.6928 24.8374 27.0861C24.9253 26.9454 24.9957 26.7959 25.0572 26.6552H30.0431C30.4476 26.6552 30.8169 26.5057 31.1159 26.2067C31.4149 25.8902 31.5556 25.512 31.5556 25.0988C31.5556 24.6855 31.4149 24.2986 31.1071 23.9908C30.8169 23.683 30.4476 23.5247 30.0343 23.5247L30.0519 23.5159ZM22.4104 26.1012C22.1378 26.3738 21.8125 26.5145 21.408 26.5145C21.0035 26.5145 20.6869 26.3826 20.4055 26.1012C20.1329 25.8286 19.9922 25.5033 19.9922 25.0988C19.9922 24.6943 20.1329 24.3689 20.3967 24.1051C20.6693 23.8237 20.9947 23.6918 21.3992 23.6918C21.8037 23.6918 22.1202 23.8237 22.4016 24.1051C22.6742 24.3689 22.8061 24.6943 22.8061 25.1075C22.8061 25.5208 22.6742 25.8286 22.3928 26.11L22.4104 26.1012ZM0.892922 7.78452C1.20069 8.08349 1.5876 8.23298 2.00089 8.23298H17.7499C17.8115 8.37368 17.8818 8.52316 17.9697 8.66386C18.3303 9.25302 18.8139 9.72786 19.3943 10.0884C20.001 10.4577 20.6781 10.6248 21.408 10.6248C22.1378 10.6248 22.8061 10.4489 23.4041 10.0972C24.002 9.72786 24.4769 9.25302 24.8374 8.66386C24.9253 8.52316 24.9957 8.37368 25.0572 8.23298H30.0431C30.4476 8.23298 30.8169 8.08349 31.1159 7.78452C31.4149 7.46795 31.5556 7.08984 31.5556 6.65896C31.5556 6.22808 31.4061 5.86755 31.1071 5.56858C30.8169 5.26081 30.4476 5.10252 30.0343 5.10252H25.0484C24.9869 4.96183 24.9165 4.81234 24.8286 4.67165C24.4769 4.07369 24.002 3.59006 23.3953 3.22073C22.7973 2.85141 22.1202 2.66675 21.3992 2.66675C20.6781 2.66675 20.001 2.84262 19.3855 3.21194C18.7963 3.58126 18.3215 4.05611 17.9522 4.66285C17.8642 4.80355 17.7939 4.95304 17.7323 5.09373H2.00089C1.57002 5.09373 1.1919 5.25201 0.892922 5.55978C0.593946 5.85876 0.444458 6.23688 0.444458 6.65017C0.444458 7.06346 0.585153 7.45916 0.884129 7.77572L0.892922 7.78452ZM20.4055 5.63892C20.6781 5.36633 21.0035 5.22563 21.408 5.22563C21.8125 5.22563 22.129 5.35753 22.4104 5.63892C22.683 5.91152 22.8237 6.23688 22.8237 6.64137C22.8237 7.04587 22.6918 7.38002 22.4104 7.66141C22.1378 7.934 21.8125 8.06591 21.408 8.06591C21.0035 8.06591 20.6869 7.934 20.4055 7.66141C20.1329 7.38002 19.9922 7.04587 19.9922 6.64137C19.9922 6.23688 20.1241 5.92031 20.4055 5.63892ZM1.94813 17.4309H7.10108C7.16263 17.5804 7.23298 17.7211 7.31212 17.8706V17.8794C7.67265 18.4685 8.15628 18.9434 8.74544 19.3127C9.35219 19.682 10.0293 19.8667 10.7591 19.8667C11.489 19.8667 12.1573 19.6908 12.7552 19.3127C13.3532 18.9522 13.828 18.4685 14.1886 17.8794C14.2765 17.7299 14.3469 17.5804 14.4084 17.4309H29.9815C30.4124 17.4309 30.7905 17.2902 31.0895 16.9824C31.3973 16.6835 31.5556 16.3053 31.5556 15.8657C31.5556 15.426 31.3973 15.0567 31.0895 14.7577C30.7905 14.4499 30.4124 14.2916 29.9815 14.2916H14.3996C14.3381 14.151 14.2677 14.0103 14.1886 13.8784C13.8368 13.2804 13.362 12.7968 12.7552 12.445C12.1573 12.0757 11.4802 11.8998 10.7591 11.8998C10.0381 11.8998 9.36098 12.0757 8.74544 12.445C8.15628 12.7968 7.67265 13.2716 7.31212 13.8784C7.23298 14.019 7.16263 14.1597 7.10108 14.3004H1.94813C1.54364 14.3004 1.18311 14.4675 0.892922 14.7665C0.593946 15.0743 0.444458 15.4436 0.444458 15.8745C0.444458 16.3053 0.585153 16.6835 0.892922 16.9824C1.1919 17.2814 1.54364 17.4309 1.94813 17.4309ZM9.74789 14.8808C10.0205 14.5994 10.3458 14.4675 10.7503 14.4675C11.1548 14.4675 11.4802 14.6082 11.744 14.872C12.0166 15.1446 12.1485 15.4612 12.1485 15.8745C12.1485 16.2878 12.0166 16.5955 11.7352 16.8769C11.4714 17.1495 11.1548 17.2902 10.7415 17.2902C10.3283 17.2902 10.0205 17.1583 9.7391 16.8769C9.4665 16.6043 9.32581 16.279 9.32581 15.8745C9.32581 15.47 9.4665 15.1446 9.73031 14.8808H9.74789Z" fill="black"/>
</svg>
