<svg width="32" height="32" viewBox="0 0 32 32" fill="none" xmlns="http://www.w3.org/2000/svg">
<path d="M19.8887 11.685H9.06689L14.4113 6.44848C15.4483 5.43243 15.4483 3.77809 14.4113 2.76204C13.3743 1.74599 11.6859 1.74599 10.6489 2.76204L0.771084 12.4536C0.651433 12.5708 0.545077 12.7011 0.452015 12.8444C0.425426 12.8835 0.398837 12.9356 0.372248 12.9746C0.305775 13.0789 0.252597 13.1831 0.199418 13.2873C0.172829 13.3394 0.159535 13.4045 0.14624 13.4566C0.106356 13.5608 0.0664728 13.665 0.0531782 13.7692C0.0132946 13.9386 0 14.1079 0 14.2903C0 14.4727 0.0132946 14.642 0.0531782 14.8114C0.0797673 14.9156 0.119651 15.0198 0.14624 15.124C0.159535 15.1761 0.172829 15.2412 0.199418 15.2933C0.252597 15.3975 0.305775 15.5017 0.372248 15.606C0.398837 15.645 0.412131 15.6971 0.452015 15.7362C0.545077 15.8795 0.651433 16.0098 0.771084 16.127L10.6489 25.8055C11.1674 26.3136 11.8455 26.5741 12.5235 26.5741C13.2015 26.5741 13.8795 26.3136 14.398 25.8055C15.435 24.7895 15.435 23.1351 14.398 22.1191L9.05359 16.8825H19.8754C23.6244 16.8825 26.6822 19.8656 26.6822 23.552V27.3947C26.6822 28.8276 27.8787 30 29.3411 30C30.8035 30 32 28.8276 32 27.3947V23.552C32 16.9998 26.5625 11.672 19.8754 11.672L19.8887 11.685Z" fill="black"/>
</svg>
