<svg width="32" height="32" viewBox="0 0 32 32" fill="none" xmlns="http://www.w3.org/2000/svg">
<g clip-path="url(#clip0_24_1910)">
<path d="M18.72 32H0V28.08C0 23.1733 3.98667 19.2 8.88 19.2H17.4C16.2 20.7867 15.4667 22.7467 15.4667 24.8933C15.4667 27.7333 16.7333 30.28 18.72 32ZM16 17.5333C20.8533 17.5333 24.7733 13.6 24.7733 8.76C24.7733 3.92 20.8267 0 16 0C11.1733 0 7.22667 3.92 7.22667 8.77333C7.22667 13.6267 11.1467 17.5467 16 17.5467V17.5333ZM32 24.8933C32 28.8133 28.8133 32 24.8933 32C20.9733 32 17.7867 28.8133 17.7867 24.8933C17.7867 20.9733 20.9733 17.7867 24.8933 17.7867C28.8133 17.7867 32 20.9733 32 24.8933ZM29.52 21.5733C28.9467 21 28.0133 21 27.44 21.5733L23.5733 25.44L22.32 24.1867C21.7467 23.6133 20.8133 23.6133 20.24 24.1867C19.6667 24.76 19.6667 25.6933 20.24 26.2667L22.5333 28.56C22.8133 28.84 23.1867 28.9867 23.5733 28.9867C23.96 28.9867 24.3333 28.8267 24.6133 28.56L29.5067 23.6667C30.08 23.0933 30.08 22.16 29.5067 21.5867L29.52 21.5733Z" fill="black"/>
</g>
<defs>
<clipPath id="clip0_24_1910">
<rect width="32" height="32" fill="white"/>
</clipPath>
</defs>
</svg>
