<svg width="32" height="32" viewBox="0 0 32 32" fill="none" xmlns="http://www.w3.org/2000/svg">
<path d="M4.09504 32C3.69731 32 3.29958 31.8962 2.93644 31.6887C2.21015 31.2737 1.77783 30.5215 1.77783 29.6914V2.31721C1.78648 1.47852 2.21879 0.734937 2.94508 0.311267C3.67137 -0.103756 4.53601 -0.103756 5.25365 0.311267C5.87618 0.665766 6.0837 1.46123 5.7292 2.08376C5.45251 2.56796 4.9078 2.80141 4.38037 2.71494V29.19L27.2326 15.9957L11.3839 6.84788C10.7614 6.49338 10.5538 5.69792 10.9083 5.07539C11.2628 4.45285 12.0583 4.24534 12.6808 4.59984L28.9532 13.9984C29.6795 14.4134 30.1118 15.1656 30.1118 15.9957C30.1118 16.8344 29.6795 17.578 28.9532 18.0016L5.25365 31.6887C4.8905 31.8962 4.49277 32 4.09504 32Z" fill="black"/>
</svg>
