<svg width="32" height="32" viewBox="0 0 32 32" fill="none" xmlns="http://www.w3.org/2000/svg">
<g clip-path="url(#clip0_24_1980)">
<path d="M31.6703 15.269C31.4618 15.0848 31.1758 14.9975 30.8994 15.0363C30.6861 15.0654 30.5067 15.0799 30.3467 15.0799C28.0436 15.0799 26.1673 13.2036 26.1673 10.9005C26.1673 10.8327 26.1721 10.7648 26.177 10.6969V10.6242C26.2012 10.309 26.0703 10.0036 25.823 9.80479C25.5758 9.606 25.2509 9.54297 24.9455 9.6254C24.2521 9.82418 23.5491 9.926 22.8558 9.926C18.6812 9.926 15.2824 6.52721 15.2824 2.35267C15.2824 1.97449 15.3164 1.57206 15.3939 1.12115C15.4424 0.825396 15.3503 0.519942 15.1418 0.30176C14.9333 0.0835782 14.6376 -0.0279369 14.337 0.00600247C6.16242 0.849639 0 7.6957 0 15.9236C0 24.7478 7.17576 31.9236 16 31.9236C24.8242 31.9236 31.9515 24.7818 32 16.006C32 15.7248 31.8788 15.4581 31.6703 15.2739V15.269ZM16 29.9842C8.24727 29.9842 1.93939 23.6763 1.93939 15.9236C1.93939 9.09691 6.76849 3.35631 13.3479 2.11024C13.3479 2.19267 13.3479 2.27994 13.3479 2.36237C13.3479 7.60843 17.6145 11.8751 22.8606 11.8751C23.3358 11.8751 23.8158 11.8363 24.2909 11.7636C24.6933 14.6242 27.0885 16.8593 30.0218 17.0145C29.4594 24.2533 23.3745 29.9842 16.0048 29.9842H16Z" fill="black"/>
<path d="M11.9903 12.9563C11.9903 11.9187 11.1467 11.0799 10.1139 11.0799C9.08121 11.0799 8.23758 11.9236 8.23758 12.9563C8.23758 13.989 9.08121 14.8375 10.1139 14.8375C11.1467 14.8375 11.9903 13.9939 11.9903 12.9563Z" fill="black"/>
<path d="M16.737 15.9818C15.1224 15.9818 13.8085 17.2957 13.8085 18.9102C13.8085 20.5248 15.1224 21.8387 16.737 21.8387C18.3515 21.8387 19.6655 20.5248 19.6655 18.9102C19.6655 17.2957 18.3515 15.9818 16.737 15.9818ZM16.737 19.8993C16.1939 19.8993 15.7479 19.4581 15.7479 18.9102C15.7479 18.3624 16.1891 17.9212 16.737 17.9212C17.2848 17.9212 17.7261 18.3624 17.7261 18.9102C17.7261 19.4581 17.2848 19.8993 16.737 19.8993Z" fill="black"/>
<path d="M23.7333 15.9818C22.6958 15.9818 21.857 16.8254 21.857 17.863C21.857 18.9005 22.7006 19.7393 23.7333 19.7393C24.7661 19.7393 25.6097 18.8957 25.6097 17.863C25.6097 16.8302 24.7661 15.9818 23.7333 15.9818Z" fill="black"/>
<path d="M11.8594 23.3805C10.9576 23.3805 10.2255 24.1127 10.2255 25.0145C10.2255 25.9163 10.9576 26.6484 11.8594 26.6484C12.7612 26.6484 13.4933 25.9163 13.4933 25.0145C13.4933 24.1127 12.7612 23.3805 11.8594 23.3805Z" fill="black"/>
<path d="M15.297 12.9757C15.7527 12.9757 16.1212 12.6072 16.1212 12.1515C16.1212 11.6957 15.7527 11.3272 15.297 11.3272C14.8412 11.3272 14.4727 11.6957 14.4727 12.1515C14.4727 12.6072 14.8412 12.9757 15.297 12.9757Z" fill="black"/>
<path d="M7.40848 17.4363C6.95273 17.4363 6.58424 17.8048 6.58424 18.2605C6.58424 18.7163 6.95273 19.0848 7.40848 19.0848C7.86424 19.0848 8.23273 18.7163 8.23273 18.2605C8.23273 17.8048 7.86424 17.4363 7.40848 17.4363Z" fill="black"/>
<path d="M11.2727 18.2848C10.817 18.2848 10.4485 18.6533 10.4485 19.109C10.4485 19.5648 10.817 19.9333 11.2727 19.9333C11.7285 19.9333 12.097 19.5648 12.097 19.109C12.097 18.6533 11.7285 18.2848 11.2727 18.2848Z" fill="black"/>
<path d="M18.0121 25.4169C17.5564 25.4169 17.1879 25.7854 17.1879 26.2412C17.1879 26.6969 17.5564 27.0654 18.0121 27.0654C18.4679 27.0654 18.8364 26.6969 18.8364 26.2412C18.8364 25.7854 18.4679 25.4169 18.0121 25.4169Z" fill="black"/>
<path d="M21.28 21.189C20.8242 21.189 20.4558 21.5575 20.4558 22.0133C20.4558 22.469 20.8242 22.8375 21.28 22.8375C21.7358 22.8375 22.1042 22.469 22.1042 22.0133C22.1042 21.5575 21.7358 21.189 21.28 21.189Z" fill="black"/>
<path d="M24.0873 23.9963C23.6315 23.9963 23.263 24.3648 23.263 24.8205C23.263 25.2763 23.6315 25.6448 24.0873 25.6448C24.543 25.6448 24.9115 25.2763 24.9115 24.8205C24.9115 24.3648 24.543 23.9963 24.0873 23.9963Z" fill="black"/>
<path d="M7.66545 8.83994C7.66545 8.38418 7.29697 8.0157 6.84121 8.0157C6.38545 8.0157 6.01697 8.38418 6.01697 8.83994C6.01697 9.2957 6.38545 9.66418 6.84121 9.66418C7.29697 9.66418 7.66545 9.2957 7.66545 8.83994Z" fill="black"/>
</g>
<defs>
<clipPath id="clip0_24_1980">
<rect width="32" height="32" fill="white"/>
</clipPath>
</defs>
</svg>
