<svg width="32" height="32" viewBox="0 0 32 32" fill="none" xmlns="http://www.w3.org/2000/svg">
<g clip-path="url(#clip0_139_465)">
<path d="M25.3572 10.9288H12.3785C12.1117 10.9288 11.8583 10.9554 11.6048 11.0087C9.85744 11.3686 8.53689 12.9146 8.53689 14.7805V24.3099C8.53689 24.5898 8.57691 24.8696 8.63026 25.1362C8.9504 26.6156 10.1242 27.7751 11.6048 28.0816C11.8583 28.1349 12.1117 28.1616 12.3785 28.1616H22.7161L27.2247 31.7601C27.3047 31.8401 27.3981 31.8934 27.4781 31.9334C27.5048 31.9334 27.5315 31.9467 27.5581 31.96C27.6248 31.9867 27.6915 32 27.7582 32C27.7849 32 27.8116 32 27.8516 32C27.9316 32 28.025 31.9867 28.105 31.9467H28.1317C28.2251 31.9067 28.3051 31.8534 28.3718 31.7868C28.3985 31.7734 28.4118 31.7468 28.4252 31.7334C28.4785 31.6801 28.5185 31.6135 28.5586 31.5469C28.5719 31.5202 28.5852 31.4935 28.5986 31.4669C28.6386 31.3736 28.6653 31.267 28.6653 31.147L27.7582 28.1483H28.1451C30.2659 28.1483 32 26.429 32 24.2965V17.5793C32 13.9009 29.0121 10.9288 25.3439 10.9288H25.3572ZM14.7795 21.1512C14.0192 21.1512 13.4056 20.5381 13.4056 19.7784C13.4056 19.0187 14.0192 18.4057 14.7795 18.4057C15.5398 18.4057 16.1534 19.0187 16.1534 19.7784C16.1534 20.5381 15.5398 21.1512 14.7795 21.1512ZM20.2751 21.1512C19.5148 21.1512 18.9012 20.5381 18.9012 19.7784C18.9012 19.0187 19.5148 18.4057 20.2751 18.4057C21.0354 18.4057 21.649 19.0187 21.649 19.7784C21.649 20.5381 21.0354 21.1512 20.2751 21.1512ZM25.7574 21.1512C24.9971 21.1512 24.3835 20.5381 24.3835 19.7784C24.3835 19.0187 24.9971 18.4057 25.7574 18.4057C26.5177 18.4057 27.1313 19.0187 27.1313 19.7784C27.1313 20.5381 26.5177 21.1512 25.7574 21.1512Z" fill="url(#paint0_linear_139_465)"/>
<path d="M10.1509 8.47647C10.4977 8.40983 10.8579 8.36985 11.218 8.36985H20.5819V3.51853C20.5819 1.81258 19.3681 0.399833 17.7674 0.0666389C17.5406 0.0133278 17.3005 0 17.0604 0H5.62901C2.52105 0 0 2.51895 0 5.62432V12.2349C0 14.1808 1.57399 15.7534 3.52147 15.7534H3.48145L2.56107 18.499C2.56107 18.6056 2.58774 18.6989 2.61442 18.7922C2.61442 18.8188 2.6411 18.8455 2.65444 18.8588C2.68112 18.9254 2.72113 18.9788 2.77449 19.0187C2.78783 19.0321 2.80117 19.0587 2.82784 19.0721C2.89454 19.1254 2.97457 19.1787 3.05461 19.2187C3.05461 19.2187 3.06795 19.2187 3.08128 19.2187C3.16132 19.2453 3.22801 19.2586 3.30805 19.2586C3.33472 19.2586 3.3614 19.2586 3.38808 19.2586C3.45477 19.2586 3.50813 19.2453 3.57482 19.2187C3.6015 19.2187 3.62818 19.2053 3.65486 19.192C3.73489 19.152 3.81492 19.0987 3.89496 19.0321L5.93581 17.4327V13.6343C5.93581 11.142 7.70988 8.9696 10.1509 8.47647Z" fill="url(#paint1_linear_139_465)"/>
</g>
<defs>
<linearGradient id="paint0_linear_139_465" x1="0" y1="0" x2="32" y2="32" gradientUnits="userSpaceOnUse">
<stop offset="0.2" stop-color="#6694D1"/>
<stop offset="0.8" stop-color="#004DB3"/>
</linearGradient>
<linearGradient id="paint1_linear_139_465" x1="0" y1="0" x2="32" y2="32" gradientUnits="userSpaceOnUse">
<stop offset="0.2" stop-color="#6694D1"/>
<stop offset="0.8" stop-color="#004DB3"/>
</linearGradient>
<clipPath id="clip0_139_465">
<rect width="32" height="32" fill="white"/>
</clipPath>
</defs>
</svg>
