<svg width="32" height="32" viewBox="0 0 32 32" fill="none" xmlns="http://www.w3.org/2000/svg">
<path d="M2.44654 13.7201C2.02725 13.7201 1.68134 13.5786 1.40881 13.2956C1.13627 13.0126 1 12.6667 1 12.2579V3.53145C1 2.7348 1.22013 2.11635 1.66038 1.6761C2.11111 1.22537 2.7348 1 3.53145 1H12.2579C12.6876 1 13.0388 1.13627 13.3113 1.40881C13.5943 1.68134 13.7358 2.02725 13.7358 2.44654C13.7358 2.86583 13.5943 3.21174 13.3113 3.48428C13.0283 3.74633 12.6771 3.87736 12.2579 3.87736H10.9528L5.44969 3.56289L9.80503 7.69811L14.6635 12.5409C14.7998 12.6771 14.9046 12.8396 14.978 13.0283C15.0514 13.217 15.0881 13.4161 15.0881 13.6258C15.0881 14.066 14.9413 14.4224 14.6478 14.695C14.3543 14.957 13.9822 15.0881 13.5314 15.0881C13.1331 15.0881 12.8029 14.9518 12.5409 14.6792L7.69811 9.80503L3.56289 5.44969L3.87736 10.9371V12.2579C3.87736 12.6771 3.74109 13.0283 3.46855 13.3113C3.2065 13.5839 2.86583 13.7201 2.44654 13.7201ZM19.695 31C19.2757 31 18.9245 30.8637 18.6415 30.5912C18.3585 30.3187 18.217 29.9727 18.217 29.5535C18.217 29.1342 18.3585 28.7883 18.6415 28.5157C18.9245 28.2537 19.2757 28.1226 19.695 28.1226H21.0157L26.5189 28.4371L22.1478 24.3019L17.305 19.4591C17.1583 19.3229 17.0482 19.1604 16.9748 18.9717C16.9015 18.783 16.8648 18.5839 16.8648 18.3742C16.8648 17.934 17.0115 17.5828 17.305 17.3208C17.609 17.0482 17.9811 16.912 18.4214 16.912C18.8302 16.912 19.1656 17.0482 19.4277 17.3208L24.2547 22.195L28.4057 26.5503L28.0755 21.0629V19.7421C28.0755 19.3229 28.2117 18.9769 28.4843 18.7044C28.7568 18.4214 29.0975 18.2799 29.5063 18.2799C29.9256 18.2799 30.2715 18.4214 30.544 18.7044C30.827 18.9874 30.9686 19.3333 30.9686 19.7421V28.4686C30.9686 29.2652 30.7432 29.8836 30.2925 30.3239C29.8522 30.7746 29.2285 31 28.4214 31H19.695Z" fill="black"/>
</svg>
