<svg width="32" height="32" viewBox="0 0 32 32" fill="none" xmlns="http://www.w3.org/2000/svg">
<g clip-path="url(#clip0_1597_36)">
<path d="M16 0C7.16 0 0 7.16 0 16C0 24.84 7.16 32 16 32C24.84 32 32 24.84 32 16C32 7.16 24.84 0 16 0ZM25 17.26C25 17.45 24.85 17.6 24.66 17.6H17.6V24.66C17.6 24.85 17.45 25 17.26 25H14.73C14.54 25 14.39 24.85 14.39 24.66V17.6H7.33C7.14 17.6 6.99 17.45 6.99 17.26V14.73C6.99 14.54 7.14 14.39 7.33 14.39H14.39V7.33C14.39 7.14 14.54 6.99 14.73 6.99H17.26C17.45 6.99 17.6 7.14 17.6 7.33V14.39H24.66C24.85 14.39 25 14.54 25 14.73V17.26Z" fill="black"/>
</g>
<defs>
<clipPath id="clip0_1597_36">
<rect width="32" height="32" fill="white"/>
</clipPath>
</defs>
</svg>
