<svg width="32" height="32" viewBox="0 0 32 32" fill="none" xmlns="http://www.w3.org/2000/svg">
<g clip-path="url(#clip0_387_26)">
<path d="M31.1871 9.3655C30.3892 7.8585 29.0693 6.14466 27.4636 4.53917C25.0699 2.1457 20.4992 -1.39032 18.5389 0.569758C17.6327 1.47593 17.9183 2.96322 18.7162 4.51947L13.8894 9.3458C10.5008 8.66617 6.67875 9.267 5.17161 10.7838C4.00923 11.9461 3.87132 13.9062 4.78743 16.2898C5.50653 18.1711 6.83636 20.1903 8.55037 22.0617L0.28569 30.3256C-0.0984851 30.7097 -0.0984851 31.3302 0.28569 31.7144C0.482702 31.9114 0.728968 32 0.985085 32C1.2412 32 1.48747 31.9015 1.68448 31.7144L9.95901 23.4505C11.8208 25.1742 13.8402 26.494 15.7315 27.2131C16.7757 27.6169 17.7312 27.8139 18.5882 27.8139C19.6816 27.8139 20.5879 27.4889 21.238 26.8289C22.7451 25.3219 23.3559 21.5003 22.6762 18.112L27.503 13.2857C28.5472 13.8175 29.3648 14.0244 29.9755 14.0244C30.6848 14.0244 31.1477 13.7683 31.4433 13.4728C32.0146 12.9015 32.4283 11.7294 31.197 9.37535L31.1871 9.3655Z" fill="black"/>
</g>
<defs>
<clipPath id="clip0_387_26">
<rect width="32" height="32" fill="white"/>
</clipPath>
</defs>
</svg>
