<svg width="32" height="32" viewBox="0 0 32 32" fill="none" xmlns="http://www.w3.org/2000/svg">
<g clip-path="url(#clip0_396_51)">
<path d="M14.9819 12.5813L10.1984 17.756L14.6085 15.5866L17.0358 17.9339L21.9617 12.5813L17.436 14.9286L14.9819 12.5813Z" fill="black"/>
<path d="M27.9189 0H4.09002C1.83162 0 0 1.83162 0 4.09002V27.91C0 30.1684 1.83162 32 4.09002 32H27.91C30.1684 32 32 30.1684 32 27.91V4.09002C32 1.83162 30.1684 0 27.91 0H27.9189ZM16.0044 23.6332C15.1242 23.6332 14.244 23.5088 13.3904 23.2865L10.2073 25.7849V21.766C8.02001 20.1656 6.60628 17.7027 6.60628 14.9286C6.60628 10.1273 10.8119 6.22395 16.0133 6.22395C21.2148 6.22395 25.4115 10.1273 25.4115 14.9286C25.4115 19.7299 21.2059 23.6332 16.0133 23.6332H16.0044Z" fill="black"/>
</g>
<defs>
<clipPath id="clip0_396_51">
<rect width="32" height="32" fill="white"/>
</clipPath>
</defs>
</svg>
