<svg width="32" height="32" viewBox="0 0 32 32" fill="none" xmlns="http://www.w3.org/2000/svg">
<path d="M30.6667 2.13333V23.2C30.6667 24.3733 29.7067 25.3333 28.5334 25.3333H24V8.8C24 6.89333 22.44 5.33333 20.5334 5.33333H9.33337V2.13333C9.33337 0.96 10.2934 0 11.4667 0H28.5334C29.7067 0 30.6667 0.96 30.6667 2.13333ZM22.6667 8.8V29.8667C22.6667 31.04 21.7067 32 20.5334 32H3.46671C2.29337 32 1.33337 31.04 1.33337 29.8667V8.8C1.33337 7.62667 2.29337 6.66667 3.46671 6.66667H20.5334C21.7067 6.66667 22.6667 7.62667 22.6667 8.8ZM19.7334 23.28C19.3867 22.9333 18.8267 22.9333 18.48 23.28L14.4 27.36L12.48 25.44C12.1334 25.0933 11.5734 25.0933 11.2267 25.44C10.88 25.7867 10.88 26.3467 11.2267 26.6933L13.7734 29.24C13.9467 29.4133 14.1734 29.5067 14.4 29.5067C14.6267 29.5067 14.8534 29.4133 15.0267 29.24L19.7334 24.5333C20.08 24.1867 20.08 23.6267 19.7334 23.28ZM20 10.5333C20 9.86667 19.4667 9.33333 18.8 9.33333H5.20004C4.53337 9.33333 4.00004 9.86667 4.00004 10.5333V18.8C4.00004 19.4667 4.53337 20 5.20004 20H18.8C19.4667 20 20 19.4667 20 18.8V10.5333Z" fill="black"/>
</svg>
