<svg width="32" height="32" viewBox="0 0 32 32" fill="none" xmlns="http://www.w3.org/2000/svg">
<g clip-path="url(#clip0_139_473)">
<path d="M27.9556 2.09334C25.7244 2.09334 23.9111 3.90668 23.9111 6.13779C23.9111 6.68001 24.0178 7.18668 24.2133 7.65779L21.0311 10.3156C19.5644 8.99112 17.6178 8.17334 15.4844 8.17334C13.7333 8.17334 12.1156 8.71557 10.7822 9.64001L8.23111 6.86668C8.67556 6.17334 8.93333 5.35557 8.93333 4.47557C8.93333 2.00446 6.93333 0.00445557 4.47111 0.00445557C2.00889 0.00445557 0 2.00446 0 4.47557C0 6.94668 2 8.94668 4.47111 8.94668C5.21778 8.94668 5.91111 8.75112 6.52444 8.42223L9.07556 11.2045C7.89333 12.6356 7.19111 14.4667 7.19111 16.4667C7.19111 19.3289 8.64 21.8533 10.8444 23.3378L9.65333 25.7822C9.57333 25.7822 9.50222 25.7556 9.43111 25.7556C7.70667 25.7556 6.31111 27.1511 6.31111 28.8756C6.31111 30.6 7.70667 31.9956 9.43111 31.9956C11.1556 31.9956 12.5511 30.6 12.5511 28.8756C12.5511 28.0667 12.24 27.3378 11.7333 26.7867L12.9244 24.3422C13.7333 24.6 14.5956 24.7511 15.4844 24.7511C20.0622 24.7511 23.7778 21.0356 23.7778 16.4578C23.7778 14.8489 23.3156 13.3556 22.5156 12.0756L25.6622 9.44446C26.3111 9.89779 27.1022 10.1645 27.9556 10.1645C30.1867 10.1645 32 8.35112 32 6.12001C32 3.8889 30.1867 2.07557 27.9556 2.07557V2.09334Z" fill="url(#paint0_linear_139_473)"/>
</g>
<defs>
<linearGradient id="paint0_linear_139_473" x1="-1.45479e-06" y1="1.12324e-06" x2="32" y2="32" gradientUnits="userSpaceOnUse">
<stop offset="0.2" stop-color="#FFA366"/>
<stop offset="0.8" stop-color="#FF6600"/>
</linearGradient>
<clipPath id="clip0_139_473">
<rect width="32" height="32" fill="white"/>
</clipPath>
</defs>
</svg>
