<svg width="32" height="32" viewBox="0 0 32 32" fill="none" xmlns="http://www.w3.org/2000/svg">
<g clip-path="url(#clip0_190_119)">
<path d="M30.8401 0.390363C29.7007 -0.381522 28.3165 0.173859 27.4785 0.503322L2.00721 13.6536C0.877249 14.1054 0.114523 15.0938 0.0109434 16.2234C-0.0832202 17.3154 0.43468 18.3226 1.39515 18.9344L11.2635 22.2479L23.6648 30.0609C24.211 30.3997 24.8419 30.5786 25.4822 30.5786C25.9907 30.5786 26.5086 30.4656 26.9888 30.2491C27.9775 29.7879 28.6555 28.8936 28.7873 27.877L31.9983 3.60028V3.44025C32.0077 2.88487 32.0172 1.19049 30.8401 0.390363ZM26.3485 27.5475C26.3108 27.8111 26.0566 27.9617 25.9436 28.0088C25.6894 28.1312 25.3033 28.1782 24.9737 27.9711L13.74 20.8924L24.8325 9.54944C25.3127 9.05995 25.3033 8.28807 24.8136 7.80799C24.324 7.33733 23.5424 7.34674 23.0716 7.82682L11.4236 19.7346L2.60986 16.7788C2.49686 16.6847 2.44978 16.5717 2.4592 16.4399C2.47803 16.2328 2.64752 16.0446 3.02418 15.8845L28.4578 2.7625C29.0228 2.53658 29.3052 2.47069 29.4465 2.46127C29.4842 2.58365 29.5501 2.84722 29.5501 3.35553L26.3485 27.5475Z" fill="black"/>
<path d="M11.1505 31.0775C11.1505 31.7364 11.4424 32 11.7814 32C12.0074 32 12.2616 31.887 12.4594 31.6988L16.6591 27.7735L11.1411 24.4788V31.0775H11.1505Z" fill="black"/>
</g>
<defs>
<clipPath id="clip0_190_119">
<rect width="32" height="32" fill="white"/>
</clipPath>
</defs>
</svg>
