<svg width="32" height="32" viewBox="0 0 32 32" fill="none" xmlns="http://www.w3.org/2000/svg">
<path d="M19.5763 4.39C19.5763 4.94 19.1261 5.39 18.5759 5.39H13.4041C12.8539 5.39 12.4037 4.94 12.4037 4.39C12.4037 3.84 12.8539 3.39 13.4041 3.39H18.5759C19.1261 3.39 19.5763 3.84 19.5763 4.39ZM9.49268 25.5H22.4973C23.0475 25.5 23.4977 25.05 23.4977 24.5C23.4977 23.95 23.0475 23.5 22.4973 23.5H9.49268C8.94248 23.5 8.49232 23.95 8.49232 24.5C8.49232 25.05 8.94248 25.5 9.49268 25.5ZM9.49268 28.62H22.4973C23.0475 28.62 23.4977 28.17 23.4977 27.62C23.4977 27.07 23.0475 26.62 22.4973 26.62H9.49268C8.94248 26.62 8.49232 27.07 8.49232 27.62C8.49232 28.17 8.94248 28.62 9.49268 28.62ZM30 15.76V20.64C30 21.5 29.2998 22.2 28.4394 22.2H26.8489V27C26.8489 29.76 24.6081 32 21.8471 32H10.1529C7.39192 32 5.15113 29.76 5.15113 27V22.2H3.56056C2.70025 22.2 2 21.5 2 20.64V15.76C2 14.9 2.70025 14.2 3.56056 14.2H5.15113V5C5.15113 2.24 7.39192 0 10.1529 0H21.8471C24.1579 0 26.8489 1.71 26.8489 6.54V14.2H28.4394C29.2998 14.2 30 14.9 30 15.76ZM7.15184 14.2H24.8482V6.54C24.8482 3.7 23.7278 2 21.8471 2H10.1529C8.50232 2 7.15184 3.35 7.15184 5V14.2ZM24.8382 22.2H7.15184V27C7.15184 28.65 8.50232 30 10.1529 30H21.8471C23.4977 30 24.8482 28.65 24.8482 27V22.2H24.8382Z" fill="black"/>
</svg>
