<svg width="32" height="32" viewBox="0 0 32 32" fill="none" xmlns="http://www.w3.org/2000/svg">
<path d="M22.8398 1H22.9697C27.0396 1.06 30.61 4.19993 31.66 8.62988C32.28 11.2399 32.0098 13.72 31.1698 16C28.6998 22.75 21.32 27.8501 17.58 30.0801C17.2102 30.31 16.8602 30.5 16.5703 30.6699L15.9902 31L15.4004 30.6699C11.2004 28.3199 -2.29005 19.7599 0.339936 8.66992C1.39993 4.20993 5.01018 1.06 9.12015 1C11.7701 1.00001 14.1605 2.27037 15.9804 4.61035C17.8204 2.27042 20.1999 1.00007 22.8398 1ZM22.8398 4C21.2646 4.00007 19.7047 4.72557 18.3379 6.46387L15.9668 9.47949L13.6123 6.45215C12.2813 4.74089 10.7284 4.00746 9.14456 4C6.62028 4.04677 4.04973 6.03631 3.25886 9.36328C2.28885 13.4556 4.20001 17.366 7.50102 20.8994C10.3337 23.9315 13.8109 26.2533 15.9804 27.541C15.9855 27.5379 15.991 27.5354 15.9961 27.5322L16.0195 27.5176L16.0439 27.5029C17.8114 26.449 20.4066 24.7344 22.8261 22.5215C25.2726 20.2838 27.3503 17.7073 28.3524 14.9688L28.3554 14.9629C29.0166 13.1679 29.2086 11.2911 28.7411 9.32324V9.32227C27.9792 6.10758 25.5612 4.16049 23.1581 4.00879L22.9257 4H22.8398Z" fill="black"/>
</svg>
