<svg width="32" height="32" viewBox="0 0 32 32" fill="none" xmlns="http://www.w3.org/2000/svg">
<g clip-path="url(#clip0_122_191)">
<path d="M31.9131 16.4299C32.029 16.1454 32.029 15.8341 31.9131 15.5496C31.8596 15.4162 31.7794 15.3006 31.6814 15.2028C31.6814 15.2028 31.6814 15.185 31.6636 15.1761L26.8512 10.3744C26.4056 9.92977 25.6749 9.92977 25.2293 10.3744C24.7837 10.819 24.7837 11.5481 25.2293 11.9927L28.081 14.8382H15.9788C15.3461 14.8382 14.8292 15.354 14.8292 15.9853C14.8292 16.6166 15.3461 17.1324 15.9788 17.1324H28.081L25.2293 19.9779C24.7837 20.4225 24.7837 21.1516 25.2293 21.5962C25.4521 21.8185 25.7462 21.9341 26.0402 21.9341C26.3343 21.9341 26.6284 21.8185 26.8512 21.5962L31.6636 16.7945C31.6636 16.7945 31.6725 16.7767 31.6814 16.7678C31.7794 16.67 31.8596 16.5544 31.9131 16.421V16.4299Z" fill="black"/>
<path d="M22.7429 23.5169C22.1101 23.5169 21.5933 24.0327 21.5933 24.664V27.2605C21.5933 27.634 21.2903 27.9452 20.9071 27.9452H12.6547V4.04319H20.9071C21.2813 4.04319 21.5933 4.34552 21.5933 4.72789V7.33327C21.5933 7.96461 22.1101 8.48036 22.7429 8.48036C23.3756 8.48036 23.8925 7.96461 23.8925 7.33327V4.72789C23.8925 3.09174 22.5557 1.75792 20.916 1.75792H12.6637V1.14436C12.6637 0.806463 12.5121 0.486347 12.2537 0.272936C11.9953 0.050633 11.6566 -0.0382881 11.318 0.0150646L2.5666 1.49116C1.07833 1.74903 0 3.0206 0 4.53226V27.4561C0 28.9589 1.07833 30.2394 2.5666 30.4972L11.3091 31.9822C11.3714 31.9911 11.4338 32 11.5051 32C11.7725 32 12.0398 31.9022 12.2448 31.7332C12.5032 31.5198 12.6547 31.1997 12.6547 30.8618V30.2483H20.9071C22.5468 30.2483 23.8836 28.9144 23.8836 27.2783V24.6818C23.8836 24.0505 23.3667 23.5347 22.734 23.5347L22.7429 23.5169ZM10.3555 29.5013L2.9498 28.2386C2.56659 28.1764 2.29033 27.8474 2.29033 27.4561V4.53226C2.29033 4.14101 2.56659 3.82089 2.9498 3.74975L10.3555 2.48707V29.5013Z" fill="black"/>
</g>
<defs>
<clipPath id="clip0_122_191">
<rect width="32" height="32" fill="white"/>
</clipPath>
</defs>
</svg>
