<svg width="32" height="32" viewBox="0 0 32 32" fill="none" xmlns="http://www.w3.org/2000/svg">
<path d="M28.9566 9.57763H24.1765L25.3447 4.91672C25.5593 4.1538 25.1063 3.36705 24.3434 3.1644C23.5804 2.94983 22.7937 3.40281 22.591 4.16572C22.591 4.18956 22.591 4.21341 22.5791 4.22533L21.244 9.57763H14.1752L15.3434 4.91672C15.5579 4.1538 15.105 3.36705 14.3421 3.1644C13.5791 2.94983 12.7924 3.40281 12.5897 4.16572C12.5897 4.18956 12.5897 4.21341 12.5778 4.22533L11.2427 9.57763H6.06922C5.28246 9.57763 4.63875 10.2213 4.63875 11.0081C4.63875 11.7949 5.28246 12.4386 6.06922 12.4386H10.4917L8.70365 19.5909H3.20829C2.42154 19.5909 1.77783 20.2346 1.77783 21.0213C1.77783 21.8081 2.42154 22.4518 3.20829 22.4518H7.98842L6.82021 27.1127C6.62948 27.8756 7.09438 28.6505 7.85729 28.8412C7.9765 28.865 8.08378 28.8889 8.20299 28.8889C8.85862 28.8889 9.4308 28.4359 9.58577 27.8041L10.9209 22.4518H17.9897L16.8215 27.1127C16.6308 27.8756 17.0957 28.6505 17.8586 28.8412C17.9778 28.865 18.0851 28.8889 18.2043 28.8889C18.8599 28.8889 19.4321 28.4359 19.5871 27.8041L20.9222 22.4518H26.0599C26.8467 22.4518 27.4904 21.8081 27.4904 21.0213C27.4904 20.2346 26.8467 19.5909 26.0599 19.5909H21.6374L23.4255 12.4386H28.9208C29.7076 12.4386 30.3513 11.7949 30.3513 11.0081C30.3513 10.2213 29.7076 9.57763 28.9208 9.57763H28.9566ZM18.7169 19.5909H11.648L13.4361 12.4386H20.505L18.7169 19.5909Z" fill="black"/>
</svg>
