<svg width="32" height="32" viewBox="0 0 32 32" fill="none" xmlns="http://www.w3.org/2000/svg">
<path fill-rule="evenodd" clip-rule="evenodd" d="M15.3517 12.8053L1.26463 26.6874C0.911791 27.0354 0.911791 27.6064 1.26463 27.9632L2.56131 29.239C2.91414 29.587 3.49632 29.587 3.84916 29.239L15.9956 17.2661L28.142 29.239C28.4949 29.587 29.077 29.587 29.4387 29.239L30.7354 27.9632C31.0882 27.6153 31.0882 27.0443 30.7354 26.6874L16.6395 12.8053C16.2867 12.4573 15.7045 12.4573 15.3517 12.8053Z" fill="black"/>
<path fill-rule="evenodd" clip-rule="evenodd" d="M15.3517 0.76096L1.26463 14.6431C0.911791 14.9911 0.911791 15.5621 1.26463 15.9189L2.56131 17.1947C2.91414 17.5427 3.49632 17.5427 3.84916 17.1947L15.9956 5.22181L28.142 17.1947C28.4949 17.5427 29.077 17.5427 29.4387 17.1947L30.7354 15.9189C31.0882 15.571 31.0882 15 30.7354 14.6431L16.6395 0.76096C16.2867 0.413013 15.7045 0.413013 15.3517 0.76096Z" fill="black"/>
</svg>
