<svg width="32" height="32" viewBox="0 0 32 32" fill="none" xmlns="http://www.w3.org/2000/svg">
<g clip-path="url(#clip0_24_2114)">
<path d="M32.3164 5.52332C32.0621 5.17983 31.6281 5.02213 31.2101 5.12595L20.3501 7.81335L13.167 -0.628675C12.8884 -0.954528 12.445 -1.07962 12.036 -0.949006C11.6269 -0.818389 11.343 -0.461087 11.3125 -0.0365453L10.5506 10.9424L0.157293 15.0412C-0.242915 15.1986 -0.499741 15.5769 -0.5 16.0017C-0.500258 16.4265 -0.234171 16.8057 0.157605 16.9571L10.5481 21.0566L11.3036 32.0349C11.3335 32.4599 11.621 32.8126 12.028 32.9493C12.2421 33.0192 12.4718 33.0149 12.6809 32.9482C12.8627 32.8901 13.0359 32.7756 13.1579 32.628L20.3355 24.1832L31.1933 26.8692C31.6096 26.9733 32.0491 26.8132 32.2996 26.4765C32.5501 26.1397 32.5687 25.6794 32.3388 25.3183L26.3836 16.0003L32.3377 6.68194C32.5611 6.32419 32.5495 5.86369 32.2982 5.52913L32.3164 5.52332Z" fill="black"/>
</g>
<defs>
<clipPath id="clip0_24_2114">
<rect width="32" height="32" fill="white"/>
</clipPath>
</defs>
</svg>
