<svg width="32" height="32" viewBox="0 0 32 32" fill="none" xmlns="http://www.w3.org/2000/svg">
<path d="M11.2355 20.2794C12.4285 20.2794 13.3955 19.3064 13.3955 18.1062C13.3955 16.9059 12.4285 15.9329 11.2355 15.9329C10.0426 15.9329 9.07554 16.9059 9.07554 18.1062C9.07554 19.3064 10.0426 20.2794 11.2355 20.2794Z" fill="black"/>
<path d="M31.9999 16.3533C31.9999 13.6703 29.9022 11.4881 27.3244 11.4881C26.4177 11.4881 25.5822 11.7653 24.8622 12.2214C22.6399 10.9246 19.8488 10.1197 16.7911 10.0124L18.5511 4.92365L22.1955 5.8001C22.1866 5.92531 22.16 6.04157 22.16 6.16678C22.16 8.18798 23.7955 9.83355 25.8044 9.83355C27.8133 9.83355 29.4488 8.18798 29.4488 6.16678C29.4488 4.14558 27.8133 2.5 25.8044 2.5C24.4888 2.5 23.3511 3.20653 22.7111 4.2529L17.4933 3.00083L15.0577 10.0303C12.0178 10.1913 9.25331 11.0409 7.07554 12.3735C7.11998 12.3466 7.15554 12.3109 7.19998 12.2751C6.45332 11.7653 5.56443 11.497 4.66666 11.497C2.09777 11.4881 0 13.6703 0 16.3443C0 18.0614 0.888887 19.6534 2.34666 20.5298C2.91555 25.5381 8.85331 29.5 16.0889 29.5C23.3244 29.5 29.3333 25.4934 29.8399 20.4314C31.1999 19.5192 32.0088 17.981 31.9999 16.3443V16.3533ZM25.8133 4.13663C26.9244 4.13663 27.8399 5.04886 27.8399 6.17572C27.8044 7.30258 26.8711 8.17903 25.7511 8.14326C24.6844 8.10749 23.8222 7.24892 23.7955 6.17572C23.7955 5.04886 24.7022 4.13663 25.8222 4.13663H25.8133ZM4.67555 13.1247C5.03999 13.1247 5.38665 13.2052 5.71554 13.3304C3.94666 14.7524 2.76444 16.5411 2.40888 18.5086C1.90222 17.9094 1.61777 17.1403 1.61777 16.3533C1.61777 14.5735 2.98666 13.1247 4.67555 13.1247ZM16.08 27.8723C9.36887 27.8723 3.90221 24.2234 3.90221 19.7428C3.90221 15.2622 9.35998 11.6133 16.08 11.6133C22.7999 11.6133 28.2577 15.2622 28.2577 19.7428C28.2577 24.2234 22.7999 27.8723 16.08 27.8723ZM29.7244 18.3297C29.3244 16.4069 28.1422 14.6719 26.4088 13.2857C26.7022 13.1784 27.0133 13.1247 27.3333 13.1158C29.0133 13.1158 30.3822 14.5646 30.3822 16.3443C30.3822 17.0598 30.151 17.7574 29.7244 18.3297Z" fill="black"/>
<path d="M20.5066 20.2794C21.6996 20.2794 22.6666 19.3064 22.6666 18.1062C22.6666 16.9059 21.6996 15.9329 20.5066 15.9329C19.3137 15.9329 18.3466 16.9059 18.3466 18.1062C18.3466 19.3064 19.3137 20.2794 20.5066 20.2794Z" fill="black"/>
<path d="M20.16 22.9266C15.5911 25.9584 11.9022 23.1055 11.7422 22.9713C11.3955 22.6852 10.88 22.7478 10.6044 23.0966C10.3289 23.4453 10.3822 23.9641 10.7289 24.2413C10.7555 24.2681 12.8622 25.9316 15.92 25.9316C17.44 25.9316 19.2 25.5202 21.0577 24.286C21.4311 24.0356 21.52 23.5258 21.2711 23.1502C21.0222 22.7835 20.5333 22.6852 20.1688 22.9177L20.16 22.9266Z" fill="black"/>
</svg>
