<svg width="32" height="32" viewBox="0 0 32 32" fill="none" xmlns="http://www.w3.org/2000/svg">
<path d="M16.4876 22.4951C17.5207 22.4951 18.3587 23.1287 18.3587 23.9102C18.3586 24.6915 17.5206 25.3252 16.4876 25.3252C15.4548 25.325 14.6176 24.6914 14.6175 23.9102C14.6175 23.1288 15.4547 22.4953 16.4876 22.4951Z" fill="url(#paint0_linear_1544_386)"/>
<path fill-rule="evenodd" clip-rule="evenodd" d="M16.4886 0C18.5016 0.000207434 20.1331 1.63242 20.1331 3.64551C20.133 5.07148 19.3136 6.30441 18.1204 6.90332C18.1498 7.02757 18.1663 7.15682 18.1663 7.29004V9.42871L29.2122 16.667C29.9107 17.1247 30.2576 17.8706 30.2523 18.6094V22.707C30.2523 23.3016 29.9629 23.8591 29.4759 24.2002L19.3987 31.2578L19.3782 31.2715L19.3558 31.2842C17.626 32.2408 15.4657 32.233 13.6253 31.292L13.597 31.2764L13.5696 31.2578L3.45441 24.2002C2.9663 23.8594 2.67526 23.3014 2.67511 22.7061V18.6094C2.66977 17.8695 3.01758 17.1215 3.71808 16.6641L14.8089 9.42285V7.29004C14.8089 7.1569 14.8255 7.02751 14.8548 6.90332C13.6622 6.30423 12.8432 5.0711 12.8431 3.64551C12.8431 1.6323 14.4754 0 16.4886 0ZM4.24347 17.4678C3.8335 17.7355 3.63005 18.1688 3.63409 18.6055C3.63818 19.0314 3.83944 19.4509 4.23859 19.7139L14.1077 26.209C15.5498 27.1579 17.4191 27.1564 18.8597 26.2051L28.6907 19.7129C29.089 19.4498 29.2892 19.0308 29.2933 18.6055C29.2973 18.1695 29.0955 17.7366 28.6868 17.4688L18.1663 10.5752V15.2334C19.9614 15.7157 21.2366 16.9378 21.2366 18.3701C21.2366 20.2244 19.0999 21.7275 16.4642 21.7275C13.8285 21.7275 11.6917 20.2244 11.6917 18.3701C11.6917 16.9253 12.9892 15.6942 14.8089 15.2207V10.5684L4.24347 17.4678Z" fill="url(#paint1_linear_1544_386)"/>
<defs>
<linearGradient id="paint0_linear_1544_386" x1="2.67505" y1="0" x2="34.3241" y2="27.275" gradientUnits="userSpaceOnUse">
<stop offset="0.2" stop-color="#66E0C2"/>
<stop offset="0.8" stop-color="#00CC9A"/>
</linearGradient>
<linearGradient id="paint1_linear_1544_386" x1="2.67505" y1="0" x2="34.3241" y2="27.275" gradientUnits="userSpaceOnUse">
<stop offset="0.2" stop-color="#66E0C2"/>
<stop offset="0.8" stop-color="#00CC9A"/>
</linearGradient>
</defs>
</svg>
