<svg width="32" height="32" viewBox="0 0 32 32" fill="none" xmlns="http://www.w3.org/2000/svg">
<g clip-path="url(#clip0_24_2147)">
<path d="M31.3605 10.9709L17.3689 0.506643C16.5874 -0.164679 15.4109 -0.17307 14.6294 0.506643L0.730255 10.8953L0.637818 10.9793C0.0411787 11.5331 -0.160502 12.3806 0.133616 13.1275C0.44454 13.9079 1.19244 14.4114 2.05799 14.4114H3.66303V21.2337C3.66303 21.8798 4.19244 22.4085 4.8395 22.4085C5.48656 22.4085 6.01597 21.8798 6.01597 21.2337V12.0618H3.1L15.9992 2.41991L28.8983 12.0618H25.9824L26.0412 29.6504H5.95715C5.31009 29.6504 4.78068 30.179 4.78068 30.8252C4.78068 31.4713 5.31009 32 5.95715 32H26.0412C27.3101 32 28.3353 30.9678 28.3353 29.7091V14.4198H29.9404C30.8059 14.4198 31.5622 13.9163 31.8647 13.1359C32.1588 12.389 31.9656 11.5415 31.3605 10.9876V10.9709Z" fill="black"/>
<path d="M13.2429 25.8658C13.4614 26.0588 13.7471 26.1511 14.0328 26.1259C14.3185 26.1092 14.5874 25.9665 14.7807 25.7483L21.8311 17.6002V19.7148C21.8311 20.319 22.3185 20.8057 22.9235 20.8057C23.5286 20.8057 24.016 20.319 24.016 19.7148V15.0156C24.016 14.4114 23.5286 13.9247 22.9235 13.9247H18.2177C17.6126 13.9247 17.1252 14.4114 17.1252 15.0156C17.1252 15.6198 17.6126 16.1065 18.2177 16.1065H20.2261L13.8311 23.4994L10.1924 20.361C9.97396 20.168 9.68824 20.0757 9.40253 20.1008C9.11681 20.1176 8.84791 20.2603 8.65463 20.4784L1.82269 28.3749C1.42773 28.828 1.47815 29.5161 1.93194 29.9105C2.14202 30.0867 2.39412 30.179 2.64622 30.179C2.94874 30.179 3.25967 30.0532 3.46975 29.8014L9.5874 22.7274L13.2261 25.8658H13.2429Z" fill="black"/>
</g>
<defs>
<clipPath id="clip0_24_2147">
<rect width="32" height="32" fill="white"/>
</clipPath>
</defs>
</svg>
