<svg width="32" height="32" viewBox="0 0 32 32" fill="none" xmlns="http://www.w3.org/2000/svg">
<g clip-path="url(#clip0_24_1942)">
<path d="M0.5 21.9277C0.5 20.3034 0.775634 18.8366 1.3269 17.5274C1.87817 16.2181 2.62632 15.1845 3.57135 14.4265C4.52623 13.6586 5.59431 13.2747 6.7756 13.2747H8.75425C8.26205 13.954 7.8043 14.712 7.38101 15.5487C6.96755 16.3855 6.63286 17.3206 6.37691 18.3543C6.12096 19.3879 5.98807 20.5249 5.97823 21.7652C5.96838 23.547 6.28339 25.191 6.92326 26.6971C7.56312 28.1934 8.55245 29.4731 9.89124 30.5363H7.35147C6.04221 30.5363 4.87077 30.1475 3.83714 29.3698C2.80351 28.5921 1.98645 27.5536 1.38597 26.2541C0.795322 24.9547 0.5 23.5126 0.5 21.9277ZM8.22267 21.7948C8.23252 20.6036 8.3408 19.5306 8.54753 18.5758C8.7641 17.611 9.09387 16.6955 9.53686 15.8293C9.97984 14.963 10.541 14.0721 11.2202 13.1566C12.3916 11.6111 13.6763 9.92282 15.0741 8.09183C16.472 6.26083 17.7419 4.23787 18.8838 2.02296C19.2283 1.37325 19.5778 0.876122 19.9322 0.53158C20.2866 0.177193 20.7493 0 21.3202 0C21.9995 0 22.5606 0.221492 23.0035 0.664475C23.4465 1.10746 23.668 1.71287 23.668 2.48071C23.668 3.16979 23.5351 3.91302 23.2693 4.71039C23.0134 5.49791 22.7131 6.28544 22.3686 7.07297C22.0241 7.85065 21.7238 8.58403 21.4679 9.27312C21.2119 9.9622 21.084 10.5528 21.084 11.045C21.084 11.5569 21.271 11.9605 21.6451 12.2559C22.0191 12.5512 22.5261 12.6989 23.166 12.6989H28.5851C29.1364 12.6989 29.6286 12.8268 30.0617 13.0828C30.4949 13.3387 30.8394 13.6882 31.0954 14.1312C31.3513 14.5741 31.4793 15.0664 31.4793 15.6078C31.4793 16.0311 31.4104 16.4248 31.2726 16.7891C31.1446 17.1434 30.9576 17.4338 30.7115 17.6603C30.5343 17.8178 30.5195 17.9704 30.6672 18.118C30.864 18.3247 31.0166 18.6053 31.1249 18.9597C31.2332 19.3042 31.2873 19.6635 31.2873 20.0376C31.2873 20.5495 31.179 21.0171 30.9625 21.4404C30.7459 21.8637 30.4604 22.1885 30.106 22.4149C29.8993 22.5429 29.8649 22.7004 30.0027 22.8875C30.3374 23.3698 30.5047 23.9555 30.5047 24.6446C30.5047 25.2353 30.3423 25.757 30.0174 26.2098C29.6926 26.6627 29.2791 27.0121 28.7771 27.2582C28.6294 27.3173 28.6097 27.4354 28.718 27.6126C28.7968 27.78 28.8657 27.9719 28.9248 28.1885C28.9838 28.4051 29.0134 28.6561 29.0134 28.9416C29.0134 29.6897 28.7623 30.2804 28.2603 30.7135C27.7681 31.1565 27.1774 31.4666 26.4883 31.6438C26.0454 31.7521 25.4498 31.8406 24.7016 31.9096C23.9633 31.9785 23.1069 32.008 22.1323 31.9982H20.0356C18.2341 31.9982 16.6049 31.7422 15.148 31.2303C13.6911 30.7184 12.4458 29.9998 11.4122 29.0745C10.3785 28.159 9.58608 27.081 9.03481 25.8407C8.49339 24.6003 8.22267 23.2517 8.22267 21.7948Z" fill="black"/>
</g>
<defs>
<clipPath id="clip0_24_1942">
<rect width="32" height="32" fill="white"/>
</clipPath>
</defs>
</svg>
