<svg width="32" height="32" viewBox="0 0 32 32" fill="none" xmlns="http://www.w3.org/2000/svg">
<path d="M30 18.2499H2C0.897778 18.2499 0 17.3521 0 16.2499C0 15.1477 0.897778 14.2499 2 14.2499H30C31.1022 14.2499 32 15.1477 32 16.2499C32 17.3521 31.1022 18.2499 30 18.2499ZM32 26.9166C32 25.8144 31.1022 24.9166 30 24.9166H2C0.897778 24.9166 0 25.8144 0 26.9166C0 28.0188 0.897778 28.9166 2 28.9166H30C31.1022 28.9166 32 28.0188 32 26.9166ZM32 5.58325C32 4.48103 31.1022 3.58325 30 3.58325H2C0.897778 3.58325 0 4.48103 0 5.58325C0 6.68547 0.897778 7.58325 2 7.58325H30C31.1022 7.58325 32 6.68547 32 5.58325Z" fill="black"/>
</svg>
