<svg width="32" height="32" viewBox="0 0 32 32" fill="none" xmlns="http://www.w3.org/2000/svg">
<g clip-path="url(#clip0_24_1984)">
<path d="M24.1845 24.3556C23.4732 24.3556 22.8952 24.9333 22.8952 25.6444V27.6267C22.8952 28.6222 22.0861 29.4311 21.0903 29.4311H4.37455C3.37872 29.4311 2.5696 28.6222 2.5696 27.6267V4.37333C2.5696 3.37778 3.37872 2.56889 4.37455 2.56889H21.0903C22.0861 2.56889 22.8952 3.37778 22.8952 4.37333V6.35556C22.8952 7.06667 23.4732 7.64444 24.1845 7.64444C24.8958 7.64444 25.4737 7.06667 25.4737 6.35556V4.37333C25.4737 1.96444 23.5088 0 21.0992 0H4.37455C1.96499 0 0 1.96444 0 4.37333V27.6267C0 30.0356 1.96499 32 4.37455 32H21.0903C23.4999 32 25.4648 30.0356 25.4648 27.6267V25.6444C25.4648 24.9333 24.8869 24.3556 24.1756 24.3556H24.1845Z" fill="black"/>
<path d="M31.9822 15.84C31.9555 15.6533 31.8933 15.4667 31.7599 15.2622C31.7333 15.2178 31.6977 15.1556 31.6355 15.0933L27.4743 10.9333C26.9764 10.4356 26.1584 10.4356 25.6516 10.9333C25.1537 11.4311 25.1537 12.2489 25.6516 12.7556L27.6166 14.72H13.7283C13.0081 14.72 12.4301 15.2978 12.4301 16.0089C12.4301 16.72 13.0169 17.2978 13.7283 17.2978H27.6166L25.6516 19.2622C25.1537 19.76 25.1537 20.5778 25.6516 21.0844C25.9005 21.3333 26.2295 21.4578 26.5585 21.4578C26.8875 21.4578 27.2164 21.3333 27.4654 21.0844L31.6266 16.9244C31.6888 16.8622 31.7244 16.8 31.7688 16.7111C31.8844 16.5422 31.9466 16.3556 31.9733 16.16L32 16.0533L31.9733 15.8489L31.9822 15.84Z" fill="black"/>
</g>
<defs>
<clipPath id="clip0_24_1984">
<rect width="32" height="32" fill="white"/>
</clipPath>
</defs>
</svg>
