<svg width="32" height="32" viewBox="0 0 32 32" fill="none" xmlns="http://www.w3.org/2000/svg">
<g clip-path="url(#clip0_396_52)">
<path d="M14.9778 12.5778L10.1956 17.7511L14.6044 15.5822L17.0311 17.9289L21.9556 12.5778L17.4311 14.9244L14.9778 12.5778Z" fill="black"/>
<path d="M16 0C7.16444 0 0 7.16444 0 16C0 24.8356 7.16444 32 16 32C24.8356 32 32 24.8356 32 16C32 7.16444 24.8356 0 16 0ZM16 23.6267C15.12 23.6267 14.24 23.5022 13.3867 23.28L10.2044 25.7778V21.76C8.01778 20.16 6.60444 17.6978 6.60444 14.9244C6.60444 10.1244 10.8089 6.22222 16.0089 6.22222C21.2089 6.22222 25.4044 10.1244 25.4044 14.9244C25.4044 19.7244 21.2 23.6267 16.0089 23.6267H16Z" fill="black"/>
</g>
<defs>
<clipPath id="clip0_396_52">
<rect width="32" height="32" fill="white"/>
</clipPath>
</defs>
</svg>
