<svg width="32" height="32" viewBox="0 0 32 32" fill="none" xmlns="http://www.w3.org/2000/svg">
<path d="M1 21.6817C1 20.0626 1.28473 18.5857 1.8542 17.2512C2.42366 15.9166 3.18459 14.8519 4.13697 14.057C5.09917 13.2622 6.16446 12.8648 7.33284 12.8648H10.028C10.8724 11.8344 11.6382 10.8727 12.3255 9.97976C13.0128 9.07697 13.6411 8.21343 14.2106 7.38914C14.7899 6.55504 15.3201 5.73566 15.8012 4.931C16.2823 4.12634 16.7388 3.31187 17.1708 2.48758C17.6323 1.60442 18.1183 0.971481 18.6289 0.588776C19.1394 0.196259 19.7432 0 20.4404 0C21.0785 0 21.6431 0.147194 22.134 0.441582C22.6249 0.726158 23.0128 1.12358 23.2975 1.63385C23.5822 2.14413 23.7246 2.7329 23.7246 3.40018C23.7246 4.11653 23.6019 4.86231 23.3564 5.63753C23.1109 6.41276 22.8262 7.16835 22.5022 7.90432C22.188 8.64029 21.9082 9.31248 21.6627 9.92088C21.4271 10.5293 21.3093 11.0248 21.3093 11.4075C21.3093 11.5449 21.3584 11.6529 21.4566 11.7314C21.5547 11.8001 21.6824 11.8344 21.8395 11.8344H27.215C27.9219 11.8344 28.5601 12.0061 29.1296 12.3496C29.6991 12.6832 30.1507 13.1395 30.4845 13.7185C30.8282 14.2876 31 14.9255 31 15.632C31 16.5054 30.7889 17.2512 30.3667 17.8694C30.5042 18.1245 30.6122 18.4189 30.6907 18.7525C30.7693 19.0862 30.8085 19.4198 30.8085 19.7534C30.8085 20.2735 30.7202 20.7691 30.5434 21.2401C30.3667 21.7013 30.1114 22.1036 29.7776 22.4471C29.9936 22.9181 30.1016 23.4529 30.1016 24.0515C30.1016 25.2781 29.596 26.2741 28.5847 27.0396C28.6338 27.2064 28.6681 27.3732 28.6878 27.54C28.7172 27.7068 28.732 27.8786 28.732 28.0552C28.732 28.9187 28.4423 29.6743 27.863 30.322C27.2936 30.9696 26.513 31.4112 25.5214 31.6467C25.0108 31.7743 24.3824 31.8626 23.6362 31.9117C22.8999 31.9706 22.0898 32 21.2062 32H19.2327C17.9661 32 16.7683 31.8626 15.6392 31.5879C14.5199 31.3131 13.4939 30.9304 12.5611 30.4397H7.86303C6.92047 30.4397 6.03682 30.2091 5.21208 29.7479C4.38733 29.2867 3.65587 28.6489 3.01767 27.8344C2.3893 27.0297 1.89347 26.1024 1.53019 25.0524C1.17673 23.9926 1 22.8691 1 21.6817ZM9.2916 21.6081C9.2916 23.1978 9.70889 24.6158 10.5434 25.862C11.3878 27.0984 12.566 28.0699 14.0781 28.7764C15.5999 29.483 17.3721 29.8362 19.3947 29.8362H21.2209C22.026 29.8362 22.7526 29.8117 23.4006 29.7626C24.0584 29.7234 24.5935 29.6498 25.0059 29.5419C25.5263 29.4045 25.9092 29.2082 26.1546 28.9531C26.4099 28.6979 26.5376 28.3986 26.5376 28.0552C26.5376 27.8688 26.513 27.7019 26.4639 27.5547C26.4246 27.4075 26.3166 27.1132 26.1399 26.6716C26.0712 26.5146 26.0565 26.3723 26.0957 26.2447C26.1448 26.1171 26.2479 26.0043 26.405 25.9062C27.4163 25.3861 27.9219 24.7679 27.9219 24.0515C27.9219 23.7964 27.8778 23.5707 27.7894 23.3744C27.701 23.1684 27.5636 22.8985 27.377 22.5649C27.2788 22.3392 27.2592 22.138 27.3181 21.9614C27.377 21.7749 27.4948 21.613 27.6716 21.4756C27.9956 21.2303 28.2361 20.9653 28.3932 20.6808C28.5503 20.3962 28.6289 20.0871 28.6289 19.7534C28.6289 19.4689 28.5749 19.2088 28.4669 18.9733C28.3687 18.728 28.2067 18.4385 27.9809 18.1049C27.8729 17.9675 27.8238 17.8301 27.8336 17.6927C27.8434 17.5455 27.917 17.4131 28.0545 17.2953C28.3294 17.0205 28.5258 16.7605 28.6436 16.5152C28.7614 16.2699 28.8203 15.9755 28.8203 15.632C28.8203 15.1708 28.6632 14.7881 28.349 14.4839C28.0447 14.1699 27.6667 14.0129 27.215 14.0129H22.1487C21.3044 14.0129 20.5876 13.7823 19.9985 13.3211C19.4192 12.85 19.1296 12.2122 19.1296 11.4075C19.1296 10.8482 19.2474 10.23 19.4831 9.5529C19.7285 8.86599 20.0083 8.15946 20.3225 7.4333C20.6465 6.70714 20.9313 5.99571 21.1767 5.29899C21.4222 4.60227 21.5449 3.96933 21.5449 3.40018C21.5449 3.00767 21.4467 2.70837 21.2504 2.5023C21.0638 2.28642 20.8233 2.17847 20.5287 2.17847C20.2636 2.17847 20.028 2.26188 19.8218 2.4287C19.6254 2.59552 19.3947 2.94879 19.1296 3.4885C18.4227 4.90156 17.6421 6.22631 16.7879 7.46274C15.9435 8.69917 15.0943 9.86201 14.2401 10.9512C13.3957 12.0307 12.6151 13.0463 11.8984 13.9982C11.2602 14.8617 10.7496 15.6762 10.3667 16.4416C9.9838 17.207 9.70889 18.0018 9.54197 18.8261C9.37506 19.6504 9.2916 20.5777 9.2916 21.6081ZM3.17968 21.6817C3.17968 22.8691 3.39568 23.9632 3.82769 24.9641C4.26951 25.9552 4.84389 26.7501 5.55081 27.3487C6.25773 27.9473 7.02847 28.2465 7.86303 28.2465C8.17722 28.2465 8.49141 28.2465 8.8056 28.2465C9.11978 28.2465 9.43397 28.2465 9.74816 28.2465C8.90378 27.3634 8.25086 26.3576 7.7894 25.2291C7.33775 24.1006 7.11193 22.8789 7.11193 21.5639C7.11193 20.3177 7.22975 19.1696 7.46539 18.1196C7.71085 17.0598 8.09377 16.0343 8.61414 15.0432C8.39813 15.0432 8.18213 15.0432 7.96613 15.0432C7.75012 15.0432 7.53903 15.0432 7.33284 15.0432C6.60628 15.0432 5.92391 15.3425 5.28571 15.9411C4.65734 16.5397 4.14678 17.3395 3.75405 18.3404C3.37113 19.3413 3.17968 20.4551 3.17968 21.6817Z" fill="black"/>
</svg>
