<svg width="32" height="32" viewBox="0 0 32 32" fill="none" xmlns="http://www.w3.org/2000/svg">
<g clip-path="url(#clip0_24_2013)">
<path d="M16.95 0H5.06C2.26 0 0 2.32 0 5.19V27.92C0 28.68 0.21 29.43 0.6 30.08C1.76 31.99 4.21 32.57 6.07 31.37L10.23 27.42C10.7 27.12 11.29 27.12 11.76 27.42L15.92 31.37C16.55 31.78 17.28 31.99 18.02 32C18.7 32 19.36 31.82 19.95 31.48C21.22 30.77 22.01 29.4 22 27.92V5.19C22 2.33 19.74 0.01 16.94 0H16.95Z" fill="black"/>
<path d="M25.77 2.97C25.08 2.97 24.52 3.53 24.52 4.22V27.55C24.52 28.24 25.08 28.8 25.77 28.8C26.46 28.8 27.02 28.24 27.02 27.55V4.22C27.02 3.53 26.46 2.97 25.77 2.97Z" fill="black"/>
<path d="M30.75 5.19C30.06 5.19 29.5 5.75 29.5 6.44V25.33C29.5 26.02 30.06 26.58 30.75 26.58C31.44 26.58 32 26.02 32 25.33V6.44C32 5.75 31.44 5.19 30.75 5.19Z" fill="black"/>
</g>
<defs>
<clipPath id="clip0_24_2013">
<rect width="32" height="32" fill="white"/>
</clipPath>
</defs>
</svg>
