<svg width="32" height="32" viewBox="0 0 32 32" fill="none" xmlns="http://www.w3.org/2000/svg">
<g clip-path="url(#clip0_24_2220)">
<path d="M28.8285 1.82475C27.2019 0.67808 25.2196 0.242525 23.2463 0.580302C21.273 0.926969 19.5574 2.01141 18.4196 3.63808L16.3663 6.56252C15.8063 7.36252 16.0019 8.46475 16.793 9.02475C17.593 9.58475 18.6952 9.38919 19.2552 8.59808L21.3085 5.67364C21.913 4.8203 22.8107 4.24252 23.8507 4.06475C24.8907 3.88697 25.9307 4.11808 26.793 4.71364C27.6552 5.31808 28.2241 6.22475 28.4019 7.25586C28.5796 8.29586 28.3485 9.33586 27.7441 10.1981L22.5263 17.6203C21.273 19.3981 18.8196 19.8247 17.0419 18.5803C16.4196 18.1447 15.9396 17.5314 15.6552 16.8203C15.4774 16.3847 15.1485 16.0381 14.713 15.8514C14.2774 15.6647 13.7974 15.6559 13.3619 15.8336C12.9263 16.0114 12.5796 16.3403 12.393 16.7759C12.2063 17.2114 12.1974 17.6914 12.3752 18.127C12.9085 19.4781 13.8241 20.6336 15.0152 21.4692C16.6419 22.6159 18.6241 23.0603 20.5974 22.7136C22.5619 22.367 24.2774 21.2825 25.4241 19.6559L30.6419 12.2336C33.0152 8.86475 32.1974 4.19808 28.8285 1.82475Z" fill="black"/>
<path d="M15.2285 22.9359C14.4285 22.3759 13.3263 22.5714 12.7663 23.3625L10.6952 26.3047C10.0907 27.167 9.17519 27.7536 8.11741 27.9403C7.07741 28.1181 6.03741 27.8959 5.19297 27.2914C4.33964 26.687 3.77075 25.7892 3.59297 24.7403C3.41519 23.6914 3.6463 22.6336 4.25964 21.7714L9.51297 14.3047C10.1174 13.4425 11.033 12.8559 12.0907 12.6692C13.1307 12.4914 14.1707 12.7136 15.0152 13.3181C15.6374 13.7536 16.1174 14.3581 16.393 15.0781C16.5619 15.5136 16.8996 15.8603 17.3352 16.0559C17.7707 16.2425 18.2507 16.2514 18.6863 16.0825C19.593 15.727 20.0374 14.6959 19.6819 13.7892C19.1485 12.4292 18.233 11.2736 17.0419 10.4292C15.4241 9.29141 13.4419 8.84697 11.4507 9.19364C9.47741 9.54919 7.76186 10.6425 6.61519 12.2692L1.37075 19.7447C0.224081 21.3803 -0.229253 23.3625 0.108525 25.3359C0.446303 27.3181 1.53075 29.0336 3.15741 30.1803C4.78408 31.3181 6.75741 31.7625 8.72186 31.4159C10.7041 31.0692 12.4285 29.9759 13.5841 28.3314L15.6552 25.3892C16.2152 24.5892 16.0196 23.487 15.2285 22.927V22.9359Z" fill="black"/>
</g>
<defs>
<clipPath id="clip0_24_2220">
<rect width="32" height="32" fill="white"/>
</clipPath>
</defs>
</svg>
