<svg width="32" height="32" viewBox="0 0 32 32" fill="none" xmlns="http://www.w3.org/2000/svg">
<g clip-path="url(#clip0_139_492)">
<path d="M27.32 4.68C24.2933 1.66667 20.28 0 16 0C11.72 0 7.70667 1.66667 4.68 4.68C1.66667 7.70667 0 11.72 0 16C0 20.28 1.66667 24.2933 4.68 27.32C7.69333 30.3467 11.72 32 16 32C20.28 32 24.2933 30.3333 27.32 27.32C30.3467 24.3067 32 20.28 32 16C32 11.72 30.3333 7.70667 27.32 4.68ZM26.68 25.0533H5.33333C4.54667 24.1333 3.88 23.1067 3.36 22.0133H28.6533C28.1333 23.1067 27.4667 24.1333 26.68 25.0533ZM2.58667 20.0267C2.29333 19.04 2.10667 18.0133 2.02667 16.9867H29.9733C29.9067 18.0133 29.72 19.04 29.4133 20.0267H2.58667ZM17 6.93333H26.6667C27.4533 7.85333 28.1067 8.86667 28.64 9.96H17V6.93333ZM17 4.93333V2.02667C19.84 2.22667 22.4533 3.28 24.5733 4.93333H17ZM17 11.9467H29.4133C29.7067 12.9333 29.9067 13.96 29.9733 14.9867H17V11.9467ZM7.4 4.96C7.4 5.09333 7.44 5.22667 7.54667 5.29333C7.62667 5.34667 7.69333 5.36 7.76 5.36C7.84 5.36 7.92 5.33333 7.97333 5.29333L8.42667 4.97333L8.86667 5.29333C9 5.38667 9.17333 5.38667 9.30667 5.29333C9.44 5.2 9.49333 5.02667 9.44 4.88L9.28 4.36L9.73333 4.01333C9.86667 3.92 9.90667 3.74667 9.86667 3.6C9.85333 3.54667 9.81333 3.49333 9.77333 3.45333C11.4 2.64 13.1867 2.14667 15 2.02667V14.9867H2.02667C2.16 13.0667 2.69333 11.2 3.58667 9.50667L4.04 9.18667L4.48 9.50667C4.61333 9.6 4.78667 9.6 4.92 9.50667C5.05333 9.41333 5.10667 9.24 5.05333 9.09333L4.89333 8.57333L5.34667 8.22667C5.50667 8.10667 5.54667 7.86667 5.41333 7.70667C5.34667 7.61333 5.22667 7.56 5.12 7.56H4.82667C5.56 6.58667 6.42667 5.70667 7.38667 4.96H7.4ZM7.4 27.0533H24.5867C22.2133 28.9067 19.2267 30 16 30C12.7733 30 9.78667 28.8933 7.41333 27.0533H7.4ZM11.48 11.9867C11.5333 11.84 11.68 11.7333 11.8267 11.7333H12.3733L12.5333 11.2533C12.5733 11.12 12.6933 10.9867 12.8933 11C13.0533 11 13.1867 11.1067 13.24 11.24L13.4267 11.7333H13.96C14.12 11.7333 14.2667 11.84 14.32 11.9867C14.3733 12.1333 14.32 12.3067 14.2 12.4L13.7467 12.7467L13.9067 13.2667C13.9733 13.4667 13.8533 13.6667 13.6667 13.7333C13.6267 13.7333 13.5867 13.7467 13.56 13.7467C13.48 13.7467 13.4 13.72 13.3467 13.68L12.9067 13.36L12.44 13.68C12.2667 13.8 12.08 13.7333 12 13.68C11.8667 13.5867 11.8133 13.4133 11.8667 13.2667L12.04 12.7333L11.6133 12.4C11.4933 12.3067 11.44 12.1333 11.4933 11.9867H11.48ZM14.1867 8.22667L13.7333 8.57333L13.8933 9.09333C13.9467 9.25333 13.8933 9.41333 13.76 9.50667C13.6267 9.6 13.4533 9.6 13.32 9.50667L12.88 9.18667L12.4133 9.50667C12.3467 9.56 12.2667 9.57333 12.2 9.57333C12.1067 9.57333 12.0267 9.54667 11.9733 9.49333C11.8533 9.4 11.8 9.24 11.84 9.08L12.0133 8.54667L11.5867 8.21333C11.4267 8.09333 11.4 7.85333 11.52 7.69333C11.5867 7.6 11.6933 7.54667 11.8133 7.54667H12.36L12.52 7.06667C12.56 6.94667 12.68 6.81333 12.8667 6.81333C13.0267 6.81333 13.1733 6.90667 13.2267 7.05333L13.4133 7.54667H13.9467C14.1067 7.54667 14.2533 7.65333 14.3067 7.8C14.36 7.94667 14.3067 8.12 14.1733 8.21333L14.1867 8.22667ZM11.48 3.6C11.5333 3.45333 11.68 3.34667 11.8267 3.34667H12.3733L12.5333 2.85333C12.5867 2.70667 12.72 2.61333 12.88 2.6C13.0667 2.6 13.2 2.72 13.24 2.85333L13.4133 3.34667H13.9467C14.1467 3.34667 14.32 3.52 14.32 3.72C14.32 3.84 14.2667 3.94667 14.1733 4.01333L13.72 4.36L13.88 4.88C13.9333 5.04 13.88 5.2 13.7467 5.29333C13.6133 5.38667 13.44 5.38667 13.3067 5.29333L12.8667 4.97333L12.4133 5.29333C12.4133 5.29333 12.28 5.36 12.2 5.36C12.1333 5.36 12.0533 5.34667 11.9867 5.29333C11.8533 5.2 11.8 5.02667 11.8533 4.88L12.0267 4.34667L11.6 4.01333C11.48 3.92 11.4267 3.74667 11.48 3.6ZM7.02667 11.9867C7.08 11.84 7.22667 11.7333 7.37333 11.7333H7.92L8.08 11.2533C8.12 11.12 8.24 10.9867 8.44 11C8.6 11 8.73333 11.1067 8.78667 11.24L8.97333 11.7333H9.50667C9.66667 11.7333 9.81333 11.84 9.86667 11.9867C9.92 12.1333 9.86667 12.3067 9.74667 12.4L9.29333 12.7467L9.45333 13.2667C9.52 13.4667 9.4 13.6667 9.21333 13.7333C9.17333 13.7333 9.13333 13.7467 9.10667 13.7467C9.02667 13.7467 8.94667 13.72 8.89333 13.68L8.45333 13.36L7.98667 13.68C7.81333 13.8 7.62667 13.7333 7.54667 13.68C7.41333 13.5867 7.36 13.4133 7.41333 13.2667L7.58667 12.7333L7.16 12.4C7.04 12.3067 6.98667 12.1333 7.04 11.9867H7.02667ZM7.02667 7.8C7.08 7.65333 7.22667 7.54667 7.37333 7.54667H7.92L8.08 7.06667C8.12 6.94667 8.24 6.81333 8.42667 6.81333C8.58667 6.81333 8.73333 6.90667 8.78667 7.05333L8.97333 7.54667H9.50667C9.66667 7.54667 9.81333 7.65333 9.86667 7.8C9.92 7.94667 9.86667 8.12 9.73333 8.21333L9.28 8.56L9.44 9.08C9.49333 9.24 9.44 9.4 9.30667 9.49333C9.17333 9.58667 9 9.58667 8.86667 9.49333L8.42667 9.17333L7.96 9.49333C7.89333 9.54667 7.81333 9.56 7.74667 9.56C7.65333 9.56 7.57333 9.53333 7.52 9.48C7.4 9.38667 7.34667 9.22667 7.38667 9.06667L7.56 8.53333L7.13333 8.2C7.01333 8.10667 6.96 7.93333 7.01333 7.78667L7.02667 7.8ZM5.46667 11.9867C5.52 12.1333 5.46667 12.3067 5.34667 12.4L4.89333 12.7467L5.05333 13.2667C5.12 13.4667 5 13.6667 4.81333 13.7333C4.77333 13.7333 4.73333 13.7467 4.70667 13.7467C4.62667 13.7467 4.54667 13.72 4.49333 13.68L4.05333 13.36L3.58667 13.68C3.41333 13.8 3.22667 13.7333 3.14667 13.68C3.01333 13.5867 2.96 13.4133 3.01333 13.2667L3.18667 12.7333L2.76 12.4C2.64 12.3067 2.58667 12.1333 2.64 11.9867C2.69333 11.84 2.84 11.7333 2.98667 11.7333H3.53333L3.69333 11.2533C3.73333 11.12 3.85333 11 4.04 11C4.2 11 4.33333 11.1067 4.38667 11.24L4.57333 11.7333H5.10667C5.26667 11.7333 5.41333 11.84 5.46667 11.9867Z" fill="url(#paint0_linear_139_492)"/>
</g>
<defs>
<linearGradient id="paint0_linear_139_492" x1="0" y1="0" x2="32" y2="32" gradientUnits="userSpaceOnUse">
<stop offset="0.2" stop-color="#6694D1"/>
<stop offset="0.8" stop-color="#004DB3"/>
</linearGradient>
<clipPath id="clip0_139_492">
<rect width="32" height="32" fill="white"/>
</clipPath>
</defs>
</svg>
