<svg width="32" height="32" viewBox="0 0 32 32" fill="none" xmlns="http://www.w3.org/2000/svg">
<g clip-path="url(#clip0_24_1930)">
<path d="M31.5999 0.390122C31.0797 -0.130041 30.2394 -0.130041 29.7193 0.390122L25.718 4.39137C25.5446 4.20465 25.3846 4.00458 25.2112 3.8312C22.7438 1.36376 19.4627 0.00333437 15.995 0.00333437C12.5272 0.00333437 9.25956 1.36376 6.77879 3.8312C4.31135 6.29864 2.95092 9.57966 2.95092 13.0474V18.7825C2.95092 18.9826 2.91091 19.116 2.80421 19.276L1.55048 21.2233C0.896947 22.2503 0.843597 23.4907 1.43045 24.5577C1.95061 25.5046 2.8709 26.0915 3.91122 26.2115L0.390122 29.7326C-0.130041 30.2528 -0.130041 31.0931 0.390122 31.6132C0.656872 31.88 0.990309 32 1.33708 32C1.68386 32 2.0173 31.8666 2.28405 31.6132L7.64572 26.2515H10.9934V26.9851C10.9934 29.7593 13.2475 32 16.0083 32C18.7692 32 21.0232 29.746 21.0232 26.9851V26.2515H27.7053C28.919 26.2515 29.986 25.6113 30.5729 24.5443C31.1597 23.4773 31.1064 22.2369 30.4395 21.21L29.1858 19.2627C29.0791 19.1026 29.0391 18.9559 29.0391 18.7692V13.0341C29.0391 10.7267 28.4255 8.526 27.3052 6.56539L31.6132 2.25737C32.1334 1.73721 32.1334 0.896947 31.6132 0.376784L31.5999 0.390122ZM4.27134 23.9175C3.91122 23.9175 3.64447 23.7574 3.47108 23.4373C3.2977 23.1306 3.31103 22.7971 3.5111 22.5037L4.76482 20.5564C5.1116 20.0096 5.28499 19.4361 5.28499 18.7825V13.0474C5.28499 7.15223 10.0865 2.35073 15.9817 2.35073C19.2093 2.35073 22.0902 3.79118 24.0508 6.04522L6.19194 23.9041H4.27134V23.9175ZM18.6492 26.9984C18.6492 28.4656 17.4488 29.6659 15.9817 29.6659C14.5145 29.6659 13.3142 28.4656 13.3142 26.9984V26.2649H18.6625V26.9984H18.6492ZM26.6783 13.0474V18.7825C26.6783 19.4361 26.8517 20.0096 27.1985 20.5564L28.4522 22.5037C28.6523 22.7971 28.6523 23.1306 28.4922 23.4373C28.3188 23.7441 28.0388 23.9175 27.692 23.9175H9.96645L25.558 8.32594C26.2649 9.75305 26.6783 11.3535 26.6783 13.0607V13.0474Z" fill="black"/>
</g>
<defs>
<clipPath id="clip0_24_1930">
<rect width="32" height="32" fill="white"/>
</clipPath>
</defs>
</svg>
