<svg width="32" height="32" viewBox="0 0 32 32" fill="none" xmlns="http://www.w3.org/2000/svg">
<g clip-path="url(#clip0_24_2052)">
<path d="M13.6533 15.2711L13.6267 15.3244L11.52 19.28V19.2978L11.5022 19.3156C11.3867 19.5733 11.4133 19.8756 11.5644 20.1067C11.7244 20.3467 11.9822 20.4889 12.2667 20.4889C12.3822 20.4889 12.4978 20.4622 12.6044 20.4178H12.6222L12.64 20.4L16.5956 18.2933L16.6489 18.2667L28.8533 6.06222L25.8578 3.06667L13.6533 15.2711Z" fill="black"/>
<path d="M31.4667 1.26222L30.6578 0.453333C30.3644 0.16 29.9733 0 29.5644 0C29.1556 0 28.7644 0.16 28.4711 0.453333L26.6489 2.27556L29.6444 5.27111L31.4667 3.44889C32.0711 2.84444 32.0711 1.86667 31.4667 1.26222Z" fill="black"/>
<path d="M26.32 27.9289C26.32 28.6844 25.7067 29.2978 24.9511 29.2978H4.07111C3.31556 29.2978 2.70222 28.6844 2.70222 27.9289V7.04889C2.70222 6.29333 3.31556 5.68 4.07111 5.68H19.7244L22.4267 2.97778H4.07111C1.83111 2.97778 0 4.8 0 7.04889V27.9289C0 30.1778 1.83111 32 4.07111 32H24.9511C27.2 32 29.0222 30.1689 29.0222 27.9289V9.41333L26.32 12.1156V27.9289Z" fill="black"/>
</g>
<defs>
<clipPath id="clip0_24_2052">
<rect width="32" height="32" fill="white"/>
</clipPath>
</defs>
</svg>
