<svg width="32" height="32" viewBox="0 0 32 32" fill="none" xmlns="http://www.w3.org/2000/svg">
<g clip-path="url(#clip0_24_1914)">
<path d="M16 0C7.16 0 0 7.16 0 16C0 24.84 7.16 32 16 32C24.84 32 32 24.84 32 16C32 7.16 24.84 0 16 0ZM18.44 14.9V24.86C18.44 25.35 18.04 25.75 17.55 25.75H14.46C13.97 25.75 13.57 25.35 13.57 24.86V14.15C13.57 13.66 13.97 13.26 14.46 13.26H17.55C18.04 13.26 18.44 13.66 18.44 14.15V14.91V14.9ZM16 11.12C14.65 11.12 13.56 10.03 13.56 8.68C13.56 7.33 14.65 6.24 16 6.24C17.35 6.24 18.44 7.33 18.44 8.68C18.44 10.03 17.35 11.12 16 11.12Z" fill="black"/>
</g>
<defs>
<clipPath id="clip0_24_1914">
<rect width="32" height="32" fill="white"/>
</clipPath>
</defs>
</svg>
