<svg width="32" height="32" viewBox="0 0 32 32" fill="none" xmlns="http://www.w3.org/2000/svg">
<path d="M10.05 16.9992V28.2018C10.05 29.7408 8.8 31 7.25 31C5.7 31 4.45 29.7508 4.45 28.2018V16.9992C4.45 15.4602 5.7 14.201 7.25 14.201C8.8 14.201 10.05 15.4502 10.05 16.9992ZM16 18.0885C15.58 18.0885 15.25 18.4282 15.25 18.838V26.1832C15.25 26.5929 15.58 26.9327 16 26.9327C16.42 26.9327 16.75 26.5929 16.75 26.1832V18.838C16.75 18.4282 16.41 18.0885 16 18.0885ZM13.11 20.317C12.7 20.317 12.36 20.6568 12.36 21.0665V23.9646C12.36 24.3743 12.7 24.7141 13.11 24.7141C13.52 24.7141 13.86 24.3743 13.86 23.9646V21.0665C13.86 20.6568 13.53 20.317 13.11 20.317ZM15.19 1.01963C6.6 1.43936 0 8.8545 0 17.4489V24.0945C0 25.2937 0.65 26.3431 1.61 26.9127C2.11 27.2125 2.68 27.3924 3.3 27.3924V17.7687C2.93 17.7687 2.58 17.8386 2.26 17.9485V17.0291C2.26 9.44411 8.41 3.29814 16 3.29814C23.59 3.29814 29.74 9.44411 29.74 17.0291V17.9485C29.41 17.8386 29.06 17.7687 28.7 17.7687V27.3924C29.32 27.3924 29.89 27.2125 30.39 26.9127C31.35 26.3331 32 25.2937 32 24.0945V16.9892C32 7.90512 24.38 0.569926 15.19 1.01963ZM24.75 14.201C23.21 14.201 21.95 15.4502 21.95 16.9992V28.2018C21.95 29.7408 23.2 31 24.75 31C26.3 31 27.55 29.7508 27.55 28.2018V16.9992C27.55 15.4602 26.3 14.201 24.75 14.201ZM18.89 20.317C18.48 20.317 18.14 20.6568 18.14 21.0665V23.9646C18.14 24.3743 18.48 24.7141 18.89 24.7141C19.3 24.7141 19.64 24.3743 19.64 23.9646V21.0665C19.64 20.6568 19.3 20.317 18.89 20.317Z" fill="url(#paint0_linear_139_485)"/>
<defs>
<linearGradient id="paint0_linear_139_485" x1="0" y1="0" x2="32" y2="32" gradientUnits="userSpaceOnUse">
<stop stop-color="#666666"/>
<stop offset="1" stop-color="#191919"/>
</linearGradient>
</defs>
</svg>
