<svg width="32" height="32" viewBox="0 0 32 32" fill="none" xmlns="http://www.w3.org/2000/svg">
<g clip-path="url(#clip0_1022_80)">
<path d="M31.0133 20.3855L30.3546 19.727C30.501 18.529 30.1351 17.2853 29.2202 16.3707L15.6164 2.78086C14.7016 1.86634 13.4574 1.50053 12.259 1.64685L11.6003 0.988392C10.6305 0.00984779 9.23081 -0.26451 7.95917 0.265915C6.68753 0.796341 5.89162 1.97608 5.89162 3.35702V3.52163C4.46445 3.6771 3.31175 4.43616 2.61646 5.15863C2.32371 5.18607 2.03096 5.25009 1.74736 5.36898C0.676987 5.81709 0.00914847 6.81393 0.00914847 7.96623V12.7858C0.00914847 13.2888 0.42083 13.7003 0.923996 13.7003C1.42716 13.7003 1.83884 13.2888 1.83884 12.7858V7.96623C1.83884 7.3535 2.30541 7.11572 2.45179 7.05171C2.59817 6.98769 3.09218 6.83222 3.53131 7.26205L17.3364 21.0623C17.5193 21.2452 17.748 21.3275 17.9859 21.3275C18.2238 21.3275 18.4525 21.236 18.6354 21.0623C18.9922 20.7056 18.9922 20.1294 18.6354 19.7728L7.05347 8.21315L7.41026 7.85649C7.83109 7.43581 8.51723 7.43581 8.9472 7.85649L11.7283 10.6367C11.9113 10.8196 12.14 10.9019 12.3779 10.9019C12.6157 10.9019 12.8445 10.8104 13.0274 10.6367C13.3842 10.28 13.3842 9.70383 13.0274 9.34717L10.2463 6.56701C10.1457 6.46641 10.0359 6.39325 9.93524 6.31094C10.6854 6.26521 11.5454 6.7682 11.9662 7.54555C12.6798 8.8899 14.0703 9.74956 15.4975 9.75871C16.4124 9.75871 17.3546 10.5269 17.6017 11.4689C17.9767 12.9138 19.1112 14.0478 20.5566 14.4228C21.4989 14.6697 22.2674 15.6117 22.2674 16.5262C22.2674 17.9529 23.1365 19.3429 24.4813 20.0563C25.2681 20.477 25.7712 21.3366 25.7164 22.0865C25.634 21.9768 25.5608 21.867 25.4602 21.7664L15.836 12.1456C15.4792 11.789 14.9029 11.789 14.5461 12.1456C14.1893 12.5023 14.1893 13.0784 14.5461 13.4351L24.1703 23.0559C24.5911 23.4766 24.5911 24.1625 24.1703 24.5923L23.8135 24.949L22.2399 23.376C21.8831 23.0193 21.3068 23.0193 20.95 23.376C20.5932 23.7327 20.5932 24.3088 20.95 24.6655L23.1731 26.8878L24.7649 28.4791C25.1949 28.9089 25.0394 29.4119 24.9753 29.5582C24.9204 29.7045 24.6734 30.1709 24.0605 30.1709H5.59886C3.52216 30.1709 1.82969 28.4791 1.82969 26.4031V17.2212C1.82969 16.7183 1.41801 16.3067 0.914847 16.3067C0.411681 16.3067 0 16.7183 0 17.2212V26.4031C0 29.4942 2.51583 32 5.59886 32H24.033C25.1949 32 26.1921 31.3324 26.6312 30.2624C26.8325 29.7868 26.8874 29.2839 26.8233 28.8083C27.3356 28.3876 28.1681 27.5371 28.4334 26.2385C28.4334 26.2019 28.4426 26.1562 28.4517 26.1104H28.6439C30.0253 26.1104 31.2054 25.3148 31.736 24.0436C32.2667 22.7724 31.9831 21.3732 31.0133 20.3947V20.3855ZM8.65445 1.95779C9.23996 1.71087 9.86205 1.8389 10.3103 2.28702L10.3927 2.36933C10.2188 2.49736 10.045 2.62539 9.8895 2.78086L8.67275 3.99719C8.3434 3.85086 8.03236 3.74112 7.71216 3.65881V3.35702C7.71216 2.72599 8.0598 2.19557 8.65445 1.95779ZM6.11118 6.55786L5.75439 6.91453L4.80295 5.96342C4.75721 5.91769 4.70231 5.88111 4.65657 5.83538C5.17803 5.50616 5.90076 5.2318 6.77902 5.33239H6.79731C6.79731 5.33239 6.79731 5.33239 6.80646 5.33239C7.18155 5.37812 7.59323 5.50615 8.01406 5.7165C7.31878 5.75308 6.63264 6.02744 6.10203 6.55786H6.11118ZM25.3138 18.4376C24.5728 18.0443 24.0696 17.267 24.0696 16.5171C24.0696 14.7703 22.7431 13.1059 20.9957 12.6486C20.1907 12.4383 19.5594 11.8072 19.349 11.0025C18.8916 9.25572 17.2266 7.92965 15.4792 7.92965C14.7382 7.92965 13.9514 7.41752 13.558 6.68589C12.9542 5.55188 11.8656 4.78368 10.7129 4.55505L11.1886 4.07949C12.0577 3.21069 13.4574 3.21069 14.3265 4.07949L27.9211 17.6694C28.7902 18.5382 28.7902 19.9374 27.9211 20.8062L27.4454 21.2817C27.2167 20.1294 26.4574 19.0412 25.3138 18.4376ZM25.4327 25.8818C25.9725 25.3422 26.247 24.6472 26.2744 23.943C26.494 24.3637 26.622 24.7661 26.6586 25.1502C26.6586 25.1593 26.6586 25.1776 26.6586 25.1868C26.6586 25.2234 26.6769 25.2508 26.6769 25.2874C26.6861 25.4794 26.6769 25.6623 26.6495 25.8452C26.5397 26.394 26.2378 26.8238 25.9634 27.1164L25.0851 26.2385L25.4419 25.8818H25.4327ZM30.0436 23.3303C29.7966 23.9156 29.2751 24.2722 28.6439 24.2722H28.3603C28.2779 23.9522 28.159 23.6321 28.0035 23.312L29.2202 22.0957C29.3757 21.9402 29.5038 21.7664 29.6319 21.5927L29.7142 21.675C30.1625 22.1231 30.2906 22.745 30.0436 23.3303ZM4.64742 15.7489C4.29063 15.3922 4.29063 14.816 4.64742 14.4594L5.47993 13.6272C5.83672 13.2705 6.41308 13.2705 6.76987 13.6272C7.12666 13.9838 7.12666 14.56 6.76987 14.9166L5.93736 15.7489C5.75439 15.9318 5.52568 16.0141 5.28782 16.0141C5.04996 16.0141 4.82124 15.9226 4.63827 15.7489H4.64742ZM4.63827 19.9374L5.71779 18.8582C6.07458 18.5016 6.65094 18.5016 7.00773 18.8582C7.36452 19.2149 7.36452 19.7911 7.00773 20.1477L5.92821 21.2269C5.74524 21.4098 5.51653 21.4921 5.27867 21.4921C5.04081 21.4921 4.8121 21.4006 4.62913 21.2269C4.27234 20.8702 4.27234 20.2941 4.62913 19.9374H4.63827ZM8.01406 17.8614C7.65727 17.5047 7.65727 16.9286 8.01406 16.5719L8.21533 16.3707C8.57212 16.0141 9.14847 16.0141 9.50526 16.3707C9.86205 16.7274 9.86205 17.3036 9.50526 17.6602L9.304 17.8614C9.12103 18.0443 8.89231 18.1266 8.65445 18.1266C8.41659 18.1266 8.18788 18.0352 8.00491 17.8614H8.01406ZM6.98943 24.3637C7.34622 24.7204 7.34622 25.2965 6.98943 25.6532L5.92821 26.7049C5.74524 26.8878 5.51653 26.9701 5.27867 26.9701C5.04081 26.9701 4.8121 26.8787 4.62913 26.7049C4.27234 26.3482 4.27234 25.7721 4.62913 25.4154L5.69035 24.3637C6.04714 24.007 6.62349 24.007 6.98028 24.3637H6.98943ZM7.93172 22.1323L10.9599 19.1052C11.3167 18.7485 11.893 18.7485 12.2498 19.1052C12.6066 19.4618 12.6066 20.038 12.2498 20.3947L9.22166 23.4217C9.03869 23.6046 8.80998 23.687 8.57212 23.687C8.33426 23.687 8.10555 23.5955 7.92258 23.4217C7.56579 23.0651 7.56579 22.4889 7.92258 22.1323H7.93172ZM11.7649 25.0679C12.1217 25.4246 12.1217 26.0007 11.7649 26.3574L11.399 26.7232C11.216 26.9061 10.9873 26.9884 10.7495 26.9884C10.5116 26.9884 10.2829 26.8969 10.0999 26.7232C9.74312 26.3665 9.74312 25.7904 10.0999 25.4337L10.4658 25.0679C10.8226 24.7112 11.399 24.7112 11.7558 25.0679H11.7649ZM12.5426 24.2905C12.1858 23.9339 12.1858 23.3577 12.5426 23.0011L13.6953 21.8488C14.0521 21.4921 14.6284 21.4921 14.9852 21.8488C15.342 22.2054 15.342 22.7816 14.9852 23.1382L13.8325 24.2905C13.6495 24.4734 13.4208 24.5558 13.1829 24.5558C12.9451 24.5558 12.7164 24.4643 12.5334 24.2905H12.5426ZM16.2568 26.9792C16.019 26.9792 15.7903 26.8878 15.6073 26.714C15.2505 26.3574 15.2505 25.7812 15.6073 25.4246L16.4398 24.5923C16.7966 24.2357 17.3729 24.2357 17.7297 24.5923C18.0865 24.949 18.0865 25.5251 17.7297 25.8818L16.8972 26.714C16.7143 26.8969 16.4855 26.9792 16.2477 26.9792H16.2568Z" fill="black"/>
</g>
<defs>
<clipPath id="clip0_1022_80">
<rect width="32" height="32" fill="white"/>
</clipPath>
</defs>
</svg>
