<svg width="32" height="32" viewBox="0 0 32 32" fill="none" xmlns="http://www.w3.org/2000/svg">
<g clip-path="url(#clip0_24_1934)">
<path d="M26.1425 0H5.84184C2.61519 0 0 2.61519 0 5.84184V20.31C0 23.5367 2.61519 26.1519 5.84184 26.1519H17.883L23.3486 31.6174C24.167 32.4359 25.5592 31.8526 25.5592 30.7049V26.1613H26.1519C29.3785 26.1613 31.9937 23.5461 31.9937 20.3195V5.84184C31.9937 2.61519 29.3785 0 26.1519 0H26.1425ZM14.6658 16.9799H6.9707C6.23694 16.9799 5.64429 16.3873 5.64429 15.6535C5.64429 14.9197 6.23694 14.3271 6.9707 14.3271H14.6752C15.4089 14.3271 16.0016 14.9197 16.0016 15.6535C16.0016 16.3873 15.4089 16.9799 14.6752 16.9799H14.6658ZM25.0136 9.84929H6.9707C6.23694 9.84929 5.64429 9.25664 5.64429 8.52288C5.64429 7.78912 6.23694 7.19647 6.9707 7.19647H25.023C25.7568 7.19647 26.3494 7.78912 26.3494 8.52288C26.3494 9.25664 25.7568 9.84929 25.023 9.84929H25.0136Z" fill="black"/>
</g>
<defs>
<clipPath id="clip0_24_1934">
<rect width="32" height="32" fill="white"/>
</clipPath>
</defs>
</svg>
