<svg width="32" height="32" viewBox="0 0 32 32" fill="none" xmlns="http://www.w3.org/2000/svg">
<path d="M25.0115 32C24.2717 32 23.542 31.78 22.9123 31.37L16.7547 27.42C16.2848 27.12 15.6951 27.12 15.2253 27.42L9.06764 31.37C7.20837 32.56 4.75932 31.98 3.59977 30.08C3.20992 29.43 3 28.68 3 27.92V5.19C3 2.32 5.25912 0 8.05804 0H23.9419C26.7308 0 28.9899 2.32 28.9999 5.19V27.92C29.0099 29.4 28.2202 30.77 26.9507 31.48C26.3609 31.82 25.7012 32 25.0215 32H25.0115ZM15.995 24.24C16.8046 24.24 17.6043 24.47 18.2941 24.91L24.4517 28.86C24.9615 29.18 25.6312 29.03 25.9411 28.51C26.0511 28.33 26.101 28.13 26.101 27.92V5.19C26.101 3.96 25.1314 2.97 23.9319 2.97H8.05804C6.8585 2.97 5.88888 3.97 5.88888 5.19V27.92C5.88888 28.53 6.36869 29.03 6.96846 29.03C7.16838 29.03 7.3683 28.97 7.54823 28.86L13.7058 24.91C14.3956 24.47 15.1953 24.24 16.005 24.24H15.995Z" fill="black"/>
<path d="M22.6624 11.67H14.1049C13.3052 11.67 12.6655 11.01 12.6655 10.19C12.6655 9.37 13.3152 8.71 14.1049 8.71H22.6624C23.4621 8.71 24.1018 9.37 24.1018 10.19C24.1018 11.01 23.4521 11.67 22.6624 11.67Z" fill="black"/>
<path d="M16.9042 14.46V5.9C16.9042 5.1 17.564 4.46 18.3836 4.46C19.2033 4.46 19.8631 5.11 19.8631 5.9V14.46C19.8631 15.26 19.2033 15.9 18.3836 15.9C17.564 15.9 16.9042 15.25 16.9042 14.46Z" fill="black"/>
</svg>
