<svg width="32" height="32" viewBox="0 0 32 32" fill="none" xmlns="http://www.w3.org/2000/svg">
<path d="M19.4999 31.9999C20.621 31.9999 21.5987 31.0668 21.5987 29.9969V25.3191H23C23.8409 25.3191 24.4013 24.784 24.4013 23.9816V10.621H7.59855V23.9817C7.59855 24.7842 8.15908 25.3192 8.99989 25.3192H10.4013V29.997C10.4013 31.067 11.3788 32 12.5001 32C13.621 32 14.5985 31.067 14.5985 29.997V25.3192H17.4013V29.997C17.4012 31.0668 18.3789 31.9999 19.4999 31.9999ZM27.9015 23.9817C29.0226 23.9817 30 23.0488 30 21.9788V12.6232C30 11.5589 29.0226 10.621 27.9015 10.621C26.7803 10.621 25.8028 11.5589 25.8028 12.6232V21.9788C25.8028 23.0487 26.7802 23.9817 27.9015 23.9817ZM4.09849 23.9817C5.21968 23.9817 6.1972 23.0488 6.1972 21.9788V12.6232C6.1972 11.5589 5.21979 10.621 4.09849 10.621C2.97742 10.621 2 11.5589 2 12.6232V21.9788C2 23.0487 2.97742 23.9817 4.09849 23.9817ZM22.7196 0.201815C22.4395 -0.0672718 22.0224 -0.0672718 21.7422 0.201815L19.8627 1.98964L19.776 2.07229C18.6615 1.53967 17.412 1.27368 16.0205 1.27112L16.0001 1.2709L15.9793 1.27112C14.5879 1.27368 13.3384 1.53967 12.224 2.07229L10.2577 0.201815C9.9773 -0.0672718 9.56042 -0.0672718 9.28027 0.201815C8.99989 0.469407 8.99989 0.866524 9.28027 1.1339L11.0984 2.86941C10.5126 3.24271 9.98133 3.69952 9.51936 4.222C8.41339 5.47315 7.70797 7.10144 7.61096 8.86567C7.61007 8.88404 7.60817 8.90219 7.60727 8.92056C7.60139 9.04117 7.59848 9.1619 7.59855 9.28265H24.4013C24.4013 9.16145 24.3983 9.04068 24.3926 8.92056C24.3917 8.90219 24.3898 8.88404 24.3887 8.86567C24.2919 7.10144 23.5863 5.47304 22.4803 4.2221C22.0186 3.69963 21.4871 3.24282 20.9013 2.86951L22.7196 1.13401C23 0.866524 23 0.469407 22.7196 0.201815ZM12.4974 6.94746C12.2189 6.94746 11.9519 6.8419 11.755 6.65401C11.5582 6.46611 11.4476 6.21127 11.4476 5.94554C11.4476 5.67982 11.5582 5.42497 11.755 5.23708C11.9519 5.04918 12.2189 4.94362 12.4974 4.94362C12.7758 4.94362 13.0428 5.04918 13.2397 5.23708C13.4366 5.42497 13.5472 5.67982 13.5472 5.94554C13.5472 6.21127 13.4366 6.46611 13.2397 6.65401C13.0428 6.8419 12.7758 6.94746 12.4974 6.94746ZM19.5025 6.94746C19.2241 6.94746 18.9571 6.8419 18.7602 6.65401C18.5633 6.46611 18.4527 6.21127 18.4527 5.94554C18.4527 5.67982 18.5633 5.42497 18.7602 5.23708C18.9571 5.04918 19.2241 4.94362 19.5025 4.94362C19.7809 4.94362 20.048 5.04918 20.2448 5.23708C20.4417 5.42497 20.5523 5.67982 20.5523 5.94554C20.5523 6.21127 20.4417 6.46611 20.2448 6.65401C20.048 6.8419 19.7809 6.94746 19.5025 6.94746Z" fill="black"/>
</svg>
