<svg width="32" height="32" viewBox="0 0 32 32" fill="none" xmlns="http://www.w3.org/2000/svg">
<g clip-path="url(#clip0_24_2011)">
<path d="M28.9887 5.19C28.9887 2.33 26.7296 0.01 23.9307 0H8.04686C7.08723 0 6.20757 0.29 5.44787 0.76L28.9787 24.3V5.19H28.9887Z" fill="black"/>
<path d="M2.99883 27.92C2.99883 28.68 3.20875 29.43 3.59859 30.08C4.75814 31.99 7.20718 32.57 9.06646 31.37L15.2241 27.42C15.6939 27.12 16.2836 27.12 16.7535 27.42L22.9111 31.37C23.5408 31.78 24.2705 31.99 25.0102 32C25.64 32 26.2697 31.84 26.8295 31.54L2.99883 7.69V27.92Z" fill="black"/>
<path d="M31.5977 29.75L2.24912 0.39C1.98922 0.13 1.65935 0 1.31948 0C0.979617 0 0.63975 0.13 0.389848 0.39C-0.129949 0.9 -0.129949 1.74 0.389848 2.25L29.7384 31.61C29.8383 31.71 29.9483 31.77 30.0683 31.83C30.2582 31.93 30.4581 32 30.678 32C30.778 32 30.8779 31.97 30.9779 31.94C31.1278 31.91 31.2678 31.84 31.3977 31.76C31.4677 31.71 31.5477 31.68 31.6176 31.62C32.1274 31.1 32.1274 30.27 31.6176 29.75H31.5977Z" fill="black"/>
</g>
<defs>
<clipPath id="clip0_24_2011">
<rect width="32" height="32" fill="white"/>
</clipPath>
</defs>
</svg>
