<svg width="32" height="32" viewBox="0 0 32 32" fill="none" xmlns="http://www.w3.org/2000/svg">
<path d="M16 32C13.9291 32 11.9875 31.614 10.1755 30.842C8.36337 30.0795 6.76702 29.0251 5.38639 27.6788C4.01534 26.3326 2.94151 24.7698 2.16491 22.9905C1.3883 21.2112 1 19.3048 1 17.2713C1 15.492 1.29722 13.8115 1.89166 12.2299C2.49569 10.6389 3.33461 9.20321 4.40844 7.92286C5.49185 6.6331 6.75743 5.55516 8.20518 4.68904C9.65292 3.81351 11.2205 3.20628 12.908 2.86737V1.07394C12.908 0.706781 12.9895 0.433765 13.1524 0.254893C13.325 0.0760207 13.5407 -0.00870825 13.7996 0.000706075C14.0681 0.0101204 14.3365 0.108971 14.605 0.297257L19.2934 3.67229C19.6194 3.89824 19.7776 4.17125 19.768 4.49134C19.768 4.80201 19.6098 5.07032 19.2934 5.29626L14.605 8.65718C14.3269 8.84547 14.0585 8.94432 13.7996 8.95373C13.5407 8.96315 13.325 8.87842 13.1524 8.69954C12.9895 8.51126 12.908 8.24295 12.908 7.89462V6.20004C11.6711 6.52954 10.5302 7.04262 9.48514 7.73928C8.44008 8.42653 7.52924 9.2597 6.75264 10.2388C5.97603 11.2085 5.372 12.2911 4.94056 13.4867C4.50911 14.6729 4.29338 15.9345 4.29338 17.2713C4.29338 18.8529 4.5954 20.3404 5.19942 21.7337C5.80345 23.1176 6.64238 24.3414 7.7162 25.4053C8.79003 26.4597 10.0316 27.2834 11.441 27.8765C12.86 28.4696 14.3797 28.7662 16 28.7662C17.6203 28.7662 19.1352 28.4696 20.5446 27.8765C21.9636 27.2834 23.2052 26.4597 24.2694 25.4053C25.3432 24.3414 26.1822 23.1176 26.7862 21.7337C27.3998 20.3404 27.7066 18.8529 27.7066 17.2713C27.7066 16.0568 27.5244 14.9083 27.1601 13.8256C26.8054 12.743 26.302 11.7404 25.65 10.8178C24.9981 9.89516 24.2263 9.08553 23.3346 8.38887C22.9703 8.04996 22.7402 7.66867 22.6443 7.24503C22.5484 6.81197 22.6539 6.40245 22.9607 6.01646C23.2387 5.65872 23.6127 5.46102 24.0825 5.42336C24.5618 5.3857 25.0125 5.55045 25.4343 5.91761C26.5849 6.8308 27.5772 7.8852 28.4113 9.08082C29.2454 10.267 29.883 11.5568 30.3241 12.9501C30.7747 14.334 31 15.7744 31 17.2713C31 19.3048 30.6069 21.2112 29.8207 22.9905C29.0441 24.7698 27.9703 26.3326 26.5992 27.6788C25.2282 29.0251 23.6366 30.0795 21.8245 30.842C20.0125 31.614 18.0709 32 16 32ZM12.232 22.9199C11.8773 22.9199 11.5944 22.8116 11.3835 22.5951C11.1822 22.3691 11.0815 22.0773 11.0815 21.7196V14.3058H11.0384L9.81592 15.1954C9.72963 15.2613 9.64334 15.3131 9.55705 15.3508C9.47076 15.379 9.37009 15.3931 9.25503 15.3931C9.02493 15.3931 8.83317 15.3178 8.67977 15.1672C8.53595 15.0071 8.46405 14.8141 8.46405 14.5882C8.46405 14.2399 8.62704 13.948 8.95302 13.7127L10.3768 12.6818C10.6453 12.4935 10.9041 12.3382 11.1534 12.2158C11.4123 12.084 11.7047 12.0181 12.0307 12.0181C12.443 12.0181 12.7689 12.1311 13.0086 12.357C13.2579 12.5735 13.3826 12.8842 13.3826 13.289V21.7196C13.3826 22.0773 13.2771 22.3691 13.0662 22.5951C12.8648 22.8116 12.5868 22.9199 12.232 22.9199ZM19.466 23.0187C18.5264 23.0187 17.7689 22.7504 17.1937 22.2138C16.628 21.6772 16.2157 20.9852 15.9569 20.1379C15.7076 19.2907 15.5829 18.3963 15.5829 17.4549C15.5829 16.7582 15.65 16.0804 15.7843 15.4214C15.9281 14.7624 16.1486 14.1693 16.4458 13.6421C16.7526 13.1149 17.1553 12.6959 17.6539 12.3853C18.1524 12.0746 18.7565 11.9192 19.466 11.9192C20.4151 11.9192 21.1726 12.1876 21.7383 12.7242C22.3039 13.2514 22.7114 13.9386 22.9607 14.7859C23.2196 15.6238 23.349 16.5134 23.349 17.4549C23.349 18.1609 23.2771 18.8435 23.1333 19.5025C22.999 20.1615 22.7785 20.7593 22.4717 21.2959C22.1745 21.8231 21.7766 22.2421 21.278 22.5527C20.7795 22.8634 20.1755 23.0187 19.466 23.0187ZM19.466 21.2112C19.8111 21.2112 20.0988 21.0558 20.3289 20.7452C20.559 20.4251 20.7315 19.9826 20.8466 19.4178C20.9616 18.8529 21.0192 18.1986 21.0192 17.4549C21.0192 16.7111 20.9569 16.0615 20.8322 15.5061C20.7172 14.9507 20.5446 14.5176 20.3145 14.2069C20.094 13.8868 19.8111 13.7268 19.466 13.7268C19.1208 13.7268 18.8332 13.8821 18.6031 14.1928C18.3825 14.5035 18.2148 14.9412 18.0997 15.5061C17.9847 16.0615 17.9271 16.7111 17.9271 17.4549C17.9271 18.1986 17.9847 18.8529 18.0997 19.4178C18.2148 19.9826 18.3825 20.4251 18.6031 20.7452C18.8332 21.0558 19.1208 21.2112 19.466 21.2112Z" fill="black"/>
</svg>
