<svg width="32" height="32" viewBox="0 0 32 32" fill="none" xmlns="http://www.w3.org/2000/svg">
<g clip-path="url(#clip0_72_39)">
<path d="M31.9023 9.40444C31.8312 7.70667 31.5558 6.53333 31.156 5.52C30.7474 4.44444 30.1255 3.48444 29.3082 2.68444C28.5086 1.87556 27.5403 1.24444 26.4742 0.844444C25.4525 0.453333 24.2976 0.177778 22.5919 0.0977778C20.8773 0.0177778 20.3354 0 15.9911 0C11.6469 0 11.1049 0.0177778 9.39922 0.0977778C7.70239 0.168889 6.52971 0.444444 5.51693 0.844444C4.44198 1.25333 3.48251 1.87556 2.68295 2.69333C1.87451 3.49333 1.24375 4.46222 0.843976 5.52889C0.453082 6.55111 0.177679 7.70667 0.0977235 9.41333C0.0177679 11.1111 0 11.6622 0 16C0 20.3378 0.0177679 20.8889 0.0977235 22.5956C0.168795 24.2933 0.444198 25.4667 0.843976 26.48C1.25264 27.5556 1.8834 28.5156 2.69184 29.3156C3.49139 30.1244 4.45974 30.7556 5.52582 31.1556C6.54747 31.5467 7.70239 31.8222 9.40811 31.9022C11.1138 31.9733 11.6557 32 16 32C20.3443 32 20.8862 31.9822 22.5919 31.9022C24.2887 31.8311 25.4614 31.5556 26.4742 31.1556C28.6241 30.32 30.3209 28.6222 31.156 26.4711C31.5469 25.4489 31.8223 24.2933 31.9023 22.5867C31.9733 20.88 32 20.3378 32 15.9911C32 11.6444 32 11.1022 31.92 9.39556L31.9023 9.40444ZM29.015 22.4711C28.9439 24.0356 28.6863 24.88 28.4642 25.44C27.9311 26.8356 26.8207 27.9378 25.4259 28.48C24.8662 28.7022 24.0133 28.96 22.4586 29.0311C20.7707 29.1022 20.2643 29.1289 16 29.1289C11.7357 29.1289 11.2204 29.1111 9.54137 29.0311C7.97779 28.96 7.13381 28.7022 6.57413 28.48C5.88118 28.2222 5.25042 27.8133 4.73515 27.2889C4.20211 26.7733 3.80233 26.1422 3.5447 25.4489C3.3226 24.8889 3.06496 24.0356 2.99389 22.48C2.92282 20.7911 2.89617 20.2844 2.89617 16.0178C2.89617 11.7511 2.91394 11.2356 2.99389 9.55556C3.06496 7.99111 3.3226 7.14667 3.5447 6.58667C3.80233 5.89333 4.21099 5.26222 4.74403 4.74667C5.2593 4.21333 5.89006 3.81333 6.58301 3.55556C7.1427 3.33333 7.99556 3.07556 9.55025 3.00444C11.2382 2.93333 11.7446 2.90667 16.0089 2.90667C20.2732 2.90667 20.7885 2.92444 22.4675 3.00444C24.0311 3.07556 24.8751 3.33333 25.4348 3.55556C26.1277 3.81333 26.7585 4.22222 27.2737 4.74667C27.8068 5.26222 28.2066 5.89333 28.4642 6.58667C28.6863 7.14667 28.9439 8 29.015 9.55556C29.0861 11.2444 29.1127 11.7511 29.1127 16.0178C29.1127 20.2844 29.0949 20.7911 29.015 22.4711ZM16 7.78667C11.4603 7.78667 7.78234 11.4667 7.78234 16.0089C7.78234 20.5511 11.4603 24.2311 16 24.2311C20.5397 24.2311 24.2177 20.5511 24.2177 16.0089C24.2177 11.4667 20.5397 7.78667 16 7.78667ZM16 21.3333C13.0594 21.3333 10.6696 18.9422 10.6696 16C10.6696 13.0578 13.0594 10.6667 16 10.6667C18.9406 10.6667 21.3304 13.0578 21.3304 16C21.3304 18.9422 18.9406 21.3333 16 21.3333ZM26.4564 7.45778C26.4564 8.51556 25.5947 9.37778 24.5375 9.37778C23.4803 9.37778 22.6185 8.51556 22.6185 7.45778C22.6185 6.4 23.4803 5.53778 24.5375 5.53778C25.5947 5.53778 26.4564 6.4 26.4564 7.45778Z" fill="black"/>
</g>
<defs>
<clipPath id="clip0_72_39">
<rect width="32" height="32" fill="white"/>
</clipPath>
</defs>
</svg>
