<svg width="32" height="32" viewBox="0 0 32 32" fill="none" xmlns="http://www.w3.org/2000/svg">
<g clip-path="url(#clip0_723_11)">
<path d="M21.9931 17.33C25.3021 17.33 27.9913 14.64 27.9913 11.33C27.9913 8.02 25.3021 5.33 21.9931 5.33C18.6842 5.33 15.995 8.02 15.995 11.33C15.995 14.64 18.6842 17.33 21.9931 17.33ZM11.9963 26.67C11.9963 22.99 14.9853 20.01 18.6642 20H25.3321C29.0109 20 31.99 22.99 32 26.67V32H11.9963V26.67ZM8.66729 12C11.9763 12 14.6654 9.31 14.6654 6C14.6654 2.69 11.9763 0 8.66729 0C5.35833 0 2.66917 2.69 2.66917 6C2.66917 9.31 5.35833 12 8.66729 12ZM6.66792 14.67H13.3358C13.5658 14.68 13.8057 14.7 14.0356 14.74C14.5155 15.86 15.2352 16.87 16.135 17.69C12.1162 18.83 9.34708 22.49 9.33708 26.66H0V21.33C0 17.65 2.98907 14.67 6.66792 14.66V14.67Z" fill="black"/>
</g>
<defs>
<clipPath id="clip0_723_11">
<rect width="32" height="32" fill="white"/>
</clipPath>
</defs>
</svg>
