<svg width="32" height="32" viewBox="0 0 32 32" fill="none" xmlns="http://www.w3.org/2000/svg">
<g clip-path="url(#clip0_24_8)">
<path d="M28 0H4C1.79 0 0 1.79 0 4V28C0 30.21 1.79 32 4 32H28C30.21 32 32 30.21 32 28V4C32 1.79 30.21 0 28 0ZM27.85 10.39L12.82 25.26C12.73 25.35 12.59 25.41 12.45 25.41C12.32 25.41 12.18 25.36 12.08 25.26L4.13 17.39C4.04 17.29 4 17.16 4 17.02C4 16.88 4.06 16.75 4.16 16.65L7.11 13.74C7.2 13.64 7.34 13.58 7.48 13.58C7.62 13.58 7.75 13.64 7.85 13.74L12.48 18.31L24.17 6.75C24.26 6.65 24.4 6.59 24.54 6.59C24.68 6.59 24.81 6.65 24.91 6.75L27.86 9.66C28.06 9.86 28.06 10.19 27.86 10.39H27.85Z" fill="black"/>
</g>
<defs>
<clipPath id="clip0_24_8">
<rect width="32" height="32" fill="white"/>
</clipPath>
</defs>
</svg>
