<svg width="32" height="32" viewBox="0 0 32 32" fill="none" xmlns="http://www.w3.org/2000/svg">
<g clip-path="url(#clip0_99_60)">
<path d="M13.1111 18.0002H2C0.897778 18.0002 0 17.1024 0 16.0002C0 14.8979 0.897778 14.0002 2 14.0002H13.1111C14.2133 14.0002 15.1111 14.8979 15.1111 16.0002C15.1111 17.1024 14.2133 18.0002 13.1111 18.0002ZM16.7822 26.6668C16.7822 25.5646 15.8844 24.6668 14.7822 24.6668H2C0.897778 24.6668 0 25.5646 0 26.6668C0 27.7691 0.897778 28.6668 2 28.6668H14.7822C15.8844 28.6668 16.7822 27.7691 16.7822 26.6668ZM32 5.3335C32 4.23127 31.1022 3.3335 30 3.3335H2C0.897778 3.3335 0 4.23127 0 5.3335C0 6.43572 0.897778 7.3335 2 7.3335H30C31.1022 7.3335 32 6.43572 32 5.3335Z" fill="black"/>
<path d="M31.4756 22.2224C32.2222 20.2668 32.16 18.1424 31.3156 16.2313C30.4622 14.3202 28.9156 12.8624 26.9689 12.1157C25.0222 11.3691 22.8889 11.4313 20.9778 12.2846C19.0667 13.1379 17.6 14.6846 16.8622 16.6313C16.1156 18.5868 16.1778 20.7113 17.0222 22.6224C17.8756 24.5335 19.4222 25.9913 21.3689 26.7379C22.7733 27.2713 24.24 27.4135 25.7867 27.0846L27.5467 31.0224C27.8133 31.6179 28.4 32.0002 29.0489 32.0002C29.28 32.0002 29.5022 31.9557 29.7156 31.8579C30.1156 31.6802 30.4267 31.3513 30.5778 30.9424C30.7378 30.5335 30.72 30.0891 30.5422 29.6802L28.7822 25.7424C30 24.8535 30.9244 23.6446 31.4667 22.2224H31.4756ZM28.4089 21.0491C27.9733 22.1779 27.1289 23.0757 26.0178 23.5735C24.9156 24.0713 23.68 24.0979 22.5422 23.6713C21.4133 23.2357 20.5156 22.3913 20.0178 21.2802C19.52 20.1691 19.4933 18.9424 19.92 17.8046C20.5867 16.0624 22.2933 14.8891 24.1689 14.8891C24.72 14.8891 25.2622 14.9868 25.7867 15.1913C26.9156 15.6268 27.8133 16.4713 28.3111 17.5824C28.8089 18.6935 28.8356 19.9202 28.4089 21.0579V21.0491Z" fill="black"/>
</g>
<defs>
<clipPath id="clip0_99_60">
<rect width="32" height="32" fill="white"/>
</clipPath>
</defs>
</svg>
