<svg width="32" height="32" viewBox="0 0 32 32" fill="none" xmlns="http://www.w3.org/2000/svg">
<path d="M29.9734 8.00889C28.15 8.00889 26.4681 7.40444 25.1226 6.38222C23.5736 5.20889 22.4671 3.49333 22.0688 1.51111C21.9714 1.01333 21.9183 0.506667 21.9183 0H16.7134V22.0978C16.7134 24.1867 15.3502 25.9644 13.4736 26.5867C12.9071 26.7733 12.314 26.8533 11.7298 26.8178C10.9508 26.7733 10.2161 26.5333 9.5788 26.1511C8.22447 25.3333 7.30388 23.8578 7.27732 22.1689C7.24192 19.5289 9.36636 17.3689 11.9954 17.3689C12.5176 17.3689 13.0133 17.4578 13.4825 17.6089V12.3022C12.9868 12.2311 12.4911 12.1867 11.9777 12.1867C9.1008 12.1867 6.40984 13.3867 4.48014 15.5556C3.02844 17.1911 2.15211 19.28 2.01933 21.4667C1.84229 24.3467 2.88681 27.0756 4.92274 29.0933C5.2237 29.3867 5.53351 29.6622 5.86103 29.92C7.60484 31.2622 9.72928 32 11.9777 32C12.4822 32 12.9868 31.9644 13.4825 31.8933C15.5803 31.5822 17.5101 30.6222 19.0414 29.1022C20.918 27.2444 21.9537 24.7733 21.9625 22.1422L21.936 10.4622C22.83 11.1556 23.8126 11.7333 24.8571 12.1778C26.4858 12.8711 28.2208 13.2178 30 13.2178V8.01778H29.9823L29.9734 8.00889Z" fill="black"/>
</svg>
