<svg width="32" height="32" viewBox="0 0 32 32" fill="none" xmlns="http://www.w3.org/2000/svg">
<g clip-path="url(#clip0_74_41)">
<path d="M16.1778 14.4444L11.3244 7.49333H8.72889L14.7556 16.1067L15.5111 17.1911L20.6667 24.5689H23.2533L16.9422 15.5289L16.1778 14.4444Z" fill="black"/>
<path d="M0 4.14222V27.8578C0 30.1422 1.85778 32 4.14222 32H27.8578C30.1422 32 32 30.1422 32 27.8578V4.14222C32 1.85778 30.1422 0 27.8578 0H4.14222C1.85778 0 0 1.85778 0 4.14222ZM19.8667 25.7778L14.6489 18.1867L8.11556 25.7778H6.42667L13.8933 17.0933L6.43556 6.22222H12.1333L17.0756 13.4133L23.2622 6.22222H24.9511L17.8311 14.5067L25.5822 25.7778H19.8667Z" fill="black"/>
</g>
<defs>
<clipPath id="clip0_74_41">
<rect width="32" height="32" fill="white"/>
</clipPath>
</defs>
</svg>
