<svg width="32" height="32" viewBox="0 0 32 32" fill="none" xmlns="http://www.w3.org/2000/svg">
<g clip-path="url(#clip0_776_22)">
<path d="M16.5519 12.4687C18.2728 12.482 19.9937 11.4021 21.5545 11.8554C22.9419 12.2687 24.2226 12.842 25.2631 13.6152C25.2498 13.3086 25.1964 13.002 25.1297 12.6687C24.1158 8.2958 22.3549 3.09634 18.4462 0.589939C17.2189 -0.196646 15.5113 -0.196646 14.2973 0.589939C10.3886 3.08301 8.62769 8.2958 7.61382 12.6687C7.53378 12.9886 7.49376 13.3086 7.48042 13.6152C8.56099 12.8287 9.89503 12.2154 11.3625 11.8154C12.99 11.3621 14.7909 12.4554 16.5785 12.482L16.5519 12.4687Z" fill="black"/>
<path d="M2.83798 20.7612C3.10478 21.2944 3.38493 21.8544 3.69176 22.4277C3.82516 22.681 3.95857 22.9209 4.10531 23.1742C4.22537 23.3742 4.34544 23.5875 4.4655 23.7875C4.77233 24.3075 5.10584 24.8407 5.46603 25.3874C5.51939 25.4673 5.59943 25.494 5.67947 25.5073C5.67947 25.5073 5.69281 25.5073 5.70615 25.5073C5.75951 25.5073 5.81288 25.494 5.86624 25.4673L8.62769 23.6675H8.65437C8.65437 23.6675 8.69439 23.6275 8.70773 23.6142L9.82832 22.8809C9.82832 22.8809 9.90837 22.7876 9.92171 22.7343C9.92171 22.721 9.94839 22.7076 9.94839 22.6943C9.94839 22.6276 9.94839 22.561 9.90837 22.4943C9.90837 22.4943 9.90837 22.4943 9.90837 22.481L8.80112 20.8545L6.03966 16.7483L0.610135 8.72242C0.543434 8.6291 0.42337 8.57577 0.316647 8.60244C0.209925 8.6291 0.116542 8.70909 0.0898614 8.82908C0.0898614 8.89574 -0.216967 10.5089 0.303307 13.3619C0.623476 15.1484 1.34386 17.6815 2.83798 20.7612Z" fill="black"/>
<path d="M6.63998 29.6936C6.21309 28.8137 6.07968 27.8671 6.23977 26.9739C6.01298 27.0538 5.78619 27.1205 5.54607 27.1205C4.89239 27.1205 4.30541 26.8139 3.94523 26.2806C3.18482 25.1474 2.54449 24.0808 1.97085 23.0409C1.15709 25.6673 0.876943 28.7337 0.596795 32H8.8945C7.90731 31.4534 7.10689 30.6535 6.63998 29.6936Z" fill="black"/>
<path d="M24.7829 14.9484C23.8624 14.2285 22.6884 13.6686 21.3944 13.2686C20.7407 15.3751 18.7397 19.3347 16.3651 19.3347C13.9905 19.3347 11.9761 15.3751 11.3358 13.2686C10.0284 13.6686 8.86782 14.2285 7.94733 14.9484L7.5738 15.2417V16.7749C8.76109 18.2148 12.9099 22.9209 16.3651 22.9209C19.8203 22.9209 24.476 18.0015 25.7567 16.5483L25.1831 15.2417L24.8095 14.9484H24.7829Z" fill="black"/>
<path d="M25.8634 16.6416C25.0764 18.3214 22.2882 23.7075 18.4195 25.0941L25.9435 28.2937C26.2903 28.4537 26.5305 28.787 26.5305 29.187C26.5305 29.7202 26.0902 30.1602 25.5433 30.1602C25.4099 30.1602 25.2765 30.1335 25.1697 30.0802L16.7386 26.1073C16.5919 26.054 16.4585 26.014 16.3117 26.014C16.0049 26.014 15.7381 26.1473 15.578 26.3739C15.2578 26.0939 14.8843 25.8406 14.4708 25.6673L12.7765 24.9474C12.2296 24.7208 11.6693 24.6141 11.1357 24.6141C10.4953 24.6141 9.89503 24.7741 9.37475 25.0541L9.30805 25.0941C8.81446 25.3874 8.4009 25.8006 8.16078 26.3206L8.02738 26.6139C7.46708 27.8404 7.96067 29.2803 9.0946 30.2135L11.2291 31.9867H32V30.8668C31.453 24.7074 30.6926 19.348 25.8501 16.6283L25.8634 16.6416Z" fill="black"/>
</g>
<defs>
<clipPath id="clip0_776_22">
<rect width="32" height="32" fill="white"/>
</clipPath>
</defs>
</svg>
