<svg width="32" height="32" viewBox="0 0 32 32" fill="none" xmlns="http://www.w3.org/2000/svg">
<path fill-rule="evenodd" clip-rule="evenodd" d="M19.1947 15.3517L5.31257 1.26463C4.96462 0.911791 4.39363 0.911791 4.03676 1.26463L2.76096 2.56131C2.41301 2.91414 2.41301 3.49632 2.76096 3.84916L14.7339 15.9956L2.76096 28.142C2.41301 28.4949 2.41301 29.077 2.76096 29.4387L4.03676 30.7354C4.38471 31.0882 4.9557 31.0882 5.31257 30.7354L19.1947 16.6395C19.5427 16.2867 19.5427 15.7045 19.1947 15.3517Z" fill="black"/>
<path fill-rule="evenodd" clip-rule="evenodd" d="M31.239 15.3517L17.3569 1.26463C17.0089 0.911791 16.4379 0.911791 16.0811 1.26463L14.8053 2.56131C14.4573 2.91414 14.4573 3.49632 14.8053 3.84916L26.7782 15.9956L14.8053 28.142C14.4573 28.4949 14.4573 29.077 14.8053 29.4387L16.0811 30.7354C16.429 31.0882 17 31.0882 17.3569 30.7354L31.239 16.6395C31.587 16.2867 31.587 15.7045 31.239 15.3517Z" fill="black"/>
</svg>
