<svg width="32" height="32" viewBox="0 0 32 32" fill="none" xmlns="http://www.w3.org/2000/svg">
<g clip-path="url(#clip0_587_37)">
<path d="M31.6768 5.1312L27.9023 0.573095C27.9023 0.573095 27.8623 0.546439 27.8489 0.533111C27.7689 0.453145 27.6755 0.386506 27.5822 0.319867C27.5021 0.266556 27.4355 0.199917 27.3421 0.159933C27.2487 0.11995 27.142 0.0932945 27.0353 0.0666389C26.9553 0.0399833 26.8753 0 26.7819 0C26.7552 0 26.7419 0 26.7152 0C26.6885 0 26.6752 0 26.6485 0C26.5685 0 26.4885 0.0399833 26.4085 0.0533111C26.3018 0.0666389 26.1817 0.0799667 26.075 0.11995C25.9683 0.159933 25.8883 0.226572 25.7816 0.279883C25.7149 0.319867 25.6349 0.346522 25.5682 0.399833L21.1268 4.29154C20.4599 4.87797 20.3799 5.90421 20.9667 6.58392C21.5536 7.26364 22.5672 7.33028 23.2474 6.74386L24.7546 5.42441C23.1541 18.5789 13.4043 28.748 1.61385 28.748C0.72023 28.748 0 29.481 0 30.374C0 31.267 0.72023 32 1.61385 32C15.0582 32 26.1951 20.5781 27.9823 5.81091L29.156 7.23698C29.4761 7.62349 29.9296 7.82341 30.3964 7.82341C30.7565 7.82341 31.13 7.70346 31.4234 7.45023C32.1036 6.87713 32.197 5.8509 31.6235 5.17118L31.6768 5.1312Z" fill="black"/>
</g>
<defs>
<clipPath id="clip0_587_37">
<rect width="32" height="32" fill="white"/>
</clipPath>
</defs>
</svg>
