<svg width="32" height="32" viewBox="0 0 32 32" fill="none" xmlns="http://www.w3.org/2000/svg">
<path d="M28 8C30.2091 8 32 6.20914 32 4C32 1.79086 30.2091 0 28 0C25.7909 0 24 1.79086 24 4C24 6.20914 25.7909 8 28 8Z" fill="black"/>
<path d="M31.9733 10.907C31.9334 10.1649 31.187 9.50375 30.454 9.66567C30.294 9.69265 30.1474 9.73313 30.0275 9.81409C30.0275 9.81409 30.0142 9.81409 30.0008 9.81409L16.8463 17.3838C16.3265 17.6807 15.6735 17.6807 15.1537 17.3838L2.66556 10.2189V7.08846C2.66556 6.31934 3.27863 5.69865 4.03832 5.69865H20.6714C21.4044 5.69865 22.0042 5.09145 22.0042 4.34933C22.0042 3.6072 21.4044 3 20.6714 3H4.03832C1.81258 3 0 4.83508 0 7.08846V25.9115C0 28.1649 1.81258 30 4.03832 30H27.9617C30.1874 30 32 28.1649 32 25.9115V10.988C32 10.988 32 10.9475 31.9867 10.9205L31.9733 10.907ZM27.9484 27.2879H4.03832C3.27863 27.2879 2.66556 26.6672 2.66556 25.8981V13.3088L13.8342 19.7316C14.5006 20.1094 15.247 20.2983 15.9933 20.2983C16.7397 20.2983 17.486 20.1094 18.1524 19.7181L29.3211 13.2954V25.8846C29.3211 26.6537 28.708 27.2744 27.9484 27.2744V27.2879Z" fill="black"/>
</svg>
