<svg width="32" height="32" viewBox="0 0 32 32" fill="none" xmlns="http://www.w3.org/2000/svg">
<path d="M29.811 25.7229C30.0497 25.9616 30.0497 26.3496 29.811 26.5883L26.5783 29.821C26.3396 30.0597 25.9517 30.0597 25.713 29.821L15.9851 20.0931L6.25719 29.821C6.01847 30.0597 5.63055 30.0597 5.39183 29.821L2.17904 26.5883C1.94032 26.3496 1.94032 25.9616 2.17904 25.7229L11.9069 15.995L2.17904 6.26714C1.94032 6.02842 1.94032 5.6405 2.17904 5.40178L5.40178 2.17904C5.6405 1.94032 6.02842 1.94032 6.26714 2.17904L15.995 11.9069L25.7229 2.17904C25.9616 1.94032 26.3496 1.94032 26.5883 2.17904L29.821 5.41172C30.0597 5.65044 30.0597 6.03837 29.821 6.27709L20.0931 16.005L29.821 25.7329L29.811 25.7229Z" fill="black"/>
</svg>
