<svg width="32" height="32" viewBox="0 0 32 32" fill="none" xmlns="http://www.w3.org/2000/svg">
<g clip-path="url(#clip0_24_2141)">
<path d="M28.643 25.3545H22.9251C23.4849 24.0334 23.1916 22.4987 22.1787 21.4846L14.4614 13.7581C13.1153 12.4103 11.3026 11.6497 9.38328 11.6497H1.09294C0.493155 11.6497 0 12.1435 0 12.744V23.2994C0 23.8999 0.493155 24.3937 1.09294 24.3937H4.79827C5.23811 24.3937 5.67795 24.5405 6.05115 24.8207L14.6214 30.8791C15.5944 31.5997 16.7939 32 18.0068 32H28.6297C30.4557 32 31.9485 30.5054 31.9485 28.6772C31.9485 26.849 30.4557 25.3545 28.6297 25.3545H28.643ZM28.6563 29.9316H18.0335C17.2604 29.9316 16.5007 29.6647 15.8743 29.1977L7.30403 23.1393C6.74423 22.7256 6.07781 22.4454 5.38472 22.352V13.7448H9.40994C10.7694 13.7448 12.049 14.2786 13.0086 15.2394L20.7259 22.9658C21.2857 23.5129 21.2857 24.4337 20.7259 24.9942C20.4593 25.261 20.1261 25.3411 19.8995 25.3545C19.433 25.3945 18.9265 25.221 18.5533 24.8741L14.8746 21.578C14.4481 21.191 13.7817 21.231 13.3952 21.6714C13.2086 21.8849 13.1153 22.1384 13.1286 22.4187C13.1419 22.6989 13.2619 22.9525 13.4751 23.1393L17.1538 26.422C17.8735 27.0892 18.8065 27.4495 19.7662 27.4495C19.8595 27.4495 19.9395 27.4495 20.0061 27.4495H28.6563C29.3361 27.4495 29.8959 28.01 29.8959 28.6906C29.8959 29.3711 29.3361 29.9316 28.6563 29.9316ZM16.5674 6.63219C16.3008 6.3653 16.2075 5.99166 16.3274 5.63136C16.4474 5.27106 16.7406 5.01751 17.1272 4.96414L21.3656 4.35029L23.2583 0.507089C23.4182 0.186822 23.7514 0 24.138 0C24.5245 0 24.8577 0.186822 25.0176 0.507089L26.9103 4.35029L31.1488 4.96414C31.522 5.03086 31.8285 5.2844 31.9485 5.63136C32.0684 5.99166 31.9751 6.37865 31.7086 6.63219L28.643 9.62135L29.3627 13.8515C29.4294 14.2118 29.2694 14.5988 28.9762 14.8123C28.6697 15.0259 28.2565 15.0659 27.9366 14.8924L24.138 12.9041L20.3393 14.8924C20.206 14.9725 20.0461 15.0125 19.8862 15.0125C19.6862 15.0125 19.4863 14.9458 19.313 14.8257C19.0065 14.6122 18.8599 14.2252 18.9265 13.8649L19.6462 9.6347L16.5807 6.64554L16.5674 6.63219Z" fill="black"/>
</g>
<defs>
<clipPath id="clip0_24_2141">
<rect width="32" height="32" fill="white"/>
</clipPath>
</defs>
</svg>
