<svg width="32" height="32" viewBox="0 0 32 32" fill="none" xmlns="http://www.w3.org/2000/svg">
<g clip-path="url(#clip0_24_2135)">
<path d="M16 4.00225C16.5778 4.00225 17.0578 3.52451 17.0578 2.92958V1.07268C17.0578 0.486761 16.5867 0 16 0C15.4133 0 14.9422 0.477746 14.9422 1.07268V2.93859C14.9422 3.52451 15.4133 4.01127 16 4.01127V4.00225Z" fill="black"/>
<path d="M2.88889 17.298C3.46667 17.298 3.94667 16.8203 3.94667 16.2254C3.94667 15.6304 3.47556 15.1527 2.88889 15.1527H1.05778C0.48 15.1527 0 15.6304 0 16.2254C0 16.8203 0.471111 17.298 1.05778 17.298H2.89778H2.88889Z" fill="black"/>
<path d="M30.9422 15.1527H29.1022C28.5244 15.1527 28.0444 15.6304 28.0444 16.2254C28.0444 16.8203 28.5156 17.298 29.1022 17.298H30.9422C31.52 17.298 32 16.8203 32 16.2254C32 15.6304 31.5289 15.1527 30.9422 15.1527Z" fill="black"/>
<path d="M8.53333 5.2462C8.72889 5.58873 9.08444 5.77803 9.44889 5.77803C9.62667 5.77803 9.81333 5.73296 9.97333 5.6338C10.48 5.33634 10.6489 4.68732 10.3556 4.17352L9.44 2.56C9.14667 2.0462 8.50667 1.87493 8 2.17239C7.49333 2.46986 7.32444 3.11887 7.61778 3.63268L8.53333 5.2462Z" fill="black"/>
<path d="M27.3511 10.6456C27.5289 10.6456 27.7156 10.6006 27.8756 10.5014L29.4667 9.57296C29.9733 9.27549 30.1422 8.62648 29.8489 8.11268C29.5556 7.59887 28.9156 7.42761 28.4089 7.72507L26.8178 8.65352C26.3111 8.95099 26.1422 9.6 26.4356 10.1138C26.6311 10.4563 26.9867 10.6456 27.3511 10.6456Z" fill="black"/>
<path d="M2.53333 9.57296L4.12444 10.5014C4.29333 10.6006 4.47111 10.6456 4.64889 10.6456C5.01333 10.6456 5.36889 10.4563 5.56444 10.1138C5.85778 9.6 5.68 8.95099 5.18222 8.65352L3.59111 7.72507C3.08444 7.42761 2.44444 7.60789 2.15111 8.11268C1.85778 8.62648 2.03556 9.27549 2.53333 9.57296Z" fill="black"/>
<path d="M22.0267 5.6338C22.1956 5.73296 22.3733 5.77803 22.5511 5.77803C22.9156 5.77803 23.2711 5.58873 23.4667 5.2462L24.3822 3.63268C24.6756 3.11887 24.4978 2.46986 24 2.17239C23.4933 1.87493 22.8533 2.05521 22.56 2.56L21.6444 4.17352C21.3511 4.68732 21.5289 5.33634 22.0267 5.6338Z" fill="black"/>
<path d="M25.1644 21.4355C26.0444 19.849 26.5244 18.0552 26.5244 16.2254C26.5244 10.3392 21.8044 5.55268 16 5.55268C10.1956 5.55268 5.47556 10.3392 5.47556 16.2254C5.47556 18.0642 5.95556 19.849 6.83556 21.4355H1.40444C0.826667 21.4355 0.346667 21.9132 0.346667 22.5082C0.346667 23.1031 0.817778 23.5808 1.40444 23.5808H30.6044C31.1822 23.5808 31.6622 23.1031 31.6622 22.5082C31.6622 21.9132 31.1911 21.4355 30.6044 21.4355H25.1644ZM7.58222 16.2254C7.58222 11.52 11.36 7.68901 16 7.68901C20.64 7.68901 24.4178 11.52 24.4178 16.2254C24.4178 18.1183 23.7867 19.9482 22.6489 21.4355H9.36889C8.23111 19.9392 7.6 18.1093 7.6 16.2254H7.58222Z" fill="black"/>
<path d="M27.5289 25.6451H4.47111C3.89333 25.6451 3.41333 26.1228 3.41333 26.7177C3.41333 27.3127 3.88444 27.7904 4.47111 27.7904H27.5289C28.1067 27.7904 28.5867 27.3127 28.5867 26.7177C28.5867 26.1228 28.1156 25.6451 27.5289 25.6451Z" fill="black"/>
<path d="M24.24 29.8546H7.76C7.18222 29.8546 6.70222 30.3324 6.70222 30.9273C6.70222 31.5223 7.17333 32 7.76 32H24.2311C24.8089 32 25.2889 31.5223 25.2889 30.9273C25.2889 30.3324 24.8178 29.8546 24.2311 29.8546H24.24Z" fill="black"/>
</g>
<defs>
<clipPath id="clip0_24_2135">
<rect width="32" height="32" fill="white"/>
</clipPath>
</defs>
</svg>
