<svg width="32" height="32" viewBox="0 0 32 32" fill="none" xmlns="http://www.w3.org/2000/svg">
<g clip-path="url(#clip0_397_88)">
<path d="M16 0C7.16444 0 0 7.16444 0 16C0 24.8356 7.16444 32 16 32C24.8356 32 32 24.8356 32 16C32 7.16444 24.8356 0 16 0ZM24.6489 18.08C24.6756 18.2756 24.6756 18.4978 24.6489 18.72C24.6489 22.0444 20.8089 24.7111 16.0711 24.7111C11.3333 24.7111 7.49333 22.0178 7.49333 18.72C7.46667 18.5244 7.46667 18.3022 7.49333 18.08C7.27111 17.9822 7.07556 17.84 6.90667 17.6889C6.02667 16.88 6 15.5111 6.80889 14.6578C7.61778 13.7778 8.98667 13.7511 9.84 14.56C11.5556 13.4133 13.5289 12.7733 15.5822 12.7467L16.6578 7.63556C16.7111 7.38667 16.9511 7.24444 17.2 7.28889L20.7911 8C21.0133 7.60889 21.4311 7.34222 21.8933 7.28889C22.7022 7.19111 23.4133 7.77778 23.5111 8.58667C23.6089 9.39556 23.0222 10.1067 22.2133 10.2044C21.4044 10.3022 20.6933 9.71556 20.5956 8.90667L17.44 8.26667L16.4889 12.8356C18.5156 12.88 20.4978 13.4933 22.16 14.6489C22.5244 14.3022 23.0133 14.0889 23.5556 14.0622C24.7556 14.0356 25.7333 14.9689 25.7778 16.1422C25.8044 16.9778 25.3333 17.7333 24.6489 18.0711V18.08Z" fill="black"/>
<path d="M19.3511 16.2489C18.5422 16.2489 17.8844 16.9067 17.8844 17.7156C17.8844 18.5244 18.5422 19.1822 19.3511 19.1822L19.3244 19.2356H19.3956C20.2311 19.2089 20.8356 18.5244 20.8178 17.7156C20.8178 16.9067 20.16 16.2489 19.3511 16.2489Z" fill="black"/>
<path d="M19.0578 21.1644C18.1511 21.8222 17.0756 22.1156 15.9733 22.0711C14.8711 22.1156 13.7956 21.7778 12.9156 21.1378C12.7467 21.0133 12.5511 21.0133 12.4 21.1378C12.2311 21.2889 12.2044 21.5289 12.3467 21.6978C13.3778 22.48 14.6667 22.8711 15.9644 22.8267C17.2622 22.8978 18.5333 22.48 19.5822 21.6978H19.6356V21.7511C19.7778 21.5822 19.7778 21.3333 19.6356 21.1644C19.4667 21.0133 19.2178 21.0133 19.0489 21.1644H19.0578Z" fill="black"/>
<path d="M13.9733 17.6444C13.9733 16.8356 13.3156 16.1778 12.5067 16.1778C11.6978 16.1778 11.04 16.8356 11.04 17.6444C11.04 18.4533 11.6978 19.1111 12.5067 19.1111C13.3156 19.1111 13.9733 18.4533 13.9733 17.6444Z" fill="black"/>
</g>
<defs>
<clipPath id="clip0_397_88">
<rect width="32" height="32" fill="white"/>
</clipPath>
</defs>
</svg>
