<svg width="32" height="32" viewBox="0 0 32 32" fill="none" xmlns="http://www.w3.org/2000/svg">
<g clip-path="url(#clip0_77_141)">
<path d="M8.79111 9.52889C8.40889 9.52889 8.10667 9.84 8.10667 10.2133V10.9867L15.5911 16C15.8489 16.1333 16.1689 16.1333 16.4267 16L23.9111 10.9867V10.2133C23.9111 9.83111 23.6 9.52889 23.2267 9.52889H8.79111Z" fill="black"/>
<path d="M16 0C7.16444 0 0 7.16444 0 16C0 24.8356 7.16444 32 16 32C24.8356 32 32 24.8356 32 16C32 7.16444 24.8356 0 16 0ZM25.7778 11.5022V17.5644C25.7778 18.08 25.36 18.5067 24.8356 18.5067C24.3111 18.5067 23.8933 18.0889 23.8933 17.5644V13.2622L17.4222 17.6C17.4222 17.6 17.3867 17.6267 17.36 17.6356C16.9422 17.8756 16.4622 17.9911 15.9911 17.9911C15.52 17.9911 15.0489 17.8756 14.6222 17.6356C14.6044 17.6267 14.5778 17.6089 14.56 17.6L8.08889 13.2622V20.8889C8.08889 21.2711 8.4 21.5822 8.77333 21.5822H22.2489L21.04 20.56C20.64 20.2222 20.5956 19.6356 20.9244 19.2356C21.2622 18.8356 21.8489 18.7911 22.2489 19.12L25.4222 21.7956C25.6356 21.9733 25.76 22.24 25.76 22.5156C25.76 22.7911 25.6356 23.0578 25.4222 23.2356L22.2489 25.9111C22.0711 26.0622 21.8578 26.1333 21.6444 26.1333C21.3778 26.1333 21.1111 26.0178 20.9244 25.7956C20.5867 25.3956 20.64 24.8089 21.04 24.4711L22.2489 23.4489H8.77333C7.36 23.4489 6.20444 22.2933 6.20444 20.88V10.2133C6.20444 8.8 7.36 7.64444 8.77333 7.64444H23.1911C24.6044 7.64444 25.76 8.8 25.76 10.2133V11.4933L25.7778 11.5022Z" fill="black"/>
</g>
<defs>
<clipPath id="clip0_77_141">
<rect width="32" height="32" fill="white"/>
</clipPath>
</defs>
</svg>
