<svg width="32" height="32" viewBox="0 0 32 32" fill="none" xmlns="http://www.w3.org/2000/svg">
<g clip-path="url(#clip0_1309_31)">
<path d="M16 0C7.16 0 0 7.16 0 16C0 24.84 7.16 32 16 32C24.84 32 32 24.84 32 16C32 7.16 24.84 0 16 0ZM16 29.4C8.61 29.4 2.6 23.39 2.6 16C2.6 8.61 8.61 2.6 16 2.6C23.39 2.6 29.4 8.61 29.4 16C29.4 23.39 23.39 29.4 16 29.4ZM23.49 10.73L18.22 16L23.49 21.27C23.62 21.4 23.62 21.61 23.49 21.74L21.74 23.49C21.61 23.62 21.4 23.62 21.27 23.49L16 18.22L10.73 23.49C10.6 23.62 10.39 23.62 10.26 23.49L8.51 21.74C8.38 21.61 8.38 21.4 8.51 21.27L13.78 16L8.51 10.73C8.38 10.6 8.38 10.39 8.51 10.26L10.26 8.51C10.39 8.38 10.6 8.38 10.73 8.51L16 13.78L21.27 8.51C21.4 8.38 21.61 8.38 21.74 8.51L23.49 10.26C23.62 10.39 23.62 10.6 23.49 10.73Z" fill="black"/>
</g>
<defs>
<clipPath id="clip0_1309_31">
<rect width="32" height="32" fill="white"/>
</clipPath>
</defs>
</svg>
