<svg width="32" height="32" viewBox="0 0 32 32" fill="none" xmlns="http://www.w3.org/2000/svg">
<path d="M31.3156 8.42663C30.9422 7.05774 29.8933 5.99996 28.4889 5.63552C26 4.95996 15.9822 4.95996 15.9822 4.95996C15.9822 4.95996 5.98222 4.95996 3.50222 5.63552C2.12444 5.99996 1.04889 7.05774 0.657778 8.42663C0 10.8533 0 15.9733 0 15.9733C0 15.9733 0 21.1289 0.657778 23.5733C1.04889 24.9066 2.12444 25.9911 3.50222 26.3644C5.97333 27.0222 15.9822 27.0222 15.9822 27.0222C15.9822 27.0222 26.0089 27.0222 28.4889 26.3644C29.8933 25.9911 30.9422 24.9066 31.3156 23.5733C32 21.12 32 15.9733 32 15.9733C32 15.9733 32 10.8533 31.3156 8.42663ZM12.6933 20.6933V11.3155L20.9689 16.0089L12.6933 20.7022V20.6933Z" fill="black"/>
</svg>
