<svg width="32" height="32" viewBox="0 0 32 32" fill="none" xmlns="http://www.w3.org/2000/svg">
<path d="M16.4219 0.00888828C7.65459 0.00888828 3 5.62628 3 11.7592C3 14.6034 4.59002 18.141 7.13051 19.2698C7.51247 19.4476 7.72566 19.3676 7.81449 19.012C7.89443 18.7365 8.22309 17.4299 8.38299 16.8077C8.43628 16.6122 8.40963 16.4344 8.24974 16.2478C7.40588 15.2701 6.73967 13.4924 6.73967 11.8303C6.73967 7.55504 10.1329 3.40421 15.9156 3.40421C20.9166 3.40421 24.4076 6.64844 24.4076 11.297C24.4076 16.55 21.6273 20.1764 18.0208 20.1764C16.0222 20.1764 14.5388 18.6121 15.0096 16.6655C15.5781 14.3546 16.6973 11.8747 16.6973 10.2037C16.6973 8.71052 15.8534 7.47505 14.1302 7.47505C12.096 7.47505 10.4527 9.49269 10.4527 12.1947C10.4527 13.9102 11.0567 15.0745 11.0567 15.0745C11.0567 15.0745 9.0492 23.1984 8.67612 24.7183C8.04544 27.287 8.76495 31.4467 8.82713 31.8112C8.86266 32.0067 9.08473 32.0689 9.20909 31.9089C9.40451 31.6512 11.8384 28.1759 12.5224 25.6694C12.7711 24.7539 13.7837 21.0475 13.7837 21.0475C14.4499 22.2563 16.3864 23.2695 18.4472 23.2695C24.5675 23.2695 29 17.8832 29 11.1992C28.9822 4.79078 23.5015 0 16.4397 0L16.4219 0.00888828Z" fill="black"/>
</svg>
