<svg width="32" height="32" viewBox="0 0 32 32" fill="none" xmlns="http://www.w3.org/2000/svg">
<path d="M29.5 15.9935C29.5 17.682 29.223 19.2791 28.669 20.7848C28.1151 22.2905 27.3395 23.6483 26.3423 24.8581C25.3452 26.0679 24.1776 27.0775 22.8395 27.8869C21.5014 28.6964 20.0483 29.249 18.4801 29.545L18.4801 30.968C18.4801 31.3161 18.3949 31.5773 18.2244 31.7513C18.0625 31.9254 17.858 32.0081 17.6108 31.9994C17.3722 31.9907 17.1293 31.8949 16.8821 31.7122L12.6506 28.4744C12.3778 28.2742 12.2415 28.0218 12.2415 27.7172C12.2415 27.4213 12.3778 27.1689 12.6506 26.96L16.8949 23.7353C17.1335 23.5525 17.3722 23.4568 17.6108 23.4481C17.858 23.4481 18.0625 23.5308 18.2244 23.6962C18.3949 23.8702 18.4801 24.127 18.4801 24.4664V26.007C19.5795 25.7371 20.5938 25.2889 21.5227 24.6623C22.4602 24.0443 23.2741 23.2914 23.9645 22.4037C24.6548 21.5246 25.1875 20.5411 25.5625 19.4532C25.946 18.3652 26.1378 17.212 26.1378 15.9935C26.1378 14.714 25.9119 13.4999 25.4602 12.351C25.017 11.2108 24.4034 10.2056 23.6193 9.33522C23.2614 8.83912 23.1165 8.37348 23.1847 7.9383C23.2528 7.51182 23.4361 7.16803 23.7344 6.90692C24.0582 6.611 24.4588 6.46304 24.9361 6.46304C25.4219 6.46304 25.8395 6.69368 26.1889 7.15497C27.2202 8.32126 28.0298 9.66161 28.6179 11.176C29.206 12.6905 29.5 14.2963 29.5 15.9935ZM2.5 15.9935C2.5 14.3137 2.78125 12.7209 3.34375 11.2152C3.89773 9.70948 4.6733 8.35172 5.67045 7.14192C6.66761 5.93212 7.83097 4.9225 9.16051 4.11307C10.4986 3.30364 11.956 2.75096 13.5327 2.45503V1.032C13.5327 0.683854 13.6136 0.422746 13.7756 0.248674C13.9375 0.0746022 14.142 -0.00808192 14.3892 0.000621687C14.6364 0.00932529 14.8793 0.105065 15.1179 0.28784L19.3622 3.52558C19.6349 3.72576 19.7713 3.97381 19.7713 4.26973C19.7713 4.57436 19.6349 4.83112 19.3622 5.04L15.1179 8.26468C14.8793 8.44746 14.6364 8.53885 14.3892 8.53885C14.142 8.54755 13.9375 8.46487 13.7756 8.29079C13.6136 8.12543 13.5327 7.87302 13.5327 7.53358V5.99304C12.4332 6.26286 11.4148 6.70674 10.4773 7.32469C9.5483 7.95135 8.73864 8.70421 8.0483 9.58328C7.35795 10.471 6.82102 11.4589 6.4375 12.5468C6.05398 13.6348 5.86222 14.7837 5.86222 15.9935C5.86222 17.2816 6.08807 18.4958 6.53977 19.6359C6.99148 20.7848 7.60938 21.7944 8.39347 22.6648C8.75142 23.1609 8.89205 23.6222 8.81534 24.0486C8.74716 24.4838 8.56818 24.832 8.27841 25.0931C7.95455 25.389 7.54972 25.537 7.06392 25.537C6.58665 25.537 6.16903 25.3063 5.81108 24.845C4.78835 23.6787 3.98295 22.3384 3.39489 20.824C2.7983 19.3095 2.5 17.6994 2.5 15.9935Z" fill="black"/>
</svg>
