<svg width="32" height="32" viewBox="0 0 32 32" fill="none" xmlns="http://www.w3.org/2000/svg">
<g clip-path="url(#clip0_24_85)">
<path d="M15.0805 10.8242C14.5526 10.8242 14.1206 11.2562 14.1206 11.7841V22.983C14.1206 23.511 14.5526 23.9429 15.0805 23.9429C15.6085 23.9429 16.0404 23.511 16.0404 22.983V11.7841C16.0404 11.2562 15.6085 10.8242 15.0805 10.8242Z" fill="black"/>
<path d="M10.497 15.7517C9.60105 15.7517 8.86512 16.4877 8.86512 17.3836C8.86512 18.2795 9.60105 19.0154 10.497 19.0154C11.3929 19.0154 12.1288 18.2795 12.1288 17.3836C12.1288 16.4877 11.3929 15.7517 10.497 15.7517Z" fill="black"/>
<path d="M19.6721 15.7517C18.7761 15.7517 18.0402 16.4877 18.0402 17.3836C18.0402 18.2795 18.7761 19.0154 19.6721 19.0154C20.568 19.0154 21.3039 18.2795 21.3039 17.3836C21.3039 16.4877 20.568 15.7517 19.6721 15.7517Z" fill="black"/>
<path d="M31.9828 1.39315C32.0948 0.737219 31.6469 0.12128 30.9909 0.0172901C30.343 -0.0946988 29.7191 0.353257 29.6151 1.00919C29.4231 2.16108 28.8871 3.03299 28.2152 3.70493C28.0712 3.56894 27.8872 3.46495 27.6873 3.41695L16.9763 0.881205C16.5684 0.785214 16.1444 0.905202 15.8484 1.20117L0.353965 16.6956C-0.117988 17.1676 -0.117988 17.9275 0.353965 18.3915L13.6007 31.6382C13.8326 31.8701 14.1446 31.9901 14.4486 31.9901C14.7525 31.9901 15.0645 31.8701 15.2965 31.6382L30.799 16.1357C31.0949 15.8397 31.2149 15.4158 31.1189 15.0078L29.0231 6.16068C30.383 5.14478 31.6069 3.63293 31.9828 1.38515V1.39315ZM28.6312 14.9118L14.4486 29.0944L2.89771 17.5436L17.0803 3.36096L25.4955 5.36076C24.7356 5.63273 24.1516 5.73672 24.0876 5.74472C23.4317 5.84871 22.9837 6.45665 23.0877 7.11259C23.1757 7.70453 23.6877 8.12849 24.2716 8.12849C24.3356 8.12849 24.3916 8.12849 24.4556 8.11249C24.5596 8.09649 25.5835 7.92851 26.8473 7.39256L28.6312 14.9038V14.9118Z" fill="black"/>
</g>
<defs>
<clipPath id="clip0_24_85">
<rect width="32" height="32" fill="white"/>
</clipPath>
</defs>
</svg>
