<svg width="32" height="32" viewBox="0 0 32 32" fill="none" xmlns="http://www.w3.org/2000/svg">
<g clip-path="url(#clip0_139_470)">
<path d="M31.1716 14.0095L27.4085 10.2427C25.8609 8.69365 26.8067 7.05852 28.4931 6.95922C31.2708 6.7871 32.8317 3.82136 30.5632 1.35212C28.0963 -0.911898 25.1466 0.64379 24.9747 3.41755C24.8689 5.10563 23.2221 6.05891 21.6811 4.51646L17.9973 0.829148C16.8928 -0.276383 15.1005 -0.276383 13.9961 0.829148L10.266 4.5628C8.7184 6.11187 7.07823 5.15197 6.97241 3.46389C6.80045 0.68351 3.82433 -0.898658 1.35745 1.37198C-0.91764 3.84784 0.663015 6.82682 3.44074 6.99894C5.12721 7.10486 6.08618 8.75323 4.54521 10.3023L0.828356 14.0161C-0.276119 15.1216 -0.276119 16.9156 0.828356 18.0212L4.51214 21.7085C6.05973 23.2509 5.14044 24.8596 3.45396 24.9655C0.676243 25.1376 -0.877958 28.0967 1.39051 30.566C3.85739 32.8366 6.80045 31.2875 6.97241 28.5071C7.07823 26.8191 8.69195 25.8923 10.2395 27.4347L13.9564 31.1551C15.0807 32.2805 16.9193 32.2805 18.0436 31.1617L20.6494 28.5535L21.7671 27.4347C23.2287 25.9055 22.2829 24.2969 20.6163 24.1909C17.8386 24.0188 16.2645 21.0399 18.533 18.5706C20.9999 16.3 23.976 17.8821 24.148 20.6625C24.2538 22.3307 25.8543 23.2708 27.382 21.8078L28.3939 20.7949L31.1187 18.0675L31.132 18.0543L31.1716 18.0145C32.2761 16.909 32.2761 15.115 31.1716 14.0095Z" fill="url(#paint0_linear_139_470)"/>
</g>
<defs>
<linearGradient id="paint0_linear_139_470" x1="0" y1="0" x2="32" y2="32" gradientUnits="userSpaceOnUse">
<stop offset="0.2" stop-color="#9B95F0"/>
<stop offset="0.8" stop-color="#594FE6"/>
</linearGradient>
<clipPath id="clip0_139_470">
<rect width="32" height="32" fill="white"/>
</clipPath>
</defs>
</svg>
