<svg width="32" height="32" viewBox="0 0 32 32" fill="none" xmlns="http://www.w3.org/2000/svg">
<g clip-path="url(#clip0_24_2229)">
<path d="M29.4126 7.03111H24.9758V3.21778C24.9758 1.44889 23.5265 0 21.7483 0H7.03306V7.03111H2.59628C1.16477 7.03111 0 8.19556 0 9.62667V20.6044C0 22.0356 1.16477 23.2 2.59628 23.2H4.39233V32H27.6077V23.2H29.4037C30.8352 23.2 32 22.0356 32 20.6044V9.62667C32 8.19556 30.8352 7.03111 29.4037 7.03111H29.4126ZM9.14921 2.10667H21.7572C22.3707 2.10667 22.8686 2.60444 22.8686 3.21778V7.03111H9.14921V2.10667ZM25.5004 29.8933H6.50847V18.8089H25.5004V29.8933ZM29.9016 20.6044C29.9016 20.8711 29.6794 21.0933 29.4126 21.0933H27.6166V16.7022H4.40122V21.0933H2.60517C2.33843 21.0933 2.11614 20.8711 2.11614 20.6044V9.62667C2.11614 9.36 2.33843 9.13778 2.60517 9.13778H29.4215C29.6882 9.13778 29.9105 9.36 29.9105 9.62667V20.6044H29.9016Z" fill="black"/>
<path d="M8.09114 11.3244H5.4504C4.86357 11.3244 4.39233 11.7956 4.39233 12.3822C4.39233 12.9689 4.86357 13.44 5.4504 13.44H8.09114C8.67797 13.44 9.14921 12.9689 9.14921 12.3822C9.14921 11.7956 8.67797 11.3244 8.09114 11.3244Z" fill="black"/>
<path d="M10.1539 23.04H21.855C22.344 23.04 22.7441 22.64 22.7441 22.1511C22.7441 21.6622 22.344 21.2622 21.855 21.2622H10.1539C9.66491 21.2622 9.2648 21.6622 9.2648 22.1511C9.2648 22.64 9.66491 23.04 10.1539 23.04Z" fill="black"/>
<path d="M10.1539 26.9689H16.0044C16.4935 26.9689 16.8936 26.5689 16.8936 26.08C16.8936 25.5911 16.4935 25.1911 16.0044 25.1911H10.1539C9.66491 25.1911 9.2648 25.5911 9.2648 26.08C9.2648 26.5689 9.66491 26.9689 10.1539 26.9689Z" fill="black"/>
</g>
<defs>
<clipPath id="clip0_24_2229">
<rect width="32" height="32" fill="white"/>
</clipPath>
</defs>
</svg>
