<svg width="32" height="32" viewBox="0 0 32 32" fill="none" xmlns="http://www.w3.org/2000/svg">
<g clip-path="url(#clip0_77_130)">
<path d="M8.79111 9.52889C8.40889 9.52889 8.10667 9.84 8.10667 10.2222V10.9956L15.5911 16.0089C15.8489 16.1422 16.1689 16.1422 16.4267 16.0089L23.9111 10.9956V10.2222C23.9111 9.84 23.6 9.52889 23.2267 9.52889H8.79111Z" fill="black"/>
<path d="M27.9111 0H4.08889C1.83111 0 0 1.83111 0 4.08889V27.9111C0 30.1689 1.83111 32 4.08889 32H27.9111C30.1689 32 32 30.1689 32 27.9111V4.08889C32 1.83111 30.1689 0 27.9111 0ZM25.7778 11.5022V17.5644C25.7778 18.08 25.36 18.5067 24.8356 18.5067C24.3111 18.5067 23.8933 18.0889 23.8933 17.5644V13.2622L17.4222 17.6C17.4222 17.6 17.3867 17.6267 17.36 17.6356C16.9422 17.8756 16.4622 17.9911 15.9911 17.9911C15.52 17.9911 15.0489 17.8756 14.6222 17.6356C14.6044 17.6267 14.5778 17.6089 14.56 17.6L8.08889 13.2622V20.8889C8.08889 21.2711 8.4 21.5733 8.77333 21.5733H22.2489L21.04 20.5511C20.64 20.2133 20.5956 19.6267 20.9244 19.2267C21.2622 18.8267 21.8489 18.7822 22.2489 19.1111L25.4222 21.7867C25.6356 21.9644 25.76 22.2311 25.76 22.5067C25.76 22.7822 25.6356 23.0489 25.4222 23.2267L22.2489 25.9022C22.0711 26.0533 21.8578 26.1244 21.6444 26.1244C21.3778 26.1244 21.1111 26.0089 20.9244 25.7867C20.5867 25.3867 20.64 24.8 21.04 24.4622L22.2489 23.44H8.77333C7.36 23.44 6.20444 22.2844 6.20444 20.8711V10.2044C6.20444 8.79111 7.36 7.63556 8.77333 7.63556H23.1911C24.6044 7.63556 25.76 8.79111 25.76 10.2044V11.4844L25.7778 11.5022Z" fill="black"/>
</g>
<defs>
<clipPath id="clip0_77_130">
<rect width="32" height="32" fill="white"/>
</clipPath>
</defs>
</svg>
