<svg width="32" height="32" viewBox="0 0 32 32" fill="none" xmlns="http://www.w3.org/2000/svg">
<path fill-rule="evenodd" clip-rule="evenodd" d="M12.8053 15.3517L26.6874 1.26463C27.0354 0.911791 27.6064 0.911791 27.9632 1.26463L29.239 2.56131C29.587 2.91414 29.587 3.49632 29.239 3.84916L17.2661 15.9956L29.239 28.142C29.587 28.4949 29.587 29.077 29.239 29.4387L27.9632 30.7354C27.6153 31.0882 27.0443 31.0882 26.6874 30.7354L12.8053 16.6395C12.4573 16.2867 12.4573 15.7045 12.8053 15.3517Z" fill="black"/>
<path fill-rule="evenodd" clip-rule="evenodd" d="M0.76096 15.3517L14.6431 1.26463C14.9911 0.911791 15.5621 0.911791 15.9189 1.26463L17.1947 2.56131C17.5427 2.91414 17.5427 3.49632 17.1947 3.84916L5.22181 15.9956L17.1947 28.142C17.5427 28.4949 17.5427 29.077 17.1947 29.4387L15.9189 30.7354C15.571 31.0882 15 31.0882 14.6431 30.7354L0.76096 16.6395C0.413013 16.2867 0.413013 15.7045 0.76096 15.3517Z" fill="black"/>
</svg>
