<svg width="32" height="32" viewBox="0 0 32 32" fill="none" xmlns="http://www.w3.org/2000/svg">
<path d="M31.3431 23.9552L20.0345 3.27861C19.1246 1.75622 17.5648 1 16.005 1C14.4452 1 12.8854 1.75622 11.9755 3.27861L0.666928 23.9552C-1.19284 27.0597 1.05688 31 4.69642 31H27.3036C30.9431 31 33.1928 27.0697 31.3331 23.9552H31.3431ZM16.005 26.4527C14.8351 26.4527 13.8853 25.5075 13.8853 24.3433C13.8853 23.1791 14.8351 22.2338 16.005 22.2338C17.1749 22.2338 18.1247 23.1791 18.1247 24.3433C18.1247 25.5075 17.1749 26.4527 16.005 26.4527ZM17.9048 19.8856C17.8948 20.1542 17.6648 20.3731 17.3948 20.3731H14.6252C14.3552 20.3731 14.1252 20.1542 14.1152 19.8856L13.6953 10.0647C13.6853 9.77612 13.9153 9.52736 14.2052 9.52736H17.8248C18.1147 9.52736 18.3447 9.76617 18.3347 10.0647L17.9048 19.8856Z" fill="black"/>
</svg>
