<svg width="32" height="32" viewBox="0 0 32 32" fill="none" xmlns="http://www.w3.org/2000/svg">
<g clip-path="url(#clip0_24_2040)">
<path d="M27.3129 4.68706C24.3106 1.68471 20.2447 0 16 0C7.16235 0 0 7.16235 0 16C0 24.8376 7.16235 32 16 32C24.8376 32 32 24.8376 32 16C32 11.7553 30.3153 7.68941 27.3129 4.68706ZM25.1012 11.5671L13.8729 22.6824C13.7976 22.7576 13.7035 22.7953 13.6 22.7953C13.4965 22.7953 13.3929 22.7576 13.3271 22.6824L7.38824 16.8C7.32235 16.7247 7.28471 16.6306 7.28471 16.5271C7.28471 16.4235 7.33176 16.3294 7.39765 16.2541L9.6 14.08C9.67529 14.0047 9.76941 13.9671 9.87294 13.9671C9.97647 13.9671 10.08 14.0047 10.1459 14.08L13.6094 17.5059L22.3435 8.85647C22.4188 8.78118 22.5129 8.74353 22.6165 8.74353C22.72 8.74353 22.8235 8.78118 22.8894 8.85647L25.0918 11.0306C25.2424 11.1812 25.2424 11.4259 25.0918 11.5765L25.1012 11.5671Z" fill="black"/>
</g>
<defs>
<clipPath id="clip0_24_2040">
<rect width="32" height="32" fill="white"/>
</clipPath>
</defs>
</svg>
