<svg width="32" height="32" viewBox="0 0 32 32" fill="none" xmlns="http://www.w3.org/2000/svg">
<g clip-path="url(#clip0_209_21)">
<path d="M4.6875 4.6875C-1.5625 10.9375 -1.5625 21.0656 4.6875 27.3125C10.9375 33.5594 21.0669 33.5625 27.3125 27.3125C33.5581 21.0625 33.5625 10.9375 27.3125 4.6875C21.0625 -1.5625 10.9375 -1.5625 4.6875 4.6875ZM8.22313 8.22313C9.97941 6.46738 12.2777 5.35699 14.7447 5.07232C17.2117 4.78764 19.7025 5.3454 21.8125 6.655L6.655 21.8125C5.34572 19.7028 4.78802 17.2125 5.07246 14.7459C5.3569 12.2793 6.46678 9.98131 8.22188 8.225L8.22313 8.22313ZM23.7794 23.7794C22.0231 25.5345 19.7251 26.6443 17.2585 26.9288C14.7919 27.2132 12.3016 26.6555 10.1919 25.3463L25.345 10.1906C26.6543 12.3003 27.212 14.7906 26.9275 17.2572C26.6431 19.7238 25.5332 22.0218 23.7781 23.7781L23.7794 23.7794Z" fill="black"/>
</g>
<defs>
<clipPath id="clip0_209_21">
<rect width="32" height="32" fill="white"/>
</clipPath>
</defs>
</svg>
