<svg width="32" height="32" viewBox="0 0 32 32" fill="none" xmlns="http://www.w3.org/2000/svg">
<g clip-path="url(#clip0_782_49)">
<path d="M22.72 8.51763C22.2667 7.9309 21.4267 7.83756 20.8533 8.29094L15.0533 12.8247L13.4133 10.7179C12.96 10.1311 12.12 10.0378 11.5467 10.4912C10.96 10.9445 10.8667 11.7846 11.32 12.358L13.7867 15.5183C14.0533 15.8517 14.44 16.0251 14.84 16.0251C15.1333 16.0251 15.4133 15.9317 15.6533 15.745L22.5067 10.3978C23.0933 9.94444 23.1867 9.10435 22.7333 8.53096L22.72 8.51763Z" fill="black"/>
<path d="M28.9067 18.612V19.7321C28.9067 20.3855 28.3733 20.9189 27.72 20.9189H26.68L28.5733 5.51733C28.68 4.65057 28.44 3.79715 27.9067 3.10375C27.3733 2.41035 26.6 1.98364 25.7333 1.87696L10.6267 0.023438C8.84 -0.189917 7.21333 1.07688 6.98667 2.86372L4.77333 20.9189H4.26667C3.61333 20.9189 3.08 20.3855 3.08 19.7321V18.612H1.93333C0.866667 18.612 0 19.4787 0 20.5455V30.0665C0 31.1332 0.866667 32 1.93333 32H30.0667C31.1333 32 32 31.1332 32 30.0665V20.5455C32 19.4787 31.1333 18.612 30.0667 18.612H28.9067ZM9.62667 3.18376C9.66667 2.87706 9.92 2.6637 10.2133 2.6637C10.24 2.6637 10.2667 2.6637 10.28 2.6637L25.3867 4.51723C25.6 4.54389 25.7333 4.66391 25.7867 4.74391C25.84 4.81059 25.9333 4.9706 25.9067 5.18396L23.9733 20.9189H7.45333L9.62667 3.18376Z" fill="black"/>
</g>
<defs>
<clipPath id="clip0_782_49">
<rect width="32" height="32" fill="white"/>
</clipPath>
</defs>
</svg>
