<svg width="32" height="32" viewBox="0 0 32 32" fill="none" xmlns="http://www.w3.org/2000/svg">
<g clip-path="url(#clip0_24_2128)">
<path d="M31.7199 6.96L29.6132 6.36C27.6799 5.81333 26.1732 4.29333 25.6265 2.37333L25.0265 0.266667C24.9465 0.0666667 24.7065 -0.04 24.5065 0.0533333C24.4132 0.0933333 24.3332 0.173333 24.2932 0.266667L23.6932 2.37333C23.1465 4.30667 21.6399 5.81333 19.7065 6.36L17.5999 6.96C17.3999 7.01333 17.2799 7.22667 17.3332 7.44C17.3732 7.57333 17.4665 7.66667 17.5999 7.70667L19.7065 8.30667C21.6399 8.85333 23.1465 10.3733 23.6932 12.2933L24.2932 14.4C24.3465 14.6 24.5599 14.72 24.7732 14.6667C24.9065 14.6267 24.9999 14.5333 25.0399 14.4L25.6399 12.28C26.1865 10.3467 27.6932 8.84 29.6265 8.29333L31.7332 7.69333C31.9332 7.64 32.0532 7.42667 31.9999 7.21333C31.9599 7.08 31.8665 6.98667 31.7332 6.94667L31.7199 6.96Z" fill="black"/>
<path d="M18.3466 14.9467C17.2666 14.64 16.4265 13.8 16.1199 12.72L15.7865 11.5467C15.7332 11.4267 15.6132 11.3733 15.4932 11.4267C15.4399 11.4533 15.3999 11.4933 15.3732 11.5467L15.0399 12.72C14.7332 13.8 13.8932 14.64 12.8132 14.9467L11.6399 15.28C11.5199 15.3067 11.4532 15.4267 11.4932 15.5467C11.5199 15.6133 11.5732 15.68 11.6399 15.6933L12.8132 16.0267C13.8932 16.3333 14.7332 17.1733 15.0399 18.2533L15.3732 19.4267C15.3999 19.5467 15.5199 19.6133 15.6399 19.5733C15.7065 19.5467 15.7732 19.4933 15.7865 19.4267L16.1199 18.2533C16.4265 17.1733 17.2666 16.3333 18.3466 16.0267L19.5199 15.6933C19.6399 15.6667 19.7066 15.5467 19.6665 15.4267C19.6399 15.36 19.5865 15.2933 19.5199 15.28L18.3466 14.9467Z" fill="black"/>
<path d="M18.3599 22.7867C18.3599 22.7867 18.4132 22.8667 18.4532 22.88L19.2265 23.0933C19.9332 23.2933 20.4799 23.84 20.6799 24.5467L20.8932 25.32C20.9199 25.4 20.9865 25.44 21.0665 25.4133C21.1199 25.4 21.1465 25.36 21.1599 25.32L21.3866 24.5467C21.5866 23.84 22.1332 23.2933 22.8399 23.0933L23.6132 22.88C23.6932 22.8533 23.7332 22.7867 23.7066 22.7067C23.6932 22.6533 23.6532 22.6267 23.6132 22.6133L22.8399 22.4C22.1332 22.2 21.5866 21.6533 21.3866 20.9467L21.1732 20.1733C21.1465 20.0933 21.0532 20.0667 20.9865 20.0933C20.9465 20.1067 20.9199 20.1333 20.9065 20.1733L20.6932 20.9467C20.4932 21.6533 19.9466 22.2 19.2399 22.4L18.4665 22.6133C18.3865 22.64 18.3465 22.7067 18.3732 22.7867H18.3599Z" fill="black"/>
<path d="M29.1199 16.7067V28.5333C29.1199 30.4533 27.5732 32 25.6532 32H10.2132C9.87988 32 9.58655 31.8667 9.35988 31.6533L3.22655 25.52C3.01322 25.3067 2.87988 25 2.87988 24.6667V3.46667C2.87988 1.54667 4.42655 0 6.34655 0H18.8266C19.4932 0 20.0266 0.533333 20.0266 1.2C20.0266 1.86667 19.4932 2.4 18.8266 2.4H6.34655C5.75988 2.4 5.27988 2.88 5.27988 3.46667V23.4667H9.93322C10.7465 23.4667 11.4132 24.12 11.4132 24.9467V29.6H25.6665C26.2532 29.6 26.7332 29.12 26.7332 28.5333V16.7067C26.7332 16.04 27.2666 15.5067 27.9332 15.5067C28.5999 15.5067 29.1332 16.04 29.1332 16.7067H29.1199Z" fill="black"/>
</g>
<defs>
<clipPath id="clip0_24_2128">
<rect width="32" height="32" fill="white"/>
</clipPath>
</defs>
</svg>
