<svg width="32" height="32" viewBox="0 0 32 32" fill="none" xmlns="http://www.w3.org/2000/svg">
<g clip-path="url(#clip0_24_1968)">
<path d="M29.7333 19.04C29.7333 21.4045 27.8044 23.3334 25.44 23.3334H14.24C13.9378 23.3334 13.6533 23.4489 13.44 23.6623L8.36444 28.7378L9.16444 29.5378L8.24 28.6845V24.4534C8.24 23.8311 7.73333 23.3245 7.11111 23.3245H6.56C4.19556 23.3245 2.26667 21.3956 2.26667 19.0311V7.44892C2.26667 5.08447 4.19556 3.15558 6.56 3.15558H13.1733V0.888916H6.56C2.94222 0.888916 0 3.83114 0 7.44892V19.04C0 22.4622 2.63111 25.28 5.97333 25.5734V28.6934C5.97333 29.6445 6.54222 30.4889 7.41333 30.8534C7.70667 30.9778 8.00889 31.0311 8.31111 31.0311C8.91556 31.0311 9.51111 30.7911 9.96444 30.3467L14.7111 25.6H25.44C29.0578 25.6 32 22.6578 32 19.04V17.44H29.7333V19.04Z" fill="black"/>
<path d="M13.1733 16.88C13.1733 17.1556 13.3778 17.3867 13.6444 17.4223C13.9111 17.4578 14.1778 17.2978 14.2489 17.0311L14.3378 16.7289C15.4667 12.7734 19.0222 9.95558 23.1022 9.72447V12.4622C23.1022 12.6667 23.2178 12.8622 23.4044 12.9511C23.5911 13.0489 23.8044 13.0311 23.9733 12.9067L31.7689 7.39558C31.9111 7.28892 32 7.12892 32 6.95114C32 6.77336 31.9111 6.60447 31.7689 6.50669L23.9733 0.995583C23.8044 0.871138 23.5822 0.862249 23.4044 0.951138C23.2178 1.04892 23.1022 1.23558 23.1022 1.44003V4.21336C17.5822 4.4978 13.1733 9.08447 13.1733 14.6756V16.88Z" fill="black"/>
</g>
<defs>
<clipPath id="clip0_24_1968">
<rect width="32" height="32" fill="white"/>
</clipPath>
</defs>
</svg>
