<svg width="32" height="32" viewBox="0 0 32 32" fill="none" xmlns="http://www.w3.org/2000/svg">
<g clip-path="url(#clip0_24_1986)">
<path d="M16 0C7.17333 0 0 7.17333 0 16C0 24.8267 7.17333 32 16 32C24.8267 32 32 24.8267 32 16C32 7.17333 24.8267 0 16 0ZM16 29.4044C8.60444 29.4044 2.59556 23.3867 2.59556 16C2.59556 8.61333 8.60444 2.59556 16 2.59556C23.3956 2.59556 29.4044 8.61333 29.4044 16C29.4044 23.3867 23.3867 29.4044 16 29.4044Z" fill="black"/>
<path d="M15.8667 21.1467C15.3867 21.1467 14.9778 21.3067 14.6489 21.6267C14.32 21.9467 14.1511 22.3467 14.1511 22.8178C14.1511 23.3511 14.32 23.76 14.6667 24.0622C15.0044 24.3556 15.4044 24.5067 15.8667 24.5067C16.3289 24.5067 16.7022 24.3556 17.04 24.0533C17.3778 23.7511 17.5467 23.3422 17.5467 22.8178C17.5467 22.3467 17.3867 21.9467 17.0667 21.6267C16.7467 21.3067 16.3467 21.1467 15.8756 21.1467H15.8667Z" fill="black"/>
<path d="M19.0133 8.08889C18.1778 7.68889 17.2178 7.48444 16.1333 7.48444C14.96 7.48444 13.9378 7.72444 13.0667 8.20444C12.1867 8.68444 11.52 9.28889 11.0667 10.0178C10.6133 10.7467 10.3822 11.4667 10.3822 12.1867C10.3822 12.5333 10.5244 12.8533 10.8178 13.1467C11.1111 13.44 11.4578 13.5911 11.8844 13.5911C12.5956 13.5911 13.0844 13.1644 13.3333 12.32C13.6 11.5111 13.9289 10.8978 14.32 10.48C14.7111 10.0622 15.3156 9.85778 16.1422 9.85778C16.8444 9.85778 17.4222 10.0622 17.8667 10.48C18.3111 10.8889 18.5333 11.3956 18.5333 12C18.5333 12.3111 18.4622 12.5956 18.3111 12.8533C18.1689 13.12 17.9822 13.3511 17.7689 13.5644C17.5556 13.7778 17.2089 14.0978 16.7289 14.5156C16.1778 14.9956 15.7511 15.4133 15.4222 15.76C15.1022 16.1067 14.8444 16.5156 14.6489 16.9778C14.4533 17.44 14.3556 17.9822 14.3556 18.6133C14.3556 19.1111 14.4889 19.4933 14.7556 19.7511C15.0222 20.0089 15.3511 20.1333 15.7422 20.1333C16.4889 20.1333 16.9422 19.7422 17.0844 18.96C17.1644 18.5956 17.2267 18.3378 17.2711 18.1867C17.3156 18.0444 17.3689 17.8933 17.4489 17.7511C17.5289 17.6089 17.6356 17.44 17.7956 17.2711C17.9556 17.1022 18.1511 16.8889 18.4089 16.6578C19.3333 15.8311 19.9733 15.2444 20.3289 14.8978C20.6844 14.5511 20.9956 14.1333 21.2533 13.6533C21.5111 13.1733 21.6444 12.6133 21.6444 11.9733C21.6444 11.1644 21.4133 10.4178 20.96 9.72444C20.5067 9.03111 19.8667 8.48889 19.0311 8.08889H19.0133Z" fill="black"/>
</g>
<defs>
<clipPath id="clip0_24_1986">
<rect width="32" height="32" fill="white"/>
</clipPath>
</defs>
</svg>
