<svg width="32" height="32" viewBox="0 0 32 32" fill="none" xmlns="http://www.w3.org/2000/svg">
<g clip-path="url(#clip0_121_178)">
<path d="M32 16C32 24.834 24.8407 31.996 16.0073 32H15.8347C15.0591 31.9919 14.2851 31.928 13.5187 31.8087C12.8911 31.7117 12.2699 31.5768 11.6587 31.4047C8.30251 30.4576 5.34747 28.4404 3.24301 25.6597C1.13855 22.8791 -0.000187887 19.4872 2.32526e-08 16C2.32526e-08 7.16467 7.16133 6.38313e-06 16 6.38313e-06H16.0073C18.1841 -0.00194088 20.3382 0.441661 22.337 1.3035C24.3359 2.16534 26.1372 3.42718 27.63 5.01134C30.4377 7.98097 32.0015 11.9132 32 16Z" fill="white"/>
<path d="M11.962 11.2414V11.9614H9.63599L3.10266 6.52871C3.5065 5.97937 3.94518 5.45652 4.41599 4.96338L11.962 11.2414ZM28.918 6.55805L22.4227 11.958H20.038V11.29L27.61 4.99071L27.63 5.01138C28.0664 5.47148 28.4747 5.95747 28.8527 6.46671L28.918 6.55805ZM11.962 20.0374V20.7574L4.41599 27.0367C4.34933 26.97 4.28266 26.898 4.21999 26.828C3.82305 26.3968 3.45026 25.9438 3.10333 25.4714L9.63666 20.0374H11.962ZM28.9187 25.4414C28.5165 25.9911 28.0796 26.5146 27.6107 27.0087L20.038 20.7087V20.0374H22.4227L28.9187 25.4414Z" fill="#C8102E"/>
<path d="M6.39004 11.9612H0.514038C0.847856 10.6811 1.34057 9.44772 1.9807 8.28992L6.39004 11.9612ZM6.25737 20.0373L1.93337 23.6333C1.31545 22.4969 0.838805 21.2893 0.514038 20.0373H6.25737ZM11.962 23.4186V31.4853C11.8607 31.4593 11.762 31.4319 11.6587 31.4033C9.5622 30.8129 7.60891 29.7991 5.91937 28.4246L11.962 23.4186ZM11.962 0.513916V8.45392L6.00937 3.50192C7.76111 2.09795 9.78959 1.07974 11.962 0.513916ZM26.082 3.57658L20.038 8.58658V0.514583L20.1294 0.537916C22.3061 1.11858 24.335 2.15425 26.082 3.57658ZM31.486 11.9612H25.7527L30.0667 8.37192C30.684 9.50619 31.1607 10.7115 31.486 11.9612ZM26.1334 28.3853C24.3506 29.8469 22.2723 30.9048 20.0414 31.4859V23.3173L26.1334 28.3853ZM31.486 20.0373C31.1682 21.2591 30.7061 22.4387 30.1094 23.5513L25.886 20.0373H31.486Z" fill="#012169"/>
<path d="M32 15.8327V16.152C31.9931 16.898 31.9345 17.6427 31.8247 18.3807H18.3807V31.824C17.6474 31.9334 16.9074 31.9922 16.166 32H15.8327C15.091 31.9924 14.3508 31.9333 13.6173 31.8233V18.3807H0.176C0.0666016 17.6465 0.00779639 16.9056 0 16.1633L0 15.848C0.00689686 15.1017 0.0654815 14.3568 0.175333 13.6187H13.6193V0.176C14.3174 0.0716293 15.0216 0.0128382 15.7273 0L16.2433 0C16.9168 0.00962934 17.5891 0.0617328 18.256 0.156L18.3807 0.174667V13.6187H31.824C31.9334 14.3518 31.9922 15.0915 32 15.8327Z" fill="#C8102E"/>
</g>
<defs>
<clipPath id="clip0_121_178">
<rect width="32" height="32" fill="white"/>
</clipPath>
</defs>
</svg>
