<svg width="32" height="32" viewBox="0 0 32 32" fill="none" xmlns="http://www.w3.org/2000/svg">
<g clip-path="url(#clip0_1597_16)">
<path d="M32 13.7534C32 13.4206 31.7358 13.1563 31.4031 13.1563H18.8477V0.597124C18.8477 0.264301 18.5835 0 18.2508 0H13.759C13.4263 0 13.1621 0.27409 13.1621 0.597124V13.1563H0.596942C0.26422 13.1563 0 13.4206 0 13.7534V18.2466C0 18.5794 0.26422 18.8437 0.596942 18.8437H13.1523V31.4029C13.1523 31.7357 13.4165 32 13.7492 32H18.241C18.5737 32 18.8379 31.7357 18.8379 31.4029V18.8437H31.3933C31.726 18.8437 31.9902 18.5794 31.9902 18.2466V13.7534H32Z" fill="black"/>
</g>
<defs>
<clipPath id="clip0_1597_16">
<rect width="32" height="32" fill="white"/>
</clipPath>
</defs>
</svg>
