<svg width="32" height="32" viewBox="0 0 32 32" fill="none" xmlns="http://www.w3.org/2000/svg">
<g clip-path="url(#clip0_24_2112)">
<path d="M31.9701 12.2698C31.8463 11.8837 31.5103 11.6144 31.1123 11.5875L20.7751 10.8782L16.9108 1.11946C16.7605 0.742398 16.4068 0.5 16.0088 0.5C15.6109 0.5 15.2572 0.742398 15.1069 1.11946L11.2426 10.8782L0.905345 11.5875C0.507419 11.6144 0.171393 11.8837 0.0475939 12.2698C-0.0762053 12.6558 0.0475939 13.0778 0.348249 13.3291L8.29792 20.0714L5.76888 30.2701C5.67161 30.6651 5.82194 31.0691 6.14028 31.3115C6.30829 31.4372 6.51168 31.5 6.71506 31.5C6.89192 31.5 7.07762 31.4461 7.22795 31.3474L16 25.7543L24.7721 31.3474C25.1081 31.5628 25.5414 31.5449 25.8597 31.3115C26.1781 31.0781 26.3284 30.6651 26.2311 30.2701L23.7021 20.0714L31.6518 13.3291C31.9524 13.0688 32.0762 12.6468 31.9524 12.2698H31.9701Z" fill="black"/>
</g>
<defs>
<clipPath id="clip0_24_2112">
<rect width="32" height="32" fill="white"/>
</clipPath>
</defs>
</svg>
