<svg width="32" height="32" viewBox="0 0 32 32" fill="none" xmlns="http://www.w3.org/2000/svg">
<g clip-path="url(#clip0_24_1964)">
<path d="M21.3394 13.3729H11.1627L13.2744 11.2618C13.5069 11.0294 13.6278 10.7225 13.6278 10.397C13.6278 10.0715 13.4976 9.7646 13.2744 9.53211C13.0418 9.29962 12.7348 9.17873 12.4092 9.17873C12.0837 9.17873 11.7767 9.30892 11.5441 9.53211L7.3488 13.7262C7.11624 13.9587 6.99531 14.2656 6.99531 14.5911C6.99531 14.9166 7.12555 15.2235 7.3488 15.456L11.5441 19.6501C12.0092 20.1151 12.8092 20.1151 13.2744 19.6501C13.5069 19.4176 13.6278 19.1107 13.6278 18.7852C13.6278 18.4598 13.4976 18.1529 13.2744 17.9204L11.1627 15.8094H21.3394C22.0185 15.8094 22.5766 16.3673 22.5766 17.0462V21.5937C22.5766 22.2633 23.1255 22.812 23.7952 22.812C24.465 22.812 25.0138 22.2633 25.0138 21.5937V17.0462C25.0138 15.0189 23.3673 13.3729 21.3394 13.3729Z" fill="black"/>
<path d="M30.8929 32C30.7998 32 30.7068 31.9907 30.6138 31.9628L23.5162 30.1215C21.2092 31.349 18.6232 32 16.0092 32C7.18136 32 0 24.8207 0 15.9954C0 7.17001 7.18136 0 15.9999 0C24.8185 0 31.9998 7.17931 31.9998 15.9954C31.9998 18.6085 31.3487 21.1845 30.1208 23.5001L31.9626 30.5958C32.065 30.977 31.9533 31.3862 31.6743 31.6652C31.4603 31.8791 31.1812 31.9907 30.8836 31.9907L30.8929 32ZM15.9999 2.23191C8.40926 2.23191 2.23255 8.40686 2.23255 15.9954C2.23255 23.5838 8.40926 29.7588 15.9999 29.7588C18.372 29.7588 20.7255 29.1357 22.7999 27.9547C23.0511 27.8152 23.3487 27.7687 23.6371 27.8431L29.3301 29.3217L27.851 23.6303C27.7766 23.3514 27.8138 23.0538 27.9627 22.7934C29.144 20.7196 29.7673 18.3668 29.7673 15.9954C29.7673 8.40686 23.5906 2.23191 15.9999 2.23191Z" fill="black"/>
</g>
<defs>
<clipPath id="clip0_24_1964">
<rect width="32" height="32" fill="white"/>
</clipPath>
</defs>
</svg>
