<svg width="32" height="32" viewBox="0 0 32 32" fill="none" xmlns="http://www.w3.org/2000/svg">
<g clip-path="url(#clip0_24_1912)">
<path d="M31.8245 13.5792C30.7703 6.49143 24.925 0.881426 17.7995 0.100167C8.17027 -0.963474 0 6.58556 0 15.9983C0 20.1211 1.58134 23.8674 4.15103 26.71C4.65931 27.2654 5.18643 27.8019 5.77002 28.282C8.54678 30.5975 12.1142 32 16.0017 32C19.8892 32 23.4566 30.5975 26.2334 28.282C26.8169 27.8019 27.3441 27.2654 27.8523 26.71C30.9115 23.3214 32.5681 18.6433 31.8245 13.5792ZM16.0017 29.7409C12.4625 29.7409 9.24333 28.3855 6.80542 26.1829C8.74445 23.1332 12.133 21.1 16.0017 21.1C19.8703 21.1 23.2683 23.1332 25.1979 26.1829C22.76 28.3855 19.5409 29.7409 16.0017 29.7409ZM10.6082 12.205C11.06 10.1718 12.7072 8.534 14.7404 8.07277C18.769 7.16915 22.3082 10.7083 21.4046 14.737C20.9528 16.7702 19.3056 18.408 17.2724 18.8692C13.2437 19.7728 9.70455 16.2336 10.6082 12.205ZM26.6852 24.6298C25.1415 22.399 22.9201 20.6765 20.3221 19.754C22.6847 18.1256 24.0967 15.2076 23.5037 12.0167C22.9483 9.00463 20.5386 6.56673 17.536 5.98314C12.6602 5.02304 8.36794 8.75049 8.36794 13.4663C8.36794 16.0736 9.68573 18.3797 11.6906 19.754C9.09272 20.6765 6.87131 22.399 5.32762 24.6298C3.41683 22.2672 2.26847 19.2645 2.26847 15.9983C2.25906 7.90334 9.29039 1.42737 17.5548 2.3404C23.8519 3.03695 28.9442 8.12925 29.6502 14.4264C30.0832 18.295 28.8877 21.8907 26.6758 24.6298H26.6852Z" fill="black"/>
</g>
<defs>
<clipPath id="clip0_24_1912">
<rect width="32" height="32" fill="white"/>
</clipPath>
</defs>
</svg>
