<svg width="32" height="32" viewBox="0 0 32 32" fill="none" xmlns="http://www.w3.org/2000/svg">
<g clip-path="url(#clip0_24_2099)">
<path d="M31.1722 1.43059C30.6079 1.19529 30.1188 1.28941 29.7143 1.72235L27.0053 4.41412C25.5191 3.01176 23.826 1.92 21.9165 1.15765C20.0071 0.385882 18.0317 0 15.9906 0C13.8272 0 11.7578 0.42353 9.78248 1.27059C7.80717 2.11765 6.11405 3.25647 4.6843 4.68706C3.25456 6.11765 2.1164 7.82118 1.26984 9.78824C0.42328 11.7647 0 13.8259 0 16C0 18.1741 0.42328 20.2353 1.26984 22.2118C2.1164 24.1882 3.25456 25.8824 4.6843 27.3129C6.11405 28.7435 7.81658 29.8824 9.78248 30.7294C11.7578 31.5765 13.8178 32 15.9906 32C18.3798 32 20.6467 31.5012 22.8007 30.4941C24.9547 29.4871 26.7889 28.0659 28.2939 26.2306C28.4068 26.0894 28.4539 25.9388 28.4539 25.76C28.4539 25.5906 28.3786 25.44 28.2563 25.3365L25.4062 22.4659C25.2557 22.3435 25.077 22.2776 24.8889 22.2776C24.6631 22.3059 24.5032 22.3906 24.4092 22.5318C23.3933 23.8494 22.1517 24.8753 20.6843 25.5906C19.2169 26.3153 17.6555 26.6729 16 26.6729C14.5608 26.6729 13.1781 26.3906 11.8707 25.8259C10.5632 25.2612 9.42504 24.4988 8.46561 23.5482C7.50617 22.5882 6.74427 21.4588 6.1893 20.1412C5.62493 18.8329 5.34274 17.4494 5.34274 16.0094C5.34274 14.5694 5.62493 13.1859 6.1893 11.8776C6.75367 10.5694 7.51558 9.43059 8.46561 8.47059C9.42504 7.51059 10.5538 6.74824 11.8707 6.19294C13.1781 5.62824 14.5608 5.34588 16 5.34588C18.7937 5.34588 21.2111 6.29647 23.271 8.19765L20.3927 11.0682C19.96 11.4824 19.866 11.9624 20.1011 12.5082C20.3363 13.0635 20.7501 13.3459 21.3333 13.3459H30.6643C31.0217 13.3459 31.3416 13.2141 31.6049 12.9506C31.8683 12.6871 32 12.3765 32 12.0094V2.65412C32 2.07059 31.7272 1.66588 31.1911 1.42118L31.1722 1.43059Z" fill="black"/>
</g>
<defs>
<clipPath id="clip0_24_2099">
<rect width="32" height="32" fill="white"/>
</clipPath>
</defs>
</svg>
