<svg width="32" height="32" viewBox="0 0 32 32" fill="none" xmlns="http://www.w3.org/2000/svg">
<g clip-path="url(#clip0_202_30)">
<path d="M2.96 14.0427V17.9835C2.89 19.9539 0.07 19.9439 0 17.9835V14.0427C0 13.2226 0.67 12.5625 1.48 12.5625C2.29 12.5625 2.96 13.2326 2.96 14.0427ZM11.16 10.8421C10.34 10.8421 9.68 11.5122 9.68 12.3224V19.6838C9.75 21.6442 12.57 21.6542 12.64 19.6838V12.3224C12.64 11.5022 11.98 10.8421 11.16 10.8421ZM16 5.42106C15.18 5.42106 14.52 6.09119 14.52 6.90135V25.1049C14.59 27.0653 17.41 27.0653 17.49 25.1049V6.90135C17.49 6.08119 16.82 5.42106 16.01 5.42106H16ZM6.32 5.42106C5.5 5.42106 4.84 6.09119 4.84 6.90135V25.1049C4.91 27.0653 7.73 27.0753 7.8 25.1049V6.90135C7.8 6.08119 7.14 5.42106 6.32 5.42106ZM30.52 13.5526C29.7 13.5526 29.04 14.2228 29.04 15.0329V16.9733C29.11 18.9437 31.93 18.9337 32 16.9733V15.0329C32 14.2128 31.33 13.5526 30.52 13.5526ZM20.84 0C20.02 0 19.36 0.670131 19.36 1.48029V30.526C19.43 32.4963 22.25 32.4863 22.32 30.526V1.48029C22.32 0.660129 21.65 0 20.84 0ZM25.68 8.13159C24.86 8.13159 24.2 8.80172 24.2 9.61188V22.3944C24.27 24.3648 27.09 24.3548 27.16 22.3944V9.61188C27.16 8.79172 26.49 8.13159 25.68 8.13159Z" fill="black"/>
</g>
<defs>
<clipPath id="clip0_202_30">
<rect width="32" height="32" fill="white"/>
</clipPath>
</defs>
</svg>
