<svg width="32" height="32" viewBox="0 0 32 32" fill="none" xmlns="http://www.w3.org/2000/svg">
<g clip-path="url(#clip0_24_63)">
<path d="M19.5692 0.397666C10.9681 -1.56258 2.38034 3.8381 0.406761 12.4392C-1.56682 21.0403 3.83386 29.6414 12.4349 31.6016C21.036 33.5619 29.6371 28.1745 31.5974 19.5734C33.5576 10.9723 28.1703 2.37125 19.5692 0.397666ZM10.568 22.9605L8.78115 22.5471C8.50111 22.4805 8.26109 22.3071 8.10106 22.0671C7.95438 21.827 6.98092 21.3203 7.03426 21.0403L7.10094 20.7469C7.24762 20.0935 8.8745 19.9468 9.48791 20.2002L11.2081 20.9069C11.4615 21.0136 11.6615 21.2003 11.7815 21.4537C11.9015 21.6937 11.9149 21.9871 11.8349 22.2404C11.7549 22.4938 11.5815 22.7205 11.3415 22.8538C11.1014 22.9872 10.8214 23.0272 10.568 22.9738V22.9605ZM17.3689 19.6668L15.8087 20.6402C15.582 20.7869 15.302 20.8402 15.0353 20.7869C14.7686 20.7336 14.5285 20.5869 14.3685 20.3735C14.2085 20.1602 14.1285 19.8801 14.1552 19.6134C14.1818 19.3467 14.3152 19.0934 14.5152 18.9067L15.902 17.6665C16.0221 17.5598 16.1554 17.4798 16.3154 17.4398C16.4621 17.3998 16.6221 17.3865 16.7822 17.3998C16.9422 17.4265 17.0889 17.4798 17.2222 17.5598C17.3556 17.6398 17.4622 17.7599 17.5556 17.8932L17.7156 18.1466C17.8623 18.3866 17.9156 18.68 17.849 18.96C17.7823 19.24 17.6089 19.4801 17.3689 19.6401V19.6668ZM20.0892 7.50523L18.5691 7.5319C18.369 7.5319 18.1823 7.58524 18.009 7.69192C17.8356 7.78527 17.7023 7.93195 17.5956 8.09197V8.93208C17.5156 9.0921 16.9955 9.15877 16.9822 9.3588C16.9822 9.54549 17.0089 9.73218 17.0755 9.90553L17.7023 11.3324C17.9823 11.9591 17.809 12.7059 17.2889 13.1593L16.2354 14.0527C16.0487 14.2127 15.8354 14.3194 15.5953 14.3728C15.3553 14.4261 15.1153 14.4261 14.8753 14.3728L13.9951 14.1727C13.8751 14.1461 13.7551 14.1461 13.6351 14.1727C13.5151 14.1994 13.4084 14.2527 13.3151 14.3194C13.2217 14.3861 13.1417 14.4794 13.075 14.5861C13.0217 14.6928 12.8883 14.9062 12.8617 15.2662C12.835 15.6263 13.5684 15.8396 13.5151 16.2397C13.4617 16.6397 12.6083 17.1064 12.6083 17.5732C12.6083 18.0399 12.515 18.5733 12.3549 18.8133C12.1949 19.0534 11.7282 18.8533 11.2481 19.4534C10.7681 20.0535 9.4079 19.1467 9.22121 18.7867C9.11453 18.5733 8.72781 17.7199 8.63447 17.2798L8.43444 15.6396C8.32776 15.4262 8.1544 15.2662 7.92771 15.1862C7.70101 15.1062 7.51432 15.0662 7.14094 15.3729C6.76756 15.6796 6.90091 16.493 6.18082 16.8531C5.46073 17.2131 4.79398 16.9331 4.48728 16.0796C4.18057 15.2262 2.66038 15.6663 2.66038 15.6663C2.68705 14.7728 2.79373 13.8794 2.99375 13.0126C4.6473 5.86502 11.8082 1.35779 18.9824 2.99799C20.4493 3.33137 21.7828 3.90478 22.9963 4.65154C22.2095 5.62499 21.4894 6.51844 21.076 7.0385C20.956 7.18519 20.8093 7.3052 20.636 7.38521C20.4626 7.46522 20.2893 7.50523 20.1026 7.51856L20.0892 7.50523ZM20.6893 12.7859C20.556 12.6926 20.4493 12.5725 20.3826 12.4392C20.3026 12.3058 20.2626 12.1458 20.2493 11.9991C20.2493 11.8391 20.2493 11.6791 20.3159 11.5324C20.3826 11.3857 20.4493 11.2524 20.5693 11.1457L21.8895 9.82552C22.0762 9.63883 22.3429 9.51882 22.6096 9.50548C22.8763 9.50548 23.143 9.58549 23.3563 9.75885C23.5697 9.9322 23.703 10.1856 23.7297 10.4523C23.7697 10.719 23.6897 10.999 23.543 11.2124L22.4762 12.7059C22.3962 12.8259 22.1562 13.5593 22.0895 13.6793C22.0095 13.7994 21.8361 14.0127 21.7028 14.0394C21.5561 14.0661 20.9827 14.0927 20.9427 13.7594C20.8893 13.546 21.0894 13.0393 20.9694 12.9593L20.716 12.7859H20.6893ZM22.5429 27.6011L18.6091 27.5211C18.3424 27.4144 18.1823 26.4676 17.9823 26.2543C17.7956 26.0409 18.9691 25.6675 18.9024 25.3875L18.6357 24.2673C18.5691 24.0006 18.5691 23.7206 18.6357 23.4406C18.7024 23.1605 18.8224 22.9205 18.9958 22.7071L19.7692 21.7737C20.1159 21.347 20.6493 21.1069 21.1961 21.1203L23.383 21.1736C23.6097 21.1736 23.823 21.1203 24.0097 21.0003L24.7165 20.0001C24.9299 19.8668 25.3966 19.9068 25.7033 19.9868C25.9567 20.0135 26.5701 20.1335 26.7568 20.3068L28.1169 21.6137C26.9434 24.1473 24.9965 26.2543 22.5562 27.6144L22.5429 27.6011Z" fill="black"/>
</g>
<defs>
<clipPath id="clip0_24_63">
<rect width="32" height="32" fill="white"/>
</clipPath>
</defs>
</svg>
