<svg width="32" height="32" viewBox="0 0 32 32" fill="none" xmlns="http://www.w3.org/2000/svg">
<path d="M17.1047 29.7973C16.145 29.3867 15.5351 28.4422 15.5351 27.3849V22.4983H2.03936C0.919713 22.4983 4.32018e-07 21.5641 3.81793e-07 20.4041L0 11.5857C-4.97798e-08 10.4359 0.909716 9.49143 2.03936 9.49143L15.5351 9.49143V4.61514C15.5351 3.55775 16.155 2.60303 17.1047 2.20266C18.0644 1.79202 19.144 2.01787 19.8838 2.76728L31.4602 14.6552C31.8201 15.0247 32 15.5175 32 16C32 16.4825 31.8201 16.9753 31.4602 17.3448L19.8838 29.2327C19.154 29.9821 18.0644 30.208 17.1047 29.7973Z" fill="black"/>
</svg>
