<svg width="32" height="32" viewBox="0 0 32 32" fill="none" xmlns="http://www.w3.org/2000/svg">
<g clip-path="url(#clip0_24_2131)">
<path d="M19.28 14.5689H19.84L19.8222 9.33333C19.1289 9.12 19.2356 9.55556 19.2356 9.55556L19.28 14.2222V14.5778V14.5689Z" fill="black"/>
<path d="M13.6889 10.7644L11.5022 8.88L11.5289 17.6267L13.5822 14.5689H14.0089V11.12C13.8933 10.6133 13.6978 10.7644 13.6978 10.7644H13.6889Z" fill="black"/>
<path d="M10.5156 9.25333L10.4711 22.3644C10.5156 22.64 10.6667 22.48 10.6667 22.48L11.2089 22.8267L11.1733 8.81778C10.5422 8.83556 10.5067 9.25333 10.5067 9.25333H10.5156Z" fill="black"/>
<path d="M19.28 18.2933V21.7067C19.36 21.9822 19.5911 21.9022 19.5911 21.9022L19.8578 22.0889V18.2933H19.2711H19.28Z" fill="black"/>
<path d="M25.2 0H6.8C3.04889 0 0 3.04889 0 6.8V25.2C0 28.96 3.04889 32 6.8 32H25.2C28.96 32 32 28.9511 32 25.2V6.8C32 3.04 28.9511 0 25.2 0ZM29.3778 23.5467L25.9733 25.9733C23.04 24.9956 22.7644 22.6044 22.7644 22.6044V11.12C22.6844 10.5689 22.4089 10.6489 22.4089 10.6489L20.1422 9.47556L20.16 14.5689H22.5956L20.1778 18.08V22.2933L21.8756 23.4578C22.1067 23.7333 21.76 23.7689 21.76 23.7689L18.24 25.9644L12.9956 23.1822C12.5244 22.8711 12.88 22.6756 12.88 22.6756L14.0178 21.9733V18.2933H11.5378V23.0311L12.3733 23.5467C12.6489 23.8222 12.3378 24.0178 12.3378 24.0178L8.85333 25.9733L4.27556 23.5822C3.88444 23.3067 4.31111 23.1111 4.31111 23.1111L5.6 22.3644V11.0133L3.09333 9.20889L2.97778 9.17333C2.27556 8.78222 2.78222 8.58667 2.78222 8.58667L6.38222 6.27556C6.57778 6.11556 6.73778 6.35556 6.73778 6.35556L10.0267 8.27556C10.0267 8.27556 14.4622 6.43556 14.7644 6.24889C14.96 6.13333 15.12 6.28444 15.12 6.28444L18.88 8.36444L22.6311 6.21333C23.0578 5.85778 23.1822 6.09778 23.1822 6.09778L27.6 8.68445C27.9556 8.91556 27.7956 8.99556 27.7956 8.99556V20.9867C27.9556 22.48 29.2 23.0667 29.2 23.0667C29.5556 23.3422 29.3956 23.5378 29.3956 23.5378L29.3778 23.5467Z" fill="black"/>
</g>
<defs>
<clipPath id="clip0_24_2131">
<rect width="32" height="32" fill="white"/>
</clipPath>
</defs>
</svg>
