<svg width="32" height="32" viewBox="0 0 32 32" fill="none" xmlns="http://www.w3.org/2000/svg">
<path d="M30.4729 21.2133L29.2168 19.2667C29.1099 19.1067 29.0698 18.96 29.0698 18.7733V13.04C29.0698 9.57333 27.7067 6.29333 25.2346 3.82667C22.7624 1.36 19.4751 0 16.0007 0C12.5263 0 9.25231 1.36 6.76678 3.82667C4.29461 6.29333 2.93157 9.57333 2.93157 13.04V18.7733C2.93157 18.9733 2.89148 19.1067 2.78458 19.2667L1.52845 21.2133C0.873655 22.2267 0.820203 23.48 1.40818 24.5467C1.99615 25.6133 3.0652 26.2533 4.28124 26.2533H10.9761V26.9867C10.9761 29.76 13.2345 32 16.0007 32C18.7668 32 21.0252 29.7467 21.0252 26.9867V26.2533H27.7201C28.9361 26.2533 30.0052 25.6133 30.5932 24.5467C31.1811 23.48 31.1277 22.24 30.4595 21.2133H30.4729ZM18.6733 26.9867C18.6733 28.4533 17.4706 29.6533 16.0007 29.6533C14.5307 29.6533 13.328 28.4533 13.328 26.9867V26.2533H18.6866V26.9867H18.6733Z" fill="black"/>
</svg>
