<svg width="32" height="32" viewBox="0 0 32 32" fill="none" xmlns="http://www.w3.org/2000/svg">
<g clip-path="url(#clip0_1021_70)">
<path d="M9.98631 3.20874C10.5207 3.20874 10.9499 3.63716 10.9499 4.17049V9.96721C10.9499 10.5005 10.5207 10.929 9.98631 10.929H5.62387C5.08952 10.929 4.66028 10.5005 4.66028 9.96721C4.66028 9.43388 5.08952 9.00547 5.62387 9.00547H9.02272V4.17049C9.02272 3.63716 9.45196 3.20874 9.98631 3.20874ZM28.3033 27.0426C28.3033 28.188 27.9004 29.2372 27.2434 30.0765H30.4758C31.0101 30.0765 31.4394 30.5049 31.4394 31.0383C31.4394 31.5716 31.0101 32 30.4758 32H9.60964C9.07528 32 8.64604 31.5716 8.64604 31.0383C8.64604 30.5049 9.07528 30.0765 9.60964 30.0765H12.842C12.1763 29.2284 11.7821 28.1705 11.7821 27.0164V19.7683C11.1952 19.8732 10.5907 19.9344 9.98631 19.9344C4.47632 19.9344 0 15.4667 0 9.96721C0 4.46776 4.47632 0 9.98631 0C13.0523 0 15.908 1.38142 17.8177 3.78579C18.1506 4.20546 18.0805 4.80874 17.66 5.13224C17.2395 5.46448 16.6351 5.39454 16.3022 4.97486C14.7605 3.03388 12.4566 1.91475 9.97755 1.91475C5.54503 1.9235 1.92718 5.53443 1.92718 9.96721C1.92718 14.4 5.54503 18.0109 9.98631 18.0109C10.5995 18.0109 11.1952 17.9235 11.7821 17.7836V16.5333C11.7821 16 12.2113 15.5716 12.7457 15.5716H27.3485C27.8828 15.5716 28.3121 16 28.3121 16.5333V18.0109H29.0567C30.6772 18.0109 32 19.3749 32 21.0623V24C32 25.6787 30.6772 27.0514 29.0567 27.0514H28.3121L28.3033 27.0426ZM28.3121 19.9344V25.1191H29.0567C29.6173 25.1191 30.0728 24.612 30.0728 23.9913V21.0536C30.0728 20.4328 29.6173 19.9257 29.0567 19.9257H28.3121V19.9344ZM23.3189 30.0765C25.0096 30.0765 26.3849 28.7038 26.3849 27.0164V17.4951H13.7093V27.0164C13.7093 28.7038 15.0846 30.0765 16.7753 30.0765H23.3189ZM17.7651 13.0536C17.7651 13.5869 18.1944 14.0153 18.7287 14.0153C19.2631 14.0153 19.6923 13.5869 19.6923 13.0536V9.91475C19.6923 9.17159 20.2967 8.56831 21.0326 8.56831H23.608C24.957 8.56831 26.0608 7.47541 26.0608 6.12022C26.0608 5.5694 26.5075 5.1235 27.0594 5.1235H29.2757C29.81 5.1235 30.2393 4.69508 30.2393 4.16175C30.2393 3.62842 29.81 3.2 29.2757 3.2H27.0594C25.4476 3.2 24.1336 4.51148 24.1336 6.12022C24.1336 6.40874 23.8971 6.64481 23.608 6.64481H21.0326C19.228 6.64481 17.7564 8.10492 17.7564 9.90601V13.0448L17.7651 13.0536ZM27.839 7.95628C27.839 9.32896 26.7265 10.4393 25.3512 10.4393H23.6168C23.0824 10.4393 22.6532 10.8678 22.6532 11.4011C22.6532 11.9344 23.0824 12.3628 23.6168 12.3628H25.3512C27.7865 12.3628 29.7662 10.3869 29.7662 7.95628C29.7662 7.42295 29.337 6.99454 28.8026 6.99454C28.2683 6.99454 27.839 7.42295 27.839 7.95628Z" fill="black"/>
</g>
<defs>
<clipPath id="clip0_1021_70">
<rect width="32" height="32" fill="white"/>
</clipPath>
</defs>
</svg>
