<svg width="32" height="32" viewBox="0 0 32 32" fill="none" xmlns="http://www.w3.org/2000/svg">
<path d="M17.2579 31C15.7691 31 14.3133 30.7699 12.8905 30.3097C11.477 29.8495 10.1673 29.2023 8.96113 28.3682C7.75501 27.534 6.73263 26.5513 5.89399 25.4199C5.53592 24.9885 5.37574 24.5427 5.41343 24.0825C5.45112 23.6222 5.64429 23.2531 5.99293 22.9751C6.37927 22.6683 6.78445 22.5628 7.20848 22.6587C7.64193 22.745 8.02356 22.9703 8.35336 23.3346C9.06007 24.2263 9.87044 24.9981 10.7845 25.65C11.7079 26.302 12.7161 26.8054 13.8092 27.1601C14.9022 27.5245 16.0518 27.7066 17.2579 27.7066C18.8504 27.7066 20.3392 27.4046 21.7244 26.8006C23.119 26.1965 24.3392 25.3576 25.3852 24.2838C26.4405 23.2004 27.265 21.954 27.8587 20.5446C28.4617 19.1256 28.7633 17.6107 28.7633 16C28.7633 14.3797 28.4617 12.8648 27.8587 11.4554C27.265 10.0364 26.4405 8.79003 25.3852 7.7162C24.3392 6.64238 23.119 5.80345 21.7244 5.19942C20.3392 4.5954 18.8504 4.29338 17.2579 4.29338C15.6561 4.29338 14.1625 4.5954 12.7774 5.19942C11.3922 5.80345 10.172 6.64238 9.11661 7.7162C8.06125 8.79003 7.23675 10.0364 6.64311 11.4554C6.04947 12.8648 5.75265 14.3797 5.75265 16H2.5159C2.5159 13.9291 2.89282 11.9875 3.64664 10.1755C4.40989 8.36338 5.46996 6.77181 6.82686 5.40077C8.18375 4.02013 9.75265 2.94151 11.5336 2.16491C13.3145 1.3883 15.2226 1 17.2579 1C19.2933 1 21.2014 1.3883 22.9823 2.16491C24.7633 2.94151 26.3274 4.02013 27.6749 5.40077C29.0224 6.77181 30.0777 8.36338 30.841 10.1755C31.6137 11.9875 32 13.9291 32 16C32 18.0709 31.6137 20.0125 30.841 21.8245C30.0777 23.6366 29.0224 25.2282 27.6749 26.5992C26.3274 27.9703 24.7633 29.0441 22.9823 29.8207C21.2014 30.6069 19.2933 31 17.2579 31ZM1.08834 13.0949H7.92933C8.27797 13.0949 8.54181 13.1812 8.72085 13.3538C8.89988 13.5168 8.98469 13.7277 8.97527 13.9866C8.97527 14.2359 8.87633 14.4995 8.67844 14.7776L5.31449 19.4803C5.08834 19.7967 4.81979 19.9549 4.50883 19.9549C4.19788 19.9549 3.92462 19.7967 3.68905 19.4803L0.325088 14.7919C0.117786 14.5139 0.00942285 14.2454 0 13.9866C0 13.7277 0.0895171 13.5168 0.268551 13.3538C0.457008 13.1812 0.730271 13.0949 1.08834 13.0949ZM17.2721 18.2435C16.3863 18.2435 15.9246 17.7929 15.8869 16.8917L15.689 10.3337C15.6702 9.88303 15.8068 9.5139 16.0989 9.22627C16.391 8.92905 16.7774 8.78044 17.2579 8.78044C17.7291 8.78044 18.1107 8.92905 18.4028 9.22627C18.7044 9.5139 18.8457 9.88782 18.8269 10.348L18.6148 16.8773C18.5772 17.7881 18.1296 18.2435 17.2721 18.2435ZM17.2721 23.0757C16.7821 23.0757 16.3628 22.9223 16.0141 22.6155C15.6749 22.3087 15.5053 21.9204 15.5053 21.4506C15.5053 20.9712 15.6749 20.5781 16.0141 20.2713C16.3628 19.9549 16.7821 19.7967 17.2721 19.7967C17.7621 19.7967 18.172 19.9501 18.5018 20.257C18.841 20.5638 19.0106 20.9616 19.0106 21.4506C19.0106 21.93 18.841 22.3231 18.5018 22.6299C18.1625 22.9271 17.7527 23.0757 17.2721 23.0757Z" fill="black"/>
</svg>
