<svg width="32" height="32" viewBox="0 0 32 32" fill="none" xmlns="http://www.w3.org/2000/svg">
<path fill-rule="evenodd" clip-rule="evenodd" d="M17.2622 13.271C15.1734 13.271 13.4845 14.9599 13.4845 17.0488C13.4845 19.1377 15.1734 20.8266 17.2622 20.8266C19.3511 20.8266 21.04 19.1377 21.04 17.0488C21.04 14.9599 19.3511 13.271 17.2622 13.271ZM26.08 13.271C25.3867 13.271 24.8178 12.711 24.8178 12.0088C24.8178 11.3066 25.3778 10.7466 26.08 10.7466C26.7734 10.7466 27.3422 11.3066 27.3422 12.0088C27.3422 12.711 26.7822 13.271 26.08 13.271ZM17.2622 23.3421C13.7867 23.3421 10.9689 20.5243 10.9689 17.0488C10.9689 13.5732 13.7867 10.7554 17.2622 10.7554C20.7378 10.7554 23.5556 13.5732 23.5556 17.0488C23.5556 20.5243 20.7378 23.3421 17.2622 23.3421ZM5.92892 23.3421C5.92892 24.0354 5.36892 24.6043 4.66669 24.6043C3.96447 24.6043 3.40447 24.0443 3.40447 23.3421V12.0088C3.40447 11.3154 3.96447 10.7466 4.66669 10.7466C5.36892 10.7466 5.92892 11.3066 5.92892 12.0088V23.3421ZM27.3334 6.96878H14.7378V5.70656C14.7378 5.01322 14.1778 4.44434 13.4756 4.44434H7.18225C6.48892 4.44434 5.92003 5.01322 5.92003 5.70656V6.96878H4.6578C2.5778 6.96878 0.888916 8.66656 0.888916 10.7466V23.3421C0.888916 25.431 2.57781 27.1199 4.66669 27.1199H27.3334C29.4222 27.1199 31.1111 25.431 31.1111 23.3421V10.7466C31.1111 8.65767 29.4222 6.96878 27.3334 6.96878Z" fill="black"/>
</svg>
