<svg width="32" height="32" viewBox="0 0 32 32" fill="none" xmlns="http://www.w3.org/2000/svg">
<g clip-path="url(#clip0_73_3)">
<path d="M16 12.7467C14.2044 12.7467 12.7378 14.2044 12.7378 16.0089C12.7378 17.8133 14.1956 19.2711 16 19.2711C17.8044 19.2711 19.2622 17.8133 19.2622 16.0089C19.2622 14.2044 17.8044 12.7467 16 12.7467Z" fill="black"/>
<path d="M23.9644 12.0622C23.92 11.1111 23.76 10.5956 23.6267 10.2489C23.4667 9.82222 23.2178 9.44 22.8978 9.12889C22.5867 8.8 22.1956 8.56 21.7778 8.4C21.4311 8.26667 20.9156 8.10667 19.9644 8.06222C18.9333 8.01778 18.6311 8.00889 16.0178 8.00889C13.4044 8.00889 13.1022 8.01778 12.0711 8.06222C11.12 8.10667 10.6044 8.26667 10.2578 8.4C9.83111 8.56 9.44889 8.80889 9.13778 9.12889C8.80889 9.44 8.56 9.83111 8.4 10.2489C8.26667 10.5956 8.10667 11.1111 8.06222 12.0622C8.01778 13.0933 8.00889 13.4044 8.00889 16.0089C8.00889 18.6133 8.01778 18.9244 8.06222 19.9556C8.10667 20.9067 8.26667 21.4222 8.4 21.7689C8.56 22.1956 8.80889 22.5778 9.12889 22.8889C9.44 23.2178 9.83111 23.4578 10.2489 23.6178C10.5956 23.7511 11.1111 23.9111 12.0622 23.9556C13.0933 24 13.4044 24.0089 16.0089 24.0089C18.6133 24.0089 18.9244 24 19.9556 23.9556C20.9067 23.9111 21.4222 23.7511 21.7689 23.6178C22.6222 23.2889 23.2978 22.6133 23.6267 21.76C23.76 21.4133 23.92 20.8978 23.9644 19.9467C24.0089 18.9156 24.0178 18.6133 24.0178 16C24.0178 13.3867 24.0089 13.0844 23.9644 12.0533V12.0622ZM16 21.0222C13.2267 21.0222 10.9778 18.7733 10.9778 16C10.9778 13.2267 13.2267 10.9778 16 10.9778C18.7733 10.9778 21.0222 13.2267 21.0222 16C21.0222 18.7733 18.7733 21.0222 16 21.0222ZM21.2267 11.9556C20.5778 11.9556 20.0533 11.4311 20.0533 10.7822C20.0533 10.1333 20.5778 9.60889 21.2267 9.60889C21.8756 9.60889 22.4 10.1333 22.4 10.7822C22.4 11.4311 21.8756 11.9556 21.2267 11.9556Z" fill="black"/>
<path d="M16 0C7.16444 0 0 7.16444 0 16C0 24.8356 7.16444 32 16 32C24.8356 32 32 24.8356 32 16C32 7.16444 24.8356 0 16 0ZM25.7156 20.0356C25.6711 21.0756 25.5022 21.7867 25.2622 22.4089C24.7556 23.7244 23.7156 24.7644 22.4 25.2711C21.7778 25.5111 21.0667 25.68 20.0267 25.7244C18.9867 25.7689 18.6489 25.7778 16 25.7778C13.3511 25.7778 13.0133 25.7689 11.9733 25.7244C10.9333 25.68 10.2222 25.5111 9.6 25.2711C8.95111 25.0311 8.35556 24.64 7.86667 24.1422C7.36889 23.6533 6.98667 23.0667 6.73778 22.4089C6.49778 21.7867 6.32889 21.0756 6.28444 20.0356C6.24 18.9956 6.23111 18.6578 6.23111 16.0089C6.23111 13.36 6.24 13.0222 6.29333 11.9733C6.33778 10.9333 6.50667 10.2222 6.74667 9.6C6.99556 8.95111 7.37778 8.35556 7.87556 7.86667C8.36444 7.36889 8.95111 6.98667 9.60889 6.73778C10.2311 6.49778 10.9422 6.32889 11.9822 6.28444C13.0222 6.24 13.36 6.23111 16.0089 6.23111C18.6578 6.23111 18.9956 6.24 20.0444 6.29333C21.0844 6.33778 21.7956 6.50667 22.4178 6.74667C23.0667 6.99556 23.6622 7.37778 24.1511 7.87556C24.6489 8.36444 25.0311 8.95111 25.28 9.60889C25.52 10.2311 25.6889 10.9422 25.7333 11.9822C25.7778 13.0222 25.7867 13.36 25.7867 16.0089C25.7867 18.6578 25.7778 18.9956 25.7333 20.0356H25.7156Z" fill="black"/>
</g>
<defs>
<clipPath id="clip0_73_3">
<rect width="32" height="32" fill="white"/>
</clipPath>
</defs>
</svg>
