<svg width="32" height="32" viewBox="0 0 32 32" fill="none" xmlns="http://www.w3.org/2000/svg">
<path d="M29.4703 10.8472C29.4046 9.53436 28.3298 8.50872 27.017 8.50872H22.4139V6.78564C22.4139 3.0441 19.3698 0 15.6364 0C11.9031 0 8.859 3.0441 8.859 6.78564V8.50872H4.25593C2.94311 8.50872 1.86824 9.53436 1.80259 10.8472L0.891825 29.4236C0.859005 30.0882 1.10516 30.7528 1.56465 31.2369C2.02413 31.721 2.67234 32 3.34516 32H27.9113C28.5841 32 29.2323 31.721 29.6918 31.2369C30.1513 30.7528 30.3975 30.0882 30.3646 29.4236L29.4621 10.8472H29.4703ZM11.3123 6.78564C11.3123 4.40615 13.2487 2.46154 15.6282 2.46154C18.0077 2.46154 19.9441 4.39795 19.9441 6.78564V8.50872H11.3041V6.78564H11.3123ZM3.35336 29.5467L4.24772 10.9703H27.0087L27.9113 29.5385H3.35336V29.5467Z" fill="black"/>
<path d="M21.1831 13.1692C20.6416 13.1692 20.1985 13.6123 20.1985 14.1538C20.1985 16.6728 18.1472 18.7159 15.6364 18.7159C13.1257 18.7159 11.0744 16.6646 11.0744 14.1538C11.0744 13.6123 10.6313 13.1692 10.0898 13.1692C9.54824 13.1692 9.10516 13.6123 9.10516 14.1538C9.10516 17.7559 12.0344 20.6851 15.6364 20.6851C19.2385 20.6851 22.1677 17.7559 22.1677 14.1538C22.1677 13.6123 21.7246 13.1692 21.1831 13.1692Z" fill="black"/>
</svg>
