<svg width="32" height="32" viewBox="0 0 32 32" fill="none" xmlns="http://www.w3.org/2000/svg">
<g clip-path="url(#clip0_1299_21)">
<path d="M32 10.67C32 11.77 31.1 12.67 30 12.67H2C0.9 12.67 0 11.77 0 10.67C0 9.57 0.9 8.67 2 8.67H30C31.1 8.67 32 9.57 32 10.67ZM12 17.33H2C0.9 17.33 0 18.23 0 19.33C0 20.43 0.9 21.33 2 21.33H12C13.1 21.33 14 20.43 14 19.33C14 18.23 13.1 17.33 12 17.33ZM2 4H30C31.1 4 32 3.1 32 2C32 0.9 31.1 0 30 0H2C0.9 0 0 0.9 0 2C0 3.1 0.9 4 2 4ZM32 24.49C31.91 29.45 29.39 32 24.5 32C19.61 32 17 29.24 17 24.49C17 19.74 19.68 17.03 24.5 17C29.26 17.03 31.92 19.69 32 24.49ZM27.6 26.55L25.44 24.39V19.84C25.44 19.32 25.02 18.9 24.5 18.9C23.98 18.9 23.56 19.32 23.56 19.84V25.17L26.27 27.88C26.45 28.06 26.69 28.15 26.93 28.15C27.17 28.15 27.41 28.06 27.59 27.88C27.96 27.51 27.96 26.92 27.59 26.55H27.6Z" fill="black"/>
</g>
<defs>
<clipPath id="clip0_1299_21">
<rect width="32" height="32" fill="white"/>
</clipPath>
</defs>
</svg>
