<svg width="32" height="32" viewBox="0 0 32 32" fill="none" xmlns="http://www.w3.org/2000/svg">
<g clip-path="url(#clip0_147_20)">
<path d="M18 0H3C1.34 0 0 1.34 0 3V29C0 30.66 1.34 32 3 32H18C19.66 32 21 30.66 21 29V3C21 1.34 19.66 0 18 0ZM5.12 15.94C4.77 16.13 4.35 15.83 4.43 15.44L5.23 11.41H5.21L2.2 8.62C1.91 8.35 2.07 7.85 2.46 7.81L6.54 7.32L8.26 3.59C8.43 3.22 8.95 3.22 9.11 3.59L10.83 7.32L14.91 7.81C15.31 7.85 15.46 8.35 15.17 8.62L12.16 11.41L12.96 15.44C13.04 15.84 12.62 16.14 12.27 15.94L8.69 13.93L5.11 15.94H5.12ZM18.75 22.44L16.81 24.24L17.33 26.84C17.38 27.1 17.11 27.29 16.89 27.16L14.58 25.87L12.27 27.16C12.04 27.29 11.78 27.09 11.83 26.84L12.35 24.24L10.41 22.44C10.22 22.27 10.32 21.95 10.58 21.92L13.21 21.61L14.32 19.2C14.43 18.96 14.76 18.96 14.87 19.2L15.98 21.61L18.61 21.92C18.87 21.95 18.97 22.27 18.78 22.44H18.75Z" fill="black"/>
<path d="M25.08 4.15C24.3 4.15 23.66 4.79 23.66 5.57V26.42C23.66 27.21 24.3 27.84 25.08 27.84C25.86 27.84 26.5 27.2 26.5 26.42V5.58C26.5 4.79 25.86 4.16 25.08 4.16V4.15Z" fill="black"/>
<path d="M30.58 6.52C29.8 6.52 29.16 7.16 29.16 7.94V24.05C29.16 24.84 29.8 25.47 30.58 25.47C31.36 25.47 32 24.83 32 24.05V7.95C32 7.16 31.36 6.53 30.58 6.53V6.52Z" fill="black"/>
</g>
<defs>
<clipPath id="clip0_147_20">
<rect width="32" height="32" fill="white"/>
</clipPath>
</defs>
</svg>
