<svg width="32" height="32" viewBox="0 0 32 32" fill="none" xmlns="http://www.w3.org/2000/svg">
<g clip-path="url(#clip0_397_89)">
<path d="M13.9772 17.6493C13.9772 16.8402 13.3193 16.1823 12.5101 16.1823C11.701 16.1823 11.0431 16.8402 11.0431 17.6493C11.0431 18.4585 11.701 19.1164 12.5101 19.1164C13.3193 19.1164 13.9772 18.4585 13.9772 17.6493Z" fill="black"/>
<path d="M19.0631 21.1703C18.1562 21.8283 17.0803 22.1217 15.9778 22.0772C14.8752 22.1217 13.7994 21.7838 12.9191 21.1437C12.7502 21.0192 12.5546 21.0192 12.4034 21.1437C12.2345 21.2859 12.2078 21.5349 12.3501 21.7038C13.3815 22.4862 14.6707 22.8775 15.9689 22.833C17.267 22.9041 18.5385 22.4862 19.5877 21.7038H19.641V21.7572C19.7833 21.5882 19.7833 21.3393 19.641 21.1703C19.4721 21.0192 19.2231 21.0192 19.0542 21.1703H19.0631Z" fill="black"/>
<path d="M19.3565 16.2534C18.5474 16.2534 17.8894 16.9114 17.8894 17.7205C17.8894 18.5296 18.5474 19.1876 19.3565 19.1876L19.3298 19.232H19.4009C20.2367 19.2053 20.8413 18.5207 20.8236 17.7116C20.8236 16.9025 20.1656 16.2445 19.3565 16.2445V16.2534Z" fill="black"/>
<path d="M27.9189 0H4.09002C1.83162 0 0 1.83162 0 4.09002V27.91C0 30.1684 1.83162 32 4.09002 32H27.91C30.1684 32 32 30.1684 32 27.91V4.09002C32 1.83162 30.1684 0 27.91 0H27.9189ZM24.6557 18.085C24.6824 18.2806 24.6824 18.5029 24.6557 18.7163C24.6557 22.0417 20.8147 24.7091 16.0756 24.7091C11.3365 24.7091 7.49542 22.015 7.49542 18.7163C7.46874 18.5207 7.46874 18.2984 7.49542 18.085C7.27313 17.9872 7.07752 17.8361 6.90859 17.6938C6.02834 16.8847 6.00167 15.5154 6.81078 14.6618C7.61989 13.7816 8.98916 13.7549 9.84273 14.564C11.5588 13.4171 13.5326 12.7769 15.5866 12.7502L16.6624 7.63768C16.7158 7.38872 16.9558 7.24646 17.2048 7.29091L20.7969 8.00222C21.0192 7.611 21.4371 7.34426 21.8994 7.29091C22.7085 7.19311 23.4198 7.77994 23.5176 8.58905C23.6154 9.39817 23.0286 10.1095 22.2195 10.2073C21.4104 10.3051 20.6991 9.71826 20.6013 8.90914L17.4448 8.26896L16.4935 12.8391C18.5207 12.8836 20.5035 13.4971 22.1662 14.653C22.5307 14.3062 23.0197 14.0928 23.5621 14.0661C24.7624 14.0395 25.7405 14.973 25.7849 16.1467C25.8116 16.9825 25.3404 17.7383 24.6557 18.0761V18.085Z" fill="black"/>
</g>
<defs>
<clipPath id="clip0_397_89">
<rect width="32" height="32" fill="white"/>
</clipPath>
</defs>
</svg>
