<svg width="32" height="32" viewBox="0 0 32 32" fill="none" xmlns="http://www.w3.org/2000/svg">
<g clip-path="url(#clip0_121_177)">
<mask id="mask0_121_177" style="mask-type:luminance" maskUnits="userSpaceOnUse" x="0" y="0" width="32" height="32">
<path d="M16 32C24.8366 32 32 24.8366 32 16C32 7.16344 24.8366 0 16 0C7.16344 0 0 7.16344 0 16C0 24.8366 7.16344 32 16 32Z" fill="white"/>
</mask>
<g mask="url(#mask0_121_177)">
<path d="M-17.6207 0H70.2014V32H-17.6207V0Z" fill="white"/>
</g>
<mask id="mask1_121_177" style="mask-type:luminance" maskUnits="userSpaceOnUse" x="0" y="0" width="32" height="32">
<path d="M16 32C24.8366 32 32 24.8366 32 16C32 7.16344 24.8366 0 16 0C7.16344 0 0 7.16344 0 16C0 24.8366 7.16344 32 16 32Z" fill="white"/>
</mask>
<g mask="url(#mask1_121_177)">
<path d="M-17.6207 0H70.2014V3.55555H-17.6207V0ZM-17.6207 7.1111H70.2014V10.6667H-17.6207V7.1111ZM-17.6207 14.2222H70.2014V17.7778H-17.6207V14.2222ZM-17.6207 21.3333H70.2014V24.8889H-17.6207V21.3333ZM-17.6207 28.4444H70.2014V32H-17.6207V28.4444Z" fill="#B22234"/>
</g>
<mask id="mask2_121_177" style="mask-type:luminance" maskUnits="userSpaceOnUse" x="0" y="0" width="32" height="32">
<path d="M16 32C24.8366 32 32 24.8366 32 16C32 7.16344 24.8366 0 16 0C7.16344 0 0 7.16344 0 16C0 24.8366 7.16344 32 16 32Z" fill="white"/>
</mask>
<g mask="url(#mask2_121_177)">
<path d="M-17.6207 0H17.5081V17.7778H-17.6207V0Z" fill="#3C3B6E"/>
</g>
<mask id="mask3_121_177" style="mask-type:luminance" maskUnits="userSpaceOnUse" x="0" y="0" width="32" height="32">
<path d="M16 32C24.8366 32 32 24.8366 32 16C32 7.16344 24.8366 0 16 0C7.16344 0 0 7.16344 0 16C0 24.8366 7.16344 32 16 32Z" fill="white"/>
</mask>
<g mask="url(#mask3_121_177)">
<path d="M11.5918 1.41357L11.2721 2.3977H10.2375L11.0744 3.00564L10.755 3.98932L11.5918 3.38138L12.4286 3.98932L12.109 3.00554L12.9455 2.3977H11.9114L11.5918 1.41357ZM8.67956 3.90977L8.36001 4.89348H7.3257L8.16257 5.50145L7.84276 6.48516L8.67969 5.87716L9.51639 6.48516L9.19681 5.50145L10.0337 4.89348H8.99914L8.67956 3.90977ZM14.5035 3.90977L14.1839 4.89348H13.1497L13.9865 5.50141L13.6667 6.48516L14.5036 5.87716L15.3403 6.48516L15.0207 5.50151L15.8577 4.89348H14.8233L14.5035 3.90977ZM-11.7042 7.82945L-11.7043 7.82938L-11.7043 7.82929L-11.7042 7.82945H-11.7042ZM-5.88031 7.82945H-5.88035L-5.88025 7.82929V7.82938L-5.88031 7.82945ZM5.76778 6.40561L5.4482 7.38932H4.41364L5.2506 7.99732L4.93098 8.98132L5.76765 8.37335L6.60455 8.98132L6.28468 7.99732L7.12161 7.38932H6.0873L5.76778 6.40561ZM5.76759 7.82945H5.76756L5.76765 7.82929L5.76769 7.82938L5.76759 7.82945ZM11.5918 6.40561L11.2722 7.38932H10.2375L11.0746 7.99735L10.755 8.98132L11.5918 8.37341L12.4286 8.98132L12.1089 7.99725L12.9455 7.38932H11.9113L11.5918 6.40561ZM11.5918 7.82945L11.5917 7.82938L11.5918 7.82929L11.5918 7.82945H11.5918ZM2.85556 8.90186L2.53604 9.88548H1.5018L2.33838 10.4934L2.01876 11.4772L2.85556 10.8692L3.69236 11.4772L3.37281 10.4935L4.20977 9.88548H3.17514L2.85556 8.90186ZM8.67956 8.90186L8.36001 9.88548H7.3257L8.1626 10.4934L7.84276 11.4772L8.67969 10.8691L9.51639 11.4772L9.19681 10.4934L10.0337 9.88548H8.99914L8.67956 8.90186ZM14.5035 8.90186L14.1839 9.88548H13.1497L13.9865 10.4934L13.6667 11.4772L14.5036 10.8691L15.3403 11.4772L15.0207 10.4935L15.8577 9.88548H14.8233L14.5035 8.90186ZM6.08734 12.3814L5.76778 11.3977L5.4482 12.3814H4.41364L5.25053 12.9894L4.93095 13.9729L5.76765 13.365L6.60455 13.9729L6.28477 12.9893L7.12161 12.3814H6.08734ZM11.9113 12.3814L11.5918 11.3977L11.2722 12.3814H10.2375L11.0745 12.9894L10.755 13.9729L11.5918 13.3651L12.4286 13.9729L12.109 12.9893L12.9455 12.3814H11.9113ZM3.17514 14.8775L2.85556 13.8939L2.53601 14.8775H1.5018L2.33834 15.4855L2.01876 16.4692L2.85556 15.8612L3.69236 16.4692L3.37281 15.4856L4.20977 14.8775H3.17514ZM8.99914 14.8775L8.67956 13.8939L8.36001 14.8775H7.3257L8.1626 15.4855L7.84276 16.4692L8.67969 15.8612L9.51639 16.4692L9.19681 15.4855L10.0337 14.8775H8.99914ZM14.8233 14.8775L14.5035 13.8939L14.1839 14.8775H13.1497L13.9865 15.4855L13.6667 16.4692L14.5036 15.8612L15.3403 16.4692L15.0207 15.4856L15.8577 14.8775H14.8233Z" fill="white"/>
</g>
</g>
<defs>
<clipPath id="clip0_121_177">
<rect width="32" height="32" fill="white"/>
</clipPath>
</defs>
</svg>
