<svg width="32" height="32" viewBox="0 0 32 32" fill="none" xmlns="http://www.w3.org/2000/svg">
<g clip-path="url(#clip0_106_14)">
<path d="M25.6533 9.02668C25.4666 8.66668 24.9199 8.80001 24.8933 9.20001C24.7733 11.0933 24.5733 13.9867 24.1333 15C23.6799 12.72 22.8799 10.5333 21.7599 8.50668C19.8266 4.80001 16.7466 1.85334 12.9999 0.0666769C12.5333 -0.15999 11.9999 0.213344 12.0666 0.72001C12.4133 3.40001 11.6666 6.13334 9.97327 8.29334C9.81327 8.49334 9.65327 8.69334 9.47993 8.89334C6.09327 13.0667 2.21327 18.1867 3.5066 23.92C3.8266 25.3867 4.4666 26.76 5.3866 27.9467C7.23993 30.3333 10.0266 31.8133 13.0399 32H19.0266C22.0133 31.7867 24.7733 30.32 26.6133 27.9467C27.5199 26.7733 28.1599 25.4133 28.4799 23.9733C29.4533 19.72 27.8666 13.0933 25.6799 9.02668H25.6533ZM15.9999 30.6667C12.8799 30.6667 10.3333 27.96 10.3333 24.6267C10.3333 24.4533 10.3333 24.2933 10.3599 24.12C10.5599 21.3867 11.6933 19.7733 12.7733 18.2267C13.5333 17.1467 14.3199 16.0267 14.7199 14.6533C15.6266 15.7067 16.3333 17.0267 16.6266 18.2667C16.9599 19.6667 16.9866 21.2133 16.9866 22.56C16.9866 23.08 17.4133 23.5067 17.9333 23.5067C19.5199 23.5067 20.5066 22.4267 21.0533 21.2533C21.3466 21.8933 21.6133 22.8533 21.6533 24.2533C21.6533 24.4 21.6533 24.5067 21.6533 24.6267C21.6533 27.96 19.1066 30.6667 15.9866 30.6667H15.9999Z" fill="black"/>
<path d="M7.3066 1.02083e-05C7.3066 1.02083e-05 9.5066 5.74668 6.33327 9.70668C6.6666 9.80001 14.5733 5.72001 7.3066 1.02083e-05Z" fill="black"/>
</g>
<defs>
<clipPath id="clip0_106_14">
<rect width="32" height="32" fill="white"/>
</clipPath>
</defs>
</svg>
