<svg width="32" height="32" viewBox="0 0 32 32" fill="none" xmlns="http://www.w3.org/2000/svg">
<g clip-path="url(#clip0_24_2066)">
<path d="M6.71059 19.383C6.31529 18.3023 6.08 17.1363 6.08 15.923C6.08 10.4155 10.5318 5.93169 16 5.93169C17.2141 5.93169 18.3624 6.1592 19.4353 6.56681L21.3271 4.66146C19.6329 3.97894 17.8447 3.60924 15.9906 3.60924C9.15765 3.59976 3.2 8.55749 0 15.923C1.03529 18.3023 2.35294 20.4257 3.90588 22.2173L6.71059 19.3924V19.383Z" fill="black"/>
<path d="M8.90353 15.923C8.90353 16.3116 8.94118 16.7003 9.00706 17.07L12.3671 13.6858C12.7247 13.1076 13.2047 12.6241 13.7788 12.2639L17.1388 8.87979C16.7624 8.82291 16.3859 8.77551 16 8.77551C12.0847 8.77551 8.90353 11.9796 8.90353 15.923Z" fill="black"/>
<path d="M1.11059 31.0805C1.66588 31.6398 2.56 31.6398 3.10588 31.0805L8.21647 25.9332C10.5788 27.4025 13.2141 28.2367 16 28.2367C22.8424 28.2367 28.8 23.279 32 15.9135C30.5788 12.6431 28.6118 9.84669 26.2682 7.75174L31.0588 2.92673C31.6141 2.36744 31.6141 1.4669 31.0588 0.917093C30.7859 0.642191 30.4188 0.5 30.0612 0.5C29.7035 0.5 29.3365 0.642191 29.0635 0.917093L1.13882 29.0425C0.583529 29.6018 0.583529 30.5023 1.13882 31.0521L1.11059 31.0805ZM16 23.061C19.9153 23.061 23.0965 19.8569 23.0965 15.9135C23.0965 14.5011 22.6824 13.1834 21.9765 12.0743L24 10.0363C25.2047 11.6857 25.92 13.7143 25.92 15.9135C25.92 21.421 21.4682 25.9048 16 25.9048C13.8165 25.9048 11.8024 25.1844 10.1647 23.971L12.1882 21.9329C13.2894 22.6439 14.5976 23.061 16 23.061Z" fill="black"/>
</g>
<defs>
<clipPath id="clip0_24_2066">
<rect width="32" height="32" fill="white"/>
</clipPath>
</defs>
</svg>
