<svg width="32" height="32" viewBox="0 0 32 32" fill="none" xmlns="http://www.w3.org/2000/svg">
<path d="M12.3733 18.0761C12.2438 18.0761 9.49668 18.0761 8.23871 18.0761C7.59123 18.0761 7.35999 17.8538 7.35999 17.2226C7.35999 15.6043 7.35999 13.9861 7.35999 12.3679C7.35999 11.7455 7.60973 11.5054 8.24796 11.5054C9.51518 11.5054 12.2439 11.5054 12.3826 11.5054V7.98444C12.3826 6.39289 12.6786 4.87246 13.5203 3.47652C14.3805 2.0539 15.6293 1.07585 17.2387 0.506807C18.2469 0.142262 19.3199 0 20.4114 0C21.7803 0 23.14 0 24.509 0C25.0917 0 25.36 0.248958 25.36 0.818005C25.36 2.33843 25.36 3.85885 25.36 5.37927C25.36 5.95721 25.1102 6.17949 24.509 6.18839C23.3898 6.19728 22.2706 6.18839 21.1514 6.23284C20.0229 6.23284 19.4309 6.76632 19.4309 7.88663C19.4032 9.07808 19.4217 10.2606 19.4217 11.4965C19.5234 11.4965 22.7423 11.4965 24.2408 11.4965C24.9252 11.4965 25.1565 11.7188 25.1565 12.3768C25.1565 13.9861 25.1565 15.5954 25.1565 17.2048C25.1565 17.8538 24.9345 18.0583 24.25 18.0583C22.7516 18.0583 19.5511 18.0583 19.4124 18.0583V31.0842C19.4124 31.7777 19.1812 32 18.4689 32H13.2521C12.6231 32 12.3733 31.7688 12.3733 31.1553V18.0583V18.0761Z" fill="black"/>
</svg>
