<svg width="32" height="32" viewBox="0 0 32 32" fill="none" xmlns="http://www.w3.org/2000/svg">
<g clip-path="url(#clip0_24_1966)">
<path d="M31.9485 14.676C30.8942 1.22416 14.2135 -4.94166 4.71532 4.66008C-7.8046 17.6883 6.77686 37.9837 23.1281 30.2835C23.7964 29.9446 24.06 29.1257 23.7211 28.4573C23.3822 27.7984 22.5915 27.5348 21.9231 27.8549C13.7334 32.0721 3.39743 26.2357 2.79497 17.0388C2.02306 9.03734 9.09258 1.96782 17.1034 2.73032C24.4177 3.33278 29.8587 9.74335 29.2562 17.0482C29.1056 18.8462 28.5973 20.5971 27.7501 22.1974C27.2041 23.1575 25.9803 23.487 25.0202 22.941C24.8601 22.8563 24.7189 22.7433 24.5966 22.6116C24.1353 22.1597 23.8811 21.5384 23.8811 20.8889V9.45153C23.8623 8.70787 23.2316 8.11482 22.4879 8.13365C21.7725 8.15247 21.1889 8.72669 21.1701 9.45153V10.0258C16.1997 5.61084 8.11358 9.2915 8.16064 15.9562C8.11358 22.6775 16.2939 26.3299 21.2454 21.8114C21.9608 26.2169 27.9666 27.4971 30.1317 23.4682C31.5625 20.7665 32.1932 17.7166 31.9485 14.6666V14.676ZM16.0115 21.1148C13.1686 21.1148 10.8717 18.8085 10.8623 15.9656C11.1353 9.14089 20.8782 9.14089 21.1606 15.9656C21.1606 18.8085 18.8543 21.1054 16.0115 21.1148Z" fill="black"/>
</g>
<defs>
<clipPath id="clip0_24_1966">
<rect width="32" height="32" fill="white"/>
</clipPath>
</defs>
</svg>
