<svg width="32" height="32" viewBox="0 0 32 32" fill="none" xmlns="http://www.w3.org/2000/svg">
<g clip-path="url(#clip0_590_20)">
<path d="M30.64 1.35958H30.65C29.74 0.449859 28.37 0 26.56 0H5.46C3.64 0 2.28 0.449859 1.36 1.34958C0.45 2.2393 0 3.58888 0 5.38832V26.6217C0 28.4111 0.45 29.7407 1.36 30.6504C2.27 31.5401 3.64 32 5.46 32H26.55C28.36 32 29.74 31.5601 30.64 30.6504C31.55 29.7607 32 28.4111 32 26.6217V5.38832C32 3.59888 31.55 2.25929 30.64 1.35958ZM28.02 17.1446C28.02 17.4945 27.82 17.8144 27.51 17.9644C27.38 18.0344 27.24 18.0744 27.11 18.0744C26.91 18.0744 26.71 18.0044 26.55 17.8744L26.53 17.8544L22.45 15.4152L18.37 17.8544L18.35 17.8744C18.08 18.0943 17.71 18.1243 17.38 17.9844C17.07 17.8344 16.87 17.5145 16.87 17.1646V6.47798C16.87 5.1184 17.98 3.99875 19.35 3.99875H25.55C26.91 3.99875 28.03 5.1084 28.03 6.47798V17.1546L28.02 17.1446Z" fill="black"/>
</g>
<defs>
<clipPath id="clip0_590_20">
<rect width="32" height="32" fill="white"/>
</clipPath>
</defs>
</svg>
