<svg width="32" height="32" viewBox="0 0 32 32" fill="none" xmlns="http://www.w3.org/2000/svg">
<path d="M16.1382 30.9948C16.0849 30.9948 16.0227 30.9948 15.9694 30.9948C13.7393 31.0833 12.2644 30.0295 11.1005 29.2059C10.443 28.7365 9.91878 28.3734 9.39457 28.2849C8.47943 28.1343 7.6176 28.2495 7.04008 28.3646C6.70246 28.4266 6.43591 28.4797 6.16048 28.4797C5.30753 28.4797 4.65894 28.0015 4.41905 27.2045C4.33908 26.9388 4.28578 26.6908 4.23247 26.4517C4.23247 26.4517 4.23247 26.4517 4.23247 26.4429C3.14851 26.248 2.28668 26.0001 1.65585 25.7078C0.891756 25.3536 0.403089 24.9108 0.154312 24.344C0.0654636 24.1315 0.0121544 23.9189 0.00326954 23.7064C-0.0500397 22.8562 0.554131 22.1035 1.40708 21.9707C2.18006 21.8467 2.91751 21.5544 3.60164 21.1205C4.17027 20.7486 4.72113 20.2703 5.21869 19.6947C6.09829 18.6763 6.53365 17.711 6.57807 17.6047L6.63138 17.4985C6.6758 17.4187 6.69357 17.3568 6.70246 17.3125C6.48922 17.1531 5.93836 16.9848 5.71624 16.914C5.503 16.8431 5.34307 16.7988 5.2098 16.7457C4.61452 16.5155 4.14362 16.2409 3.79711 15.9221C3.20182 15.3819 2.93528 14.6734 3.06855 13.9738C3.18405 13.3716 3.57499 12.8491 4.17027 12.5038C4.88106 12.0875 5.7962 11.999 6.48034 12.3178C6.62249 12.3886 6.75577 12.4329 6.86239 12.4772C6.738 10.4138 6.63138 7.96955 7.35105 6.35779C7.85749 5.22424 8.55051 4.24124 9.40346 3.43536C10.1231 2.76231 10.9494 2.21325 11.8735 1.80588C13.4638 1.10627 14.9565 1 15.7028 1H16.2093C17.0356 1 18.5282 1.09741 20.1186 1.79703C21.0426 2.19554 21.8689 2.7446 22.5886 3.4265C23.4415 4.23239 24.1346 5.21538 24.6499 6.35779C25.3696 7.9607 25.2718 10.3695 25.1474 12.4152C25.2185 12.3886 25.2896 12.3532 25.3607 12.3178C25.9471 12.0432 26.7645 12.0344 27.4042 12.3001C28.3371 12.6277 28.9502 13.3982 28.9679 14.2926C28.9768 14.8328 28.7547 15.373 28.3282 15.7981C27.9728 16.1612 27.4664 16.4712 26.7911 16.7368C26.6401 16.79 26.4713 16.852 26.2847 16.9051C26.0626 16.976 25.5117 17.1531 25.2985 17.3036C25.3074 17.339 25.3251 17.3922 25.3607 17.463L25.4229 17.587C25.4495 17.649 27.0755 21.3862 30.5939 21.9618C31.4468 22.0946 32.0421 22.8474 31.9977 23.6975C31.9888 23.9101 31.9355 24.1315 31.8466 24.3352C31.6067 24.8931 31.1092 25.3359 30.3451 25.6901C29.7143 25.9824 28.8613 26.2215 27.7685 26.4251C27.7152 26.682 27.653 26.9211 27.5819 27.1779C27.3598 27.9484 26.6845 28.4443 25.876 28.4443C25.6095 28.4443 25.3251 28.4089 24.9697 28.3469C24.3922 28.2317 23.5304 28.1255 22.6153 28.276C22.1088 28.3557 21.6024 28.71 20.9716 29.1528L20.9094 29.197C19.7721 29.9941 18.3683 30.9859 16.2004 30.9859C16.1826 30.9859 16.1737 30.9859 16.156 30.9859L16.1382 30.9948ZM15.8716 29.0553H16.0227C16.0671 29.0553 16.1204 29.0553 16.1648 29.0553C17.693 29.0553 18.7148 28.3557 19.701 27.6738L19.7721 27.6207C20.5717 27.0628 21.3181 26.5314 22.2776 26.372C22.713 26.3012 23.1395 26.2657 23.5659 26.2657C24.2767 26.2657 24.8276 26.3543 25.3251 26.4517C25.5206 26.4871 25.6539 26.5049 25.7427 26.5137C25.7871 26.3366 25.8227 26.1772 25.8671 26.0089C25.956 25.6104 26.027 25.3359 26.1337 25.1322L26.3558 24.6983L26.8444 24.6186C28.346 24.3794 29.1279 24.1138 29.5277 23.9367C29.6521 23.8835 29.7498 23.8304 29.8209 23.7773C25.7161 22.8385 23.8591 18.8445 23.6637 18.3929V18.3752C23.3172 17.6933 23.2638 17.0734 23.4949 16.5509C23.8858 15.6299 24.9875 15.2845 25.7072 15.0542C25.8493 15.01 25.9826 14.9657 26.0892 14.9303C26.5957 14.7354 26.8267 14.5583 26.9422 14.4432C27.0044 14.3723 27.031 14.3281 27.031 14.3192C27.031 14.3015 26.9333 14.1864 26.7112 14.1067C26.4713 14.0092 26.258 14.0358 26.187 14.0712C25.6006 14.3458 25.0497 14.4963 24.561 14.514C24.1879 14.5052 23.9302 14.4432 23.7081 14.3369L23.095 14.0624L23.175 12.8137C23.2994 10.9097 23.4593 8.4212 22.8818 7.14596C22.4731 6.23381 21.9311 5.45449 21.2648 4.83458C20.705 4.31209 20.0653 3.88701 19.3456 3.5682C18.0751 3.01028 16.8934 2.93058 16.307 2.93058H15.7117C15.1164 2.93058 13.9347 3.01913 12.6731 3.57705C11.9534 3.88701 11.3137 4.31209 10.754 4.83458C10.0876 5.46335 9.54562 6.24266 9.1458 7.14596C8.56828 8.4212 8.72821 10.9097 8.84371 12.7251L8.92368 14.0801L8.31062 14.3546C7.62649 14.6557 6.71134 14.5672 5.67181 14.0801C5.65404 14.0801 5.35196 14.0801 5.17426 14.1775C5.04099 14.2572 4.99656 14.3281 4.99656 14.3369C4.99656 14.3369 5.02322 14.3989 5.12095 14.4875C5.23646 14.5937 5.47635 14.762 5.93836 14.9391C6.03609 14.9745 6.1516 15.01 6.2671 15.0542C7.04008 15.2933 8.13292 15.6476 8.53274 16.5686C8.75486 17.0999 8.70155 17.711 8.37281 18.3929C8.28397 18.6054 7.75087 19.7567 6.71134 20.9611C6.0894 21.6784 5.40527 22.2806 4.67671 22.75C3.90373 23.2459 3.06855 23.6001 2.19783 23.795C2.2778 23.8392 2.36664 23.8924 2.49103 23.9544C2.89085 24.1403 3.6816 24.406 5.17426 24.6363L5.65404 24.7071L5.88505 25.1411C6.00055 25.3624 6.07163 25.6458 6.1516 26.0266C6.18714 26.2038 6.22268 26.372 6.27598 26.5491C6.3826 26.5403 6.50699 26.5137 6.64026 26.4871C7.09339 26.3986 7.69756 26.2835 8.44389 26.2835C8.86148 26.2835 9.29684 26.3189 9.7322 26.3897C10.6918 26.5491 11.4381 27.0805 12.2377 27.6384C13.2417 28.3469 14.2724 29.073 15.8272 29.073H15.8894L15.8716 29.0553Z" fill="black"/>
</svg>
