<svg width="32" height="32" viewBox="0 0 32 32" fill="none" xmlns="http://www.w3.org/2000/svg">
<g clip-path="url(#clip0_1780_97)">
<path d="M12.7333 32H6.89333C3.09333 32 0 28.9067 0 25.1067V19.2667H3.38667V25.1067C3.38667 27.04 4.96 28.6133 6.89333 28.6133H12.7333V32Z" fill="black"/>
<path d="M32 12.7333H28.6133V6.89333C28.6133 4.96 27.04 3.38667 25.1067 3.38667H19.2667V0H25.1067C28.9067 0 32 3.09333 32 6.89333V12.7333Z" fill="black"/>
<path d="M3.38667 12.7333H0V6.89333C0 3.09333 3.09333 0 6.89333 0H12.7333V3.38667H6.89333C4.96 3.38667 3.38667 4.96 3.38667 6.89333V12.7333Z" fill="black"/>
<path d="M25.1067 32H19.2667V28.6133H25.1067C27.04 28.6133 28.6133 27.04 28.6133 25.1067V19.2667H32V25.1067C32 28.9067 28.9067 32 25.1067 32Z" fill="black"/>
</g>
<defs>
<clipPath id="clip0_1780_97">
<rect width="32" height="32" fill="white"/>
</clipPath>
</defs>
</svg>
