<svg width="32" height="32" viewBox="0 0 32 32" fill="none" xmlns="http://www.w3.org/2000/svg">
<g clip-path="url(#clip0_24_2046)">
<path d="M25.5134 0H6.49603C2.90909 0 0 2.90909 0 6.49603V25.504C0 29.0909 2.90909 32 6.49603 32H25.504C29.0909 32 32 29.0909 32 25.504V6.49603C32 2.90909 29.0909 0 25.504 0H25.5134ZM29.7499 25.5134C29.7499 27.8482 27.8482 29.7499 25.5134 29.7499H6.49603C4.16122 29.7499 2.25949 27.8482 2.25949 25.5134V6.49603C2.25949 4.16122 4.16122 2.25949 6.49603 2.25949H25.504C27.8388 2.25949 29.7405 4.16122 29.7405 6.49603V25.504L29.7499 25.5134Z" fill="black"/>
<path d="M9.24507 15.6846L15.7882 22.2371C15.9106 22.3595 16.0989 22.3595 16.2212 22.2371L22.7643 15.6846C22.8773 15.5716 22.9526 15.4304 22.9903 15.2704C23.0185 15.1103 22.9997 14.9503 22.9432 14.8091C22.8773 14.6584 22.7738 14.536 22.6514 14.4419C22.5196 14.3572 22.3689 14.3101 22.1995 14.3101H18.0853V5.2439C18.0853 5.07443 17.9441 4.94263 17.7841 4.94263H14.2254C14.0559 4.94263 13.9241 5.08385 13.9241 5.2439V14.3101H9.80994C9.6499 14.3101 9.49926 14.3572 9.35805 14.4419C9.22624 14.5266 9.12268 14.649 9.0662 14.8091C9.00971 14.9597 8.99088 15.1197 9.01912 15.2704C9.04737 15.4304 9.1321 15.5716 9.24507 15.6846Z" fill="black"/>
<path d="M7.37158 24.506C7.21153 24.506 7.08914 24.6284 7.08914 24.7885V26.7938C7.08914 26.9538 7.21153 27.0762 7.37158 27.0762H24.6472C24.8073 27.0762 24.9297 26.9538 24.9297 26.7938V24.7885C24.9297 24.6284 24.8073 24.506 24.6472 24.506H7.37158Z" fill="black"/>
</g>
<defs>
<clipPath id="clip0_24_2046">
<rect width="32" height="32" fill="white"/>
</clipPath>
</defs>
</svg>
