<svg width="32" height="32" viewBox="0 0 32 32" fill="none" xmlns="http://www.w3.org/2000/svg">
<path d="M28.7226 26.0267L27.7627 25.3867L28.7638 24.04C29.1341 23.5467 29.1478 22.8933 28.7912 22.3867L28.4347 21.88C28.133 21.4533 27.6256 21.2 27.077 21.2H25.8153L23.8543 16.3067C23.7034 15.9067 23.3469 15.6133 22.9355 15.4133C22.6201 15.24 22.3732 14.9867 22.2361 14.68L22.0578 14.28C21.9344 14 21.7287 13.7733 21.4544 13.6C21.1527 13.4133 20.9196 13.12 20.8098 12.8L20.4259 11.6533C20.2202 11.0267 19.5893 10.5867 18.8762 10.5867H17.7928C17.5871 10.5867 17.3951 10.4933 17.2717 10.3333C17.1757 10.2 17.1483 10.04 17.1757 9.90667L18.122 9.22667L18.2454 8.97333L17.5871 8.72C17.5871 8.72 19.699 7.4 20.179 6.85333C20.4533 6.53333 20.6179 6.04 20.7001 5.69333C20.755 5.56 20.7824 5.41333 20.7824 5.26667C20.7824 4.54667 20.1516 3.97333 19.3836 3.97333H15.2009L15.4615 2.04L16.106 1.58667C16.3392 1.42667 16.49 1.16 16.49 0.88C16.49 0.386667 16.0649 0 15.5301 0C14.913 0 14.3096 0.133333 13.7336 0.36L12.9519 0L11.416 0.693333L11.2103 1.89333C11.1554 1.97333 11.0868 2.02667 11.032 2.10667L10.744 2.64L9.90746 3.05333C9.38634 3.30667 8.9475 3.69333 8.63208 4.16C8.19325 4.82667 8.30296 5.69333 8.90636 6.24L9.31777 6.62667L8.89264 7.01333C8.2481 7.61333 7.87783 8.42667 7.87783 9.26667C7.87783 10 8.52237 10.5867 9.30406 10.5867L10.2092 9.73333L10.4012 9.90667L9.52347 11.2533L9.41376 11.4267L9.70175 11.6667H10.6069L9.50976 12.6933C9.50976 13.48 9.57833 14.0267 9.57833 14.0267C9.57833 14.0267 10.0994 14.9067 11.0457 14.9733C11.9919 15.04 12.8285 14.56 12.8285 14.56H13.4867C14.3507 14.56 15.0364 15.2 15.0364 16V16.5467L16.2843 18.28C16.4078 18.4533 16.4626 18.64 16.4626 18.84C16.4626 19.4 15.9689 19.8533 15.3655 19.8533H13.2125C12.6365 19.8533 12.1702 20.2933 12.1702 20.8267C12.1565 21.0133 12.1976 21.2133 12.2799 21.3867L12.8833 22.5067L11.1965 23.5467C10.9634 23.6933 10.7988 23.92 10.744 24.1733C10.6343 24.7067 11.0046 25.2133 11.5805 25.3067C12.6776 25.4267 13.6239 26.0133 14.241 26.8667C14.3233 26.9733 14.3781 27.0933 14.3644 27.2267C14.3644 27.5467 14.0764 27.8 13.7336 27.8H13.4867C12.5542 27.7867 11.7862 28.36 11.4434 29.1333L8.75551 30.4533C8.42638 30.4533 8.11096 30.6267 7.96011 30.9067C7.74069 31.3067 7.91897 31.8 8.35781 32L11.416 31.4267C12.1016 31.7733 12.9382 31.7867 13.7062 31.7733C14.5564 31.7733 15.3655 31.4667 15.9689 30.9067L16.4626 30.4533H17.7243C18.6979 30.4533 19.603 29.9467 20.0419 29.1333H25.7605L28.037 28.7067C28.4347 28.6267 28.7912 28.4267 29.0243 28.12C29.5455 27.4533 29.3946 26.52 28.6678 26.0267H28.7226Z" fill="black"/>
<path d="M8.65951 15.6533H7.57613L7.45271 15.4933L8.2481 14.76L7.90526 14.12C7.52127 13.3733 5.80706 13.1733 5.09395 13.5467L4.20256 13.88L3.846 14.84C3.44831 15.0667 2.74891 15.5333 2.66663 15.84V15.9067C2.66663 16.5867 3.55802 17.2 4.29856 17.2C4.32598 17.2 4.36712 17.2 4.39455 17.1867L4.79225 16.5333H5.29966L5.45051 17.1333C5.5465 17.16 5.65621 17.16 5.73849 17.2133L6.06762 17.3733C6.49275 17.5733 7.01387 17.5467 7.41156 17.2933L8.06982 16.88C9.63318 17.0667 9.22177 16.2933 8.65951 15.6533Z" fill="black"/>
<path d="M5.6425 3.96L6.46532 3.84L8.57723 1.93333C8.74179 1.78667 8.8515 1.58667 8.90636 1.36L8.93379 1.25333C9.04349 0.786667 8.8515 0.386667 8.49495 0.346667L7.42528 0.24C7.247 0.226667 7.06872 0.293333 6.90416 0.44L6.09505 1.17333C5.93049 1.32 5.82078 1.52 5.76592 1.74667L5.46422 2.97333C5.43679 3.10667 5.36822 3.24 5.28594 3.36L5.31337 3.76L5.6425 3.96Z" fill="black"/>
<path d="M5.21737 6.41333L5.65621 4.77333L4.69625 4.61333L4.29856 5.10667L3.846 6.05333L3.73629 6.62667C3.73629 6.62667 4.17513 6.98667 4.46312 6.93333C4.75111 6.88 5.23109 6.4 5.23109 6.4L5.21737 6.41333Z" fill="black"/>
</svg>
