<svg width="32" height="32" viewBox="0 0 32 32" fill="none" xmlns="http://www.w3.org/2000/svg">
<g clip-path="url(#clip0_24_49)">
<path d="M31.5766 18.2451C30.571 17.5647 29.4044 17.7648 28.3586 18.3651C27.3127 18.9655 21.3326 24.0619 21.3326 24.0619H15.433C15.1648 24.0619 14.8564 23.7551 14.8564 23.4882C14.8564 23.168 15.138 22.9145 15.433 22.9145H19.0398C20.3002 22.9145 21.7215 22.1007 21.7215 20.6465C21.7215 19.0989 20.3136 18.3785 19.0398 18.3785C16.8542 18.3785 16.4252 18.3785 16.4252 18.3785C15.5536 18.3785 14.6553 18.3251 13.9715 17.9649C13.0597 17.498 12.0004 17.2311 10.8741 17.2311C8.98357 17.2311 7.29412 17.9782 6.14101 19.1656L0 25.1826L6.85165 32L9.13106 29.732H20.7024C21.8556 29.732 22.9684 29.3184 23.8266 28.5446L31.657 19.806C32.1397 19.3791 32.1129 18.6053 31.5766 18.2451Z" fill="black"/>
<path d="M16.4654 8.43919L17.1895 7.25181C17.404 6.90493 17.9001 6.89159 18.128 7.25181L19.6432 9.62657L21.8556 4.98378C22.0433 4.58354 22.6198 4.5702 22.8344 4.9571L24.7249 8.46587H29.3374C32.7565 3.14267 25.9987 -2.9143 20.8767 1.55505C16.7872 -2.00709 11.5848 1.12813 11.4909 5.37068C11.4641 6.45133 11.7859 7.50529 12.4027 8.47921H16.452L16.4654 8.43919Z" fill="black"/>
<path d="M23.9204 9.63991L22.3785 6.7982L20.2063 11.3609C20.0186 11.7478 19.4823 11.7879 19.2409 11.4143L17.6722 8.94616L17.2565 9.63991C17.1626 9.8 16.9749 9.90673 16.7872 9.90673H13.301C13.4083 10.0268 12.8318 9.43979 20.5013 17.0444C20.7158 17.2578 21.0645 17.2578 21.279 17.0444C28.8413 9.55986 28.372 10.0268 28.4793 9.90673H24.4031C24.202 9.90673 24.0143 9.8 23.9204 9.61322V9.63991Z" fill="black"/>
</g>
<defs>
<clipPath id="clip0_24_49">
<rect width="32" height="32" fill="white"/>
</clipPath>
</defs>
</svg>
