<svg width="32" height="32" viewBox="0 0 32 32" fill="none" xmlns="http://www.w3.org/2000/svg">
<path d="M30.0951 3.40767L5.79318 1.78264C5.2515 1.74592 4.72819 1.92035 4.31504 2.27841C3.9019 2.63647 3.6632 3.13224 3.62647 3.67392L3.44285 6.4741H3.60811L2.00145 6.48328C0.899733 6.48328 0 7.38302 0 8.48473V28.2605C0 29.3622 0.899733 30.2619 2.00145 30.2619H26.4319C27.5337 30.2619 28.4334 29.3622 28.4334 28.2605V27.1129H28.516C28.5619 27.1129 28.6078 27.1221 28.6537 27.1221C29.1495 27.1221 29.6177 26.9476 29.9941 26.6171C30.4073 26.259 30.646 25.7633 30.6827 25.2216L31.9956 5.56519C32.069 4.44511 31.2152 3.47193 30.1043 3.39849L30.0951 3.40767ZM26.5972 28.2697C26.5972 28.3615 26.5238 28.4349 26.4319 28.4349H2.01063C1.91882 28.4349 1.84537 28.3615 1.84537 28.2697V21.4482L7.23459 16.7568C7.65691 16.3528 8.31794 16.362 8.7678 16.8119L18.1783 25.2583C18.3527 25.4144 18.5731 25.497 18.7934 25.497C19.0413 25.497 19.2983 25.396 19.4728 25.1941C19.8125 24.8176 19.7758 24.2392 19.3993 23.8995L18.2425 22.8621L21.1621 20.3649C21.3457 20.1904 21.6395 20.1904 21.8782 20.42L26.4778 24.3494C26.4778 24.3494 26.5513 24.3953 26.5972 24.4137V28.2697ZM26.5972 22.0266L23.1268 19.0704C22.2363 18.1798 20.8224 18.1614 19.941 18.9969L16.8654 21.6227L10.0256 15.4898C8.90552 14.3697 7.12441 14.3422 5.99516 15.4072L1.83619 19.0245V8.49391C1.83619 8.4021 1.90964 8.32866 2.00145 8.32866H26.4319C26.5238 8.32866 26.5972 8.4021 26.5972 8.49391V22.0266ZM28.8465 25.1022C28.8465 25.1665 28.8098 25.2124 28.7823 25.24C28.7547 25.2675 28.7088 25.2859 28.6354 25.2859H28.4334V8.49391C28.4334 7.3922 27.5337 6.49247 26.4319 6.49247H5.27904L5.46266 3.80245C5.46266 3.73818 5.49939 3.69228 5.52693 3.66473C5.55447 3.63719 5.60038 3.60965 5.67382 3.61883L29.9758 5.23468C30.086 5.23468 30.1686 5.33567 30.1594 5.44584L28.8465 25.1022Z" fill="black"/>
<path d="M19.2708 9.80679C17.6917 9.80679 16.4064 11.0921 16.4064 12.6712C16.4064 14.2504 17.6917 15.5357 19.2708 15.5357C20.8499 15.5357 22.1353 14.2504 22.1353 12.6712C22.1353 11.0921 20.8499 9.80679 19.2708 9.80679ZM19.2708 13.6903C18.7016 13.6903 18.2425 13.2313 18.2425 12.6621C18.2425 12.0928 18.7016 11.6338 19.2708 11.6338C19.84 11.6338 20.2991 12.0928 20.2991 12.6621C20.2991 13.2313 19.84 13.6903 19.2708 13.6903Z" fill="black"/>
</svg>
