<svg width="32" height="32" viewBox="0 0 32 32" fill="none" xmlns="http://www.w3.org/2000/svg">
<g clip-path="url(#clip0_24_1988)">
<path d="M16 0C12.8355 0 9.74207 0.938383 7.11088 2.69649C4.4797 4.45459 2.42894 6.95345 1.21793 9.87706C0.00693265 12.8007 -0.309921 16.0177 0.307443 19.1214C0.924806 22.2251 2.44866 25.0761 4.6863 27.3137C6.92394 29.5513 9.77487 31.0752 12.8786 31.6926C15.9823 32.3099 19.1993 31.9931 22.1229 30.7821C25.0466 29.5711 27.5454 27.5203 29.3035 24.8891C31.0616 22.2579 32 19.1645 32 16C31.995 11.7581 30.3077 7.69132 27.3082 4.69182C24.3087 1.69232 20.2419 0.00500432 16 0ZM16 29.0909C13.4109 29.0909 10.8799 28.3231 8.72709 26.8847C6.5743 25.4462 4.8964 23.4017 3.90558 21.0097C2.91476 18.6176 2.65552 15.9855 3.16064 13.4461C3.66575 10.9067 4.91254 8.57412 6.74334 6.74333C8.57413 4.91253 10.9067 3.66574 13.4461 3.16063C15.9855 2.65551 18.6176 2.91476 21.0097 3.90558C23.4017 4.8964 25.4462 6.57429 26.8847 8.72708C28.3231 10.8799 29.0909 13.4109 29.0909 16C29.0867 19.4706 27.7061 22.7979 25.252 25.252C22.7979 27.7061 19.4706 29.0867 16 29.0909Z" fill="black"/>
<path d="M17.4545 15.3978V7.27273C17.4545 6.88696 17.3013 6.51699 17.0285 6.24421C16.7557 5.97143 16.3858 5.81818 16 5.81818C15.6142 5.81818 15.2443 5.97143 14.9715 6.24421C14.6987 6.51699 14.5455 6.88696 14.5455 7.27273V16C14.5455 16.3857 14.6988 16.7556 14.9716 17.0284L19.3353 21.392C19.6096 21.657 19.977 21.8036 20.3584 21.8002C20.7398 21.7969 21.1046 21.644 21.3743 21.3743C21.644 21.1046 21.7969 20.7398 21.8003 20.3584C21.8036 19.977 21.657 19.6096 21.392 19.3353L17.4545 15.3978Z" fill="black"/>
</g>
<defs>
<clipPath id="clip0_24_1988">
<rect width="32" height="32" fill="white"/>
</clipPath>
</defs>
</svg>
