<svg width="32" height="32" viewBox="0 0 32 32" fill="none" xmlns="http://www.w3.org/2000/svg">
<g clip-path="url(#clip0_617_37)">
<path d="M27.86 0H4.14C1.86 0 0 1.86 0 4.14V27.86C0 30.14 1.86 32 4.14 32H27.86C30.14 32 32 30.14 32 27.86V4.14C32 1.86 30.14 0 27.86 0ZM6.26 15.92L10.38 11.68C10.89 11.16 10.92 11.13 11.43 11.65L12.24 12.47C12.72 12.97 12.72 12.93 12.24 13.43L9.85 15.93C9.37 16.43 9.37 16.39 9.85 16.89L12.24 19.33C12.72 19.83 12.75 19.83 12.24 20.32L11.43 21.09C11.07 21.44 10.72 21.43 10.38 21.06L6.26 16.85C5.96 16.54 5.96 16.23 6.26 15.92ZM15.23 23.77H14.03C13.07 23.77 13.04 23.77 13.28 22.87L16.68 9.45C16.8 8.95 16.77 8.95 17.31 8.95H18.51C19.47 8.95 19.5 8.95 19.26 9.85L15.86 23.27C15.74 23.77 15.77 23.77 15.23 23.77ZM26.28 16.84L22.16 21.06C21.82 21.43 21.47 21.44 21.11 21.09L20.3 20.31C19.79 19.81 19.82 19.81 20.3 19.32L22.69 16.88C23.17 16.38 23.17 16.42 22.69 15.92L20.3 13.42C19.82 12.92 19.82 12.96 20.3 12.46L21.11 11.64C21.62 11.12 21.65 11.14 22.16 11.67L26.28 15.91C26.58 16.22 26.58 16.53 26.28 16.84Z" fill="black"/>
</g>
<defs>
<clipPath id="clip0_617_37">
<rect width="32" height="32" fill="white"/>
</clipPath>
</defs>
</svg>
