<svg width="32" height="32" viewBox="0 0 32 32" fill="none" xmlns="http://www.w3.org/2000/svg">
<path d="M4.44447 19.5554C6.40815 19.5554 8.00003 17.9636 8.00003 15.9999C8.00003 14.0362 6.40815 12.4443 4.44447 12.4443C2.48079 12.4443 0.888916 14.0362 0.888916 15.9999C0.888916 17.9636 2.48079 19.5554 4.44447 19.5554Z" fill="black"/>
<path d="M27.5556 19.5554C29.5193 19.5554 31.1111 17.9636 31.1111 15.9999C31.1111 14.0362 29.5193 12.4443 27.5556 12.4443C25.5919 12.4443 24 14.0362 24 15.9999C24 17.9636 25.5919 19.5554 27.5556 19.5554Z" fill="black"/>
<path d="M16 19.5554C17.9637 19.5554 19.5556 17.9636 19.5556 15.9999C19.5556 14.0362 17.9637 12.4443 16 12.4443C14.0363 12.4443 12.4445 14.0362 12.4445 15.9999C12.4445 17.9636 14.0363 19.5554 16 19.5554Z" fill="black"/>
</svg>
