<svg width="32" height="32" viewBox="0 0 32 32" fill="none" xmlns="http://www.w3.org/2000/svg">
<g clip-path="url(#clip0_1813_56)">
<path d="M16 32C24.8366 32 32 24.8366 32 16C32 7.16344 24.8366 0 16 0C7.16344 0 0 7.16344 0 16C0 24.8366 7.16344 32 16 32Z" fill="white"/>
<path d="M32 16.0001C32 9.12074 27.658 3.25599 21.5652 0.995361V31.005C27.658 28.7442 32 22.8796 32 16.0001Z" fill="#F78800"/>
<path d="M0 16.0001C0 22.8796 4.342 28.7442 10.4348 31.005V0.995361C4.342 3.25599 0 9.12074 0 16.0001Z" fill="#399B1C"/>
</g>
<defs>
<clipPath id="clip0_1813_56">
<rect width="32" height="32" fill="white"/>
</clipPath>
</defs>
</svg>
