<svg width="58" height="32" viewBox="0 0 58 32" fill="none" xmlns="http://www.w3.org/2000/svg">
<path d="M57.3947 12.702H50.21V5.534C50.21 5.32302 50.0379 5.1509 49.8269 5.1509H44.047C43.8361 5.1509 43.6639 5.32302 43.6639 5.534V12.702H36.4682C36.2572 12.702 36.0851 12.8741 36.0851 13.0851V18.8705C36.0851 19.0815 36.2572 19.2536 36.4682 19.2536H43.6639V26.4549C43.6639 26.6659 43.8361 26.838 44.047 26.838H49.8269C50.0379 26.838 50.21 26.6659 50.21 26.4549V19.2536H57.3947C57.6057 19.2536 57.7778 19.0815 57.7778 18.8705V13.0851C57.7778 12.8741 57.6057 12.702 57.3947 12.702Z" fill="black"/>
<path d="M20.7109 23.3346C20.7109 23.7676 20.7442 23.8787 21.0329 24.0119L21.4771 24.2229V18.7984H20.7109V23.3346ZM20.7109 7.7327V14.1733H21.4771V7.51061C21.3494 7.46619 21.2439 7.44398 21.1717 7.44398C20.9108 7.44398 20.7831 7.57724 20.7053 7.7327H20.7109ZM10.5614 24.2562V7.51616C10.4281 7.47174 10.3226 7.44398 10.256 7.44398C9.99502 7.44398 9.86177 7.57724 9.78959 7.7327V23.3346C9.78959 23.7676 9.82845 23.862 10.1116 24.0119L10.5614 24.2562ZM10.9334 18.8039V24.4561L12.1104 25.0946C12.4436 25.2889 12.3658 25.4999 12.1549 25.6554C10.9833 26.5271 9.87842 27.3877 8.69579 28.3594C6.66366 27.471 4.01523 26.3716 1.98311 25.6054C1.64442 25.4722 1.61111 25.2556 1.88317 25.0613L3.23792 24.1008V9.53718C3.23792 9.10411 3.19905 9.00972 2.91589 8.85981L0.228593 7.41067C-0.110095 7.22744 -0.0268112 7.00535 0.184175 6.84989C1.3557 5.97818 3.14353 4.60678 4.33171 3.62958C6.31387 4.63454 8.22385 5.5229 10.0561 6.27801C11.5163 5.51179 13.0432 4.65119 14.5978 3.62958C16.4579 4.73448 18.5511 5.83938 20.2778 6.65556C21.888 5.75054 23.6258 4.72893 25.2804 3.62958C27.3569 4.81776 30.0054 6.1392 31.932 6.9998C32.2651 7.14971 32.2707 7.31628 32.0264 7.54392L31.6322 7.89371V21.3802C31.6322 23.44 31.9986 24.2396 33.1035 24.656C33.3923 24.767 33.3867 25.0002 33.1813 25.1446C31.9986 25.9996 30.2219 27.31 28.8116 28.3705C25.7135 27.6986 25.0805 26.1551 25.0805 22.585V9.89808C25.0805 9.465 25.0305 9.38727 24.7585 9.21515C24.1311 8.82094 22.7319 8.03252 21.8491 7.65497V14.1678H24.6752L21.8491 18.7484V24.395L23.3371 25.0946C23.6869 25.2612 23.5981 25.5055 23.3815 25.6554C22.21 26.4605 20.9274 27.3822 19.6171 28.3594C17.5239 27.3655 15.3196 26.4272 13.2264 25.6054C12.8877 25.4722 12.8877 25.2889 13.132 25.0613L14.1648 24.1008V18.7984H10.9389L10.9334 18.8039ZM10.9334 7.66052V17.8045L13.2264 14.1733H14.1592V9.90363C14.1592 9.47056 14.1092 9.39282 13.8372 9.2207C13.2098 8.82649 11.8106 8.03807 10.9334 7.66052Z" fill="black"/>
</svg>
