<svg width="32" height="32" viewBox="0 0 32 32" fill="none" xmlns="http://www.w3.org/2000/svg">
<g clip-path="url(#clip0_1309_50)">
<path d="M31.336 23.9552L20.0274 3.27861C19.1175 1.75622 17.5577 1 15.9979 1C14.4381 1 12.8783 1.75622 11.9684 3.27861L0.669857 23.9552C-1.18991 27.0597 1.05981 31 4.69935 31H27.3065C30.9461 31 33.1958 27.0697 31.336 23.9552ZM29.1163 27.3682C28.9363 27.6866 28.3964 28.4129 27.2965 28.4129H4.69935C3.59949 28.4129 3.05956 27.6766 2.87958 27.3682C2.6996 27.0498 2.33965 26.2139 2.89958 25.2786L2.92957 25.2388L2.94957 25.199L14.2282 4.57214C14.7781 3.68657 15.648 3.58706 15.9979 3.58706C16.3479 3.58706 17.2278 3.68657 17.7777 4.57214L29.0563 25.199L29.0963 25.2786C29.6562 26.2139 29.2963 27.0498 29.1163 27.3682Z" fill="black"/>
<path d="M14.6081 20.3731H17.3778C17.6477 20.3731 17.8777 20.1542 17.8877 19.8856L18.3176 10.0647C18.3276 9.77612 18.0977 9.52736 17.8077 9.52736H14.1882C13.8982 9.52736 13.6582 9.76617 13.6782 10.0647L14.1082 19.8856C14.1182 20.1542 14.3481 20.3731 14.6181 20.3731H14.6081Z" fill="black"/>
<path d="M15.9979 26.4428C17.1686 26.4428 18.1177 25.4984 18.1177 24.3333C18.1177 23.1683 17.1686 22.2239 15.9979 22.2239C14.8272 22.2239 13.8782 23.1683 13.8782 24.3333C13.8782 25.4984 14.8272 26.4428 15.9979 26.4428Z" fill="black"/>
</g>
<defs>
<clipPath id="clip0_1309_50">
<rect width="32" height="32" fill="white"/>
</clipPath>
</defs>
</svg>
