<svg width="32" height="32" viewBox="0 0 32 32" fill="none" xmlns="http://www.w3.org/2000/svg">
<path d="M26.2053 9.07126H20.6823V11.415H26.2053C27.0131 11.415 27.6612 12.0738 27.6612 12.8739V28.1974C27.6612 29.0068 27.0037 29.6563 26.2053 29.6563H5.7947C4.98692 29.6563 4.33881 28.9974 4.33881 28.1974V12.8833C4.33881 12.0738 4.99631 11.4244 5.7947 11.4244H11.3177V9.08067H5.7947C3.7001 9.08067 2 10.7843 2 12.8833V28.1974C2 30.2963 3.7001 32 5.7947 32H26.2053C28.2999 32 30 30.2963 30 28.1974V12.8833C30 10.7843 28.2999 9.08067 26.2053 9.08067V9.07126Z" fill="black"/>
<path d="M12.1536 6.6899L14.8306 4.00735V20.658C14.8306 21.3074 15.3566 21.8345 16.0047 21.8345C16.6528 21.8345 17.1788 21.3074 17.1788 20.658V3.99794L19.8558 6.68049C20.0812 6.90639 20.3818 7.02875 20.6823 7.02875C20.9829 7.02875 21.2835 6.9158 21.5089 6.68049C21.9691 6.21928 21.9691 5.4757 21.5089 5.0239L16.8313 0.345908C16.371 -0.115303 15.629 -0.115303 15.1781 0.345908L10.5005 5.03331C10.0403 5.49452 10.0403 6.23811 10.5005 6.6899C10.9608 7.1417 11.7028 7.15111 12.1536 6.6899Z" fill="black"/>
</svg>
