<svg width="32" height="32" viewBox="0 0 32 32" fill="none" xmlns="http://www.w3.org/2000/svg">
<g clip-path="url(#clip0_77_115)">
<path d="M16 0C7.16444 0 0 7.16444 0 16C0 24.8356 7.16444 32 16 32C24.8356 32 32 24.8356 32 16C32 7.16444 24.8356 0 16 0ZM12.6756 16.0089C12.6756 16.3378 12.6222 16.6578 12.5333 16.96L18.4267 20.32C19.0222 19.6711 19.8756 19.2711 20.8178 19.2711C22.6222 19.2711 24.08 20.7289 24.08 22.5244C24.08 24.32 22.6222 25.7867 20.8178 25.7867C19.0133 25.7867 17.5556 24.3289 17.5556 22.5244C17.5556 22.2578 17.5822 22 17.6444 21.7511L11.6711 18.3467C11.0844 18.9156 10.2844 19.2711 9.40444 19.2711C7.6 19.2711 6.14222 17.8133 6.14222 16.0089C6.14222 14.2044 7.6 12.7467 9.40444 12.7467C10.2844 12.7467 11.0844 13.0933 11.6711 13.6711L17.6444 10.2667C17.5911 10.0178 17.5556 9.76 17.5556 9.49333C17.5556 7.68889 19.0133 6.23111 20.8178 6.23111C22.6222 6.23111 24.08 7.69778 24.08 9.50222C24.08 11.3067 22.6222 12.7644 20.8178 12.7644C19.8756 12.7644 19.0222 12.3556 18.4267 11.7156L12.5333 15.0756C12.6222 15.3778 12.6756 15.6978 12.6756 16.0267V16.0089Z" fill="black"/>
</g>
<defs>
<clipPath id="clip0_77_115">
<rect width="32" height="32" fill="white"/>
</clipPath>
</defs>
</svg>
