<svg width="32" height="32" viewBox="0 0 32 32" fill="none" xmlns="http://www.w3.org/2000/svg">
<g clip-path="url(#clip0_24_2056)">
<path d="M27.7067 4.0178H24.7111V1.82225C24.7111 1.30669 24.2934 0.888916 23.7778 0.888916C23.2622 0.888916 22.8445 1.30669 22.8445 1.82225V4.0178H16.9334V1.82225C16.9334 1.30669 16.5156 0.888916 16 0.888916C15.4845 0.888916 15.0667 1.30669 15.0667 1.82225V4.0178H9.15558V1.82225C9.15558 1.30669 8.7378 0.888916 8.22225 0.888916C7.70669 0.888916 7.28892 1.30669 7.28892 1.82225V4.0178H4.29336C2.4178 4.0178 0.888916 5.54669 0.888916 7.42225V27.7067C0.888916 29.5822 2.4178 31.1111 4.29336 31.1111H27.7067C29.5822 31.1111 31.1111 29.5822 31.1111 27.7067V7.42225C31.1111 5.54669 29.5822 4.0178 27.7067 4.0178ZM27.7067 29.2445H4.29336C3.44892 29.2445 2.75558 28.5511 2.75558 27.7067V13.6356H29.2445V27.7067C29.2445 28.5511 28.5511 29.2445 27.7067 29.2445Z" fill="black"/>
</g>
<defs>
<clipPath id="clip0_24_2056">
<rect width="32" height="32" fill="white"/>
</clipPath>
</defs>
</svg>
