<svg width="32" height="32" viewBox="0 0 32 32" fill="none" xmlns="http://www.w3.org/2000/svg">
<path d="M25.3333 21.3333C23.7866 21.3333 22.391 21.9911 21.4221 23.0578L11.7777 17.5644C11.9288 17.0756 12.0088 16.5511 12.0088 16.0089C12.0088 15.4667 11.9199 14.9422 11.7777 14.4533L21.4221 8.96C22.3999 10.0178 23.7955 10.6844 25.3333 10.6844C28.2755 10.6844 30.6666 8.29333 30.6666 5.35111C30.6666 2.40889 28.2844 0 25.3333 0C22.3821 0 19.9999 2.39111 19.9999 5.33333C19.9999 5.76889 20.0533 6.18667 20.151 6.59556L10.3733 12.1689C9.41325 11.2356 8.10659 10.6667 6.66659 10.6667C3.72436 10.6667 1.33325 13.0578 1.33325 16C1.33325 18.9422 3.72436 21.3333 6.66659 21.3333C8.10659 21.3333 9.41325 20.7556 10.3733 19.8311L20.151 25.4044C20.0444 25.8133 19.9999 26.2311 19.9999 26.6667C19.9999 29.6089 22.391 32 25.3333 32C28.2755 32 30.6666 29.6089 30.6666 26.6667C30.6666 23.7244 28.2755 21.3333 25.3333 21.3333Z" fill="black"/>
</svg>
