<svg width="32" height="32" viewBox="0 0 32 32" fill="none" xmlns="http://www.w3.org/2000/svg">
<g clip-path="url(#clip0_185_67)">
<path d="M27.3057 4.68921C21.0567 -1.55981 10.9382 -1.55981 4.68921 4.68921C-1.55981 10.9382 -1.55981 21.0666 4.68921 27.3157C10.9382 33.5647 21.0666 33.5647 27.3157 27.3157C33.5647 21.0666 33.5647 10.9382 27.3157 4.68921H27.3057ZM23.4963 17.8372H17.8272V23.5063C17.8272 24.5161 16.9973 25.346 15.9874 25.346C14.9776 25.346 14.1477 24.5261 14.1477 23.5063V17.8372H8.47862C7.46877 17.8372 6.6389 17.0173 6.6389 15.9974C6.6389 14.9876 7.45878 14.1577 8.47862 14.1577H14.1477V8.48861C14.1477 7.47877 14.9776 6.6489 15.9874 6.6489C16.9973 6.6489 17.8272 7.47877 17.8272 8.48861V14.1577H23.4963C24.5061 14.1577 25.336 14.9876 25.336 15.9974C25.336 17.0073 24.5061 17.8372 23.4963 17.8372Z" fill="black"/>
</g>
<defs>
<clipPath id="clip0_185_67">
<rect width="32" height="32" fill="white"/>
</clipPath>
</defs>
</svg>
