<svg width="32" height="32" viewBox="0 0 32 32" fill="none" xmlns="http://www.w3.org/2000/svg">
<g clip-path="url(#clip0_24_65)">
<path d="M9.63598 25.9733H0.0266556V32H9.63598V25.9733Z" fill="black"/>
<path d="M19.8984 18.6667H18.4323C18.5256 18.4133 18.6056 18.16 18.6322 17.9067C18.7122 17.3867 18.6855 16.8533 18.5523 16.3467C18.419 15.84 18.1924 15.36 17.8726 14.9333C17.5527 14.5067 17.1662 14.16 16.713 13.8933C16.2599 13.6267 15.7668 13.4533 15.2337 13.3733C14.7139 13.2933 14.1808 13.32 13.6743 13.4533C13.1678 13.5867 12.688 13.8133 12.2749 14.1333C11.6352 14.6267 11.0887 15.2267 10.6756 15.92C10.2757 15.2667 9.75593 14.64 9.07622 14.1333C8.22324 13.4933 7.15702 13.2267 6.11745 13.3733C5.07788 13.52 4.11828 14.08 3.47855 14.9333C3.15868 15.3467 2.93211 15.8267 2.79883 16.3467C2.66556 16.8533 2.6389 17.3867 2.71887 17.9067C2.75885 18.1733 2.83882 18.4267 2.93211 18.6667H1.45273C0.653061 18.6667 0 19.32 0 20.12V24.1067H21.3244V20.12C21.3244 19.32 20.6714 18.6667 19.8717 18.6667H19.8984ZM6.38401 18.6667C6.21075 18.5867 6.03748 18.5067 5.89088 18.4C5.74427 18.2933 5.63765 18.16 5.54436 18.0133C5.45106 17.8667 5.39775 17.6933 5.3711 17.52C5.34444 17.3467 5.35777 17.1733 5.39775 17C5.43773 16.8267 5.5177 16.6667 5.62432 16.5333C5.73095 16.4 5.86422 16.28 6.01083 16.1867C6.15743 16.0933 6.3307 16.04 6.50396 16.0133C6.67722 15.9867 6.85048 16 7.02374 16.04C7.197 16.08 7.35693 16.16 7.49021 16.2667C8.30321 16.88 8.76968 17.8533 9.03623 18.6667H6.38401ZM15.8334 18.0133C15.7401 18.16 15.6202 18.2933 15.4869 18.4C15.3403 18.5067 15.167 18.5867 14.9938 18.6667H12.3415C12.6081 17.8533 13.0746 16.88 13.8875 16.2667C14.1008 16.1067 14.354 16.0133 14.6206 16C14.8871 15.9867 15.1404 16.0533 15.3803 16.1867C15.6068 16.32 15.7934 16.52 15.9 16.76C16.0067 17 16.0466 17.2667 16.02 17.5333C15.9933 17.7067 15.94 17.88 15.8467 18.0267L15.8334 18.0133Z" fill="black"/>
<path d="M21.3511 25.9733H11.8084V32H21.3511V25.9733Z" fill="black"/>
<path d="M27.9484 7.89333V5.97333C27.9484 2.68 25.2695 0 21.9775 0C18.6855 0 16.0067 2.68 16.0067 5.97333V7.89333H10.6756V12.68C10.7822 12.6 10.8888 12.5067 10.9954 12.4267C11.6485 11.9333 12.3815 11.5867 13.1545 11.3867C13.6476 11.2533 14.1541 11.2 14.6739 11.2C14.9671 11.2 15.2603 11.2267 15.5402 11.2667C16.3399 11.3733 17.1129 11.64 17.8059 12.0533C18.499 12.4667 19.0987 13 19.5785 13.6533C20.0716 14.3067 20.4182 15.0267 20.6181 15.8133C20.6847 16.0933 20.738 16.36 20.7647 16.64C22.3107 17.0267 23.4702 18.44 23.4702 20.1067V31.9867H32V7.89333H27.935H27.9484ZM18.1524 7.89333V5.97333C18.1524 3.85333 19.8717 2.13333 21.9908 2.13333C24.11 2.13333 25.8292 3.85333 25.8292 5.97333V7.89333H18.1524Z" fill="black"/>
</g>
<defs>
<clipPath id="clip0_24_65">
<rect width="32" height="32" fill="white"/>
</clipPath>
</defs>
</svg>
