<svg width="32" height="32" viewBox="0 0 32 32" fill="none" xmlns="http://www.w3.org/2000/svg">
<path d="M29.4182 26.9045H29.8664C30.4991 26.8779 31 26.371 31 25.7307V1.17382C31 0.533556 30.4991 0 29.8664 0H5.65136C3.60818 0 2 1.6807 2 3.70821V28.2918C2 30.3326 3.63455 31.9733 5.65136 32H29.8532C30.4859 32 31 31.4798 31 30.8395C31 30.1993 30.4859 29.679 29.8532 29.679H29.4445C29.1414 29.2789 28.97 28.7853 28.97 28.2651C28.97 27.7449 29.1282 27.278 29.4314 26.8779L29.4182 26.9045ZM9.22364 6.56273C9.22364 5.88245 9.76409 5.33556 10.4364 5.33556H22.5505C23.2227 5.33556 23.7632 5.88245 23.7632 6.56273V6.7895C23.7632 7.46978 23.2227 8.01667 22.5505 8.01667H10.4364C9.76409 8.01667 9.22364 7.46978 9.22364 6.7895V6.56273ZM5.65136 29.7057C4.99227 29.6524 4.43864 29.1188 4.38591 28.4385C4.30682 27.6515 4.88682 26.9846 5.65136 26.9179H27.3618C27.2036 27.3581 27.1114 27.8249 27.1114 28.3051C27.1114 28.7853 27.2036 29.2655 27.3618 29.7191H5.65136V29.7057Z" fill="black"/>
</svg>
