<svg width="32" height="32" viewBox="0 0 32 32" fill="none" xmlns="http://www.w3.org/2000/svg">
<path d="M9.695 20.23C10.445 21.01 10.485 21.01 9.695 21.77L8.435 22.98C7.865 23.53 7.325 23.51 6.795 22.94L0.345 16.35C-0.115 15.87 -0.115 15.38 0.345 14.89L6.795 8.26C7.585 7.44 7.645 7.4 8.435 8.22L9.695 9.5C10.445 10.28 10.445 10.22 9.695 11L5.955 14.9C5.205 15.68 5.205 15.62 5.955 16.4L9.695 20.22V20.23ZM31.645 14.88L25.195 8.25C24.405 7.43 24.345 7.39 23.555 8.21L22.295 9.49C21.545 10.27 21.545 10.21 22.295 10.99L26.035 14.89C26.785 15.67 26.785 15.61 26.035 16.39L22.295 20.21C21.545 20.97 21.505 20.97 22.295 21.75L23.555 22.97C24.125 23.52 24.665 23.5 25.195 22.93L31.645 16.34C32.105 15.84 32.105 15.35 31.645 14.87V14.88ZM19.505 4H17.625C16.775 4 16.815 4 16.635 4.78L11.315 25.76C10.935 27.16 10.985 27.16 12.485 27.16H14.365C15.215 27.16 15.175 27.16 15.355 26.38L20.675 5.4C21.055 4 21.005 4 19.505 4Z" fill="black"/>
</svg>
