<svg width="32" height="32" viewBox="0 0 32 32" fill="none" xmlns="http://www.w3.org/2000/svg">
<g clip-path="url(#clip0_590_21)">
<path d="M24.5723 10.8766C24.5723 11.4964 24.0725 11.9963 23.4527 11.9963H21.1634C20.5436 11.9963 20.0437 11.4964 20.0437 10.8766V7.3477C20.0437 6.7279 20.5436 6.22805 21.1634 6.22805C21.7832 6.22805 22.283 6.7279 22.283 7.3477V9.75695H23.4527C24.0725 9.75695 24.5723 10.2568 24.5723 10.8766ZM31.99 5.38832V26.6217C31.99 28.4111 31.5401 29.7507 30.6304 30.6504C29.7207 31.5601 28.3511 32 26.5417 32H5.45829C3.64886 32 2.26929 31.5501 1.35958 30.6504C0.449859 29.7407 0 28.4111 0 26.6217V5.38832C0 3.58888 0.449859 2.2393 1.35958 1.34958C2.27929 0.449859 3.63886 0 5.45829 0H26.5517C28.3611 0 29.7407 0.449859 30.6504 1.35958H30.6404C31.5501 2.2493 32 3.59888 32 5.38832H31.99ZM28.0112 10.7266C28.0112 7.01781 24.9922 3.99875 21.2834 3.99875C17.5645 3.99875 14.5555 7.01781 14.5555 10.7266C14.5555 14.4355 17.5745 17.4545 21.2834 17.4545C24.9922 17.4545 28.0112 14.4355 28.0112 10.7266Z" fill="black"/>
</g>
<defs>
<clipPath id="clip0_590_21">
<rect width="32" height="32" fill="white"/>
</clipPath>
</defs>
</svg>
