<svg width="32" height="32" viewBox="0 0 32 32" fill="none" xmlns="http://www.w3.org/2000/svg">
<path d="M19.5554 27.5556C19.5554 25.5919 17.9636 24 15.9999 24C14.0362 24 12.4443 25.5919 12.4443 27.5556C12.4443 29.5193 14.0362 31.1111 15.9999 31.1111C17.9636 31.1111 19.5554 29.5193 19.5554 27.5556Z" fill="black"/>
<path d="M19.5554 4.44447C19.5554 2.48079 17.9636 0.888916 15.9999 0.888916C14.0362 0.888916 12.4443 2.48079 12.4443 4.44447C12.4443 6.40815 14.0362 8.00003 15.9999 8.00003C17.9636 8.00003 19.5554 6.40815 19.5554 4.44447Z" fill="black"/>
<path d="M19.5554 16C19.5554 14.0363 17.9636 12.4445 15.9999 12.4445C14.0362 12.4445 12.4443 14.0363 12.4443 16C12.4443 17.9637 14.0362 19.5556 15.9999 19.5556C17.9636 19.5556 19.5554 17.9637 19.5554 16Z" fill="black"/>
</svg>
