<svg width="32" height="32" viewBox="0 0 32 32" fill="none" xmlns="http://www.w3.org/2000/svg">
<g clip-path="url(#clip0_139_463)">
<path d="M31.3592 24.8644L27.6212 22.9954L24.4706 18.7901C24.3638 18.6433 24.297 18.4831 24.257 18.3095L22.9887 11.5411C22.7885 10.4998 21.8807 9.73882 20.8127 9.73882H19.7313C19.0238 12.0484 17.622 14.1844 16.02 14.1844C14.418 14.1844 13.0296 12.0484 12.3087 9.73882H11.2274C10.1594 9.73882 9.25156 10.4998 9.05131 11.5411L7.72966 18.5765L4.41886 22.9954L0.680851 24.8644C0.267 25.078 0 25.5052 0 25.9724C0 26.5064 0.347101 26.9737 0.841051 27.1472H2.52315V27.1205C1.98915 27.6145 1.64205 28.3621 1.64205 29.1898C1.64205 30.6583 2.68335 31.8465 3.97831 31.8465H28.0217C29.3166 31.8465 30.3579 30.6583 30.3579 29.1898C30.3579 28.3621 30.0242 27.6145 29.4768 27.1205L31.1589 27.1472C31.6662 26.9737 32 26.5064 32 25.9724C32 25.5052 31.733 25.078 31.3191 24.8644H31.3592ZM12.1485 22.448L11.0405 24.0634L5.16646 26.0659L6.60826 24.3304L6.79516 24.1034L10.4798 19.6846L11.1606 15.9332C11.2541 16.3204 11.4276 16.6942 11.6946 17.0413C11.8281 17.2015 11.975 17.3483 12.1352 17.4818L12.4022 19.0705C12.5891 20.2052 12.4956 21.3667 12.1352 22.448H12.1485ZM20.9862 24.0634L19.8782 22.448C19.5177 21.3533 19.4243 20.1919 19.6112 19.0705L19.8782 17.4818C20.3855 17.068 20.7059 16.5206 20.8527 15.9332L21.4802 19.4042C21.5202 19.6045 21.6003 19.778 21.7205 19.9382L25.2048 24.1301L25.3917 24.3571L26.8469 26.0926L20.9729 24.0901L20.9862 24.0634Z" fill="url(#paint0_linear_139_463)"/>
<path d="M13.1765 5.98746C13.4969 7.21566 14.6717 8.08342 16.02 8.08342C17.3684 8.08342 18.5432 7.21566 18.8636 5.98746L18.957 5.64036C19.0371 5.34666 19.0772 5.05296 19.0772 4.74591V3.03711C19.0772 1.44846 17.7155 0.153503 16.02 0.153503C14.3246 0.153503 12.9762 1.44846 12.9762 3.03711V4.74591C12.9762 5.05296 13.0163 5.34666 13.0964 5.64036L13.1898 5.98746H13.1765Z" fill="url(#paint1_linear_139_463)"/>
</g>
<defs>
<linearGradient id="paint0_linear_139_463" x1="5.89073e-07" y1="-3.06596e-05" x2="32" y2="32" gradientUnits="userSpaceOnUse">
<stop offset="0.2" stop-color="#85E0E0"/>
<stop offset="0.8" stop-color="#33CCCC"/>
</linearGradient>
<linearGradient id="paint1_linear_139_463" x1="5.89073e-07" y1="-3.06596e-05" x2="32" y2="32" gradientUnits="userSpaceOnUse">
<stop offset="0.2" stop-color="#85E0E0"/>
<stop offset="0.8" stop-color="#33CCCC"/>
</linearGradient>
<clipPath id="clip0_139_463">
<rect width="32" height="32" fill="white"/>
</clipPath>
</defs>
</svg>
