<svg width="32" height="32" viewBox="0 0 32 32" fill="none" xmlns="http://www.w3.org/2000/svg">
<g clip-path="url(#clip0_1309_21)">
<path d="M25.09 11.58L13.87 22.69C13.8 22.77 13.7 22.8 13.6 22.8C13.5 22.8 13.39 22.76 13.33 22.69L7.39 16.81C7.32 16.73 7.29 16.64 7.29 16.54C7.29 16.44 7.34 16.34 7.4 16.27L9.6 14.1C9.68 14.02 9.77 13.99 9.87 13.99C9.97 13.99 10.08 14.03 10.14 14.1L13.6 17.53L22.33 8.88C22.41 8.8 22.5 8.77 22.6 8.77C22.7 8.77 22.81 8.81 22.87 8.88L25.07 11.05C25.22 11.2 25.22 11.44 25.07 11.6L25.09 11.58ZM32 16C32 24.84 24.84 32 16 32C7.16 32 0 24.84 0 16C0 7.16 7.16 0 16 0C20.25 0 24.31 1.68 27.31 4.69C30.31 7.69 32 11.76 32 16ZM29.4 16C29.4 12.42 28.01 9.06 25.47 6.53C22.94 4 19.57 2.6 16 2.6C8.61 2.6 2.6 8.61 2.6 16C2.6 23.39 8.61 29.4 16 29.4C23.39 29.4 29.4 23.39 29.4 16Z" fill="black"/>
</g>
<defs>
<clipPath id="clip0_1309_21">
<rect width="32" height="32" fill="white"/>
</clipPath>
</defs>
</svg>
