<svg width="32" height="32" viewBox="0 0 32 32" fill="none" xmlns="http://www.w3.org/2000/svg">
<g clip-path="url(#clip0_74_66)">
<path d="M0 4.14222V27.8578C0 30.1422 1.85778 32 4.14222 32H27.8578C30.1422 32 32 30.1422 32 27.8578V4.14222C32 1.85778 30.1422 0 27.8578 0H4.14222C1.85778 0 0 1.85778 0 4.14222ZM15.7956 21.7422L14.5333 23.5378C13.8311 24.5422 12.7733 25.2089 11.5644 25.4222C10.3644 25.6356 9.15556 25.36 8.16 24.6667C7.16444 23.9644 6.50667 22.9156 6.29333 21.7067C6.08889 20.4978 6.36444 19.2889 7.05778 18.2844L10.2667 13.7156C10.9689 12.72 12.0178 12.0533 13.2267 11.8311C14.4444 11.6178 15.6533 11.8844 16.64 12.5867C17.3689 13.1022 17.92 13.8044 18.2489 14.64C18.4622 15.1911 18.1956 15.8222 17.6356 16.0356C17.3689 16.1422 17.0756 16.1333 16.8089 16.0178C16.5422 15.9022 16.3378 15.6889 16.2311 15.4222C16.0622 14.9867 15.7689 14.6133 15.3867 14.3467C14.8711 13.9822 14.2311 13.84 13.6 13.9556C12.9511 14.0711 12.3911 14.4267 12.0267 14.9511L8.81778 19.52C8.44444 20.0533 8.30222 20.6933 8.40889 21.3333C8.51556 21.9733 8.86222 22.5244 9.38667 22.8889C9.90222 23.2533 10.5422 23.3956 11.1733 23.28C11.8222 23.1644 12.3822 22.8089 12.7467 22.2844L14.0089 20.4889C14.3467 20 15.0222 19.8844 15.5111 20.2311C16 20.5689 16.1156 21.2444 15.7778 21.7333L15.7956 21.7422ZM24.9511 13.6978L21.76 18.2311C21.0578 19.2267 20.0089 19.8933 18.8089 20.0978C17.6089 20.3111 16.3911 20.0356 15.3956 19.3333C14.6667 18.8178 14.1067 18.1156 13.7867 17.2889C13.68 17.0222 13.6889 16.7289 13.7956 16.4622C13.9111 16.1956 14.1244 15.9911 14.3911 15.8844C14.6578 15.7778 14.9511 15.7778 15.2178 15.8933C15.4844 16.0089 15.6889 16.2222 15.7956 16.4889C15.9644 16.9244 16.2578 17.2978 16.64 17.5644C17.7244 18.3289 19.2267 18.0622 19.9911 16.9778L23.1822 12.4444C23.5556 11.92 23.6978 11.28 23.5822 10.6489C23.4756 10.0178 23.12 9.46667 22.5956 9.09333C22.0711 8.72889 21.4311 8.58667 20.8 8.69333C20.16 8.8 19.6089 9.15556 19.2444 9.68L17.9911 11.4667C17.6444 11.9556 16.9778 12.0711 16.4889 11.7244C16 11.3778 15.8844 10.7111 16.2222 10.2222L17.4756 8.43556C18.1778 7.44 19.2267 6.78222 20.4267 6.56889C21.6267 6.35556 22.8444 6.63111 23.84 7.32444C25.9022 8.77333 26.4 11.6267 24.9511 13.6889V13.6978Z" fill="black"/>
</g>
<defs>
<clipPath id="clip0_74_66">
<rect width="32" height="32" fill="white"/>
</clipPath>
</defs>
</svg>
