<svg width="32" height="32" viewBox="0 0 32 32" fill="none" xmlns="http://www.w3.org/2000/svg">
<g clip-path="url(#clip0_24_2124)">
<path d="M30.6528 1.35398C29.7457 0.44693 28.3718 -0.0065918 26.5577 -0.0065918H5.45561C3.64152 -0.0065918 2.28095 0.44693 1.36057 1.34064C0.453522 2.23434 0 3.58157 0 5.38232V26.6312C0 28.4186 0.453522 29.7525 1.36057 30.6595C2.26761 31.5532 3.64152 32.0067 5.45561 32.0067H26.5444C28.3585 32.0067 29.7324 31.5666 30.6394 30.6595C31.5465 29.7658 32 28.4186 32 26.6312V5.38232C32 3.59491 31.5465 2.24768 30.6394 1.35398H30.6528ZM27.6649 9.95756C26.6511 12.6387 23.6098 14.6662 22.0625 15.5599C21.9025 15.6533 21.7691 15.7333 21.649 15.7867L21.4089 15.92L21.1688 15.7867C19.4348 14.8529 13.8724 11.4515 14.9662 7.03634C15.4064 5.26227 16.887 4.00841 18.5944 3.99508C19.6882 3.99508 20.6753 4.50195 21.4223 5.42234C22.1826 4.48862 23.1563 3.99508 24.2501 3.99508H24.3035C25.9842 4.02175 27.4514 5.26227 27.8783 7.023C28.1317 8.06344 28.025 9.05052 27.6782 9.95756H27.6649Z" fill="black"/>
</g>
<defs>
<clipPath id="clip0_24_2124">
<rect width="32" height="32" fill="white"/>
</clipPath>
</defs>
</svg>
