<svg width="32" height="32" viewBox="0 0 32 32" fill="none" xmlns="http://www.w3.org/2000/svg">
<g clip-path="url(#clip0_24_2133)">
<path d="M23.917 0.244602C22.805 -0.230105 21.5685 -0.00524356 20.6888 0.844232L19.5353 1.96021C17.917 3.52591 15.8008 4.38371 13.5519 4.38371H8.32365C3.73444 4.38371 0 8.1314 0 12.7452C0 16.926 3.07884 20.3988 7.08714 20.9985V28.0858C7.08714 30.2428 8.83817 32 10.9876 32C13.1369 32 14.888 30.2428 14.888 28.0858V21.215C16.6307 21.4898 18.249 22.2727 19.5353 23.5219L20.6888 24.6379C21.2614 25.1875 21.9917 25.479 22.7386 25.479C23.1286 25.479 23.5353 25.3957 23.917 25.2375C25.0373 24.7628 25.7261 23.7051 25.7261 22.4892V2.99291C25.7261 1.77699 25.029 0.719309 23.917 0.244602ZM2.48963 12.7452C2.48963 9.51388 5.11203 6.88217 8.33195 6.88217H12.3983V18.6083H8.33195C5.11203 18.6083 2.48963 15.9766 2.48963 12.7452ZM10.9876 29.5015C10.2075 29.5015 9.57676 28.8686 9.57676 28.0858V21.1067H12.3983V28.0858C12.3983 28.8686 11.7676 29.5015 10.9876 29.5015ZM23.2365 22.4892C23.2365 22.7724 23.0539 22.889 22.9461 22.9389C22.8382 22.9889 22.6224 23.0389 22.4232 22.839L21.2697 21.723C19.5104 20.0241 17.2863 18.9747 14.888 18.6915V6.79056C17.278 6.5074 19.5104 5.45805 21.2697 3.7591L22.4232 2.64312C22.6224 2.45157 22.8382 2.50154 22.9461 2.54318C23.0539 2.59315 23.2365 2.70975 23.2365 2.99291V22.4892ZM27.0207 7.34855C26.5975 6.80722 26.6971 6.01604 27.2448 5.59963L28.9212 4.2921C29.4606 3.86737 30.249 3.9673 30.6639 4.51697C31.0871 5.0583 30.9876 5.84948 30.4398 6.26589L28.7635 7.57341C28.5394 7.7483 28.2656 7.83159 28 7.83159C27.6266 7.83159 27.2614 7.66502 27.0124 7.34855H27.0207ZM30.6639 20.0241C30.4149 20.3405 30.0498 20.5071 29.6763 20.5071C29.4108 20.5071 29.1452 20.4238 28.9129 20.2489L27.2365 18.9414C26.6971 18.5167 26.5975 17.7338 27.0124 17.1925C27.4274 16.6511 28.2158 16.5512 28.7552 16.9676L30.4315 18.2751C30.971 18.6999 31.0705 19.4827 30.6556 20.0241H30.6639ZM32 12.2705C32 12.9618 31.444 13.5197 30.7552 13.5197H28.0083C27.3195 13.5197 26.7635 12.9618 26.7635 12.2705C26.7635 11.5793 27.3195 11.0213 28.0083 11.0213H30.7552C31.444 11.0213 32 11.5793 32 12.2705Z" fill="black"/>
</g>
<defs>
<clipPath id="clip0_24_2133">
<rect width="32" height="32" fill="white"/>
</clipPath>
</defs>
</svg>
