<svg width="32" height="32" viewBox="0 0 32 32" fill="none" xmlns="http://www.w3.org/2000/svg">
<g clip-path="url(#clip0_77_194)">
<path d="M20.6756 17.4756C20.4711 17.0489 20.4356 16.6667 20.5778 16.3467C20.8178 15.7867 21.4844 15.5733 21.9289 15.4311C22.0178 15.4044 22.0978 15.3778 22.16 15.3511C22.4711 15.2267 22.6133 15.12 22.6844 15.0489C22.7289 15.0044 22.7378 14.9778 22.7378 14.9689C22.7378 14.96 22.6756 14.8889 22.5422 14.8356C22.3911 14.7733 22.2667 14.7911 22.2222 14.8089C21.8667 14.9778 21.5289 15.0667 21.2267 15.0844C21.0044 15.0844 20.8444 15.04 20.7022 14.9778L20.3289 14.8089L20.3733 14.0444C20.4444 12.88 20.5422 11.3511 20.1956 10.5689C19.9467 10.0089 19.6178 9.53778 19.2089 9.14667C18.8711 8.82667 18.4711 8.56889 18.0356 8.37333C17.2622 8.02667 16.5422 7.98222 16.1778 7.98222H15.8133C15.4489 7.98222 14.7289 8.03556 13.9556 8.38222C13.52 8.57778 13.12 8.83556 12.7822 9.15556C12.3733 9.53778 12.0444 10.0178 11.7956 10.5689C11.4489 11.3511 11.5378 12.88 11.6089 13.9911L11.6622 14.8178L11.2889 14.9867C10.8711 15.1733 10.3111 15.1111 9.68 14.8178C9.67111 14.8178 9.48444 14.8178 9.37778 14.88C9.29778 14.9244 9.27111 14.9689 9.27111 14.9778C9.27111 14.9778 9.28889 15.0133 9.35111 15.0667C9.42222 15.1289 9.56444 15.2356 9.84889 15.3422C9.91111 15.3689 9.98222 15.3867 10.0533 15.4133C10.5244 15.5644 11.1911 15.7778 11.44 16.3378C11.5822 16.6667 11.5467 17.04 11.3422 17.4578C11.2889 17.5911 10.96 18.2933 10.3289 19.0311C9.94667 19.4667 9.52889 19.84 9.08444 20.1244C8.61333 20.4267 8.10667 20.64 7.57333 20.7644C7.61778 20.7911 7.68 20.8267 7.75111 20.8622C7.99111 20.9778 8.48 21.1378 9.38667 21.28L9.68 21.3244L9.82222 21.5911C9.89333 21.7244 9.93778 21.9022 9.98222 22.1333C10.0089 22.24 10.0267 22.3467 10.0533 22.4533C10.1156 22.4533 10.1956 22.4356 10.2756 22.4178C10.5511 22.3644 10.9244 22.2933 11.3778 22.2933C11.6356 22.2933 11.9022 22.3111 12.1689 22.3556C12.7556 22.4533 13.2178 22.7733 13.6978 23.12C14.3111 23.5556 14.9422 24 15.8933 24H16.0178C16.0444 24 16.08 24 16.1067 24C17.04 24 17.6622 23.5733 18.2667 23.1467L18.3111 23.12C18.8 22.7733 19.2622 22.4533 19.84 22.3556C20.1067 22.3111 20.3644 22.2933 20.6222 22.2933C21.0578 22.2933 21.3956 22.3467 21.6978 22.4089C21.8222 22.4356 21.9022 22.4444 21.9556 22.4444C21.9822 22.3378 22.0089 22.24 22.0267 22.1333C22.08 21.8933 22.1244 21.7244 22.1867 21.6L22.3289 21.3333L22.6311 21.2889C23.5467 21.1467 24.0267 20.9778 24.2667 20.8711C24.3378 20.8356 24.4 20.8 24.4444 20.7733C21.9378 20.1956 20.8 17.7511 20.6756 17.4667V17.4756Z" fill="black"/>
<path d="M28.4444 0H3.55556C1.59111 0 0 1.59111 0 3.55556V28.4444C0 30.4089 1.59111 32 3.55556 32H28.4444C30.4089 32 32 30.4089 32 28.4444V3.55556C32 1.59111 30.4089 0 28.4444 0ZM25.68 21.12C25.5289 21.4667 25.2356 21.7333 24.7644 21.9556C24.3733 22.1333 23.8578 22.2844 23.1911 22.4089C23.1556 22.56 23.12 22.7111 23.0756 22.8711C22.9333 23.3422 22.5244 23.6533 22.0356 23.6533C21.8667 23.6533 21.6978 23.6356 21.4756 23.5911C21.12 23.52 20.5956 23.4578 20.0356 23.5467C19.7244 23.6 19.4222 23.8133 19.0311 24.08L18.9956 24.1067C18.3022 24.5956 17.44 25.2 16.1156 25.2C16.1156 25.2 16.0978 25.2 16.0889 25.2C16.0533 25.2 16.0178 25.2 15.9822 25.2C14.6222 25.2533 13.7156 24.6044 13.0044 24.1067C12.5956 23.8222 12.2844 23.5911 11.9644 23.5467C11.4044 23.4578 10.88 23.5289 10.5244 23.5911C10.32 23.6267 10.1511 23.6622 9.98222 23.6622C9.46667 23.6622 9.06667 23.3689 8.91556 22.88C8.87111 22.72 8.83556 22.5689 8.8 22.4178C8.13333 22.2933 7.60889 22.1422 7.22667 21.9644C6.75556 21.7511 6.46222 21.4756 6.31111 21.1289C6.25778 20.9956 6.22222 20.8711 6.22222 20.7378C6.19556 20.2133 6.56 19.76 7.07556 19.6711C7.54667 19.5911 8 19.4133 8.41778 19.1467C8.76444 18.9244 9.10222 18.6311 9.40444 18.2756C9.93778 17.6533 10.2044 17.0578 10.2311 16.9956L10.2578 16.9333C10.2844 16.88 10.2933 16.8444 10.3022 16.8178C10.1778 16.72 9.84 16.6133 9.69778 16.5689C9.56444 16.5244 9.47556 16.4978 9.38667 16.4622C9.02222 16.32 8.73778 16.1511 8.52444 15.9556C8.16 15.6267 8 15.1911 8.08 14.7644C8.15111 14.3911 8.39111 14.08 8.75556 13.8667C9.19111 13.6089 9.75111 13.5556 10.1689 13.7511C10.2578 13.7956 10.3378 13.8222 10.4 13.8489C10.32 12.5778 10.2578 11.0844 10.7022 10.0978C11.0133 9.40444 11.4311 8.8 11.9556 8.30222C12.3911 7.88444 12.8978 7.55556 13.4667 7.30667C14.4444 6.88 15.3511 6.81778 15.8044 6.81778H16.1156C16.6222 6.81778 17.5289 6.88 18.5067 7.30667C19.0667 7.55556 19.5822 7.89333 20.0178 8.30222C20.5422 8.79111 20.96 9.39556 21.28 10.0978C21.7156 11.0756 21.6622 12.56 21.5822 13.8133C21.6267 13.7956 21.6711 13.7778 21.7156 13.76C22.0711 13.5911 22.5778 13.5911 22.9689 13.7511C23.5378 13.9556 23.92 14.4267 23.9289 14.9689C23.9289 15.2978 23.7956 15.6267 23.5378 15.8933C23.3156 16.1156 23.0133 16.3022 22.5956 16.4711C22.5067 16.5067 22.4 16.5422 22.2844 16.5778C22.1511 16.6222 21.8133 16.7289 21.68 16.8267C21.68 16.8533 21.6978 16.88 21.7156 16.9244L21.7511 16.9956C21.7511 16.9956 22.7556 19.3244 24.9156 19.68C25.4311 19.76 25.8044 20.2222 25.7689 20.7467C25.7689 20.88 25.7333 21.0133 25.6711 21.1378L25.68 21.12Z" fill="black"/>
</g>
<defs>
<clipPath id="clip0_77_194">
<rect width="32" height="32" fill="white"/>
</clipPath>
</defs>
</svg>
