<svg width="32" height="32" viewBox="0 0 32 32" fill="none" xmlns="http://www.w3.org/2000/svg">
<g clip-path="url(#clip0_24_2119)">
<path d="M27.8533 0H4.14667C1.86667 0 0 1.86667 0 4.14667V27.8533C0 30.1333 1.86667 32 4.14667 32H27.8533C30.1333 32 32 30.1333 32 27.8533V4.14667C32 1.86667 30.1333 0 27.8533 0ZM10.9067 9.13333C10.9067 8.56 11.2267 8.02667 11.72 7.76C12.2267 7.48 12.84 7.50667 13.32 7.82667L20.36 12.36C20.8133 12.6533 21.08 13.1467 21.08 13.68C21.08 14.2133 20.8133 14.7067 20.36 15L13.3067 19.5333C13.0533 19.6933 12.76 19.7867 12.4533 19.7867C12.1867 19.7867 11.9333 19.72 11.7067 19.6C11.2 19.32 10.8933 18.8 10.8933 18.2267V9.16L10.9067 9.13333ZM26.3867 27.84H5.61333C5.06667 27.84 4.61333 27.3867 4.61333 26.84C4.61333 26.2933 5.06667 25.84 5.61333 25.84H26.3867C26.9333 25.84 27.3867 26.2933 27.3867 26.84C27.3867 27.3867 26.9333 27.84 26.3867 27.84Z" fill="black"/>
</g>
<defs>
<clipPath id="clip0_24_2119">
<rect width="32" height="32" fill="white"/>
</clipPath>
</defs>
</svg>
