<svg width="32" height="32" viewBox="0 0 32 32" fill="none" xmlns="http://www.w3.org/2000/svg">
<g clip-path="url(#clip0_514_28)">
<path d="M18.1676 18.0933C19.3414 16.92 19.3414 15.0133 18.1676 13.84C16.9937 12.6667 15.0863 12.6667 13.9125 13.84L4.69529 4.61333C-0.533556 9.85333 -1.37391 17.7867 2.12088 23.9067L4.49521 19.72C5.14881 18.56 6.38933 17.84 7.72322 17.84H10.1509C12.1917 17.84 13.8591 19.5067 13.8591 21.5467V31.84C18.6611 32.4933 23.6899 31 27.3847 27.3067L18.1676 18.0933Z" fill="black"/>
<path d="M27.3981 4.61333C24.4102 1.64 20.4485 0 16.2334 0C15.6465 0 15.1663 0.48 15.1663 1.06667C15.1663 1.65333 15.6465 2.13333 16.2334 2.13333C19.8749 2.13333 23.303 3.54667 25.8774 6.12C28.4519 8.69333 29.8658 12.12 29.8658 15.76C29.8658 16.0533 29.9858 16.32 30.1726 16.52C30.3727 16.72 30.6394 16.8267 30.9329 16.8267C31.5198 16.8267 32 16.3467 32 15.76C32 11.5467 30.3593 7.58667 27.3847 4.61333H27.3981Z" fill="black"/>
<path d="M16.2334 4.01333C15.6465 4.01333 15.1663 4.49333 15.1663 5.08C15.1663 5.66667 15.6465 6.14667 16.2334 6.14667C21.5423 6.14667 25.8641 10.4667 25.8641 15.7733C25.8641 16.0667 25.9842 16.3333 26.1709 16.5333C26.3577 16.7333 26.6378 16.84 26.9312 16.84C27.5181 16.84 27.9983 16.36 27.9983 15.7733C27.9983 9.29333 22.7161 4.01333 16.2334 4.01333Z" fill="black"/>
<path d="M21.8491 15.7733C21.8491 16.0667 21.9692 16.3333 22.1559 16.5333C22.3426 16.7333 22.6228 16.84 22.9162 16.84C23.5031 16.84 23.9833 16.36 23.9833 15.7733C23.9833 11.4933 20.5019 8.02667 16.2334 8.02667C15.6465 8.02667 15.1663 8.50667 15.1663 9.09333C15.1663 9.68 15.6465 10.16 16.2334 10.16C19.3281 10.16 21.8491 12.68 21.8491 15.7733Z" fill="black"/>
<path d="M10.1642 19.9733H7.73656C7.17632 19.9733 6.64277 20.28 6.37599 20.7733L0 32H11.7249V21.5333C11.7249 20.6667 11.0179 19.96 10.1509 19.96L10.1642 19.9733ZM8.61692 25.12C7.69654 25.12 6.94956 24.3733 6.94956 23.4533C6.94956 22.5333 7.69654 21.7867 8.61692 21.7867C9.53731 21.7867 10.2843 22.5333 10.2843 23.4533C10.2843 24.3733 9.53731 25.12 8.61692 25.12Z" fill="black"/>
</g>
<defs>
<clipPath id="clip0_514_28">
<rect width="32" height="32" fill="white"/>
</clipPath>
</defs>
</svg>
