<svg width="32" height="32" viewBox="0 0 32 32" fill="none" xmlns="http://www.w3.org/2000/svg">
<path d="M31 10.3283C31 11.9467 30.7153 13.4228 30.1458 14.7568C29.5763 16.0907 28.8105 17.1549 27.8483 17.9494C26.8959 18.7439 25.8355 19.1411 24.6672 19.1411H21.972C21.1276 20.1612 20.3618 21.1225 19.6745 22.0248C18.9872 22.9272 18.354 23.7952 17.7747 24.629C17.2052 25.4529 16.675 26.2621 16.1841 27.0566C15.703 27.8608 15.2464 28.6798 14.8144 29.5136C14.353 30.3963 13.867 31.029 13.3564 31.4115C12.8557 31.8038 12.2568 32 11.5596 32C10.9215 32 10.3569 31.8529 9.86598 31.5586C9.37506 31.2742 8.98724 30.872 8.7025 30.3522C8.41777 29.8421 8.2754 29.2585 8.2754 28.6014C8.2754 27.8854 8.39813 27.1399 8.64359 26.3651C8.88905 25.5804 9.16888 24.8251 9.48306 24.0993C9.80707 23.3637 10.0869 22.6918 10.3225 22.0837C10.568 21.4756 10.6907 20.9802 10.6907 20.5977C10.6907 20.4604 10.6416 20.3574 10.5434 20.2887C10.4453 20.2103 10.3176 20.171 10.1605 20.171H4.78498C4.07806 20.171 3.43495 20.0043 2.85567 19.6708C2.28621 19.3275 1.83456 18.8714 1.50074 18.3025C1.16691 17.7238 1 17.0765 1 16.3605C1 15.4875 1.21109 14.747 1.63328 14.1389C1.49583 13.8838 1.38292 13.5896 1.29455 13.2561C1.216 12.9128 1.17673 12.5793 1.17673 12.2556C1.17673 11.7358 1.2651 11.2405 1.44183 10.7697C1.62838 10.2989 1.88856 9.8967 2.22239 9.56322C2.00638 9.09241 1.89838 8.55785 1.89838 7.95954C1.89838 6.73349 2.40403 5.73303 3.41532 4.95816C3.36622 4.80123 3.32695 4.63939 3.2975 4.47264C3.27786 4.3059 3.26804 4.13425 3.26804 3.9577C3.26804 3.08475 3.55277 2.3295 4.12224 1.69195C4.70152 1.0446 5.48699 0.603218 6.47864 0.367816C6.9892 0.240307 7.61267 0.147126 8.34904 0.0882759C9.09524 0.0294253 9.91016 0 10.7938 0H12.7673C14.0339 0 15.2268 0.142222 16.3461 0.426667C17.4654 0.701303 18.4963 1.08383 19.4389 1.57425H24.137C25.0795 1.57425 25.9632 1.80475 26.7879 2.26575C27.6127 2.72674 28.3392 3.35939 28.9676 4.16368C29.6058 4.96797 30.1016 5.89977 30.4551 6.95908C30.8184 8.01839 31 9.14146 31 10.3283ZM22.7084 10.4018C22.7084 8.80307 22.2862 7.38575 21.4418 6.14989C20.6073 4.91402 19.4291 3.94299 17.9072 3.23678C16.3952 2.53057 14.6279 2.17257 12.6053 2.16276H10.7791C9.97398 2.16276 9.24251 2.18728 8.58468 2.23632C7.93667 2.28536 7.40157 2.36383 6.97938 2.47172C6.46883 2.60904 6.08591 2.80521 5.83063 3.06023C5.58517 3.31525 5.46244 3.61441 5.46244 3.9577C5.46244 4.13425 5.48208 4.301 5.52135 4.45793C5.57045 4.60506 5.67845 4.89441 5.84536 5.32598C5.92391 5.48291 5.93863 5.63004 5.88954 5.76736C5.85027 5.89487 5.75209 6.00276 5.59499 6.09103C4.5837 6.62069 4.07806 7.24353 4.07806 7.95954C4.07806 8.21456 4.12224 8.44506 4.2106 8.65103C4.29897 8.8472 4.43152 9.11203 4.60825 9.44552C4.71625 9.6613 4.7408 9.86238 4.68189 10.0487C4.62297 10.2351 4.50515 10.392 4.32842 10.5195C4.00442 10.7746 3.75896 11.0443 3.59205 11.3287C3.43495 11.6132 3.35641 11.9221 3.35641 12.2556C3.35641 12.5303 3.41041 12.7902 3.51841 13.0354C3.62641 13.2708 3.79332 13.5602 4.01915 13.9034C4.12715 14.0408 4.17624 14.183 4.16642 14.3301C4.1566 14.4674 4.08297 14.5949 3.94551 14.7126C3.67059 14.9873 3.47423 15.2472 3.35641 15.4924C3.23859 15.7376 3.17968 16.027 3.17968 16.3605C3.17968 16.8313 3.33186 17.2236 3.63623 17.5375C3.9406 17.8415 4.32351 17.9936 4.78498 17.9936H9.85125C10.6956 17.9936 11.4075 18.229 11.9867 18.6998C12.5758 19.1608 12.8704 19.7934 12.8704 20.5977C12.8704 21.1568 12.7477 21.7796 12.5022 22.4662C12.2666 23.143 11.9867 23.8443 11.6627 24.5701C11.3486 25.2959 11.0687 26.0021 10.8233 26.6887C10.5778 27.3851 10.4551 28.0227 10.4551 28.6014C10.4551 28.9937 10.5484 29.2929 10.7349 29.4988C10.9313 29.7146 11.1767 29.8225 11.4713 29.8225C11.7266 29.8225 11.9573 29.7343 12.1635 29.5577C12.3697 29.391 12.6053 29.0428 12.8704 28.5131C13.5773 27.1007 14.353 25.7766 15.1973 24.5407C16.0515 23.295 16.9008 22.1327 17.7452 21.0538C18.5994 19.9749 19.3849 18.9597 20.1016 18.0083C20.7398 17.1451 21.2504 16.331 21.6333 15.566C22.0162 14.8009 22.2911 14.0064 22.458 13.1825C22.6249 12.3586 22.7084 11.4317 22.7084 10.4018ZM28.8203 10.3283C28.8203 9.14146 28.5994 8.05272 28.1576 7.06207C27.7256 6.06161 27.1512 5.26222 26.4345 4.66391C25.7275 4.06559 24.9617 3.76644 24.137 3.76644C23.8228 3.76644 23.5086 3.76644 23.1944 3.76644C22.8802 3.76644 22.566 3.76644 22.2518 3.76644C23.0962 4.63939 23.7442 5.64475 24.1959 6.78253C24.6573 7.9105 24.8881 9.13165 24.8881 10.446C24.8881 11.6818 24.7653 12.8294 24.5199 13.8887C24.2842 14.948 23.9062 15.973 23.3859 16.9637C23.6019 16.9637 23.813 16.9637 24.0191 16.9637C24.2351 16.9637 24.4512 16.9637 24.6672 16.9637C25.3937 16.9637 26.0712 16.6645 26.6996 16.0662C27.3378 15.4679 27.8483 14.6685 28.2312 13.668C28.624 12.6578 28.8203 11.5445 28.8203 10.3283Z" fill="black"/>
</svg>
