<svg width="32" height="32" viewBox="0 0 32 32" fill="none" xmlns="http://www.w3.org/2000/svg">
<g clip-path="url(#clip0_24_2208)">
<path d="M0 4.14222V27.8578C0 30.1422 1.85778 32 4.14222 32H27.8578C30.1422 32 32 30.1422 32 27.8578V4.14222C32 1.85778 30.1422 0 27.8578 0H4.14222C1.85778 0 0 1.85778 0 4.14222ZM10.5956 25.7778H6.53333V12.72H10.5956V25.7778ZM8.56889 10.9422C7.27111 10.9422 6.22222 9.86667 6.22222 8.56889C6.22222 7.27111 7.27111 6.22222 8.56889 6.22222C9.86667 6.22222 10.9156 7.27111 10.9156 8.56889C10.9156 9.86667 9.86667 10.9422 8.56889 10.9422ZM25.7778 25.7511H21.7156V19.3956C21.7156 17.8756 21.6889 15.9467 19.6178 15.9467C17.5467 15.9467 17.2 17.5822 17.2 19.2978V25.7778H13.1378V12.72H17.0222V14.5067H17.0667C17.6 13.4756 18.9244 12.4089 20.9067 12.4089C25.0133 12.4089 25.7689 15.1022 25.7689 18.6133V25.7511H25.7778Z" fill="black"/>
</g>
<defs>
<clipPath id="clip0_24_2208">
<rect width="32" height="32" fill="white"/>
</clipPath>
</defs>
</svg>
