<svg width="32" height="32" viewBox="0 0 32 32" fill="none" xmlns="http://www.w3.org/2000/svg">
<g clip-path="url(#clip0_24_2048)">
<path d="M25.5134 0H6.49603C2.90909 0 0 2.90909 0 6.49603V25.504C0 29.0909 2.90909 32 6.49603 32H25.504C29.0909 32 32 29.0909 32 25.504V6.49603C32 2.90909 29.0909 0 25.504 0H25.5134ZM29.7499 25.5134C29.7499 27.8482 27.8482 29.7499 25.5134 29.7499H6.49603C4.16122 29.7499 2.25949 27.8482 2.25949 25.5134V6.49603C2.25949 4.16122 4.16122 2.25949 6.49603 2.25949H25.504C27.8388 2.25949 29.7405 4.16122 29.7405 6.49603V25.504L29.7499 25.5134Z" fill="black"/>
<path d="M22.7643 11.5705L16.2212 5.01795C16.0989 4.89556 15.9106 4.89556 15.7882 5.01795L9.24507 11.5705C9.1321 11.6834 9.05678 11.8247 9.01912 11.9847C8.99088 12.1447 9.00971 12.3048 9.0662 12.446C9.1321 12.5966 9.23566 12.719 9.35805 12.8132C9.48985 12.8979 9.64048 12.945 9.80994 12.945H13.9241V22.0112C13.9241 22.1806 14.0653 22.3124 14.2254 22.3124H17.7841C17.9535 22.3124 18.0853 22.1712 18.0853 22.0112V12.945H22.1995C22.3595 12.945 22.5101 12.8979 22.6514 12.8132C22.7832 12.7284 22.8867 12.6061 22.9432 12.446C22.9997 12.2954 23.0185 12.1353 22.9903 11.9847C22.962 11.8247 22.8773 11.6834 22.7643 11.5705Z" fill="black"/>
<path d="M7.37158 24.506C7.21153 24.506 7.08914 24.6284 7.08914 24.7885V26.7938C7.08914 26.9538 7.21153 27.0762 7.37158 27.0762H24.6472C24.8073 27.0762 24.9297 26.9538 24.9297 26.7938V24.7885C24.9297 24.6284 24.8073 24.506 24.6472 24.506H7.37158Z" fill="black"/>
</g>
<defs>
<clipPath id="clip0_24_2048">
<rect width="32" height="32" fill="white"/>
</clipPath>
</defs>
</svg>
