<svg width="32" height="32" viewBox="0 0 32 32" fill="none" xmlns="http://www.w3.org/2000/svg">
<g clip-path="url(#clip0_24_2205)">
<path d="M16.1778 8.20444C11.9822 8.20444 8.56889 11.5911 8.56889 15.7511C8.56889 17.3511 9.06667 18.88 10.0178 20.1778C10.0622 20.2489 10.08 20.3289 10.0533 20.4089L9.23556 22.8267L11.7778 22.0178C11.8489 21.9911 11.9289 22.0089 11.9911 22.0444C13.2356 22.8622 14.6844 23.2889 16.1778 23.2889C20.3733 23.2889 23.7867 19.9022 23.7867 15.7422C23.7867 11.5822 20.3733 8.19556 16.1778 8.19556V8.20444ZM20.9956 19.0578C20.7556 19.7244 19.7067 20.2667 19.2356 20.3022H19.1644C19.0578 20.32 18.9333 20.3289 18.7733 20.3289C18.4 20.3289 17.7511 20.2667 16.3644 19.7156C14.9333 19.1467 13.52 17.9111 12.3822 16.2578C12.3644 16.2311 12.3467 16.2133 12.3378 16.1956C12.0444 15.8044 11.3511 14.7822 11.3511 13.6889C11.3511 12.48 11.9289 11.7956 12.2756 11.5733C12.5956 11.3689 13.3244 11.2711 13.4578 11.2711C13.5644 11.2711 13.5378 11.2711 13.5644 11.2711C13.8489 11.2711 14.0533 11.44 14.2044 11.8133C14.2667 11.9644 14.8711 13.4222 14.9067 13.4844C14.9511 13.5644 15.0756 13.8133 14.9244 14.1067L14.8889 14.1689C14.8267 14.2933 14.7733 14.4 14.6578 14.5333C14.6222 14.5778 14.5778 14.6222 14.5422 14.6667C14.4622 14.7644 14.3733 14.8622 14.3022 14.9422C14.2756 14.9689 14.2222 15.0222 14.2222 15.04C14.2222 15.04 14.2222 15.0578 14.2489 15.0933C14.4089 15.36 15.5733 16.96 17.1022 17.6267C17.1733 17.6533 17.3867 17.7511 17.4044 17.7511C17.4222 17.7511 17.44 17.7244 17.4578 17.7067C17.5911 17.5556 18.0178 17.0489 18.1689 16.8444C18.2933 16.6578 18.4533 16.56 18.6489 16.56C18.7644 16.56 18.88 16.5956 18.9778 16.6311C19.2356 16.72 20.6578 17.4222 20.6933 17.44C20.88 17.5289 21.0311 17.6 21.1111 17.7422C21.2356 17.9467 21.1822 18.5156 20.9956 19.04V19.0578Z" fill="black"/>
<path d="M0 4.14222V27.8578C0 30.1422 1.85778 32 4.14222 32H27.8578C30.1422 32 32 30.1422 32 27.8578V4.14222C32 1.85778 30.1422 0 27.8578 0H4.14222C1.85778 0 0 1.85778 0 4.14222ZM16.1778 25.2889C14.5867 25.2889 13.0222 24.8978 11.6356 24.1511L6.56 25.76C6.50667 25.7778 6.45333 25.7778 6.4 25.76C6.26667 25.7156 6.19556 25.5733 6.24 25.44L7.89333 20.5778C7.03111 19.12 6.57778 17.4578 6.57778 15.76C6.57778 10.5067 10.8889 6.23111 16.1867 6.23111C21.4844 6.23111 25.7867 10.5067 25.7867 15.76C25.7867 21.0133 21.4756 25.2889 16.1867 25.2889H16.1778Z" fill="black"/>
</g>
<defs>
<clipPath id="clip0_24_2205">
<rect width="32" height="32" fill="white"/>
</clipPath>
</defs>
</svg>
