<svg width="32" height="32" viewBox="0 0 32 32" fill="none" xmlns="http://www.w3.org/2000/svg">
<g clip-path="url(#clip0_24_55)">
<path d="M29.0788 4.57333H19.3547L21.5823 2.34667C22.1159 1.81333 22.1159 0.946667 21.5823 0.413333C21.0488 -0.12 20.1817 -0.12 19.6348 0.413333L16.0067 4.04L12.3918 0.4C11.8583 -0.133333 10.9912 -0.133333 10.4444 0.4C9.9108 0.933333 9.9108 1.8 10.4444 2.33333L12.6853 4.56H2.93456C1.32055 4.56 0 5.86667 0 7.49333V24.88C0 26.4933 1.30721 27.8133 2.93456 27.8133H4.38849L2.9479 29.84C2.50771 30.4667 2.65444 31.3067 3.26803 31.7467C3.50813 31.92 3.78824 32 4.05502 32C4.48187 32 4.90871 31.8 5.17549 31.4133L7.73656 27.8133H24.2634L26.8245 31.4133C27.0913 31.7867 27.5181 32 27.945 32C28.2251 32 28.4919 31.92 28.732 31.7467C29.3456 31.3067 29.4923 30.4533 29.0521 29.84L27.6115 27.8133H29.0654C30.6795 27.8133 32 26.5067 32 24.88V7.49333C32 5.88 30.6928 4.56 29.0654 4.56L29.0788 4.57333ZM24.2368 21.7733C24.2368 22.84 23.3697 23.7067 22.3026 23.7067H5.00208C3.93497 23.7067 3.06795 22.84 3.06795 21.7733V10.28C3.06795 9.21333 3.93497 8.34667 5.00208 8.34667H22.3026C23.3697 8.34667 24.2368 9.21333 24.2368 10.28V21.7733ZM28.1717 18.1067C27.1713 18.1067 26.3576 17.2933 26.3576 16.2933C26.3576 15.2933 27.1713 14.48 28.1717 14.48C29.1722 14.48 29.9858 15.2933 29.9858 16.2933C29.9858 17.2933 29.1722 18.1067 28.1717 18.1067ZM28.1717 12.8667C27.1713 12.8667 26.3576 12.0533 26.3576 11.0533C26.3576 10.0533 27.1713 9.24 28.1717 9.24C29.1722 9.24 29.9858 10.0533 29.9858 11.0533C29.9858 12.0533 29.1722 12.8667 28.1717 12.8667Z" fill="black"/>
</g>
<defs>
<clipPath id="clip0_24_55">
<rect width="32" height="32" fill="white"/>
</clipPath>
</defs>
</svg>
